M48
; DRILL file KiCad 10.0.6 date 2026-10-08T10:50:33
; FORMAT={-:-/ absolute / metric / decimal}
; #@! TF.CreationDate,2026-10-08T10:50:33+03:00
; #@! TF.GenerationSoftware,Kicad,Pcbnew,10.0.6
; #@! TF.FileFunction,Plated,1,2,PTH
FMAT,2
METRIC
; #@! TA.AperFunction,Plated,PTH,ViaDrill
T1C0.300
; #@! TA.AperFunction,Plated,PTH,ComponentDrill
T2C0.600
; #@! TA.AperFunction,Plated,PTH,ComponentDrill
T3C1.000
%
G90
G05
T1
X5.681Y-124.634
X6.303Y-122.993
X7.294Y-108.313
X7.6Y-113.67
X7.663Y-125.195
X7.7Y-123.516
X8.2Y-121.37
X10.351Y-121.633
X10.413Y-117.444
X13.37Y-150.694
X13.598Y-156.135
X13.644Y-96.115
X15.2Y-112.35
X15.2Y-114.15
X15.25Y-113.25
X16.433Y-101.969
X16.545Y-100.108
X17.879Y-156.091
X18.12Y-67.237
X19.37Y-138.704
X19.37Y-156.14
X19.621Y-67.242
X20.066Y-81.116
X20.402Y-99.353
X21.92Y-102.248
X22.177Y-115.211
X22.195Y-68.542
X22.513Y-116.93
X22.702Y-121.054
X23.017Y-67.655
X23.129Y-97.545
X23.37Y-160.726
X23.789Y-174.91
X24.619Y-65.335
X24.627Y-68.244
X24.866Y-96.56
X25.045Y-14.662
X25.254Y-67.226
X25.334Y-111.408
X25.402Y-100.942
X25.799Y-112.947
X25.854Y-65.182
X26.064Y-101.756
X26.14Y-86.115
X26.206Y-114.347
X27.165Y-126.199
X27.37Y-104.199
X27.37Y-115.225
X27.37Y-138.695
X27.37Y-150.711
X27.92Y-172.603
X28.315Y-103.225
X29.103Y-174.991
X29.12Y-65.341
X29.432Y-12.895
X29.62Y-172.485
X30.011Y-65.274
X30.168Y-113.688
X30.324Y-91.177
X30.37Y-7.034
X30.37Y-130.805
X30.408Y-93.574
X30.588Y-107.499
X30.62Y-172.485
X30.724Y-63.415
X31.016Y-90.479
X31.307Y-10.284
X31.647Y-89.27
X31.982Y-7.794
X32.12Y-175.414
X32.192Y-115.718
X32.664Y-170.888
X32.797Y-148.592
X32.82Y-172.603
X33.131Y-129.53
X33.37Y-116.921
X33.37Y-126.197
X33.37Y-138.695
X33.37Y-150.711
X33.54Y-110.14
X33.604Y-142.469
X33.708Y-115.107
X35.245Y-65.318
X35.313Y-91.9
X35.44Y-115.851
X35.469Y-92.652
X35.537Y-70.8
X35.916Y-140.157
X36.151Y-91.516
X36.831Y-90.648
X36.97Y-174.929
X37.347Y-73.568
X37.37Y-160.726
X37.405Y-92.816
X37.589Y-116.836
X37.861Y-70.145
X37.891Y-126.703
X38.582Y-116.952
X39.619Y-67.228
X39.635Y-116.821
X39.862Y-71.323
X39.98Y-89.053
X40.021Y-118.103
X40.463Y-82.434
X40.882Y-90.919
X40.896Y-119.26
X41.24Y-115.239
X41.37Y-93.47
X41.37Y-138.704
X41.371Y-156.139
X42.861Y-156.089
X42.93Y-115.971
X43.643Y-114.623
X44.37Y-118.307
X44.77Y-70.364
X44.996Y-71.554
X45.417Y-93.434
X46.59Y-103.18
X46.639Y-156.089
X47.01Y-114.48
X47.365Y-101.445
X47.37Y-93.462
X47.75Y-115.28
X48.14Y-169.058
X49.834Y-154.038
X50.052Y-158.783
X51.137Y-139.047
X51.602Y-168.177
X51.684Y-137.521
X51.84Y-155.82
X51.84Y-156.92
X52.105Y-152.467
X52.105Y-160.278
X52.302Y-132.227
X52.811Y-138.753
X53.375Y-152.452
X53.64Y-155.82
X53.64Y-156.92
X54.177Y-131.266
X54.545Y-162.825
X54.627Y-166.053
X55.423Y-162.966
T3
X40.88Y-104.63
X40.88Y-106.53
X42.78Y-104.63
X42.78Y-106.53
T2
X26.05Y-174.15G85X26.05Y-175.25
G05
X26.05Y-178.58G85X26.05Y-179.18
G05
X34.69Y-174.15G85X34.69Y-175.25
G05
X34.69Y-178.58G85X34.69Y-179.18
G05
M30
