%TF.GenerationSoftware,KiCad,Pcbnew,10.0.6*%
%TF.CreationDate,2026-10-08T10:50:33+03:00*%
%TF.ProjectId,mainboard,6d61696e-626f-4617-9264-2e6b69636164,rev?*%
%TF.SameCoordinates,Original*%
%TF.FileFunction,Soldermask,Top*%
%TF.FilePolarity,Negative*%
%FSLAX46Y46*%
G04 Gerber Fmt 4.6, Leading zero omitted, Abs format (unit mm)*
G04 Created by KiCad (PCBNEW 10.0.6) date 2026-10-08 10:50:33*
%MOMM*%
%LPD*%
G01*
G04 APERTURE LIST*
G04 Aperture macros list*
%AMRoundRect*
0 Rectangle with rounded corners*
0 $1 Rounding radius*
0 $2 $3 $4 $5 $6 $7 $8 $9 X,Y pos of 4 corners*
0 Add a 4 corners polygon primitive as box body*
4,1,4,$2,$3,$4,$5,$6,$7,$8,$9,$2,$3,0*
0 Add four circle primitives for the rounded corners*
1,1,$1+$1,$2,$3*
1,1,$1+$1,$4,$5*
1,1,$1+$1,$6,$7*
1,1,$1+$1,$8,$9*
0 Add four rect primitives between the rounded corners*
20,1,$1+$1,$2,$3,$4,$5,0*
20,1,$1+$1,$4,$5,$6,$7,0*
20,1,$1+$1,$6,$7,$8,$9,0*
20,1,$1+$1,$8,$9,$2,$3,0*%
G04 Aperture macros list end*
%ADD10RoundRect,0.200000X-0.200000X-0.275000X0.200000X-0.275000X0.200000X0.275000X-0.200000X0.275000X0*%
%ADD11RoundRect,0.250000X0.625000X-0.312500X0.625000X0.312500X-0.625000X0.312500X-0.625000X-0.312500X0*%
%ADD12C,0.650000*%
%ADD13RoundRect,0.150000X-0.150000X-0.575000X0.150000X-0.575000X0.150000X0.575000X-0.150000X0.575000X0*%
%ADD14RoundRect,0.075000X-0.075000X-0.650000X0.075000X-0.650000X0.075000X0.650000X-0.075000X0.650000X0*%
%ADD15O,1.000000X2.100000*%
%ADD16O,1.000000X1.600000*%
%ADD17RoundRect,0.225000X-0.225000X-0.250000X0.225000X-0.250000X0.225000X0.250000X-0.225000X0.250000X0*%
%ADD18R,1.000000X0.750000*%
%ADD19RoundRect,0.200000X0.275000X-0.200000X0.275000X0.200000X-0.275000X0.200000X-0.275000X-0.200000X0*%
%ADD20RoundRect,0.150000X-0.587500X-0.150000X0.587500X-0.150000X0.587500X0.150000X-0.587500X0.150000X0*%
%ADD21RoundRect,0.150000X-0.512500X-0.150000X0.512500X-0.150000X0.512500X0.150000X-0.512500X0.150000X0*%
%ADD22RoundRect,0.150000X0.150000X-0.825000X0.150000X0.825000X-0.150000X0.825000X-0.150000X-0.825000X0*%
%ADD23R,3.300000X2.410000*%
%ADD24C,2.200000*%
%ADD25RoundRect,0.225000X0.250000X-0.225000X0.250000X0.225000X-0.250000X0.225000X-0.250000X-0.225000X0*%
%ADD26RoundRect,0.250000X-0.250000X-0.475000X0.250000X-0.475000X0.250000X0.475000X-0.250000X0.475000X0*%
%ADD27RoundRect,0.250000X0.475000X-0.250000X0.475000X0.250000X-0.475000X0.250000X-0.475000X-0.250000X0*%
%ADD28R,0.900000X1.200000*%
%ADD29RoundRect,0.225000X-0.225000X-0.375000X0.225000X-0.375000X0.225000X0.375000X-0.225000X0.375000X0*%
%ADD30C,1.525931*%
%ADD31R,0.300000X0.900000*%
%ADD32R,1.100000X1.800000*%
%ADD33R,0.600000X0.250000*%
%ADD34R,0.250000X0.600000*%
%ADD35RoundRect,0.087500X-0.662500X-0.087500X0.662500X-0.087500X0.662500X0.087500X-0.662500X0.087500X0*%
%ADD36R,0.280000X0.425000*%
%ADD37R,1.200000X0.800000*%
%ADD38R,1.500000X0.900000*%
%ADD39C,0.617043*%
%ADD40RoundRect,0.182000X-0.000010X-0.241500X0.000010X-0.241500X0.000010X0.241500X-0.000010X0.241500X0*%
%ADD41C,1.500000*%
G04 APERTURE END LIST*
D10*
%TO.C,R12*%
X7375000Y-135370000D03*
X9025000Y-135370000D03*
%TD*%
D11*
%TO.C,R7*%
X54840000Y-129092500D03*
X54840000Y-126167500D03*
%TD*%
D12*
%TO.C,J3*%
X27480000Y-175230000D03*
X33260000Y-175230000D03*
D13*
X27120000Y-173785000D03*
X27920000Y-173785000D03*
D14*
X29120000Y-173785000D03*
X30120000Y-173785000D03*
X30620000Y-173785000D03*
X31620000Y-173785000D03*
D13*
X32820000Y-173785000D03*
X33620000Y-173785000D03*
X33620000Y-173785000D03*
X32820000Y-173785000D03*
D14*
X32120000Y-173785000D03*
X31120000Y-173785000D03*
X29620000Y-173785000D03*
X28620000Y-173785000D03*
D13*
X27920000Y-173785000D03*
X27120000Y-173785000D03*
D15*
X26050000Y-174700000D03*
D16*
X26050000Y-178880000D03*
D15*
X34690000Y-174700000D03*
D16*
X34690000Y-178880000D03*
%TD*%
D17*
%TO.C,C15*%
X52465000Y-141630000D03*
X54015000Y-141630000D03*
%TD*%
D18*
%TO.C,SW4*%
X16370000Y-116055000D03*
X22370000Y-116055000D03*
X16370000Y-119805000D03*
X22370000Y-119805000D03*
%TD*%
%TO.C,SW8*%
X13370000Y-139555000D03*
X19370000Y-139555000D03*
X13370000Y-143305000D03*
X19370000Y-143305000D03*
%TD*%
D17*
%TO.C,C4*%
X45815000Y-100480000D03*
X47365000Y-100480000D03*
%TD*%
D19*
%TO.C,R17*%
X23770000Y-174055000D03*
X23770000Y-172405000D03*
%TD*%
%TO.C,R8*%
X51640000Y-136655000D03*
X51640000Y-135005000D03*
%TD*%
D20*
%TO.C,Q1*%
X29432500Y-11770000D03*
X29432500Y-13670000D03*
X31307500Y-12720000D03*
%TD*%
D21*
%TO.C,U2*%
X45452500Y-102230000D03*
X45452500Y-103180000D03*
X45452500Y-104130000D03*
X47727500Y-104130000D03*
X47727500Y-102230000D03*
%TD*%
D17*
%TO.C,C18*%
X8425000Y-143030000D03*
X9975000Y-143030000D03*
%TD*%
D22*
%TO.C,U5*%
X50835000Y-158845000D03*
X52105000Y-158845000D03*
X53375000Y-158845000D03*
X54645000Y-158845000D03*
X54645000Y-153895000D03*
X53375000Y-153895000D03*
X52105000Y-153895000D03*
X50835000Y-153895000D03*
D23*
X52740000Y-156370000D03*
%TD*%
D24*
%TO.C,H6*%
X49240000Y-173730000D03*
%TD*%
D25*
%TO.C,C7*%
X7000000Y-111345000D03*
X7000000Y-109795000D03*
%TD*%
D26*
%TO.C,C5*%
X45640000Y-105980000D03*
X47540000Y-105980000D03*
%TD*%
D19*
%TO.C,R3*%
X33270000Y-9545000D03*
X33270000Y-7895000D03*
%TD*%
D27*
%TO.C,C14*%
X11400000Y-120120000D03*
X11400000Y-118220000D03*
%TD*%
D28*
%TO.C,D2*%
X34920000Y-5020000D03*
X31620000Y-5020000D03*
%TD*%
D20*
%TO.C,Q3*%
X51602500Y-167420000D03*
X51602500Y-169320000D03*
X53477500Y-168370000D03*
%TD*%
D18*
%TO.C,SW3*%
X27370000Y-116055000D03*
X33370000Y-116055000D03*
X27370000Y-119805000D03*
X33370000Y-119805000D03*
%TD*%
D29*
%TO.C,D3*%
X50890000Y-164970000D03*
X54190000Y-164970000D03*
%TD*%
D24*
%TO.C,H2*%
X54440000Y-121630000D03*
%TD*%
%TO.C,H5*%
X11500000Y-173730000D03*
%TD*%
D26*
%TO.C,C16*%
X20020000Y-101040000D03*
X21920000Y-101040000D03*
%TD*%
D25*
%TO.C,C6*%
X30370000Y-9495000D03*
X30370000Y-7945000D03*
%TD*%
D28*
%TO.C,D1*%
X29120000Y-5020000D03*
X25820000Y-5020000D03*
%TD*%
D24*
%TO.C,H4*%
X54440000Y-145930000D03*
%TD*%
D18*
%TO.C,SW7*%
X27370000Y-139555000D03*
X33370000Y-139555000D03*
X27370000Y-143305000D03*
X33370000Y-143305000D03*
%TD*%
D25*
%TO.C,C13*%
X5300000Y-122445000D03*
X5300000Y-120895000D03*
%TD*%
D17*
%TO.C,C8*%
X13425000Y-110600000D03*
X14975000Y-110600000D03*
%TD*%
D30*
%TO.C,LOGO_FRONT2*%
X42607034Y-34787399D03*
%TD*%
D17*
%TO.C,C2*%
X45815000Y-109980000D03*
X47365000Y-109980000D03*
%TD*%
D19*
%TO.C,R2*%
X27470000Y-9545000D03*
X27470000Y-7895000D03*
%TD*%
D18*
%TO.C,SW6*%
X41370000Y-139555000D03*
X47370000Y-139555000D03*
X41370000Y-143305000D03*
X47370000Y-143305000D03*
%TD*%
D10*
%TO.C,R20*%
X16545000Y-101040000D03*
X18195000Y-101040000D03*
%TD*%
D18*
%TO.C,SW2*%
X38370000Y-116055000D03*
X44370000Y-116055000D03*
X38370000Y-119805000D03*
X44370000Y-119805000D03*
%TD*%
%TO.C,SW5*%
X27370000Y-127055000D03*
X33370000Y-127055000D03*
X27370000Y-130805000D03*
X33370000Y-130805000D03*
%TD*%
D19*
%TO.C,R9*%
X54840000Y-136655000D03*
X54840000Y-135005000D03*
%TD*%
D18*
%TO.C,SW1*%
X27370000Y-105055000D03*
X33370000Y-105055000D03*
X27370000Y-108805000D03*
X33370000Y-108805000D03*
%TD*%
D26*
%TO.C,C1*%
X45640000Y-108080000D03*
X47540000Y-108080000D03*
%TD*%
D19*
%TO.C,R16*%
X49940000Y-151595000D03*
X49940000Y-149945000D03*
%TD*%
D18*
%TO.C,SW11*%
X13370000Y-151555000D03*
X19370000Y-151555000D03*
X13370000Y-155305000D03*
X19370000Y-155305000D03*
%TD*%
D31*
%TO.C,J1*%
X18120000Y-66286800D03*
X18620000Y-66286800D03*
X19120000Y-66286800D03*
X19620000Y-66286800D03*
X20120000Y-66286800D03*
X20620000Y-66286800D03*
X21120000Y-66286800D03*
X21620000Y-66286800D03*
X22120000Y-66286800D03*
X22620000Y-66286800D03*
X23120000Y-66286800D03*
X23620000Y-66286800D03*
X24120000Y-66286800D03*
X24620000Y-66286800D03*
X25120000Y-66286800D03*
X25620000Y-66286800D03*
X26120000Y-66286800D03*
X26620000Y-66286800D03*
X27120000Y-66286800D03*
X27620000Y-66286800D03*
X28120000Y-66286800D03*
X28620000Y-66286800D03*
X29120000Y-66286800D03*
X29620000Y-66286800D03*
X30120000Y-66286800D03*
X30620000Y-66286800D03*
X31120000Y-66286800D03*
X31620000Y-66286800D03*
X32120000Y-66286800D03*
X32620000Y-66286800D03*
X33120000Y-66286800D03*
X33620000Y-66286800D03*
X34120000Y-66286800D03*
X34620000Y-66286800D03*
X35120000Y-66286800D03*
X35620000Y-66286800D03*
X36120000Y-66286800D03*
X36620000Y-66286800D03*
X37120000Y-66286800D03*
X37620000Y-66286800D03*
X38120000Y-66286800D03*
X38620000Y-66286800D03*
X39120000Y-66286800D03*
X39620000Y-66286800D03*
X40120000Y-66286800D03*
X40620000Y-66286800D03*
X41120000Y-66286800D03*
X41620000Y-66286800D03*
X42120000Y-66286800D03*
X42620000Y-66286800D03*
D32*
X44770000Y-68986800D03*
X15970000Y-68986800D03*
%TD*%
D19*
%TO.C,R19*%
X48140000Y-168195000D03*
X48140000Y-166545000D03*
%TD*%
D10*
%TO.C,R13*%
X7375000Y-137370000D03*
X9025000Y-137370000D03*
%TD*%
D24*
%TO.C,H1*%
X6300000Y-103430000D03*
%TD*%
D33*
%TO.C,U4*%
X6850000Y-120370000D03*
X6850000Y-120870000D03*
X6850000Y-121370000D03*
X6850000Y-121870000D03*
X6850000Y-122370000D03*
D34*
X7700000Y-122720000D03*
X8200000Y-122720000D03*
X8700000Y-122720000D03*
D33*
X9550000Y-122370000D03*
X9550000Y-121870000D03*
X9550000Y-121370000D03*
X9550000Y-120870000D03*
X9550000Y-120370000D03*
D34*
X8700000Y-120020000D03*
X8200000Y-120020000D03*
X7700000Y-120020000D03*
%TD*%
D26*
%TO.C,C12*%
X52990000Y-149770000D03*
X54890000Y-149770000D03*
%TD*%
%TO.C,C11*%
X51790000Y-161970000D03*
X53690000Y-161970000D03*
%TD*%
D19*
%TO.C,R18*%
X36970000Y-174055000D03*
X36970000Y-172405000D03*
%TD*%
D35*
%TO.C,U3*%
X9300000Y-112170000D03*
X9300000Y-112670000D03*
X9300000Y-113170000D03*
X9300000Y-113670000D03*
X9300000Y-114170000D03*
X13500000Y-114170000D03*
X13500000Y-113670000D03*
X13500000Y-113170000D03*
X13500000Y-112670000D03*
X13500000Y-112170000D03*
%TD*%
D18*
%TO.C,SW10*%
X27370000Y-151555000D03*
X33370000Y-151555000D03*
X27370000Y-155305000D03*
X33370000Y-155305000D03*
%TD*%
D10*
%TO.C,R5*%
X28845000Y-15220000D03*
X30495000Y-15220000D03*
%TD*%
D36*
%TO.C,U8*%
X8450000Y-141368000D03*
X8950000Y-141368000D03*
X9450000Y-141368000D03*
X9950000Y-141368000D03*
X9950000Y-139492000D03*
X9450000Y-139492000D03*
X8950000Y-139492000D03*
X8450000Y-139492000D03*
D37*
X9200000Y-140430000D03*
%TD*%
D17*
%TO.C,C9*%
X7625000Y-118570000D03*
X9175000Y-118570000D03*
%TD*%
D38*
%TO.C,U6*%
X16020000Y-95670000D03*
X16020000Y-98210000D03*
X21920000Y-98210000D03*
X21920000Y-95670000D03*
%TD*%
D19*
%TO.C,R11*%
X7000000Y-116795000D03*
X7000000Y-115145000D03*
%TD*%
D11*
%TO.C,R6*%
X51640000Y-129092500D03*
X51640000Y-126167500D03*
%TD*%
D10*
%TO.C,R1*%
X42765000Y-111580000D03*
X44415000Y-111580000D03*
%TD*%
%TO.C,R4*%
X25045000Y-13720000D03*
X26695000Y-13720000D03*
%TD*%
D20*
%TO.C,Q2*%
X52302500Y-131080000D03*
X52302500Y-132980000D03*
X54177500Y-132030000D03*
%TD*%
D39*
%TO.C,LOGO_FRONT1*%
X18341843Y-37863860D03*
%TD*%
D18*
%TO.C,SW14*%
X41370000Y-94305000D03*
X47370000Y-94305000D03*
X41370000Y-98055000D03*
X47370000Y-98055000D03*
%TD*%
D24*
%TO.C,H3*%
X6300000Y-145930000D03*
%TD*%
D18*
%TO.C,SW9*%
X41370000Y-151555000D03*
X47370000Y-151555000D03*
X41370000Y-155305000D03*
X47370000Y-155305000D03*
%TD*%
D17*
%TO.C,C17*%
X12395000Y-98780000D03*
X13945000Y-98780000D03*
%TD*%
D18*
%TO.C,SW12*%
X37370000Y-161555000D03*
X43370000Y-161555000D03*
X37370000Y-165305000D03*
X43370000Y-165305000D03*
%TD*%
D17*
%TO.C,C3*%
X42815000Y-109880000D03*
X44365000Y-109880000D03*
%TD*%
D40*
%TO.C,U7*%
X12520000Y-97178000D03*
X13170000Y-97178000D03*
X13820000Y-97178000D03*
X13820000Y-95182000D03*
X13170000Y-95182000D03*
X12520000Y-95182000D03*
%TD*%
D18*
%TO.C,SW13*%
X17370000Y-161555000D03*
X23370000Y-161555000D03*
X17370000Y-165305000D03*
X23370000Y-165305000D03*
%TD*%
D10*
%TO.C,R10*%
X52415000Y-139830000D03*
X54065000Y-139830000D03*
%TD*%
D41*
%TO.C,U1*%
X40879999Y-106530000D03*
X42780000Y-106530000D03*
X40879999Y-104630000D03*
X42780000Y-104630000D03*
%TD*%
M02*
