%TF.GenerationSoftware,KiCad,Pcbnew,10.0.6*%
%TF.CreationDate,2026-10-08T10:50:33+03:00*%
%TF.ProjectId,mainboard,6d61696e-626f-4617-9264-2e6b69636164,rev?*%
%TF.SameCoordinates,Original*%
%TF.FileFunction,Copper,L2,Bot*%
%TF.FilePolarity,Positive*%
%FSLAX46Y46*%
G04 Gerber Fmt 4.6, Leading zero omitted, Abs format (unit mm)*
G04 Created by KiCad (PCBNEW 10.0.6) date 2026-10-08 10:50:33*
%MOMM*%
%LPD*%
G01*
G04 APERTURE LIST*
%TA.AperFunction,ComponentPad*%
%ADD10O,1.000000X2.100000*%
%TD*%
%TA.AperFunction,ComponentPad*%
%ADD11O,1.000000X1.600000*%
%TD*%
%TA.AperFunction,SMDPad,CuDef*%
%ADD12R,0.900000X1.500000*%
%TD*%
%TA.AperFunction,SMDPad,CuDef*%
%ADD13R,1.500000X0.900000*%
%TD*%
%TA.AperFunction,HeatsinkPad*%
%ADD14C,1.500000*%
%TD*%
%TA.AperFunction,HeatsinkPad*%
%ADD15R,3.900000X3.900000*%
%TD*%
%TA.AperFunction,SMDPad,CuDef*%
%ADD16R,1.500000X1.500000*%
%TD*%
%TA.AperFunction,SMDPad,CuDef*%
%ADD17C,0.949297*%
%TD*%
%TA.AperFunction,SMDPad,CuDef*%
%ADD18R,1.200000X1.600000*%
%TD*%
%TA.AperFunction,SMDPad,CuDef*%
%ADD19R,2.000000X2.000000*%
%TD*%
%TA.AperFunction,SMDPad,CuDef*%
%ADD20C,2.347587*%
%TD*%
%TA.AperFunction,ViaPad*%
%ADD21C,0.600000*%
%TD*%
%TA.AperFunction,ViaPad*%
%ADD22C,0.500000*%
%TD*%
%TA.AperFunction,Conductor*%
%ADD23C,0.300000*%
%TD*%
%TA.AperFunction,Conductor*%
%ADD24C,0.150000*%
%TD*%
%TA.AperFunction,Conductor*%
%ADD25C,0.400000*%
%TD*%
%TA.AperFunction,Conductor*%
%ADD26C,0.500000*%
%TD*%
G04 APERTURE END LIST*
D10*
%TO.P,J3,SH*%
%TO.N,GND*%
X26050000Y-174700000D03*
D11*
X26050000Y-178880000D03*
D10*
X34690000Y-174700000D03*
D11*
X34690000Y-178880000D03*
%TD*%
D12*
%TO.P,U1,1*%
%TO.N,GND*%
X49550000Y-112830000D03*
%TO.P,U1,2*%
%TO.N,3V3*%
X48280000Y-112830000D03*
%TO.P,U1,3*%
%TO.N,EN*%
X47010000Y-112830000D03*
%TO.P,U1,4*%
%TO.N,K_UP*%
X45740000Y-112830000D03*
%TO.P,U1,5*%
%TO.N,K_RIGHT*%
X44470000Y-112830000D03*
%TO.P,U1,6*%
%TO.N,K_LEFT*%
X43200000Y-112830000D03*
%TO.P,U1,7*%
%TO.N,K_DOWN*%
X41930000Y-112830000D03*
%TO.P,U1,8*%
%TO.N,K_BACK*%
X40660000Y-112830000D03*
%TO.P,U1,9*%
%TO.N,K_HOME*%
X39390000Y-112830000D03*
%TO.P,U1,10*%
%TO.N,K_MUTE*%
X38120000Y-112830000D03*
%TO.P,U1,11*%
%TO.N,K_PLEX*%
X36850000Y-112830000D03*
%TO.P,U1,12*%
%TO.N,K_NFLX*%
X35580000Y-112830000D03*
%TO.P,U1,13*%
%TO.N,USB_DN*%
X34310000Y-112830000D03*
%TO.P,U1,14*%
%TO.N,USB_DP*%
X33040000Y-112830000D03*
D13*
%TO.P,U1,15*%
%TO.N,STDBY*%
X31790000Y-111065000D03*
%TO.P,U1,16*%
%TO.N,BL_PWM*%
X31790000Y-109795000D03*
%TO.P,U1,17*%
%TO.N,K_YT*%
X31790000Y-108525000D03*
%TO.P,U1,18*%
%TO.N,K_VOLUP*%
X31790000Y-107255000D03*
%TO.P,U1,19*%
%TO.N,K_VOLDN*%
X31790000Y-105985000D03*
%TO.P,U1,20*%
%TO.N,CHRG*%
X31790000Y-104715000D03*
%TO.P,U1,21*%
%TO.N,K_PWR*%
X31790000Y-103445000D03*
%TO.P,U1,22*%
%TO.N,TP_INT*%
X31790000Y-102175000D03*
%TO.P,U1,23*%
%TO.N,LCD_DC*%
X31790000Y-100905000D03*
%TO.P,U1,24*%
%TO.N,SDA*%
X31790000Y-99635000D03*
%TO.P,U1,25*%
%TO.N,SCL*%
X31790000Y-98365000D03*
%TO.P,U1,26*%
%TO.N,IR_TX*%
X31790000Y-97095000D03*
D12*
%TO.P,U1,27*%
%TO.N,K_OK*%
X33040000Y-95330000D03*
%TO.P,U1,28*%
%TO.N,LCD_D0*%
X34310000Y-95330000D03*
%TO.P,U1,29*%
%TO.N,LCD_D1*%
X35580000Y-95330000D03*
%TO.P,U1,30*%
%TO.N,LCD_D2*%
X36850000Y-95330000D03*
%TO.P,U1,31*%
%TO.N,LCD_D3*%
X38120000Y-95330000D03*
%TO.P,U1,32*%
%TO.N,LCD_D4*%
X39390000Y-95330000D03*
%TO.P,U1,33*%
%TO.N,LCD_D5*%
X40660000Y-95330000D03*
%TO.P,U1,34*%
%TO.N,LCD_D6*%
X41930000Y-95330000D03*
%TO.P,U1,35*%
%TO.N,IR_RX*%
X43200000Y-95330000D03*
%TO.P,U1,36*%
%TO.N,LCD_WR*%
X44470000Y-95330000D03*
%TO.P,U1,37*%
%TO.N,LCD_D7*%
X45740000Y-95330000D03*
%TO.P,U1,38*%
%TO.N,ACC_INT*%
X47010000Y-95330000D03*
%TO.P,U1,39*%
%TO.N,IRRX_PWR*%
X48280000Y-95330000D03*
%TO.P,U1,40*%
%TO.N,GND*%
X49550000Y-95330000D03*
D14*
%TO.P,U1,41*%
X40879999Y-106530000D03*
X42780000Y-106530000D03*
D15*
X41830000Y-105580000D03*
D14*
X40879999Y-104630000D03*
X42780000Y-104630000D03*
%TD*%
D16*
%TO.P,TP3,1*%
%TO.N,EN*%
X46990000Y-117080000D03*
%TD*%
D17*
%TO.P,LOGO_BACK1,*%
%TO.N,*%
X48874856Y-28329016D03*
%TD*%
D18*
%TO.P,M1,1*%
%TO.N,MOT_P*%
X9300000Y-134970000D03*
%TO.P,M1,2*%
%TO.N,MOT_N*%
X6300000Y-134970000D03*
%TD*%
D19*
%TO.P,TP1,1*%
%TO.N,VBAT*%
X12000000Y-92460000D03*
%TD*%
D16*
%TO.P,TP4,1*%
%TO.N,GND*%
X43990000Y-117080000D03*
%TD*%
D19*
%TO.P,TP2,1*%
%TO.N,GND*%
X16000000Y-92460000D03*
%TD*%
D20*
%TO.P,LOGO_BACK2,*%
%TO.N,*%
X11543793Y-23595998D03*
%TD*%
D21*
%TO.N,3V3*%
X39618900Y-67228500D03*
X25854300Y-65181900D03*
X13644500Y-96114600D03*
X51683700Y-137520600D03*
X47750000Y-115280000D03*
X39862100Y-71322900D03*
%TO.N,SDA*%
X10412700Y-117443900D03*
X7700000Y-123516500D03*
%TO.N,GND*%
X52302500Y-132227400D03*
X13370000Y-150694200D03*
X41370000Y-138703600D03*
D22*
X47365000Y-101445000D03*
D21*
X37370000Y-160725700D03*
X51840000Y-156920000D03*
X51840000Y-155820000D03*
D22*
X46590000Y-103180000D03*
D21*
X35245200Y-65317900D03*
X33131499Y-129530500D03*
X18120000Y-67236600D03*
X23370000Y-160725700D03*
X21920000Y-102247500D03*
X6303400Y-122993200D03*
X37589200Y-116835800D03*
X7600000Y-113670000D03*
X44370000Y-118306600D03*
D22*
X54545000Y-162825000D03*
D21*
X27370000Y-115225300D03*
X33370000Y-116920600D03*
X27165500Y-126198800D03*
X27370000Y-138695200D03*
X33540100Y-110139679D03*
X42860900Y-156089400D03*
X8200000Y-121370000D03*
X22177500Y-115210800D03*
X33370000Y-126196600D03*
X53640000Y-156920000D03*
X30370000Y-7033900D03*
X53640000Y-155820000D03*
X44770000Y-70363900D03*
X33370000Y-138695200D03*
X33370000Y-150711100D03*
X27370000Y-104198700D03*
X17879100Y-156091000D03*
X47370000Y-93462500D03*
X27370000Y-150711100D03*
X7663200Y-125195000D03*
X29432500Y-12894900D03*
X24627319Y-68243962D03*
X19370000Y-138703600D03*
X15250000Y-113250000D03*
X41370000Y-93470200D03*
%TO.N,VBUS*%
X27920000Y-172603500D03*
X50052100Y-158782600D03*
X32820000Y-172603500D03*
X48140000Y-169057800D03*
X51602500Y-168177000D03*
%TO.N,CC1*%
X29103400Y-174991400D03*
X23789300Y-174909700D03*
%TO.N,USB_DP*%
X26206000Y-114347100D03*
%TO.N,USB_DN*%
X32191900Y-115718100D03*
D22*
X29620000Y-172485000D03*
D21*
X32663900Y-170887800D03*
D22*
X30620000Y-172485000D03*
D21*
%TO.N,CC2*%
X32120000Y-175413800D03*
X36970000Y-174929000D03*
%TO.N,LCD_RST*%
X52811000Y-138752700D03*
X19621200Y-67241600D03*
X37861000Y-70144800D03*
X40896500Y-119260200D03*
%TO.N,K_LEFT*%
X22702300Y-121054200D03*
%TO.N,K_MUTE*%
X22513400Y-116929600D03*
%TO.N,BL_PWM*%
X51136600Y-139047300D03*
%TO.N,LED_K*%
X31307500Y-10284500D03*
X31981600Y-7794200D03*
%TO.N,VBAT*%
X5681500Y-124633700D03*
X55422900Y-162966400D03*
X54626900Y-166052600D03*
%TO.N,PROG*%
X49833500Y-154037900D03*
X52105000Y-160277800D03*
%TO.N,STDBY*%
X32797400Y-148592100D03*
X53375000Y-152451800D03*
X30168100Y-113687900D03*
%TO.N,CHRG*%
X52105000Y-152466900D03*
%TO.N,K_OK*%
X30408100Y-93573900D03*
%TO.N,K_HOME*%
X33604400Y-142468900D03*
X38582200Y-116952300D03*
X35916300Y-140157000D03*
%TO.N,K_BACK*%
X39635300Y-116821000D03*
%TO.N,IRRX_PWR*%
X16545000Y-100108000D03*
%TO.N,K_RIGHT*%
X43643300Y-114623200D03*
%TO.N,K_DOWN*%
X30370000Y-130805000D03*
X41240200Y-115239400D03*
X37890800Y-126702700D03*
%TO.N,K_UP*%
X40021500Y-118102600D03*
%TO.N,K_YT*%
X25799300Y-112946500D03*
X19370000Y-156140200D03*
X13598200Y-156134900D03*
%TO.N,TP_INT*%
X20065500Y-81116400D03*
X26064300Y-101755700D03*
X26140500Y-86114600D03*
%TO.N,SCL*%
X7293700Y-108313000D03*
X16433500Y-101969300D03*
X20402200Y-99352600D03*
%TO.N,LCD_DC*%
X24618900Y-65335100D03*
X23016800Y-67654900D03*
X25402300Y-100942300D03*
%TO.N,LCD_WR*%
X25253900Y-67225800D03*
X40463500Y-82433800D03*
X40882000Y-90919400D03*
%TO.N,LCD_D0*%
X30324300Y-91176900D03*
%TO.N,LCD_D1*%
X31016000Y-90479000D03*
%TO.N,LCD_D2*%
X35469400Y-92652200D03*
%TO.N,LCD_D3*%
X35312600Y-91900400D03*
%TO.N,LCD_D4*%
X37346900Y-73567800D03*
X37404800Y-92816000D03*
X29120000Y-65340900D03*
%TO.N,LCD_D5*%
X36150500Y-91516200D03*
%TO.N,LCD_D6*%
X35537000Y-70799900D03*
X30011200Y-65274100D03*
X36830500Y-90647600D03*
%TO.N,LCD_D7*%
X45417200Y-93433700D03*
X30723600Y-63415000D03*
X44995600Y-71554200D03*
%TO.N,BL_K*%
X42929800Y-115970500D03*
X54177500Y-131266100D03*
%TO.N,ACC_INT*%
X10350900Y-121633100D03*
%TO.N,MOT_P*%
X15200000Y-114150000D03*
%TO.N,MOT_N*%
X15200000Y-112350000D03*
D22*
%TO.N,K_NFLX*%
X33707600Y-115107200D03*
D21*
%TO.N,IR_RX*%
X23129300Y-97545000D03*
%TO.N,EN*%
X47010000Y-114480000D03*
%TO.N,IR_TX*%
X24866200Y-96559800D03*
X25045000Y-14661700D03*
X22194600Y-68541800D03*
%TO.N,K_PWR*%
X31647300Y-89270100D03*
X28314600Y-103224700D03*
X39979600Y-89053300D03*
%TO.N,K_PLEX*%
X35439600Y-115850900D03*
X41371200Y-156139000D03*
X46639400Y-156089400D03*
%TO.N,K_VOLUP*%
X30588200Y-107498900D03*
%TO.N,K_VOLDN*%
X25334300Y-111407900D03*
%TD*%
%TO.N,3V3*%
D23*
X51683700Y-137520600D02*
X51683700Y-119213700D01*
X13644500Y-96114600D02*
X13644500Y-77986400D01*
X51683700Y-119213700D02*
X47750000Y-115280000D01*
X24632200Y-66998700D02*
X24632200Y-66404000D01*
X39862100Y-71322900D02*
X39618900Y-71079700D01*
X24632200Y-66404000D02*
X25854300Y-65181900D01*
X48280000Y-112830000D02*
X47750000Y-115280000D01*
X37013400Y-64623000D02*
X39618900Y-67228500D01*
X39618900Y-71079700D02*
X39618900Y-67228500D01*
X25854300Y-65181900D02*
X26413200Y-64623000D01*
X26413200Y-64623000D02*
X37013400Y-64623000D01*
X13644500Y-77986400D02*
X24632200Y-66998700D01*
%TO.N,SDA*%
D24*
X13793500Y-114063100D02*
X13793500Y-109555200D01*
X10412700Y-120803800D02*
X7700000Y-123516500D01*
X10412700Y-117443900D02*
X13793500Y-114063100D01*
X23713700Y-99635000D02*
X31790000Y-99635000D01*
X10412700Y-117443900D02*
X10412700Y-120803800D01*
X13793500Y-109555200D02*
X23713700Y-99635000D01*
%TO.N,GND*%
D25*
X49290000Y-112830000D02*
X49290000Y-111680000D01*
X49290000Y-111680000D02*
X43030000Y-106780000D01*
X49290000Y-95330000D02*
X49290000Y-96480000D01*
X49290000Y-96480000D02*
X43030000Y-104380000D01*
%TO.N,VBUS*%
D23*
X51602500Y-168177000D02*
X49020800Y-168177000D01*
X32322600Y-173100900D02*
X32820000Y-172603500D01*
X50052100Y-158782600D02*
X50052100Y-166626600D01*
X48140000Y-169057800D02*
X36365700Y-169057800D01*
X36365700Y-169057800D02*
X32820000Y-172603500D01*
X28417400Y-173100900D02*
X32322600Y-173100900D01*
X49020800Y-168177000D02*
X48140000Y-169057800D01*
X50052100Y-166626600D02*
X51602500Y-168177000D01*
X27920000Y-172603500D02*
X28417400Y-173100900D01*
%TO.N,CC1*%
D24*
X27496100Y-173384100D02*
X29103400Y-174991400D01*
X25314900Y-173384100D02*
X27496100Y-173384100D01*
X23789300Y-174909700D02*
X25314900Y-173384100D01*
%TO.N,USB_DP*%
X32499600Y-114347100D02*
X26206000Y-114347100D01*
X33040000Y-112830000D02*
X33040000Y-113806700D01*
X33040000Y-113806700D02*
X32499600Y-114347100D01*
%TO.N,USB_DN*%
X32191900Y-115718100D02*
X34103300Y-113806700D01*
X30620000Y-172485000D02*
X29620000Y-172485000D01*
X32663900Y-170887800D02*
X32217200Y-170887800D01*
X34103300Y-113806700D02*
X34310000Y-113806700D01*
X32217200Y-170887800D02*
X30620000Y-172485000D01*
X34310000Y-112830000D02*
X34310000Y-113806700D01*
%TO.N,CC2*%
X36970000Y-174929000D02*
X35712000Y-176187000D01*
X32893200Y-176187000D02*
X32120000Y-175413800D01*
X35712000Y-176187000D02*
X32893200Y-176187000D01*
%TO.N,LCD_RST*%
X52811000Y-138752700D02*
X52578900Y-138520600D01*
X40896500Y-128181800D02*
X40896500Y-119260200D01*
X45571200Y-69441700D02*
X45571200Y-71737000D01*
X24024700Y-62838100D02*
X38967600Y-62838100D01*
X38967600Y-62838100D02*
X45571200Y-69441700D01*
X51235300Y-138520600D02*
X40896500Y-128181800D01*
X19621200Y-67241600D02*
X24024700Y-62838100D01*
X45227100Y-72081100D02*
X39797300Y-72081100D01*
X52578900Y-138520600D02*
X51235300Y-138520600D01*
X39797300Y-72081100D02*
X37861000Y-70144800D01*
X45571200Y-71737000D02*
X45227100Y-72081100D01*
%TO.N,K_LEFT*%
X43200000Y-114099900D02*
X36245700Y-121054200D01*
X43200000Y-112830000D02*
X43200000Y-114099900D01*
X36245700Y-121054200D02*
X22702300Y-121054200D01*
%TO.N,K_MUTE*%
X35581500Y-116453900D02*
X38120000Y-113915400D01*
X23065900Y-116377100D02*
X34438400Y-116377100D01*
X34438400Y-116377100D02*
X34515200Y-116453900D01*
X38120000Y-112830000D02*
X38120000Y-113806700D01*
X34515200Y-116453900D02*
X35581500Y-116453900D01*
X38120000Y-113915400D02*
X38120000Y-113806700D01*
X22513400Y-116929600D02*
X23065900Y-116377100D01*
%TO.N,BL_PWM*%
X21945400Y-121042200D02*
X21945400Y-116686700D01*
X51136600Y-139047300D02*
X33871900Y-121782600D01*
X30436500Y-109795000D02*
X31790000Y-109795000D01*
X26693600Y-113537900D02*
X30436500Y-109795000D01*
X33871900Y-121782600D02*
X22685800Y-121782600D01*
X25094200Y-113537900D02*
X26693600Y-113537900D01*
X22685800Y-121782600D02*
X21945400Y-121042200D01*
X21945400Y-116686700D02*
X25094200Y-113537900D01*
%TO.N,LED_K*%
D23*
X31307500Y-8468300D02*
X31307500Y-10284500D01*
X31981600Y-7794200D02*
X31307500Y-8468300D01*
%TO.N,VBAT*%
D26*
X50887000Y-158624600D02*
X46710400Y-154448000D01*
X5599300Y-124551500D02*
X5599300Y-106952700D01*
X5294900Y-136832500D02*
X5294900Y-125020300D01*
X54626900Y-163762400D02*
X55422900Y-162966400D01*
X5599300Y-106952700D02*
X12000000Y-100552000D01*
X50887000Y-160165600D02*
X50887000Y-158624600D01*
X46710400Y-154448000D02*
X22910400Y-154448000D01*
X54483800Y-163762400D02*
X50887000Y-160165600D01*
X5681500Y-124633700D02*
X5599300Y-124551500D01*
X22910400Y-154448000D02*
X5294900Y-136832500D01*
X12000000Y-100552000D02*
X12000000Y-92460000D01*
X54626900Y-166052600D02*
X54626900Y-163762400D01*
X54626900Y-163762400D02*
X54483800Y-163762400D01*
X5294900Y-125020300D02*
X5681500Y-124633700D01*
%TO.N,PROG*%
D24*
X49833500Y-154037900D02*
X49833500Y-155996300D01*
X52105000Y-158267800D02*
X52105000Y-160277800D01*
X49833500Y-155996300D02*
X52105000Y-158267800D01*
%TO.N,STDBY*%
X52819300Y-153007500D02*
X37212800Y-153007500D01*
X31790000Y-111065000D02*
X30813300Y-111065000D01*
X30813300Y-113042700D02*
X30813300Y-111065000D01*
X37212800Y-153007500D02*
X32797400Y-148592100D01*
X30168100Y-113687900D02*
X30813300Y-113042700D01*
X53375000Y-152451800D02*
X52819300Y-153007500D01*
%TO.N,CHRG*%
X21602800Y-113925500D02*
X21602800Y-122788800D01*
X31790000Y-104715000D02*
X30813300Y-104715000D01*
X38217800Y-138579700D02*
X52105000Y-152466900D01*
X21602800Y-122788800D02*
X37393700Y-138579700D01*
X30813300Y-104715000D02*
X21602800Y-113925500D01*
X37393700Y-138579700D02*
X38217800Y-138579700D01*
%TO.N,K_OK*%
X31187500Y-94353300D02*
X33040000Y-94353300D01*
X30408100Y-93573900D02*
X31187500Y-94353300D01*
X33040000Y-95330000D02*
X33040000Y-94353300D01*
%TO.N,K_HOME*%
X33604400Y-142468900D02*
X35916300Y-140157000D01*
X39390000Y-116144500D02*
X39390000Y-112830000D01*
X38582200Y-116952300D02*
X39390000Y-116144500D01*
%TO.N,K_BACK*%
X40660000Y-112830000D02*
X40660000Y-115796300D01*
X40660000Y-115796300D02*
X39635300Y-116821000D01*
%TO.N,IRRX_PWR*%
X28500000Y-88153000D02*
X42883400Y-88153000D01*
X42883400Y-88153000D02*
X48280000Y-93549600D01*
X16545000Y-100108000D02*
X28500000Y-88153000D01*
X48280000Y-93549600D02*
X48280000Y-95330000D01*
%TO.N,K_RIGHT*%
X44459800Y-113806700D02*
X43643300Y-114623200D01*
X44470000Y-112830000D02*
X44470000Y-113806700D01*
X44470000Y-113806700D02*
X44459800Y-113806700D01*
%TO.N,K_DOWN*%
X34472300Y-126702700D02*
X37890800Y-126702700D01*
X41930000Y-112830000D02*
X41930000Y-114549600D01*
X30370000Y-130805000D02*
X34472300Y-126702700D01*
X41930000Y-114549600D02*
X41240200Y-115239400D01*
%TO.N,K_UP*%
X40021500Y-118102600D02*
X42964700Y-115159400D01*
X45740000Y-112830000D02*
X45740000Y-113806700D01*
X44387300Y-115159400D02*
X45740000Y-113806700D01*
X42964700Y-115159400D02*
X44387300Y-115159400D01*
%TO.N,K_YT*%
X30220800Y-108525000D02*
X25799300Y-112946500D01*
X14196600Y-155536500D02*
X13598200Y-156134900D01*
X31790000Y-108525000D02*
X30220800Y-108525000D01*
X19370000Y-156140200D02*
X18766300Y-155536500D01*
X18766300Y-155536500D02*
X14196600Y-155536500D01*
%TO.N,TP_INT*%
X31790000Y-102175000D02*
X30813300Y-102175000D01*
X20065500Y-81116400D02*
X21142300Y-81116400D01*
X26064300Y-101755700D02*
X30394000Y-101755700D01*
X30394000Y-101755700D02*
X30813300Y-102175000D01*
X21142300Y-81116400D02*
X26140500Y-86114600D01*
%TO.N,SCL*%
X31790000Y-98365000D02*
X21389800Y-98365000D01*
X16433500Y-101969300D02*
X13637400Y-101969300D01*
X21389800Y-98365000D02*
X20402200Y-99352600D01*
X13637400Y-101969300D02*
X7293700Y-108313000D01*
%TO.N,LCD_DC*%
X24618900Y-65335100D02*
X23016800Y-66937200D01*
X31790000Y-100905000D02*
X30813300Y-100905000D01*
X30776000Y-100942300D02*
X30813300Y-100905000D01*
X23016800Y-66937200D02*
X23016800Y-67654900D01*
X25402300Y-100942300D02*
X30776000Y-100942300D01*
%TO.N,LCD_WR*%
X40882000Y-90919400D02*
X44315900Y-94353300D01*
X40461900Y-82433800D02*
X40463500Y-82433800D01*
X44470000Y-95330000D02*
X44470000Y-94353300D01*
X44315900Y-94353300D02*
X44470000Y-94353300D01*
X25253900Y-67225800D02*
X40461900Y-82433800D01*
%TO.N,LCD_D0*%
X30324300Y-91176900D02*
X31133600Y-91176900D01*
X31133600Y-91176900D02*
X34310000Y-94353300D01*
X34310000Y-95330000D02*
X34310000Y-94353300D01*
%TO.N,LCD_D1*%
X34890300Y-94353300D02*
X35580000Y-94353300D01*
X35580000Y-95330000D02*
X35580000Y-94353300D01*
X31016000Y-90479000D02*
X34890300Y-94353300D01*
%TO.N,LCD_D2*%
X36850000Y-95330000D02*
X36850000Y-94353300D01*
X36850000Y-94032800D02*
X35469400Y-92652200D01*
X36850000Y-94353300D02*
X36850000Y-94032800D01*
%TO.N,LCD_D3*%
X38120000Y-94353300D02*
X35667100Y-91900400D01*
X38120000Y-95330000D02*
X38120000Y-94353300D01*
X35667100Y-91900400D02*
X35312600Y-91900400D01*
%TO.N,LCD_D4*%
X37404800Y-92816000D02*
X37852700Y-92816000D01*
X37852700Y-92816000D02*
X39390000Y-94353300D01*
X31828400Y-68049300D02*
X31828400Y-68049400D01*
X39390000Y-95330000D02*
X39390000Y-94353300D01*
X31828500Y-68049400D02*
X37346900Y-73567800D01*
X31828400Y-68049400D02*
X31828500Y-68049400D01*
X29120000Y-65340900D02*
X31828400Y-68049300D01*
%TO.N,LCD_D5*%
X40660000Y-94353300D02*
X37822900Y-91516200D01*
X37822900Y-91516200D02*
X36150500Y-91516200D01*
X40660000Y-95330000D02*
X40660000Y-94353300D01*
%TO.N,LCD_D6*%
X41930000Y-95330000D02*
X41930000Y-94353300D01*
X36830500Y-90647600D02*
X37566200Y-90647600D01*
X41271900Y-94353300D02*
X41930000Y-94353300D01*
X30011200Y-65274100D02*
X35537000Y-70799900D01*
X37566200Y-90647600D02*
X41271900Y-94353300D01*
%TO.N,LCD_D7*%
X45740000Y-93756500D02*
X45740000Y-95330000D01*
X36856400Y-63415000D02*
X44995600Y-71554200D01*
X30723600Y-63415000D02*
X36856400Y-63415000D01*
X45417200Y-93433700D02*
X45740000Y-93756500D01*
%TO.N,BL_K*%
D23*
X51928400Y-138140300D02*
X51396200Y-138140300D01*
X51396200Y-138140300D02*
X42929800Y-129673900D01*
X42929800Y-129673900D02*
X42929800Y-115970500D01*
X54177500Y-135891200D02*
X51928400Y-138140300D01*
X54177500Y-131266100D02*
X54177500Y-135891200D01*
%TO.N,ACC_INT*%
D24*
X7900500Y-124083500D02*
X7443500Y-124083500D01*
X7134100Y-115790100D02*
X13491800Y-109432400D01*
X16960200Y-102049800D02*
X30526200Y-88483800D01*
X16960200Y-102187500D02*
X16960200Y-102049800D01*
X30526200Y-88483800D02*
X41246400Y-88483800D01*
X7134100Y-123774100D02*
X7134100Y-115790100D01*
X7443500Y-124083500D02*
X7134100Y-123774100D01*
X41246400Y-88483800D02*
X47010000Y-94247400D01*
X13491800Y-109432400D02*
X13491800Y-105655900D01*
X13491800Y-105655900D02*
X16960200Y-102187500D01*
X10350900Y-121633100D02*
X7900500Y-124083500D01*
X47010000Y-94247400D02*
X47010000Y-95330000D01*
%TO.N,MOT_P*%
D23*
X15200000Y-114150000D02*
X15200000Y-128299999D01*
X15200000Y-128299999D02*
X9300000Y-134199999D01*
X9300000Y-134199999D02*
X9300000Y-134970000D01*
%TO.N,MOT_N*%
X16099999Y-112350000D02*
X16099999Y-137000000D01*
X15200000Y-112350000D02*
X16099999Y-112350000D01*
X6300000Y-137000000D02*
X6300000Y-134970000D01*
X16099999Y-137000000D02*
X6300000Y-137000000D01*
%TO.N,K_NFLX*%
D24*
X35580000Y-112830000D02*
X35580000Y-113806700D01*
X35580000Y-113806700D02*
X35008100Y-113806700D01*
X35008100Y-113806700D02*
X33707600Y-115107200D01*
%TO.N,IR_RX*%
X43200000Y-95330000D02*
X43200000Y-94353300D01*
X30758000Y-89916300D02*
X38763000Y-89916300D01*
X23129300Y-97545000D02*
X30758000Y-89916300D01*
X38763000Y-89916300D02*
X43200000Y-94353300D01*
%TO.N,EN*%
X47010000Y-112830000D02*
X47010000Y-114480000D01*
X47010000Y-114480000D02*
X46990000Y-117080000D01*
%TO.N,IR_TX*%
X19052800Y-20653900D02*
X19052800Y-67418300D01*
X20176300Y-68541800D02*
X22194600Y-68541800D01*
X25045000Y-14661700D02*
X19052800Y-20653900D01*
X30278100Y-96559800D02*
X30813300Y-97095000D01*
X19052800Y-67418300D02*
X20176300Y-68541800D01*
X31790000Y-97095000D02*
X30813300Y-97095000D01*
X24866200Y-96559800D02*
X30278100Y-96559800D01*
%TO.N,K_PWR*%
X28314600Y-103224700D02*
X28534900Y-103445000D01*
X28534900Y-103445000D02*
X31790000Y-103445000D01*
X31647300Y-89270100D02*
X39762800Y-89270100D01*
X39762800Y-89270100D02*
X39979600Y-89053300D01*
%TO.N,K_PLEX*%
X46639400Y-156089400D02*
X46097900Y-156630900D01*
X41860700Y-156630900D02*
X41370000Y-156140200D01*
X41370000Y-156140200D02*
X41371200Y-156139000D01*
X36850000Y-114440500D02*
X35439600Y-115850900D01*
X36850000Y-112830000D02*
X36850000Y-114440500D01*
X46097900Y-156630900D02*
X41860700Y-156630900D01*
%TO.N,K_VOLUP*%
X30588200Y-107498900D02*
X30832100Y-107255000D01*
X31790000Y-107255000D02*
X30832100Y-107255000D01*
%TO.N,K_VOLDN*%
X25334300Y-111407900D02*
X30757200Y-105985000D01*
X30757200Y-105985000D02*
X31790000Y-105985000D01*
%TD*%
%TA.AperFunction,Conductor*%
%TO.N,GND*%
G36*
X55743874Y-3800805D02*
G01*
X55771912Y-3803011D01*
X55919881Y-3814657D01*
X55935210Y-3817084D01*
X56103095Y-3857390D01*
X56117865Y-3862190D01*
X56277363Y-3928256D01*
X56291203Y-3935308D01*
X56438409Y-4025516D01*
X56450977Y-4034647D01*
X56582253Y-4146767D01*
X56593235Y-4157749D01*
X56705352Y-4289022D01*
X56714483Y-4301590D01*
X56804691Y-4448796D01*
X56811744Y-4462638D01*
X56877809Y-4622134D01*
X56882610Y-4636908D01*
X56922913Y-4804781D01*
X56925343Y-4820124D01*
X56939195Y-4996124D01*
X56939500Y-5003892D01*
X56939500Y-91481000D01*
X56920593Y-91539191D01*
X56871093Y-91575155D01*
X56840500Y-91580000D01*
X49540000Y-91580000D01*
X49540000Y-91580001D01*
X49540000Y-116264599D01*
X49521093Y-116322790D01*
X49471593Y-116358754D01*
X49410407Y-116358754D01*
X49370996Y-116334603D01*
X48329496Y-115293103D01*
X48301719Y-115238586D01*
X48300500Y-115223099D01*
X48300500Y-115207525D01*
X48299855Y-115205117D01*
X48262984Y-115067515D01*
X48262982Y-115067512D01*
X48262982Y-115067510D01*
X48240439Y-115028465D01*
X48227717Y-114968617D01*
X48229411Y-114958041D01*
X48405946Y-114141988D01*
X48456441Y-113908568D01*
X48487225Y-113855690D01*
X48543210Y-113831006D01*
X48553203Y-113830500D01*
X48754673Y-113830500D01*
X48754674Y-113830500D01*
X48827740Y-113815966D01*
X48910601Y-113760601D01*
X48965966Y-113677740D01*
X48980500Y-113604674D01*
X48980500Y-112055326D01*
X48965966Y-111982260D01*
X48924703Y-111920504D01*
X48910602Y-111899400D01*
X48910599Y-111899397D01*
X48827742Y-111844035D01*
X48827740Y-111844034D01*
X48827737Y-111844033D01*
X48827736Y-111844033D01*
X48754684Y-111829501D01*
X48754674Y-111829500D01*
X47805326Y-111829500D01*
X47805325Y-111829500D01*
X47805315Y-111829501D01*
X47732263Y-111844033D01*
X47732254Y-111844036D01*
X47700000Y-111865588D01*
X47641112Y-111882196D01*
X47590000Y-111865588D01*
X47557745Y-111844036D01*
X47557740Y-111844034D01*
X47557737Y-111844033D01*
X47557736Y-111844033D01*
X47484684Y-111829501D01*
X47484674Y-111829500D01*
X46535326Y-111829500D01*
X46535325Y-111829500D01*
X46535315Y-111829501D01*
X46462263Y-111844033D01*
X46462254Y-111844036D01*
X46430000Y-111865588D01*
X46371112Y-111882196D01*
X46320000Y-111865588D01*
X46287745Y-111844036D01*
X46287740Y-111844034D01*
X46287737Y-111844033D01*
X46287736Y-111844033D01*
X46214684Y-111829501D01*
X46214674Y-111829500D01*
X45265326Y-111829500D01*
X45265325Y-111829500D01*
X45265315Y-111829501D01*
X45192263Y-111844033D01*
X45192254Y-111844036D01*
X45160000Y-111865588D01*
X45101112Y-111882196D01*
X45050000Y-111865588D01*
X45017745Y-111844036D01*
X45017740Y-111844034D01*
X45017737Y-111844033D01*
X45017736Y-111844033D01*
X44944684Y-111829501D01*
X44944674Y-111829500D01*
X43995326Y-111829500D01*
X43995325Y-111829500D01*
X43995315Y-111829501D01*
X43922263Y-111844033D01*
X43922254Y-111844036D01*
X43890000Y-111865588D01*
X43831112Y-111882196D01*
X43780000Y-111865588D01*
X43747745Y-111844036D01*
X43747740Y-111844034D01*
X43747737Y-111844033D01*
X43747736Y-111844033D01*
X43674684Y-111829501D01*
X43674674Y-111829500D01*
X42725326Y-111829500D01*
X42725325Y-111829500D01*
X42725315Y-111829501D01*
X42652263Y-111844033D01*
X42652254Y-111844036D01*
X42620000Y-111865588D01*
X42561112Y-111882196D01*
X42510000Y-111865588D01*
X42477745Y-111844036D01*
X42477740Y-111844034D01*
X42477737Y-111844033D01*
X42477736Y-111844033D01*
X42404684Y-111829501D01*
X42404674Y-111829500D01*
X41455326Y-111829500D01*
X41455325Y-111829500D01*
X41455315Y-111829501D01*
X41382263Y-111844033D01*
X41382254Y-111844036D01*
X41350000Y-111865588D01*
X41291112Y-111882196D01*
X41240000Y-111865588D01*
X41207745Y-111844036D01*
X41207740Y-111844034D01*
X41207737Y-111844033D01*
X41207736Y-111844033D01*
X41134684Y-111829501D01*
X41134674Y-111829500D01*
X40185326Y-111829500D01*
X40185325Y-111829500D01*
X40185315Y-111829501D01*
X40112263Y-111844033D01*
X40112254Y-111844036D01*
X40080000Y-111865588D01*
X40021112Y-111882196D01*
X39970000Y-111865588D01*
X39937745Y-111844036D01*
X39937740Y-111844034D01*
X39937737Y-111844033D01*
X39937736Y-111844033D01*
X39864684Y-111829501D01*
X39864674Y-111829500D01*
X38915326Y-111829500D01*
X38915325Y-111829500D01*
X38915315Y-111829501D01*
X38842263Y-111844033D01*
X38842254Y-111844036D01*
X38810000Y-111865588D01*
X38751112Y-111882196D01*
X38700000Y-111865588D01*
X38667745Y-111844036D01*
X38667740Y-111844034D01*
X38667737Y-111844033D01*
X38667736Y-111844033D01*
X38594684Y-111829501D01*
X38594674Y-111829500D01*
X37645326Y-111829500D01*
X37645325Y-111829500D01*
X37645315Y-111829501D01*
X37572263Y-111844033D01*
X37572254Y-111844036D01*
X37540000Y-111865588D01*
X37481112Y-111882196D01*
X37430000Y-111865588D01*
X37397745Y-111844036D01*
X37397740Y-111844034D01*
X37397737Y-111844033D01*
X37397736Y-111844033D01*
X37324684Y-111829501D01*
X37324674Y-111829500D01*
X36375326Y-111829500D01*
X36375325Y-111829500D01*
X36375315Y-111829501D01*
X36302263Y-111844033D01*
X36302254Y-111844036D01*
X36270000Y-111865588D01*
X36211112Y-111882196D01*
X36160000Y-111865588D01*
X36127745Y-111844036D01*
X36127740Y-111844034D01*
X36127737Y-111844033D01*
X36127736Y-111844033D01*
X36054684Y-111829501D01*
X36054674Y-111829500D01*
X35105326Y-111829500D01*
X35105325Y-111829500D01*
X35105315Y-111829501D01*
X35032263Y-111844033D01*
X35032254Y-111844036D01*
X35000000Y-111865588D01*
X34941112Y-111882196D01*
X34890000Y-111865588D01*
X34857745Y-111844036D01*
X34857740Y-111844034D01*
X34857737Y-111844033D01*
X34857736Y-111844033D01*
X34784684Y-111829501D01*
X34784674Y-111829500D01*
X33835326Y-111829500D01*
X33835325Y-111829500D01*
X33835315Y-111829501D01*
X33762263Y-111844033D01*
X33762254Y-111844036D01*
X33730000Y-111865588D01*
X33671112Y-111882196D01*
X33620000Y-111865588D01*
X33587745Y-111844036D01*
X33587740Y-111844034D01*
X33587737Y-111844033D01*
X33587736Y-111844033D01*
X33514684Y-111829501D01*
X33514674Y-111829500D01*
X32816349Y-111829500D01*
X32758158Y-111810593D01*
X32722194Y-111761093D01*
X32722194Y-111699907D01*
X32734033Y-111675499D01*
X32770855Y-111620389D01*
X32775966Y-111612740D01*
X32790500Y-111539674D01*
X32790500Y-110590326D01*
X32775966Y-110517260D01*
X32754411Y-110485000D01*
X32737803Y-110426114D01*
X32754412Y-110374998D01*
X32775966Y-110342740D01*
X32790500Y-110269674D01*
X32790500Y-109320326D01*
X32775966Y-109247260D01*
X32754411Y-109215000D01*
X32737803Y-109156114D01*
X32754412Y-109104998D01*
X32775966Y-109072740D01*
X32790500Y-108999674D01*
X32790500Y-108050326D01*
X32775966Y-107977260D01*
X32754411Y-107945001D01*
X32737803Y-107886114D01*
X32754412Y-107834998D01*
X32775966Y-107802740D01*
X32790500Y-107729674D01*
X32790500Y-106780326D01*
X32775966Y-106707260D01*
X32754411Y-106675000D01*
X32737803Y-106616114D01*
X32754412Y-106564998D01*
X32775966Y-106532740D01*
X32790500Y-106459674D01*
X32790500Y-105510326D01*
X32775966Y-105437260D01*
X32754411Y-105405001D01*
X32737803Y-105346114D01*
X32754412Y-105294998D01*
X32775966Y-105262740D01*
X32790500Y-105189674D01*
X32790500Y-104240326D01*
X32789640Y-104236005D01*
X32784115Y-104208228D01*
X32775966Y-104167260D01*
X32754411Y-104135000D01*
X32737803Y-104076114D01*
X32754412Y-104024998D01*
X32775966Y-103992740D01*
X32790500Y-103919674D01*
X32790500Y-102970326D01*
X32775966Y-102897260D01*
X32754411Y-102865000D01*
X32737803Y-102806114D01*
X32754412Y-102754998D01*
X32775966Y-102722740D01*
X32790500Y-102649674D01*
X32790500Y-101700326D01*
X32775966Y-101627260D01*
X32754411Y-101595001D01*
X32737803Y-101536114D01*
X32754412Y-101484998D01*
X32775966Y-101452740D01*
X32790500Y-101379674D01*
X32790500Y-100430326D01*
X32775966Y-100357260D01*
X32754411Y-100325000D01*
X32737803Y-100266114D01*
X32754412Y-100214998D01*
X32775966Y-100182740D01*
X32790500Y-100109674D01*
X32790500Y-99160326D01*
X32775966Y-99087260D01*
X32754411Y-99055000D01*
X32737803Y-98996114D01*
X32754412Y-98944998D01*
X32775966Y-98912740D01*
X32790500Y-98839674D01*
X32790500Y-97890326D01*
X32775966Y-97817260D01*
X32754411Y-97785000D01*
X32737803Y-97726114D01*
X32754412Y-97674998D01*
X32775966Y-97642740D01*
X32790500Y-97569674D01*
X32790500Y-96620326D01*
X32775966Y-96547260D01*
X32750272Y-96508805D01*
X32734033Y-96484501D01*
X32717425Y-96425612D01*
X32738603Y-96368209D01*
X32789477Y-96334217D01*
X32816349Y-96330500D01*
X33514673Y-96330500D01*
X33514674Y-96330500D01*
X33587740Y-96315966D01*
X33619998Y-96294411D01*
X33678886Y-96277803D01*
X33730001Y-96294411D01*
X33762260Y-96315966D01*
X33817808Y-96327015D01*
X33835315Y-96330498D01*
X33835320Y-96330498D01*
X33835326Y-96330500D01*
X33835327Y-96330500D01*
X34784673Y-96330500D01*
X34784674Y-96330500D01*
X34857740Y-96315966D01*
X34889998Y-96294411D01*
X34948886Y-96277803D01*
X35000001Y-96294411D01*
X35032260Y-96315966D01*
X35087808Y-96327015D01*
X35105315Y-96330498D01*
X35105320Y-96330498D01*
X35105326Y-96330500D01*
X35105327Y-96330500D01*
X36054673Y-96330500D01*
X36054674Y-96330500D01*
X36127740Y-96315966D01*
X36159998Y-96294411D01*
X36218886Y-96277803D01*
X36270001Y-96294411D01*
X36302260Y-96315966D01*
X36357808Y-96327015D01*
X36375315Y-96330498D01*
X36375320Y-96330498D01*
X36375326Y-96330500D01*
X36375327Y-96330500D01*
X37324673Y-96330500D01*
X37324674Y-96330500D01*
X37397740Y-96315966D01*
X37429998Y-96294411D01*
X37488886Y-96277803D01*
X37540001Y-96294411D01*
X37572260Y-96315966D01*
X37627808Y-96327015D01*
X37645315Y-96330498D01*
X37645320Y-96330498D01*
X37645326Y-96330500D01*
X37645327Y-96330500D01*
X38594673Y-96330500D01*
X38594674Y-96330500D01*
X38667740Y-96315966D01*
X38699998Y-96294411D01*
X38758886Y-96277803D01*
X38810001Y-96294411D01*
X38842260Y-96315966D01*
X38897808Y-96327015D01*
X38915315Y-96330498D01*
X38915320Y-96330498D01*
X38915326Y-96330500D01*
X38915327Y-96330500D01*
X39864673Y-96330500D01*
X39864674Y-96330500D01*
X39937740Y-96315966D01*
X39969998Y-96294411D01*
X40028886Y-96277803D01*
X40080001Y-96294411D01*
X40112260Y-96315966D01*
X40167808Y-96327015D01*
X40185315Y-96330498D01*
X40185320Y-96330498D01*
X40185326Y-96330500D01*
X40185327Y-96330500D01*
X41134673Y-96330500D01*
X41134674Y-96330500D01*
X41207740Y-96315966D01*
X41239998Y-96294411D01*
X41298886Y-96277803D01*
X41350001Y-96294411D01*
X41382260Y-96315966D01*
X41437808Y-96327015D01*
X41455315Y-96330498D01*
X41455320Y-96330498D01*
X41455326Y-96330500D01*
X41455327Y-96330500D01*
X42404673Y-96330500D01*
X42404674Y-96330500D01*
X42477740Y-96315966D01*
X42509998Y-96294411D01*
X42568886Y-96277803D01*
X42620001Y-96294411D01*
X42652260Y-96315966D01*
X42707808Y-96327015D01*
X42725315Y-96330498D01*
X42725320Y-96330498D01*
X42725326Y-96330500D01*
X42725327Y-96330500D01*
X43674673Y-96330500D01*
X43674674Y-96330500D01*
X43747740Y-96315966D01*
X43779998Y-96294411D01*
X43838886Y-96277803D01*
X43890001Y-96294411D01*
X43922260Y-96315966D01*
X43977808Y-96327015D01*
X43995315Y-96330498D01*
X43995320Y-96330498D01*
X43995326Y-96330500D01*
X43995327Y-96330500D01*
X44944673Y-96330500D01*
X44944674Y-96330500D01*
X45017740Y-96315966D01*
X45049998Y-96294411D01*
X45108886Y-96277803D01*
X45160001Y-96294411D01*
X45192260Y-96315966D01*
X45247808Y-96327015D01*
X45265315Y-96330498D01*
X45265320Y-96330498D01*
X45265326Y-96330500D01*
X45265327Y-96330500D01*
X46214673Y-96330500D01*
X46214674Y-96330500D01*
X46287740Y-96315966D01*
X46319998Y-96294411D01*
X46378886Y-96277803D01*
X46430001Y-96294411D01*
X46462260Y-96315966D01*
X46517808Y-96327015D01*
X46535315Y-96330498D01*
X46535320Y-96330498D01*
X46535326Y-96330500D01*
X46535327Y-96330500D01*
X47484673Y-96330500D01*
X47484674Y-96330500D01*
X47557740Y-96315966D01*
X47589998Y-96294411D01*
X47648886Y-96277803D01*
X47700001Y-96294411D01*
X47732260Y-96315966D01*
X47787808Y-96327015D01*
X47805315Y-96330498D01*
X47805320Y-96330498D01*
X47805326Y-96330500D01*
X47805327Y-96330500D01*
X48754673Y-96330500D01*
X48754674Y-96330500D01*
X48827740Y-96315966D01*
X48910601Y-96260601D01*
X48965966Y-96177740D01*
X48980500Y-96104674D01*
X48980500Y-94555326D01*
X48965966Y-94482260D01*
X48910601Y-94399399D01*
X48910599Y-94399397D01*
X48827742Y-94344035D01*
X48827740Y-94344034D01*
X48827737Y-94344033D01*
X48827736Y-94344033D01*
X48754684Y-94329501D01*
X48754674Y-94329500D01*
X48754673Y-94329500D01*
X48704500Y-94329500D01*
X48646309Y-94310593D01*
X48610345Y-94261093D01*
X48605500Y-94230500D01*
X48605500Y-93506749D01*
X48605499Y-93506745D01*
X48605346Y-93506175D01*
X48597410Y-93476553D01*
X48583318Y-93423961D01*
X48583316Y-93423958D01*
X48583316Y-93423956D01*
X48540468Y-93349742D01*
X48540466Y-93349740D01*
X48540465Y-93349738D01*
X43083262Y-87892535D01*
X43083259Y-87892533D01*
X43083257Y-87892531D01*
X43009042Y-87849683D01*
X43009044Y-87849683D01*
X42976921Y-87841076D01*
X42926253Y-87827500D01*
X28542853Y-87827500D01*
X28457147Y-87827500D01*
X28406478Y-87841076D01*
X28374356Y-87849683D01*
X28300142Y-87892531D01*
X28300141Y-87892532D01*
X16664168Y-99528504D01*
X16609651Y-99556281D01*
X16594164Y-99557500D01*
X16472525Y-99557500D01*
X16444218Y-99565085D01*
X16332510Y-99595017D01*
X16206989Y-99667487D01*
X16104487Y-99769989D01*
X16032017Y-99895510D01*
X16003847Y-100000643D01*
X15994500Y-100035525D01*
X15994500Y-100180475D01*
X16003751Y-100214998D01*
X16032017Y-100320489D01*
X16104487Y-100446010D01*
X16104489Y-100446012D01*
X16104491Y-100446015D01*
X16206985Y-100548509D01*
X16206987Y-100548510D01*
X16206989Y-100548512D01*
X16332511Y-100620982D01*
X16332512Y-100620982D01*
X16332515Y-100620984D01*
X16472525Y-100658500D01*
X16472526Y-100658500D01*
X16617474Y-100658500D01*
X16617475Y-100658500D01*
X16757485Y-100620984D01*
X16757487Y-100620982D01*
X16757489Y-100620982D01*
X16883010Y-100548512D01*
X16883010Y-100548511D01*
X16883015Y-100548509D01*
X16985509Y-100446015D01*
X16985512Y-100446010D01*
X17057982Y-100320489D01*
X17057982Y-100320487D01*
X17057984Y-100320485D01*
X17095500Y-100180475D01*
X17095500Y-100058834D01*
X17114407Y-100000643D01*
X17124496Y-99988830D01*
X28605831Y-88507496D01*
X28660348Y-88479719D01*
X28675835Y-88478500D01*
X29832165Y-88478500D01*
X29890356Y-88497407D01*
X29926320Y-88546907D01*
X29926320Y-88608093D01*
X29902169Y-88647504D01*
X16966201Y-101583470D01*
X16911684Y-101611247D01*
X16851252Y-101601676D01*
X16826196Y-101583472D01*
X16771515Y-101528791D01*
X16771512Y-101528789D01*
X16771510Y-101528787D01*
X16645988Y-101456317D01*
X16645989Y-101456317D01*
X16616396Y-101448387D01*
X16505975Y-101418800D01*
X16361025Y-101418800D01*
X16318480Y-101430200D01*
X16221010Y-101456317D01*
X16095489Y-101528787D01*
X16095488Y-101528788D01*
X16095485Y-101528790D01*
X16095485Y-101528791D01*
X16009470Y-101614805D01*
X15954956Y-101642581D01*
X15939469Y-101643800D01*
X13686332Y-101643800D01*
X13686316Y-101643799D01*
X13680253Y-101643799D01*
X13594548Y-101643799D01*
X13594545Y-101643799D01*
X13511765Y-101665980D01*
X13511762Y-101665982D01*
X13452275Y-101700327D01*
X13437535Y-101708837D01*
X13376934Y-101769437D01*
X13376935Y-101769438D01*
X13376933Y-101769440D01*
X7412868Y-107733504D01*
X7358351Y-107761281D01*
X7342864Y-107762500D01*
X7221225Y-107762500D01*
X7159490Y-107779041D01*
X7081210Y-107800017D01*
X6955689Y-107872487D01*
X6853187Y-107974989D01*
X6780717Y-108100510D01*
X6743200Y-108240525D01*
X6743200Y-108385474D01*
X6780717Y-108525489D01*
X6853187Y-108651010D01*
X6853189Y-108651012D01*
X6853191Y-108651015D01*
X6955685Y-108753509D01*
X6955687Y-108753510D01*
X6955689Y-108753512D01*
X7081211Y-108825982D01*
X7081212Y-108825982D01*
X7081215Y-108825984D01*
X7221225Y-108863500D01*
X7221226Y-108863500D01*
X7366174Y-108863500D01*
X7366175Y-108863500D01*
X7506185Y-108825984D01*
X7506187Y-108825982D01*
X7506189Y-108825982D01*
X7631710Y-108753512D01*
X7631710Y-108753511D01*
X7631715Y-108753509D01*
X7734209Y-108651015D01*
X7806684Y-108525485D01*
X7844200Y-108385475D01*
X7844200Y-108263834D01*
X7863107Y-108205643D01*
X7873196Y-108193830D01*
X13743230Y-102323796D01*
X13797747Y-102296019D01*
X13813234Y-102294800D01*
X15939469Y-102294800D01*
X15997660Y-102313707D01*
X16009466Y-102323790D01*
X16095485Y-102409809D01*
X16099182Y-102411943D01*
X16140123Y-102457412D01*
X16146520Y-102518262D01*
X16119687Y-102567684D01*
X13231332Y-105456041D01*
X13231331Y-105456042D01*
X13188482Y-105530260D01*
X13188481Y-105530260D01*
X13188482Y-105530261D01*
X13166300Y-105613047D01*
X13166300Y-109256565D01*
X13147393Y-109314756D01*
X13137304Y-109326569D01*
X6873631Y-115590242D01*
X6830783Y-115664456D01*
X6830782Y-115664461D01*
X6815764Y-115720509D01*
X6815764Y-115720510D01*
X6815763Y-115720509D01*
X6808600Y-115747245D01*
X6808600Y-115747247D01*
X6808600Y-123731247D01*
X6808600Y-123816953D01*
X6828162Y-123889963D01*
X6830783Y-123899743D01*
X6873631Y-123973957D01*
X6873635Y-123973962D01*
X7183032Y-124283360D01*
X7183033Y-124283360D01*
X7183035Y-124283362D01*
X7183034Y-124283362D01*
X7243638Y-124343965D01*
X7280747Y-124365389D01*
X7280749Y-124365391D01*
X7311776Y-124383305D01*
X7317861Y-124386818D01*
X7400647Y-124409001D01*
X7400649Y-124409001D01*
X7492416Y-124409001D01*
X7492432Y-124409000D01*
X7943351Y-124409000D01*
X7943353Y-124409000D01*
X8026139Y-124386818D01*
X8026141Y-124386816D01*
X8026143Y-124386816D01*
X8100357Y-124343968D01*
X8100357Y-124343967D01*
X8100362Y-124343965D01*
X10231730Y-122212595D01*
X10286247Y-122184819D01*
X10301734Y-122183600D01*
X10423374Y-122183600D01*
X10423375Y-122183600D01*
X10563385Y-122146084D01*
X10563387Y-122146082D01*
X10563389Y-122146082D01*
X10688910Y-122073612D01*
X10688910Y-122073611D01*
X10688915Y-122073609D01*
X10791409Y-121971115D01*
X10863884Y-121845585D01*
X10901400Y-121705575D01*
X10901400Y-121560625D01*
X10863884Y-121420615D01*
X10863882Y-121420612D01*
X10863882Y-121420610D01*
X10791412Y-121295089D01*
X10791410Y-121295087D01*
X10791409Y-121295085D01*
X10688915Y-121192591D01*
X10688912Y-121192589D01*
X10670887Y-121182182D01*
X10629946Y-121136712D01*
X10623552Y-121075862D01*
X10650386Y-121026441D01*
X10673165Y-121003662D01*
X10716016Y-120929443D01*
X10716016Y-120929441D01*
X10716018Y-120929439D01*
X10738200Y-120846653D01*
X10738200Y-120760947D01*
X10738200Y-117937931D01*
X10757107Y-117879740D01*
X10767190Y-117867933D01*
X10853209Y-117781915D01*
X10925684Y-117656385D01*
X10963200Y-117516375D01*
X10963200Y-117394734D01*
X10982107Y-117336543D01*
X10992196Y-117324730D01*
X12486426Y-115830500D01*
X14053965Y-114262962D01*
X14072668Y-114230568D01*
X14096816Y-114188743D01*
X14096816Y-114188741D01*
X14096818Y-114188739D01*
X14119000Y-114105953D01*
X14119000Y-114020247D01*
X14119000Y-109731035D01*
X14137907Y-109672844D01*
X14147996Y-109661031D01*
X23819531Y-99989496D01*
X23874048Y-99961719D01*
X23889535Y-99960500D01*
X30690500Y-99960500D01*
X30748691Y-99979407D01*
X30784655Y-100028907D01*
X30789500Y-100059500D01*
X30789500Y-100109672D01*
X30789501Y-100109684D01*
X30804033Y-100182736D01*
X30804036Y-100182745D01*
X30825588Y-100215000D01*
X30842196Y-100273888D01*
X30825588Y-100325000D01*
X30804036Y-100357254D01*
X30804033Y-100357263D01*
X30789501Y-100430315D01*
X30789500Y-100430327D01*
X30789500Y-100498429D01*
X30770593Y-100556620D01*
X30721093Y-100592584D01*
X30716124Y-100594055D01*
X30687661Y-100601681D01*
X30684452Y-100603535D01*
X30634949Y-100616800D01*
X25896331Y-100616800D01*
X25838140Y-100597893D01*
X25826333Y-100587809D01*
X25740315Y-100501791D01*
X25740312Y-100501789D01*
X25740310Y-100501787D01*
X25614788Y-100429317D01*
X25614789Y-100429317D01*
X25585196Y-100421387D01*
X25474775Y-100391800D01*
X25329825Y-100391800D01*
X25268090Y-100408341D01*
X25189810Y-100429317D01*
X25064289Y-100501787D01*
X24961787Y-100604289D01*
X24889317Y-100729810D01*
X24851800Y-100869825D01*
X24851800Y-101014774D01*
X24889317Y-101154789D01*
X24961787Y-101280310D01*
X24961789Y-101280312D01*
X24961791Y-101280315D01*
X25064285Y-101382809D01*
X25064287Y-101382810D01*
X25064289Y-101382812D01*
X25189811Y-101455282D01*
X25189812Y-101455282D01*
X25189815Y-101455284D01*
X25329825Y-101492800D01*
X25329826Y-101492800D01*
X25435805Y-101492800D01*
X25493996Y-101511707D01*
X25529960Y-101561207D01*
X25531431Y-101617422D01*
X25524691Y-101642581D01*
X25513800Y-101683225D01*
X25513800Y-101828174D01*
X25551317Y-101968189D01*
X25623787Y-102093710D01*
X25623789Y-102093712D01*
X25623791Y-102093715D01*
X25726285Y-102196209D01*
X25726287Y-102196210D01*
X25726289Y-102196212D01*
X25851811Y-102268682D01*
X25851812Y-102268682D01*
X25851815Y-102268684D01*
X25991825Y-102306200D01*
X25991826Y-102306200D01*
X26136774Y-102306200D01*
X26136775Y-102306200D01*
X26276785Y-102268684D01*
X26276787Y-102268682D01*
X26276789Y-102268682D01*
X26402310Y-102196212D01*
X26402310Y-102196211D01*
X26402315Y-102196209D01*
X26488329Y-102110194D01*
X26542844Y-102082419D01*
X26558331Y-102081200D01*
X30218166Y-102081200D01*
X30276357Y-102100107D01*
X30288169Y-102110196D01*
X30549372Y-102371398D01*
X30549377Y-102371404D01*
X30549378Y-102371404D01*
X30552833Y-102374859D01*
X30552835Y-102374862D01*
X30613438Y-102435465D01*
X30635089Y-102447965D01*
X30687661Y-102478318D01*
X30716124Y-102485944D01*
X30767438Y-102519269D01*
X30789364Y-102576390D01*
X30789500Y-102581571D01*
X30789500Y-102649672D01*
X30789501Y-102649684D01*
X30804033Y-102722736D01*
X30804036Y-102722745D01*
X30825588Y-102755000D01*
X30842196Y-102813888D01*
X30825588Y-102865000D01*
X30804036Y-102897254D01*
X30804033Y-102897263D01*
X30789501Y-102970315D01*
X30789500Y-102970327D01*
X30789500Y-103020500D01*
X30770593Y-103078691D01*
X30721093Y-103114655D01*
X30690500Y-103119500D01*
X28932296Y-103119500D01*
X28874105Y-103100593D01*
X28838141Y-103051093D01*
X28836675Y-103046145D01*
X28827584Y-103012215D01*
X28827582Y-103012212D01*
X28827582Y-103012210D01*
X28755112Y-102886689D01*
X28755110Y-102886687D01*
X28755109Y-102886685D01*
X28652615Y-102784191D01*
X28652612Y-102784189D01*
X28652610Y-102784187D01*
X28527088Y-102711717D01*
X28527089Y-102711717D01*
X28497496Y-102703787D01*
X28387075Y-102674200D01*
X28242125Y-102674200D01*
X28180390Y-102690741D01*
X28102110Y-102711717D01*
X27976589Y-102784187D01*
X27874087Y-102886689D01*
X27801617Y-103012210D01*
X27764100Y-103152225D01*
X27764100Y-103297174D01*
X27801617Y-103437189D01*
X27874087Y-103562710D01*
X27874089Y-103562712D01*
X27874091Y-103562715D01*
X27976585Y-103665209D01*
X27976587Y-103665210D01*
X27976589Y-103665212D01*
X28102111Y-103737682D01*
X28102112Y-103737682D01*
X28102115Y-103737684D01*
X28242125Y-103775200D01*
X28242126Y-103775200D01*
X28387074Y-103775200D01*
X28387075Y-103775200D01*
X28422706Y-103765651D01*
X28473950Y-103765651D01*
X28492047Y-103770500D01*
X30690500Y-103770500D01*
X30748691Y-103789407D01*
X30784655Y-103838907D01*
X30789500Y-103869500D01*
X30789500Y-103919672D01*
X30789501Y-103919684D01*
X30804033Y-103992736D01*
X30804036Y-103992745D01*
X30825588Y-104025000D01*
X30842196Y-104083888D01*
X30825588Y-104135000D01*
X30804036Y-104167254D01*
X30804033Y-104167263D01*
X30789501Y-104240315D01*
X30789500Y-104240327D01*
X30789500Y-104308429D01*
X30770593Y-104366620D01*
X30721093Y-104402584D01*
X30716130Y-104404053D01*
X30704995Y-104407037D01*
X30687656Y-104411683D01*
X30613442Y-104454531D01*
X21342334Y-113725639D01*
X21299480Y-113799864D01*
X21288401Y-113841217D01*
X21288401Y-113841218D01*
X21277300Y-113882647D01*
X21277300Y-122745947D01*
X21277300Y-122831653D01*
X21290784Y-122881976D01*
X21299483Y-122914443D01*
X21342331Y-122988657D01*
X21342333Y-122988659D01*
X21342335Y-122988662D01*
X37193838Y-138840165D01*
X37193840Y-138840166D01*
X37193842Y-138840168D01*
X37268057Y-138883016D01*
X37268055Y-138883016D01*
X37268059Y-138883017D01*
X37268061Y-138883018D01*
X37350847Y-138905200D01*
X38041965Y-138905200D01*
X38100156Y-138924107D01*
X38111969Y-138934196D01*
X51525504Y-152347730D01*
X51553281Y-152402247D01*
X51554500Y-152417734D01*
X51554500Y-152539375D01*
X51559323Y-152557377D01*
X51556122Y-152618478D01*
X51517617Y-152666028D01*
X51463697Y-152682000D01*
X37388634Y-152682000D01*
X37330443Y-152663093D01*
X37318630Y-152653004D01*
X33376896Y-148711269D01*
X33349119Y-148656752D01*
X33347900Y-148641265D01*
X33347900Y-148519625D01*
X33310384Y-148379615D01*
X33310382Y-148379612D01*
X33310382Y-148379610D01*
X33237912Y-148254089D01*
X33237910Y-148254087D01*
X33237909Y-148254085D01*
X33135415Y-148151591D01*
X33135412Y-148151589D01*
X33135410Y-148151587D01*
X33009888Y-148079117D01*
X33009889Y-148079117D01*
X32980296Y-148071187D01*
X32869875Y-148041600D01*
X32724925Y-148041600D01*
X32663190Y-148058141D01*
X32584910Y-148079117D01*
X32459389Y-148151587D01*
X32356887Y-148254089D01*
X32284417Y-148379610D01*
X32246900Y-148519625D01*
X32246900Y-148664574D01*
X32284417Y-148804589D01*
X32356887Y-148930110D01*
X32356889Y-148930112D01*
X32356891Y-148930115D01*
X32459385Y-149032609D01*
X32459387Y-149032610D01*
X32459389Y-149032612D01*
X32584911Y-149105082D01*
X32584912Y-149105082D01*
X32584915Y-149105084D01*
X32724925Y-149142600D01*
X32724926Y-149142600D01*
X32846565Y-149142600D01*
X32904756Y-149161507D01*
X32916569Y-149171596D01*
X36952333Y-153207359D01*
X36952335Y-153207362D01*
X37012938Y-153267965D01*
X37087162Y-153310818D01*
X37087164Y-153310818D01*
X37087165Y-153310819D01*
X37128555Y-153321909D01*
X37169945Y-153333000D01*
X37169947Y-153333001D01*
X37169948Y-153333001D01*
X37261716Y-153333001D01*
X37261732Y-153333000D01*
X49586635Y-153333000D01*
X49644826Y-153351907D01*
X49680790Y-153401407D01*
X49680790Y-153462593D01*
X49644826Y-153512093D01*
X49624517Y-153523466D01*
X49621007Y-153524919D01*
X49495489Y-153597387D01*
X49392987Y-153699889D01*
X49320517Y-153825410D01*
X49283000Y-153965425D01*
X49283000Y-154110374D01*
X49320517Y-154250389D01*
X49392987Y-154375910D01*
X49392989Y-154375912D01*
X49392991Y-154375915D01*
X49479005Y-154461929D01*
X49506781Y-154516444D01*
X49508000Y-154531931D01*
X49508000Y-155953447D01*
X49508000Y-156039153D01*
X49520481Y-156085733D01*
X49530183Y-156121943D01*
X49573031Y-156196157D01*
X49573033Y-156196159D01*
X49573035Y-156196162D01*
X51750505Y-158373632D01*
X51778281Y-158428147D01*
X51779500Y-158443634D01*
X51779500Y-159783769D01*
X51760593Y-159841960D01*
X51750509Y-159853766D01*
X51686998Y-159917278D01*
X51664489Y-159939787D01*
X51620842Y-160015385D01*
X51575372Y-160056325D01*
X51514522Y-160062720D01*
X51465102Y-160035888D01*
X51416496Y-159987282D01*
X51388719Y-159932765D01*
X51387500Y-159917278D01*
X51387500Y-158558709D01*
X51356666Y-158443634D01*
X51353392Y-158431414D01*
X51353390Y-158431411D01*
X51353390Y-158431409D01*
X51287503Y-158317290D01*
X51287499Y-158317285D01*
X51194314Y-158224099D01*
X51194314Y-158224100D01*
X47017714Y-154047500D01*
X47017711Y-154047498D01*
X47017710Y-154047497D01*
X47017709Y-154047496D01*
X46903589Y-153981609D01*
X46903591Y-153981609D01*
X46854199Y-153968375D01*
X46776292Y-153947500D01*
X46776290Y-153947500D01*
X23158722Y-153947500D01*
X23100531Y-153928593D01*
X23088718Y-153918504D01*
X11566639Y-142396425D01*
X33053900Y-142396425D01*
X33053900Y-142541374D01*
X33091417Y-142681389D01*
X33163887Y-142806910D01*
X33163889Y-142806912D01*
X33163891Y-142806915D01*
X33266385Y-142909409D01*
X33266387Y-142909410D01*
X33266389Y-142909412D01*
X33391911Y-142981882D01*
X33391912Y-142981882D01*
X33391915Y-142981884D01*
X33531925Y-143019400D01*
X33531926Y-143019400D01*
X33676874Y-143019400D01*
X33676875Y-143019400D01*
X33816885Y-142981884D01*
X33816887Y-142981882D01*
X33816889Y-142981882D01*
X33942410Y-142909412D01*
X33942410Y-142909411D01*
X33942415Y-142909409D01*
X34044909Y-142806915D01*
X34117384Y-142681385D01*
X34154900Y-142541375D01*
X34154900Y-142419734D01*
X34173807Y-142361543D01*
X34183896Y-142349730D01*
X35797130Y-140736496D01*
X35851647Y-140708719D01*
X35867134Y-140707500D01*
X35988774Y-140707500D01*
X35988775Y-140707500D01*
X36128785Y-140669984D01*
X36128787Y-140669982D01*
X36128789Y-140669982D01*
X36254310Y-140597512D01*
X36254310Y-140597511D01*
X36254315Y-140597509D01*
X36356809Y-140495015D01*
X36429284Y-140369485D01*
X36466800Y-140229475D01*
X36466800Y-140084525D01*
X36429284Y-139944515D01*
X36429282Y-139944512D01*
X36429282Y-139944510D01*
X36356812Y-139818989D01*
X36356810Y-139818987D01*
X36356809Y-139818985D01*
X36254315Y-139716491D01*
X36254312Y-139716489D01*
X36254310Y-139716487D01*
X36128788Y-139644017D01*
X36128789Y-139644017D01*
X36099196Y-139636087D01*
X35988775Y-139606500D01*
X35843825Y-139606500D01*
X35782090Y-139623041D01*
X35703810Y-139644017D01*
X35578289Y-139716487D01*
X35475787Y-139818989D01*
X35403317Y-139944510D01*
X35365800Y-140084525D01*
X35365800Y-140206164D01*
X35346893Y-140264355D01*
X35336804Y-140276168D01*
X33723568Y-141889404D01*
X33669051Y-141917181D01*
X33653564Y-141918400D01*
X33531925Y-141918400D01*
X33470190Y-141934941D01*
X33391910Y-141955917D01*
X33266389Y-142028387D01*
X33163887Y-142130889D01*
X33091417Y-142256410D01*
X33053900Y-142396425D01*
X11566639Y-142396425D01*
X6739718Y-137569504D01*
X6711941Y-137514987D01*
X6721512Y-137454555D01*
X6764777Y-137411290D01*
X6809722Y-137400500D01*
X16152724Y-137400500D01*
X16152726Y-137400500D01*
X16254586Y-137373207D01*
X16345912Y-137320480D01*
X16420479Y-137245913D01*
X16473206Y-137154587D01*
X16500499Y-137052727D01*
X16500499Y-112297273D01*
X16473206Y-112195413D01*
X16420479Y-112104087D01*
X16345912Y-112029520D01*
X16315547Y-112011989D01*
X16254588Y-111976794D01*
X16254587Y-111976793D01*
X16254586Y-111976793D01*
X16152726Y-111949500D01*
X16152724Y-111949500D01*
X15619031Y-111949500D01*
X15560840Y-111930593D01*
X15549033Y-111920509D01*
X15538015Y-111909491D01*
X15538012Y-111909489D01*
X15538010Y-111909487D01*
X15412488Y-111837017D01*
X15412489Y-111837017D01*
X15313874Y-111810593D01*
X15272475Y-111799500D01*
X15127525Y-111799500D01*
X15102114Y-111806309D01*
X14987510Y-111837017D01*
X14861989Y-111909487D01*
X14759487Y-112011989D01*
X14687017Y-112137510D01*
X14687016Y-112137515D01*
X14649500Y-112277525D01*
X14649500Y-112422475D01*
X14652459Y-112433517D01*
X14687017Y-112562489D01*
X14759487Y-112688010D01*
X14759489Y-112688012D01*
X14759491Y-112688015D01*
X14861985Y-112790509D01*
X14861987Y-112790510D01*
X14861989Y-112790512D01*
X14987511Y-112862982D01*
X14987512Y-112862982D01*
X14987515Y-112862984D01*
X15127525Y-112900500D01*
X15127526Y-112900500D01*
X15272474Y-112900500D01*
X15272475Y-112900500D01*
X15412485Y-112862984D01*
X15412487Y-112862982D01*
X15412489Y-112862982D01*
X15475250Y-112826746D01*
X15538015Y-112790509D01*
X15538019Y-112790504D01*
X15540229Y-112788810D01*
X15542117Y-112788141D01*
X15543635Y-112787265D01*
X15543797Y-112787546D01*
X15597904Y-112768384D01*
X15656570Y-112785760D01*
X15693819Y-112834300D01*
X15699499Y-112867350D01*
X15699499Y-113632649D01*
X15680592Y-113690840D01*
X15631092Y-113726804D01*
X15569906Y-113726804D01*
X15540236Y-113711194D01*
X15538016Y-113709491D01*
X15412488Y-113637017D01*
X15412489Y-113637017D01*
X15331907Y-113615425D01*
X15272475Y-113599500D01*
X15127525Y-113599500D01*
X15068093Y-113615425D01*
X14987510Y-113637017D01*
X14861989Y-113709487D01*
X14759487Y-113811989D01*
X14687017Y-113937510D01*
X14649500Y-114077525D01*
X14649500Y-114222474D01*
X14687017Y-114362489D01*
X14759487Y-114488010D01*
X14759489Y-114488012D01*
X14759491Y-114488015D01*
X14770505Y-114499029D01*
X14798281Y-114553544D01*
X14799500Y-114569031D01*
X14799500Y-128093098D01*
X14780593Y-128151289D01*
X14770504Y-128163102D01*
X9043102Y-133890504D01*
X8988585Y-133918281D01*
X8973098Y-133919500D01*
X8675326Y-133919500D01*
X8675325Y-133919500D01*
X8675315Y-133919501D01*
X8602263Y-133934033D01*
X8602257Y-133934035D01*
X8519400Y-133989397D01*
X8519397Y-133989400D01*
X8464035Y-134072257D01*
X8464033Y-134072263D01*
X8449501Y-134145315D01*
X8449500Y-134145327D01*
X8449500Y-135794672D01*
X8449501Y-135794684D01*
X8464033Y-135867736D01*
X8464035Y-135867742D01*
X8519397Y-135950599D01*
X8519399Y-135950601D01*
X8602260Y-136005966D01*
X8657808Y-136017015D01*
X8675315Y-136020498D01*
X8675320Y-136020498D01*
X8675326Y-136020500D01*
X8675327Y-136020500D01*
X9924673Y-136020500D01*
X9924674Y-136020500D01*
X9997740Y-136005966D01*
X10080601Y-135950601D01*
X10135966Y-135867740D01*
X10150500Y-135794674D01*
X10150500Y-134145326D01*
X10135966Y-134072260D01*
X10135963Y-134072255D01*
X10135962Y-134072253D01*
X10124294Y-134054790D01*
X10107685Y-133995902D01*
X10128863Y-133938499D01*
X10136596Y-133929794D01*
X15520480Y-128545912D01*
X15520483Y-128545905D01*
X15521955Y-128543989D01*
X15523384Y-128543006D01*
X15525068Y-128541323D01*
X15525379Y-128541634D01*
X15572379Y-128509332D01*
X15633543Y-128510932D01*
X15682086Y-128548178D01*
X15699499Y-128604254D01*
X15699499Y-136500500D01*
X15680592Y-136558691D01*
X15631092Y-136594655D01*
X15600499Y-136599500D01*
X6799500Y-136599500D01*
X6741309Y-136580593D01*
X6705345Y-136531093D01*
X6700500Y-136500500D01*
X6700500Y-136119500D01*
X6719407Y-136061309D01*
X6768907Y-136025345D01*
X6799500Y-136020500D01*
X6924673Y-136020500D01*
X6924674Y-136020500D01*
X6997740Y-136005966D01*
X7080601Y-135950601D01*
X7135966Y-135867740D01*
X7150500Y-135794674D01*
X7150500Y-134145326D01*
X7135966Y-134072260D01*
X7080601Y-133989399D01*
X7080599Y-133989397D01*
X6997742Y-133934035D01*
X6997740Y-133934034D01*
X6997737Y-133934033D01*
X6997736Y-133934033D01*
X6924684Y-133919501D01*
X6924674Y-133919500D01*
X6924673Y-133919500D01*
X5894400Y-133919500D01*
X5836209Y-133900593D01*
X5800245Y-133851093D01*
X5795400Y-133820500D01*
X5795400Y-125268620D01*
X5814307Y-125210429D01*
X5824386Y-125198627D01*
X5851110Y-125171902D01*
X5888469Y-125150335D01*
X5887986Y-125149169D01*
X5893981Y-125146685D01*
X5893980Y-125146685D01*
X5893985Y-125146684D01*
X6019515Y-125074209D01*
X6122009Y-124971715D01*
X6194484Y-124846185D01*
X6232000Y-124706175D01*
X6232000Y-124561225D01*
X6194484Y-124421215D01*
X6194482Y-124421212D01*
X6194482Y-124421210D01*
X6122010Y-124295686D01*
X6120257Y-124293401D01*
X6119568Y-124291456D01*
X6118765Y-124290065D01*
X6119022Y-124289916D01*
X6099834Y-124235725D01*
X6099800Y-124233135D01*
X6099800Y-107201021D01*
X6118707Y-107142830D01*
X6128790Y-107131023D01*
X12400500Y-100859314D01*
X12466392Y-100745186D01*
X12500500Y-100617892D01*
X12500500Y-100486107D01*
X12500500Y-93809500D01*
X12519407Y-93751309D01*
X12568907Y-93715345D01*
X12599500Y-93710500D01*
X13024673Y-93710500D01*
X13024674Y-93710500D01*
X13097740Y-93695966D01*
X13097746Y-93695961D01*
X13106752Y-93692233D01*
X13108306Y-93695985D01*
X13148803Y-93684527D01*
X13206225Y-93705656D01*
X13240260Y-93756501D01*
X13244000Y-93783454D01*
X13244000Y-95695568D01*
X13225093Y-95753759D01*
X13215006Y-95765569D01*
X13203992Y-95776583D01*
X13203987Y-95776589D01*
X13131517Y-95902110D01*
X13103051Y-96008345D01*
X13094000Y-96042125D01*
X13094000Y-96187075D01*
X13113702Y-96260602D01*
X13131517Y-96327089D01*
X13203987Y-96452610D01*
X13203989Y-96452612D01*
X13203991Y-96452615D01*
X13306485Y-96555109D01*
X13306487Y-96555110D01*
X13306489Y-96555112D01*
X13432011Y-96627582D01*
X13432012Y-96627582D01*
X13432015Y-96627584D01*
X13572025Y-96665100D01*
X13572026Y-96665100D01*
X13716974Y-96665100D01*
X13716975Y-96665100D01*
X13856985Y-96627584D01*
X13856987Y-96627582D01*
X13856989Y-96627582D01*
X13982510Y-96555112D01*
X13982510Y-96555111D01*
X13982515Y-96555109D01*
X14085009Y-96452615D01*
X14140333Y-96356791D01*
X14157482Y-96327089D01*
X14157482Y-96327087D01*
X14157484Y-96327085D01*
X14195000Y-96187075D01*
X14195000Y-96042125D01*
X14157484Y-95902115D01*
X14157482Y-95902112D01*
X14157482Y-95902110D01*
X14085012Y-95776589D01*
X14085007Y-95776583D01*
X14073994Y-95765569D01*
X14046218Y-95711052D01*
X14045000Y-95695568D01*
X14045000Y-92635001D01*
X14700001Y-92635001D01*
X14700001Y-93504791D01*
X14702909Y-93529874D01*
X14748213Y-93632477D01*
X14827522Y-93711786D01*
X14930127Y-93757090D01*
X14955203Y-93759999D01*
X15824998Y-93759999D01*
X15825000Y-93759998D01*
X15825000Y-92635001D01*
X16175000Y-92635001D01*
X16175000Y-93759998D01*
X16175001Y-93759999D01*
X17044790Y-93759999D01*
X17044791Y-93759998D01*
X17069874Y-93757090D01*
X17172477Y-93711786D01*
X17251786Y-93632477D01*
X17297090Y-93529872D01*
X17299999Y-93504797D01*
X17300000Y-93504795D01*
X17300000Y-92635001D01*
X17299999Y-92635000D01*
X16175001Y-92635000D01*
X16175000Y-92635001D01*
X15825000Y-92635001D01*
X15824999Y-92635000D01*
X14700002Y-92635000D01*
X14700001Y-92635001D01*
X14045000Y-92635001D01*
X14045000Y-91415202D01*
X14700000Y-91415202D01*
X14700000Y-92284999D01*
X14700001Y-92285000D01*
X15824999Y-92285000D01*
X15825000Y-92284999D01*
X15825000Y-91160001D01*
X16175000Y-91160001D01*
X16175000Y-92284999D01*
X16175001Y-92285000D01*
X17299998Y-92285000D01*
X17299999Y-92284999D01*
X17299999Y-91415210D01*
X17299998Y-91415208D01*
X17297090Y-91390125D01*
X17251786Y-91287522D01*
X17172477Y-91208213D01*
X17069872Y-91162909D01*
X17044797Y-91160000D01*
X16175001Y-91160000D01*
X16175000Y-91160001D01*
X15825000Y-91160001D01*
X15824999Y-91160000D01*
X14955210Y-91160000D01*
X14955208Y-91160001D01*
X14930125Y-91162909D01*
X14827522Y-91208213D01*
X14748213Y-91287522D01*
X14702909Y-91390127D01*
X14700000Y-91415202D01*
X14045000Y-91415202D01*
X14045000Y-81043925D01*
X19515000Y-81043925D01*
X19515000Y-81188874D01*
X19552517Y-81328889D01*
X19624987Y-81454410D01*
X19624989Y-81454412D01*
X19624991Y-81454415D01*
X19727485Y-81556909D01*
X19727487Y-81556910D01*
X19727489Y-81556912D01*
X19853011Y-81629382D01*
X19853012Y-81629382D01*
X19853015Y-81629384D01*
X19993025Y-81666900D01*
X19993026Y-81666900D01*
X20137974Y-81666900D01*
X20137975Y-81666900D01*
X20277985Y-81629384D01*
X20277987Y-81629382D01*
X20277989Y-81629382D01*
X20403510Y-81556912D01*
X20403510Y-81556911D01*
X20403515Y-81556909D01*
X20489529Y-81470894D01*
X20544044Y-81443119D01*
X20559531Y-81441900D01*
X20966465Y-81441900D01*
X21024656Y-81460807D01*
X21036469Y-81470896D01*
X25561004Y-85995431D01*
X25588781Y-86049948D01*
X25590000Y-86065435D01*
X25590000Y-86187074D01*
X25627517Y-86327089D01*
X25699987Y-86452610D01*
X25699989Y-86452612D01*
X25699991Y-86452615D01*
X25802485Y-86555109D01*
X25802487Y-86555110D01*
X25802489Y-86555112D01*
X25928011Y-86627582D01*
X25928012Y-86627582D01*
X25928015Y-86627584D01*
X26068025Y-86665100D01*
X26068026Y-86665100D01*
X26212974Y-86665100D01*
X26212975Y-86665100D01*
X26352985Y-86627584D01*
X26352987Y-86627582D01*
X26352989Y-86627582D01*
X26478510Y-86555112D01*
X26478510Y-86555111D01*
X26478515Y-86555109D01*
X26581009Y-86452615D01*
X26653484Y-86327085D01*
X26691000Y-86187075D01*
X26691000Y-86042125D01*
X26653484Y-85902115D01*
X26653482Y-85902112D01*
X26653482Y-85902110D01*
X26581012Y-85776589D01*
X26581010Y-85776587D01*
X26581009Y-85776585D01*
X26478515Y-85674091D01*
X26478512Y-85674089D01*
X26478510Y-85674087D01*
X26352988Y-85601617D01*
X26352989Y-85601617D01*
X26323396Y-85593687D01*
X26212975Y-85564100D01*
X26091335Y-85564100D01*
X26033144Y-85545193D01*
X26021331Y-85535104D01*
X21342162Y-80855935D01*
X21342159Y-80855933D01*
X21342158Y-80855932D01*
X21342157Y-80855931D01*
X21267942Y-80813083D01*
X21267944Y-80813083D01*
X21235821Y-80804476D01*
X21185153Y-80790900D01*
X21185151Y-80790900D01*
X20559531Y-80790900D01*
X20501340Y-80771993D01*
X20489533Y-80761909D01*
X20403515Y-80675891D01*
X20403512Y-80675889D01*
X20403510Y-80675887D01*
X20277988Y-80603417D01*
X20277989Y-80603417D01*
X20248396Y-80595487D01*
X20137975Y-80565900D01*
X19993025Y-80565900D01*
X19931290Y-80582441D01*
X19853010Y-80603417D01*
X19727489Y-80675887D01*
X19624987Y-80778389D01*
X19552517Y-80903910D01*
X19515000Y-81043925D01*
X14045000Y-81043925D01*
X14045000Y-78193300D01*
X14063907Y-78135109D01*
X14073990Y-78123302D01*
X24656309Y-67540982D01*
X24710824Y-67513207D01*
X24771256Y-67522778D01*
X24809240Y-67558823D01*
X24809442Y-67558669D01*
X24810415Y-67559937D01*
X24812045Y-67561484D01*
X24813391Y-67563815D01*
X24915885Y-67666309D01*
X24915887Y-67666310D01*
X24915889Y-67666312D01*
X25041411Y-67738782D01*
X25041412Y-67738782D01*
X25041415Y-67738784D01*
X25181425Y-67776300D01*
X25181426Y-67776300D01*
X25303065Y-67776300D01*
X25361256Y-67795207D01*
X25373069Y-67805296D01*
X39884004Y-82316231D01*
X39911781Y-82370748D01*
X39913000Y-82386235D01*
X39913000Y-82506274D01*
X39950517Y-82646289D01*
X40022987Y-82771810D01*
X40022989Y-82771812D01*
X40022991Y-82771815D01*
X40125485Y-82874309D01*
X40125487Y-82874310D01*
X40125489Y-82874312D01*
X40251011Y-82946782D01*
X40251012Y-82946782D01*
X40251015Y-82946784D01*
X40391025Y-82984300D01*
X40391026Y-82984300D01*
X40535974Y-82984300D01*
X40535975Y-82984300D01*
X40675985Y-82946784D01*
X40675987Y-82946782D01*
X40675989Y-82946782D01*
X40801510Y-82874312D01*
X40801510Y-82874311D01*
X40801515Y-82874309D01*
X40904009Y-82771815D01*
X40976484Y-82646285D01*
X41014000Y-82506275D01*
X41014000Y-82361325D01*
X40976484Y-82221315D01*
X40976482Y-82221312D01*
X40976482Y-82221310D01*
X40904012Y-82095789D01*
X40904010Y-82095787D01*
X40904009Y-82095785D01*
X40801515Y-81993291D01*
X40801512Y-81993289D01*
X40801510Y-81993287D01*
X40675988Y-81920817D01*
X40675989Y-81920817D01*
X40646396Y-81912887D01*
X40535975Y-81883300D01*
X40412735Y-81883300D01*
X40354544Y-81864393D01*
X40342731Y-81854304D01*
X25833396Y-67344969D01*
X25805619Y-67290452D01*
X25804400Y-67274965D01*
X25804400Y-67153325D01*
X25799287Y-67134243D01*
X25766884Y-67013315D01*
X25766882Y-67013312D01*
X25766882Y-67013310D01*
X25694412Y-66887789D01*
X25694410Y-66887787D01*
X25694409Y-66887785D01*
X25591915Y-66785291D01*
X25591912Y-66785289D01*
X25591910Y-66785287D01*
X25466388Y-66712817D01*
X25466389Y-66712817D01*
X25399298Y-66694840D01*
X25326375Y-66675300D01*
X25181425Y-66675300D01*
X25181420Y-66675300D01*
X25177910Y-66675762D01*
X25175417Y-66675300D01*
X25174936Y-66675300D01*
X25174936Y-66675210D01*
X25117750Y-66664611D01*
X25075634Y-66620227D01*
X25067649Y-66559565D01*
X25094985Y-66507607D01*
X25841197Y-65761396D01*
X25895714Y-65733619D01*
X25911201Y-65732400D01*
X25926774Y-65732400D01*
X25926775Y-65732400D01*
X26066785Y-65694884D01*
X26066787Y-65694882D01*
X26066789Y-65694882D01*
X26192310Y-65622412D01*
X26192310Y-65622411D01*
X26192315Y-65622409D01*
X26294809Y-65519915D01*
X26367284Y-65394385D01*
X26404800Y-65254375D01*
X26404800Y-65238801D01*
X26423707Y-65180610D01*
X26433796Y-65168797D01*
X26550097Y-65052496D01*
X26604614Y-65024719D01*
X26620101Y-65023500D01*
X28506109Y-65023500D01*
X28564300Y-65042407D01*
X28600264Y-65091907D01*
X28601735Y-65148124D01*
X28569500Y-65268422D01*
X28569500Y-65268425D01*
X28569500Y-65413375D01*
X28580458Y-65454269D01*
X28607017Y-65553389D01*
X28679487Y-65678910D01*
X28679489Y-65678912D01*
X28679491Y-65678915D01*
X28781985Y-65781409D01*
X28781987Y-65781410D01*
X28781989Y-65781412D01*
X28907511Y-65853882D01*
X28907512Y-65853882D01*
X28907515Y-65853884D01*
X29047525Y-65891400D01*
X29047526Y-65891400D01*
X29169165Y-65891400D01*
X29227356Y-65910307D01*
X29239169Y-65920396D01*
X31563025Y-68244252D01*
X31563746Y-68245074D01*
X31632755Y-68314082D01*
X31633565Y-68314792D01*
X36767404Y-73448631D01*
X36795181Y-73503148D01*
X36796400Y-73518635D01*
X36796400Y-73640274D01*
X36833917Y-73780289D01*
X36906387Y-73905810D01*
X36906389Y-73905812D01*
X36906391Y-73905815D01*
X37008885Y-74008309D01*
X37008887Y-74008310D01*
X37008889Y-74008312D01*
X37134411Y-74080782D01*
X37134412Y-74080782D01*
X37134415Y-74080784D01*
X37274425Y-74118300D01*
X37274426Y-74118300D01*
X37419374Y-74118300D01*
X37419375Y-74118300D01*
X37559385Y-74080784D01*
X37559387Y-74080782D01*
X37559389Y-74080782D01*
X37684910Y-74008312D01*
X37684910Y-74008311D01*
X37684915Y-74008309D01*
X37787409Y-73905815D01*
X37859884Y-73780285D01*
X37897400Y-73640275D01*
X37897400Y-73495325D01*
X37859884Y-73355315D01*
X37859882Y-73355312D01*
X37859882Y-73355310D01*
X37787412Y-73229789D01*
X37787410Y-73229787D01*
X37787409Y-73229785D01*
X37684915Y-73127291D01*
X37684912Y-73127289D01*
X37684910Y-73127287D01*
X37559388Y-73054817D01*
X37559389Y-73054817D01*
X37529796Y-73046887D01*
X37419375Y-73017300D01*
X37297735Y-73017300D01*
X37239544Y-72998393D01*
X37227731Y-72988304D01*
X35714829Y-71475402D01*
X35687052Y-71420885D01*
X35696623Y-71360453D01*
X35739888Y-71317188D01*
X35746961Y-71313928D01*
X35749475Y-71312886D01*
X35749485Y-71312884D01*
X35749493Y-71312878D01*
X35749496Y-71312878D01*
X35875010Y-71240412D01*
X35875010Y-71240411D01*
X35875015Y-71240409D01*
X35977509Y-71137915D01*
X36032959Y-71041873D01*
X36049982Y-71012389D01*
X36049982Y-71012387D01*
X36049984Y-71012385D01*
X36087500Y-70872375D01*
X36087500Y-70727425D01*
X36049984Y-70587415D01*
X36049982Y-70587412D01*
X36049982Y-70587410D01*
X35977512Y-70461889D01*
X35977510Y-70461887D01*
X35977509Y-70461885D01*
X35875015Y-70359391D01*
X35875012Y-70359389D01*
X35875010Y-70359387D01*
X35749488Y-70286917D01*
X35749489Y-70286917D01*
X35719896Y-70278987D01*
X35609475Y-70249400D01*
X35487835Y-70249400D01*
X35429644Y-70230493D01*
X35417831Y-70220404D01*
X30590696Y-65393269D01*
X30562919Y-65338752D01*
X30561700Y-65323265D01*
X30561700Y-65201625D01*
X30547364Y-65148123D01*
X30550567Y-65087021D01*
X30589072Y-65039472D01*
X30642991Y-65023500D01*
X36806499Y-65023500D01*
X36864690Y-65042407D01*
X36876503Y-65052496D01*
X39039404Y-67215397D01*
X39067181Y-67269914D01*
X39068400Y-67285401D01*
X39068400Y-67300975D01*
X39071910Y-67314074D01*
X39105917Y-67440989D01*
X39178387Y-67566510D01*
X39178389Y-67566512D01*
X39178391Y-67566515D01*
X39189405Y-67577529D01*
X39217181Y-67632044D01*
X39218400Y-67647531D01*
X39218400Y-70802865D01*
X39199493Y-70861056D01*
X39149993Y-70897020D01*
X39088807Y-70897020D01*
X39049396Y-70872869D01*
X38440496Y-70263969D01*
X38412719Y-70209452D01*
X38411500Y-70193965D01*
X38411500Y-70072325D01*
X38373984Y-69932315D01*
X38373982Y-69932312D01*
X38373982Y-69932310D01*
X38301512Y-69806789D01*
X38301510Y-69806787D01*
X38301509Y-69806785D01*
X38199015Y-69704291D01*
X38199012Y-69704289D01*
X38199010Y-69704287D01*
X38073488Y-69631817D01*
X38073489Y-69631817D01*
X38020184Y-69617534D01*
X37933475Y-69594300D01*
X37788525Y-69594300D01*
X37726790Y-69610841D01*
X37648510Y-69631817D01*
X37522989Y-69704287D01*
X37420487Y-69806789D01*
X37348017Y-69932310D01*
X37348016Y-69932315D01*
X37310500Y-70072325D01*
X37310500Y-70217275D01*
X37329161Y-70286917D01*
X37348017Y-70357289D01*
X37420487Y-70482810D01*
X37420489Y-70482812D01*
X37420491Y-70482815D01*
X37522985Y-70585309D01*
X37522987Y-70585310D01*
X37522989Y-70585312D01*
X37648511Y-70657782D01*
X37648512Y-70657782D01*
X37648515Y-70657784D01*
X37788525Y-70695300D01*
X37788526Y-70695300D01*
X37910166Y-70695300D01*
X37968357Y-70714207D01*
X37980170Y-70724296D01*
X39536833Y-72280959D01*
X39536835Y-72280962D01*
X39597438Y-72341565D01*
X39634547Y-72362989D01*
X39634549Y-72362991D01*
X39665576Y-72380905D01*
X39671661Y-72384418D01*
X39754447Y-72406601D01*
X39754449Y-72406601D01*
X39846216Y-72406601D01*
X39846232Y-72406600D01*
X45269951Y-72406600D01*
X45269953Y-72406600D01*
X45352739Y-72384418D01*
X45352741Y-72384416D01*
X45352743Y-72384416D01*
X45426957Y-72341568D01*
X45426957Y-72341567D01*
X45426962Y-72341565D01*
X45831665Y-71936862D01*
X45874518Y-71862639D01*
X45896700Y-71779853D01*
X45896700Y-71694147D01*
X45896700Y-69492540D01*
X45896701Y-69492527D01*
X45896701Y-69398849D01*
X45896701Y-69398847D01*
X45874518Y-69316061D01*
X45872937Y-69313322D01*
X45853093Y-69278951D01*
X45853089Y-69278947D01*
X45831665Y-69241838D01*
X45771062Y-69181235D01*
X45771059Y-69181233D01*
X39167462Y-62577635D01*
X39167459Y-62577633D01*
X39167457Y-62577631D01*
X39093242Y-62534783D01*
X39093244Y-62534783D01*
X39061121Y-62526176D01*
X39010453Y-62512600D01*
X23981847Y-62512600D01*
X23899062Y-62534782D01*
X23824838Y-62577635D01*
X19740368Y-66662104D01*
X19685851Y-66689881D01*
X19670364Y-66691100D01*
X19548725Y-66691100D01*
X19502922Y-66703372D01*
X19441822Y-66700171D01*
X19394272Y-66661665D01*
X19378300Y-66607746D01*
X19378300Y-28257592D01*
X48149708Y-28257592D01*
X48149708Y-28400439D01*
X48177575Y-28540533D01*
X48177575Y-28540535D01*
X48232236Y-28672500D01*
X48232236Y-28672501D01*
X48311596Y-28791270D01*
X48311597Y-28791271D01*
X48412601Y-28892275D01*
X48531369Y-28971634D01*
X48663338Y-29026297D01*
X48803435Y-29054164D01*
X48803436Y-29054164D01*
X48946276Y-29054164D01*
X48946277Y-29054164D01*
X49086374Y-29026297D01*
X49218343Y-28971634D01*
X49337111Y-28892275D01*
X49438115Y-28791271D01*
X49517474Y-28672503D01*
X49572137Y-28540534D01*
X49600004Y-28400437D01*
X49600004Y-28257595D01*
X49572137Y-28117498D01*
X49517475Y-27985531D01*
X49517475Y-27985530D01*
X49438115Y-27866761D01*
X49337110Y-27765756D01*
X49218340Y-27686396D01*
X49086374Y-27631735D01*
X48946279Y-27603868D01*
X48946277Y-27603868D01*
X48803435Y-27603868D01*
X48803432Y-27603868D01*
X48663338Y-27631735D01*
X48663336Y-27631735D01*
X48531371Y-27686396D01*
X48531370Y-27686396D01*
X48412601Y-27765756D01*
X48311596Y-27866761D01*
X48232236Y-27985530D01*
X48232236Y-27985531D01*
X48177575Y-28117496D01*
X48177575Y-28117498D01*
X48149708Y-28257592D01*
X19378300Y-28257592D01*
X19378300Y-20829733D01*
X19397207Y-20771542D01*
X19407290Y-20759735D01*
X24925829Y-15241195D01*
X24980346Y-15213419D01*
X24995833Y-15212200D01*
X25117474Y-15212200D01*
X25117475Y-15212200D01*
X25257485Y-15174684D01*
X25257487Y-15174682D01*
X25257489Y-15174682D01*
X25383010Y-15102212D01*
X25383010Y-15102211D01*
X25383015Y-15102209D01*
X25485509Y-14999715D01*
X25557984Y-14874185D01*
X25595500Y-14734175D01*
X25595500Y-14589225D01*
X25557984Y-14449215D01*
X25557982Y-14449212D01*
X25557982Y-14449210D01*
X25485512Y-14323689D01*
X25485510Y-14323687D01*
X25485509Y-14323685D01*
X25383015Y-14221191D01*
X25383012Y-14221189D01*
X25383010Y-14221187D01*
X25257488Y-14148717D01*
X25257489Y-14148717D01*
X25227896Y-14140787D01*
X25117475Y-14111200D01*
X24972525Y-14111200D01*
X24910790Y-14127741D01*
X24832510Y-14148717D01*
X24706989Y-14221187D01*
X24604487Y-14323689D01*
X24532017Y-14449210D01*
X24494500Y-14589225D01*
X24494500Y-14710865D01*
X24475593Y-14769056D01*
X24465504Y-14780869D01*
X18792331Y-20454042D01*
X18749482Y-20528260D01*
X18749481Y-20528260D01*
X18749482Y-20528261D01*
X18749482Y-20528262D01*
X18727300Y-20611047D01*
X18727300Y-67375447D01*
X18727300Y-67461153D01*
X18741248Y-67513207D01*
X18749483Y-67543943D01*
X18792331Y-67618157D01*
X18792333Y-67618159D01*
X18792335Y-67618162D01*
X19976438Y-68802265D01*
X19976440Y-68802266D01*
X19976442Y-68802268D01*
X20050657Y-68845116D01*
X20050655Y-68845116D01*
X20050659Y-68845117D01*
X20050661Y-68845118D01*
X20133447Y-68867300D01*
X20219153Y-68867300D01*
X21700569Y-68867300D01*
X21758760Y-68886207D01*
X21770566Y-68896290D01*
X21856585Y-68982309D01*
X21887882Y-69000378D01*
X21928823Y-69045848D01*
X21935219Y-69106698D01*
X21908386Y-69156119D01*
X13324017Y-77740490D01*
X13324016Y-77740491D01*
X13271293Y-77831811D01*
X13271292Y-77831811D01*
X13271293Y-77831812D01*
X13244000Y-77933673D01*
X13244000Y-91136545D01*
X13225093Y-91194736D01*
X13175593Y-91230700D01*
X13114407Y-91230700D01*
X13107019Y-91227121D01*
X13106752Y-91227767D01*
X13097742Y-91224035D01*
X13097740Y-91224034D01*
X13097736Y-91224033D01*
X13024684Y-91209501D01*
X13024674Y-91209500D01*
X10975326Y-91209500D01*
X10975325Y-91209500D01*
X10975315Y-91209501D01*
X10902263Y-91224033D01*
X10902257Y-91224035D01*
X10819400Y-91279397D01*
X10819397Y-91279400D01*
X10764035Y-91362257D01*
X10764033Y-91362263D01*
X10749501Y-91435315D01*
X10749500Y-91435327D01*
X10749500Y-93484672D01*
X10749501Y-93484684D01*
X10764033Y-93557736D01*
X10764035Y-93557742D01*
X10819397Y-93640599D01*
X10819400Y-93640602D01*
X10841594Y-93655431D01*
X10902260Y-93695966D01*
X10950974Y-93705656D01*
X10975315Y-93710498D01*
X10975320Y-93710498D01*
X10975326Y-93710500D01*
X11400500Y-93710500D01*
X11458691Y-93729407D01*
X11494655Y-93778907D01*
X11499500Y-93809500D01*
X11499500Y-100303678D01*
X11480593Y-100361869D01*
X11470504Y-100373682D01*
X7635957Y-104208228D01*
X7581440Y-104236005D01*
X7521008Y-104226434D01*
X7477743Y-104183169D01*
X7468172Y-104122737D01*
X7477741Y-104093282D01*
X7551557Y-103948412D01*
X7617246Y-103746243D01*
X7630081Y-103665209D01*
X7650500Y-103536290D01*
X7650500Y-103323709D01*
X7617247Y-103113761D01*
X7617246Y-103113757D01*
X7551557Y-102911588D01*
X7455051Y-102722184D01*
X7455049Y-102722180D01*
X7330108Y-102550213D01*
X7330106Y-102550211D01*
X7330104Y-102550208D01*
X7179792Y-102399896D01*
X7179788Y-102399893D01*
X7179786Y-102399891D01*
X7007819Y-102274950D01*
X7007815Y-102274948D01*
X6818412Y-102178443D01*
X6616238Y-102112752D01*
X6406290Y-102079500D01*
X6406287Y-102079500D01*
X6193713Y-102079500D01*
X6193710Y-102079500D01*
X5983761Y-102112752D01*
X5781587Y-102178443D01*
X5592184Y-102274948D01*
X5592180Y-102274950D01*
X5420213Y-102399891D01*
X5269891Y-102550213D01*
X5144950Y-102722180D01*
X5144948Y-102722184D01*
X5048443Y-102911587D01*
X4982752Y-103113761D01*
X4949500Y-103323709D01*
X4949500Y-103536290D01*
X4982752Y-103746238D01*
X5048443Y-103948412D01*
X5144948Y-104137815D01*
X5144950Y-104137819D01*
X5269891Y-104309786D01*
X5269893Y-104309788D01*
X5269896Y-104309792D01*
X5420208Y-104460104D01*
X5420211Y-104460106D01*
X5420213Y-104460108D01*
X5592180Y-104585049D01*
X5592184Y-104585051D01*
X5781588Y-104681557D01*
X5983757Y-104747246D01*
X5983758Y-104747246D01*
X5983761Y-104747247D01*
X6193710Y-104780500D01*
X6193713Y-104780500D01*
X6406290Y-104780500D01*
X6616238Y-104747247D01*
X6616239Y-104747246D01*
X6616243Y-104747246D01*
X6818412Y-104681557D01*
X6963280Y-104607742D01*
X7023711Y-104598172D01*
X7078227Y-104625949D01*
X7106005Y-104680466D01*
X7096434Y-104740898D01*
X7078228Y-104765957D01*
X5291986Y-106552200D01*
X5291985Y-106552199D01*
X5198800Y-106645385D01*
X5198796Y-106645390D01*
X5132909Y-106759509D01*
X5098800Y-106886809D01*
X5098800Y-124467578D01*
X5079893Y-124525769D01*
X5069804Y-124537582D01*
X4987586Y-124619800D01*
X4987585Y-124619799D01*
X4894400Y-124712985D01*
X4894396Y-124712990D01*
X4828509Y-124827109D01*
X4828508Y-124827114D01*
X4794400Y-124954408D01*
X4794400Y-136766608D01*
X4794400Y-136898392D01*
X4824479Y-137010651D01*
X4828509Y-137025690D01*
X4894396Y-137139809D01*
X4894398Y-137139811D01*
X4894400Y-137139814D01*
X22603086Y-154848500D01*
X22603088Y-154848501D01*
X22603090Y-154848503D01*
X22717210Y-154914390D01*
X22717208Y-154914390D01*
X22717212Y-154914391D01*
X22717214Y-154914392D01*
X22844508Y-154948500D01*
X22976292Y-154948500D01*
X46462078Y-154948500D01*
X46520269Y-154967407D01*
X46532082Y-154977496D01*
X46980550Y-155425964D01*
X47008327Y-155480481D01*
X46998756Y-155540913D01*
X46955491Y-155584178D01*
X46895059Y-155593749D01*
X46861047Y-155581705D01*
X46851888Y-155576417D01*
X46851885Y-155576416D01*
X46711875Y-155538900D01*
X46566925Y-155538900D01*
X46505332Y-155555404D01*
X46426910Y-155576417D01*
X46301389Y-155648887D01*
X46198887Y-155751389D01*
X46126417Y-155876910D01*
X46088900Y-156016925D01*
X46088900Y-156138565D01*
X46069993Y-156196756D01*
X46059904Y-156208569D01*
X45992069Y-156276404D01*
X45937552Y-156304181D01*
X45922065Y-156305400D01*
X42036534Y-156305400D01*
X41978343Y-156286493D01*
X41966530Y-156276404D01*
X41950696Y-156260570D01*
X41922919Y-156206053D01*
X41921700Y-156190566D01*
X41921700Y-156066525D01*
X41916861Y-156048467D01*
X41884184Y-155926515D01*
X41884182Y-155926512D01*
X41884182Y-155926510D01*
X41811712Y-155800989D01*
X41811710Y-155800987D01*
X41811709Y-155800985D01*
X41709215Y-155698491D01*
X41709212Y-155698489D01*
X41709210Y-155698487D01*
X41583688Y-155626017D01*
X41583689Y-155626017D01*
X41554096Y-155618087D01*
X41443675Y-155588500D01*
X41298725Y-155588500D01*
X41279136Y-155593749D01*
X41158710Y-155626017D01*
X41033189Y-155698487D01*
X40930687Y-155800989D01*
X40858217Y-155926510D01*
X40828035Y-156039151D01*
X40820700Y-156066525D01*
X40820700Y-156211475D01*
X40833855Y-156260570D01*
X40858217Y-156351489D01*
X40930687Y-156477010D01*
X40930689Y-156477012D01*
X40930691Y-156477015D01*
X41033185Y-156579509D01*
X41033187Y-156579510D01*
X41033189Y-156579512D01*
X41158711Y-156651982D01*
X41158712Y-156651982D01*
X41158715Y-156651984D01*
X41298725Y-156689500D01*
X41298726Y-156689500D01*
X41417966Y-156689500D01*
X41476157Y-156708407D01*
X41487970Y-156718496D01*
X41600233Y-156830759D01*
X41600235Y-156830762D01*
X41660838Y-156891365D01*
X41660840Y-156891366D01*
X41735058Y-156934216D01*
X41735062Y-156934218D01*
X41817844Y-156956400D01*
X41817846Y-156956401D01*
X41817847Y-156956401D01*
X41909616Y-156956401D01*
X41909632Y-156956400D01*
X46140751Y-156956400D01*
X46140753Y-156956400D01*
X46223539Y-156934218D01*
X46223541Y-156934216D01*
X46223543Y-156934216D01*
X46297762Y-156891365D01*
X46520228Y-156668896D01*
X46574744Y-156641119D01*
X46590232Y-156639900D01*
X46711874Y-156639900D01*
X46711875Y-156639900D01*
X46851885Y-156602384D01*
X46851887Y-156602382D01*
X46851889Y-156602382D01*
X46977410Y-156529912D01*
X46977410Y-156529911D01*
X46977415Y-156529909D01*
X47079909Y-156427415D01*
X47123745Y-156351489D01*
X47152382Y-156301889D01*
X47152382Y-156301887D01*
X47152384Y-156301885D01*
X47189900Y-156161875D01*
X47189900Y-156016925D01*
X47152384Y-155876915D01*
X47147095Y-155867754D01*
X47134373Y-155807906D01*
X47159259Y-155752010D01*
X47212247Y-155721417D01*
X47273097Y-155727812D01*
X47302835Y-155748249D01*
X49738612Y-158184026D01*
X49766389Y-158238543D01*
X49756818Y-158298975D01*
X49718119Y-158339760D01*
X49714092Y-158342085D01*
X49714088Y-158342088D01*
X49611587Y-158444589D01*
X49539117Y-158570110D01*
X49501600Y-158710125D01*
X49501600Y-158855074D01*
X49539117Y-158995089D01*
X49611587Y-159120610D01*
X49611589Y-159120612D01*
X49611591Y-159120615D01*
X49622605Y-159131629D01*
X49650381Y-159186144D01*
X49651600Y-159201631D01*
X49651600Y-166573873D01*
X49651600Y-166679327D01*
X49675670Y-166769159D01*
X49678894Y-166781192D01*
X49731616Y-166872508D01*
X49731618Y-166872510D01*
X49731620Y-166872513D01*
X50266997Y-167407889D01*
X50466604Y-167607496D01*
X50494381Y-167662013D01*
X50484810Y-167722445D01*
X50441545Y-167765710D01*
X50396600Y-167776500D01*
X49073527Y-167776500D01*
X48968073Y-167776500D01*
X48905729Y-167793204D01*
X48866207Y-167803794D01*
X48774891Y-167856516D01*
X48153103Y-168478304D01*
X48098586Y-168506081D01*
X48083099Y-168507300D01*
X48067525Y-168507300D01*
X48038733Y-168515015D01*
X47927510Y-168544817D01*
X47801989Y-168617287D01*
X47801988Y-168617288D01*
X47801985Y-168617290D01*
X47801985Y-168617291D01*
X47790970Y-168628305D01*
X47736456Y-168656081D01*
X47720969Y-168657300D01*
X36418427Y-168657300D01*
X36312973Y-168657300D01*
X36250629Y-168674004D01*
X36211107Y-168684594D01*
X36119791Y-168737316D01*
X32833103Y-172024004D01*
X32778586Y-172051781D01*
X32763099Y-172053000D01*
X32747525Y-172053000D01*
X32685790Y-172069541D01*
X32607510Y-172090517D01*
X32481989Y-172162987D01*
X32379487Y-172265489D01*
X32307017Y-172391010D01*
X32269500Y-172531025D01*
X32269500Y-172546599D01*
X32250593Y-172604790D01*
X32240504Y-172616603D01*
X32185703Y-172671404D01*
X32131186Y-172699181D01*
X32115699Y-172700400D01*
X31209459Y-172700400D01*
X31151268Y-172681493D01*
X31115304Y-172631993D01*
X31113832Y-172575778D01*
X31114409Y-172573623D01*
X31120500Y-172550892D01*
X31120500Y-172485834D01*
X31139407Y-172427643D01*
X31149490Y-172415836D01*
X32215831Y-171349494D01*
X32270346Y-171321719D01*
X32330778Y-171331290D01*
X32335333Y-171333764D01*
X32451411Y-171400782D01*
X32451412Y-171400782D01*
X32451415Y-171400784D01*
X32591425Y-171438300D01*
X32591426Y-171438300D01*
X32736374Y-171438300D01*
X32736375Y-171438300D01*
X32876385Y-171400784D01*
X32876387Y-171400782D01*
X32876389Y-171400782D01*
X33001910Y-171328312D01*
X33001910Y-171328311D01*
X33001915Y-171328309D01*
X33104409Y-171225815D01*
X33176884Y-171100285D01*
X33214400Y-170960275D01*
X33214400Y-170815325D01*
X33176884Y-170675315D01*
X33176882Y-170675312D01*
X33176882Y-170675310D01*
X33104412Y-170549789D01*
X33104410Y-170549787D01*
X33104409Y-170549785D01*
X33001915Y-170447291D01*
X33001912Y-170447289D01*
X33001910Y-170447287D01*
X32876388Y-170374817D01*
X32876389Y-170374817D01*
X32846796Y-170366887D01*
X32736375Y-170337300D01*
X32591425Y-170337300D01*
X32529690Y-170353841D01*
X32451410Y-170374817D01*
X32325889Y-170447287D01*
X32325888Y-170447288D01*
X32325885Y-170447290D01*
X32325885Y-170447291D01*
X32239870Y-170533305D01*
X32185356Y-170561081D01*
X32180779Y-170561441D01*
X32180781Y-170561453D01*
X32174349Y-170562299D01*
X32091556Y-170584483D01*
X32017342Y-170627331D01*
X30689169Y-171955504D01*
X30634652Y-171983281D01*
X30619165Y-171984500D01*
X30554108Y-171984500D01*
X30476200Y-172005375D01*
X30426809Y-172018609D01*
X30312690Y-172084496D01*
X30312684Y-172084500D01*
X30266681Y-172130504D01*
X30212164Y-172158281D01*
X30196678Y-172159500D01*
X30043322Y-172159500D01*
X29985131Y-172140593D01*
X29973319Y-172130504D01*
X29927315Y-172084500D01*
X29927309Y-172084496D01*
X29813189Y-172018609D01*
X29813191Y-172018609D01*
X29763799Y-172005375D01*
X29685892Y-171984500D01*
X29554108Y-171984500D01*
X29476200Y-172005375D01*
X29426809Y-172018609D01*
X29312690Y-172084496D01*
X29219496Y-172177690D01*
X29153609Y-172291809D01*
X29153608Y-172291814D01*
X29120379Y-172415830D01*
X29119500Y-172419109D01*
X29119500Y-172550891D01*
X29126168Y-172575778D01*
X29122965Y-172636880D01*
X29084459Y-172684429D01*
X29030541Y-172700400D01*
X28624301Y-172700400D01*
X28566110Y-172681493D01*
X28554297Y-172671404D01*
X28499496Y-172616603D01*
X28471719Y-172562086D01*
X28470500Y-172546599D01*
X28470500Y-172531025D01*
X28458391Y-172485834D01*
X28432984Y-172391015D01*
X28432982Y-172391012D01*
X28432982Y-172391010D01*
X28360512Y-172265489D01*
X28360510Y-172265487D01*
X28360509Y-172265485D01*
X28258015Y-172162991D01*
X28258012Y-172162989D01*
X28258010Y-172162987D01*
X28132488Y-172090517D01*
X28132489Y-172090517D01*
X28102896Y-172082587D01*
X27992475Y-172053000D01*
X27847525Y-172053000D01*
X27785790Y-172069541D01*
X27707510Y-172090517D01*
X27581989Y-172162987D01*
X27479487Y-172265489D01*
X27407017Y-172391010D01*
X27397201Y-172427643D01*
X27369500Y-172531025D01*
X27369500Y-172675975D01*
X27375910Y-172699896D01*
X27407017Y-172815989D01*
X27461353Y-172910100D01*
X27474075Y-172969948D01*
X27449189Y-173025844D01*
X27396201Y-173056437D01*
X27375617Y-173058600D01*
X25357753Y-173058600D01*
X25272047Y-173058600D01*
X25221378Y-173072176D01*
X25189256Y-173080783D01*
X25115042Y-173123631D01*
X25115041Y-173123632D01*
X23908468Y-174330204D01*
X23853951Y-174357981D01*
X23838464Y-174359200D01*
X23716825Y-174359200D01*
X23655090Y-174375741D01*
X23576810Y-174396717D01*
X23451289Y-174469187D01*
X23348787Y-174571689D01*
X23276317Y-174697210D01*
X23254424Y-174778915D01*
X23238800Y-174837225D01*
X23238800Y-174982175D01*
X23260692Y-175063875D01*
X23276317Y-175122189D01*
X23348787Y-175247710D01*
X23348789Y-175247712D01*
X23348791Y-175247715D01*
X23451285Y-175350209D01*
X23451287Y-175350210D01*
X23451289Y-175350212D01*
X23576811Y-175422682D01*
X23576812Y-175422682D01*
X23576815Y-175422684D01*
X23716825Y-175460200D01*
X23716826Y-175460200D01*
X23861774Y-175460200D01*
X23861775Y-175460200D01*
X24001785Y-175422684D01*
X24001787Y-175422682D01*
X24001789Y-175422682D01*
X24127310Y-175350212D01*
X24127310Y-175350211D01*
X24127315Y-175350209D01*
X24229809Y-175247715D01*
X24255112Y-175203889D01*
X24302282Y-175122189D01*
X24302282Y-175122187D01*
X24302284Y-175122185D01*
X24339800Y-174982175D01*
X24339800Y-174860534D01*
X24358707Y-174802343D01*
X24368796Y-174790530D01*
X24829122Y-174330204D01*
X25080997Y-174078329D01*
X25135513Y-174050553D01*
X25195945Y-174060124D01*
X25239210Y-174103389D01*
X25250000Y-174148334D01*
X25250000Y-174524999D01*
X25250001Y-174525000D01*
X25750000Y-174525000D01*
X25750000Y-174875000D01*
X25250001Y-174875000D01*
X25250000Y-174875001D01*
X25250000Y-175328795D01*
X25280742Y-175483349D01*
X25341048Y-175628940D01*
X25341052Y-175628949D01*
X25428599Y-175759969D01*
X25428602Y-175759973D01*
X25540026Y-175871397D01*
X25540030Y-175871400D01*
X25671050Y-175958947D01*
X25671059Y-175958951D01*
X25816646Y-176019255D01*
X25816653Y-176019257D01*
X25875000Y-176030862D01*
X25875000Y-175495374D01*
X25934204Y-175529556D01*
X26010504Y-175550000D01*
X26089496Y-175550000D01*
X26165796Y-175529556D01*
X26225000Y-175495374D01*
X26225000Y-176030861D01*
X26283346Y-176019257D01*
X26283353Y-176019255D01*
X26428940Y-175958951D01*
X26428949Y-175958947D01*
X26559969Y-175871400D01*
X26559973Y-175871397D01*
X26671397Y-175759973D01*
X26671400Y-175759969D01*
X26758947Y-175628949D01*
X26758953Y-175628937D01*
X26801953Y-175525125D01*
X26841689Y-175478599D01*
X26901184Y-175464315D01*
X26957712Y-175487729D01*
X26979153Y-175513510D01*
X27019481Y-175583360D01*
X27019483Y-175583362D01*
X27019485Y-175583365D01*
X27126635Y-175690515D01*
X27126637Y-175690516D01*
X27126639Y-175690518D01*
X27257861Y-175766279D01*
X27257859Y-175766279D01*
X27257863Y-175766280D01*
X27257865Y-175766281D01*
X27404234Y-175805500D01*
X27404236Y-175805500D01*
X27555764Y-175805500D01*
X27555766Y-175805500D01*
X27702135Y-175766281D01*
X27702137Y-175766279D01*
X27702139Y-175766279D01*
X27833360Y-175690518D01*
X27833360Y-175690517D01*
X27833365Y-175690515D01*
X27940515Y-175583365D01*
X27940518Y-175583360D01*
X28016279Y-175452139D01*
X28016279Y-175452137D01*
X28016281Y-175452135D01*
X28055500Y-175305766D01*
X28055500Y-175154234D01*
X28016281Y-175007865D01*
X28016279Y-175007861D01*
X28016279Y-175007860D01*
X27940518Y-174876639D01*
X27940516Y-174876637D01*
X27940515Y-174876635D01*
X27833365Y-174769485D01*
X27833362Y-174769483D01*
X27833360Y-174769481D01*
X27702138Y-174693720D01*
X27702140Y-174693720D01*
X27645347Y-174678503D01*
X27555766Y-174654500D01*
X27404234Y-174654500D01*
X27314652Y-174678503D01*
X27257860Y-174693720D01*
X27126639Y-174769481D01*
X27019482Y-174876638D01*
X27015534Y-174881784D01*
X27013081Y-174879901D01*
X26976871Y-174912350D01*
X26916006Y-174918600D01*
X26866816Y-174891817D01*
X26849999Y-174875000D01*
X26350000Y-174875000D01*
X26350000Y-174525000D01*
X26849999Y-174525000D01*
X26850000Y-174524999D01*
X26850000Y-174071207D01*
X26849999Y-174071204D01*
X26819257Y-173916650D01*
X26790194Y-173846486D01*
X26785393Y-173785489D01*
X26817363Y-173733320D01*
X26873890Y-173709905D01*
X26881658Y-173709600D01*
X27320265Y-173709600D01*
X27378456Y-173728507D01*
X27390269Y-173738596D01*
X28523904Y-174872231D01*
X28551681Y-174926748D01*
X28552900Y-174942235D01*
X28552900Y-175063875D01*
X28556105Y-175075837D01*
X28590417Y-175203889D01*
X28662887Y-175329410D01*
X28662889Y-175329412D01*
X28662891Y-175329415D01*
X28765385Y-175431909D01*
X28765387Y-175431910D01*
X28765389Y-175431912D01*
X28890911Y-175504382D01*
X28890912Y-175504382D01*
X28890915Y-175504384D01*
X29030925Y-175541900D01*
X29030926Y-175541900D01*
X29175874Y-175541900D01*
X29175875Y-175541900D01*
X29315885Y-175504384D01*
X29315887Y-175504382D01*
X29315889Y-175504382D01*
X29441410Y-175431912D01*
X29441410Y-175431911D01*
X29441415Y-175431909D01*
X29531999Y-175341325D01*
X31569500Y-175341325D01*
X31569500Y-175486275D01*
X31599087Y-175596696D01*
X31607017Y-175626289D01*
X31679487Y-175751810D01*
X31679489Y-175751812D01*
X31679491Y-175751815D01*
X31781985Y-175854309D01*
X31781987Y-175854310D01*
X31781989Y-175854312D01*
X31907511Y-175926782D01*
X31907512Y-175926782D01*
X31907515Y-175926784D01*
X32047525Y-175964300D01*
X32047526Y-175964300D01*
X32169165Y-175964300D01*
X32227356Y-175983207D01*
X32239168Y-175993296D01*
X32693337Y-176447464D01*
X32693342Y-176447468D01*
X32767557Y-176490316D01*
X32767555Y-176490316D01*
X32767559Y-176490317D01*
X32767561Y-176490318D01*
X32850347Y-176512500D01*
X32850349Y-176512500D01*
X35754851Y-176512500D01*
X35754853Y-176512500D01*
X35837639Y-176490318D01*
X35837641Y-176490316D01*
X35837643Y-176490316D01*
X35911857Y-176447468D01*
X35911857Y-176447467D01*
X35911862Y-176447465D01*
X36850828Y-175508496D01*
X36905345Y-175480719D01*
X36920832Y-175479500D01*
X37042474Y-175479500D01*
X37042475Y-175479500D01*
X37182485Y-175441984D01*
X37182487Y-175441982D01*
X37182489Y-175441982D01*
X37308010Y-175369512D01*
X37308010Y-175369511D01*
X37308015Y-175369509D01*
X37410509Y-175267015D01*
X37475623Y-175154235D01*
X37482982Y-175141489D01*
X37482982Y-175141487D01*
X37482984Y-175141485D01*
X37520500Y-175001475D01*
X37520500Y-174856525D01*
X37482984Y-174716515D01*
X37482982Y-174716512D01*
X37482982Y-174716510D01*
X37410512Y-174590989D01*
X37410510Y-174590987D01*
X37410509Y-174590985D01*
X37308015Y-174488491D01*
X37308012Y-174488489D01*
X37308010Y-174488487D01*
X37182488Y-174416017D01*
X37182489Y-174416017D01*
X37110457Y-174396716D01*
X37042475Y-174378500D01*
X36897525Y-174378500D01*
X36835790Y-174395041D01*
X36757510Y-174416017D01*
X36631989Y-174488487D01*
X36529487Y-174590989D01*
X36457017Y-174716510D01*
X36419500Y-174856525D01*
X36419500Y-174978165D01*
X36400593Y-175036356D01*
X36390504Y-175048169D01*
X35606169Y-175832504D01*
X35551652Y-175860281D01*
X35536165Y-175861500D01*
X35428777Y-175861500D01*
X35370586Y-175842593D01*
X35334622Y-175793093D01*
X35334622Y-175731907D01*
X35346462Y-175707498D01*
X35398947Y-175628949D01*
X35398951Y-175628940D01*
X35459257Y-175483349D01*
X35489999Y-175328795D01*
X35490000Y-175328792D01*
X35490000Y-174875001D01*
X35489999Y-174875000D01*
X34990000Y-174875000D01*
X34990000Y-174525000D01*
X35489999Y-174525000D01*
X35490000Y-174524999D01*
X35490000Y-174071207D01*
X35489999Y-174071204D01*
X35459257Y-173916650D01*
X35398951Y-173771059D01*
X35398947Y-173771050D01*
X35334650Y-173674825D01*
X35311400Y-173640030D01*
X35311397Y-173640026D01*
X35295080Y-173623709D01*
X47889500Y-173623709D01*
X47889500Y-173836290D01*
X47922752Y-174046238D01*
X47988443Y-174248412D01*
X48084948Y-174437815D01*
X48084950Y-174437819D01*
X48209891Y-174609786D01*
X48209893Y-174609788D01*
X48209896Y-174609792D01*
X48360208Y-174760104D01*
X48360211Y-174760106D01*
X48360213Y-174760108D01*
X48532180Y-174885049D01*
X48532184Y-174885051D01*
X48721588Y-174981557D01*
X48923757Y-175047246D01*
X48923758Y-175047246D01*
X48923761Y-175047247D01*
X49133710Y-175080500D01*
X49133713Y-175080500D01*
X49346290Y-175080500D01*
X49556238Y-175047247D01*
X49556239Y-175047246D01*
X49556243Y-175047246D01*
X49758412Y-174981557D01*
X49947816Y-174885051D01*
X49954905Y-174879901D01*
X50046839Y-174813107D01*
X50119792Y-174760104D01*
X50270104Y-174609792D01*
X50390093Y-174444640D01*
X50395049Y-174437819D01*
X50395051Y-174437816D01*
X50491557Y-174248412D01*
X50557246Y-174046243D01*
X50571582Y-173955729D01*
X50590500Y-173836290D01*
X50590500Y-173623709D01*
X50557247Y-173413761D01*
X50557246Y-173413757D01*
X50491557Y-173211588D01*
X50395051Y-173022184D01*
X50395049Y-173022180D01*
X50270108Y-172850213D01*
X50270106Y-172850211D01*
X50270104Y-172850208D01*
X50119792Y-172699896D01*
X50119788Y-172699893D01*
X50119786Y-172699891D01*
X49947819Y-172574950D01*
X49947815Y-172574948D01*
X49758412Y-172478443D01*
X49556238Y-172412752D01*
X49346290Y-172379500D01*
X49346287Y-172379500D01*
X49133713Y-172379500D01*
X49133710Y-172379500D01*
X48923761Y-172412752D01*
X48721587Y-172478443D01*
X48532184Y-172574948D01*
X48532180Y-172574950D01*
X48360213Y-172699891D01*
X48209891Y-172850213D01*
X48084950Y-173022180D01*
X48084948Y-173022184D01*
X47988443Y-173211587D01*
X47922752Y-173413761D01*
X47889500Y-173623709D01*
X35295080Y-173623709D01*
X35199973Y-173528602D01*
X35199969Y-173528599D01*
X35068949Y-173441052D01*
X35068940Y-173441048D01*
X34923354Y-173380744D01*
X34923348Y-173380742D01*
X34865000Y-173369136D01*
X34865000Y-173904625D01*
X34805796Y-173870444D01*
X34729496Y-173850000D01*
X34650504Y-173850000D01*
X34574204Y-173870444D01*
X34515000Y-173904625D01*
X34515000Y-173369136D01*
X34456651Y-173380742D01*
X34456645Y-173380744D01*
X34311059Y-173441048D01*
X34311050Y-173441052D01*
X34180030Y-173528599D01*
X34180026Y-173528602D01*
X34068602Y-173640026D01*
X34068599Y-173640030D01*
X33981052Y-173771050D01*
X33981048Y-173771059D01*
X33920742Y-173916650D01*
X33890000Y-174071204D01*
X33890000Y-174524999D01*
X33890001Y-174525000D01*
X34390000Y-174525000D01*
X34390000Y-174875000D01*
X33889999Y-174875000D01*
X33873182Y-174891817D01*
X33818665Y-174919594D01*
X33758233Y-174910022D01*
X33726685Y-174880080D01*
X33724466Y-174881784D01*
X33720517Y-174876638D01*
X33720516Y-174876637D01*
X33720515Y-174876635D01*
X33613365Y-174769485D01*
X33613362Y-174769483D01*
X33613360Y-174769481D01*
X33482138Y-174693720D01*
X33482140Y-174693720D01*
X33425347Y-174678503D01*
X33335766Y-174654500D01*
X33184234Y-174654500D01*
X33094652Y-174678503D01*
X33037860Y-174693720D01*
X32906639Y-174769481D01*
X32799481Y-174876639D01*
X32723720Y-175007861D01*
X32723719Y-175007864D01*
X32719255Y-175024523D01*
X32685930Y-175075837D01*
X32628808Y-175097762D01*
X32569708Y-175081925D01*
X32553630Y-175068906D01*
X32458015Y-174973291D01*
X32458012Y-174973289D01*
X32458010Y-174973287D01*
X32332488Y-174900817D01*
X32332489Y-174900817D01*
X32242256Y-174876639D01*
X32192475Y-174863300D01*
X32047525Y-174863300D01*
X31997744Y-174876639D01*
X31907510Y-174900817D01*
X31781989Y-174973287D01*
X31679487Y-175075789D01*
X31607017Y-175201310D01*
X31584502Y-175285336D01*
X31569500Y-175341325D01*
X29531999Y-175341325D01*
X29543909Y-175329415D01*
X29557564Y-175305764D01*
X29569359Y-175285336D01*
X29616382Y-175203889D01*
X29616382Y-175203887D01*
X29616384Y-175203885D01*
X29653900Y-175063875D01*
X29653900Y-174918925D01*
X29616384Y-174778915D01*
X29616382Y-174778912D01*
X29616382Y-174778910D01*
X29543912Y-174653389D01*
X29543910Y-174653387D01*
X29543909Y-174653385D01*
X29441415Y-174550891D01*
X29441412Y-174550889D01*
X29441410Y-174550887D01*
X29315888Y-174478417D01*
X29315889Y-174478417D01*
X29281442Y-174469187D01*
X29175875Y-174440900D01*
X29054235Y-174440900D01*
X28996044Y-174421993D01*
X28984231Y-174411904D01*
X28228490Y-173656163D01*
X28200713Y-173601646D01*
X28210284Y-173541214D01*
X28253549Y-173497949D01*
X28313981Y-173488378D01*
X28324108Y-173490530D01*
X28364673Y-173501400D01*
X28364674Y-173501400D01*
X32375325Y-173501400D01*
X32375327Y-173501400D01*
X32477188Y-173474107D01*
X32477190Y-173474105D01*
X32477192Y-173474105D01*
X32568508Y-173421383D01*
X32568508Y-173421382D01*
X32568513Y-173421380D01*
X32687705Y-173302187D01*
X32806898Y-173182996D01*
X32861414Y-173155219D01*
X32876901Y-173154000D01*
X32892474Y-173154000D01*
X32892475Y-173154000D01*
X33032485Y-173116484D01*
X33032487Y-173116482D01*
X33032489Y-173116482D01*
X33158010Y-173044012D01*
X33158010Y-173044011D01*
X33158015Y-173044009D01*
X33260509Y-172941515D01*
X33278647Y-172910100D01*
X33332982Y-172815989D01*
X33332982Y-172815987D01*
X33332984Y-172815985D01*
X33370500Y-172675975D01*
X33370500Y-172660401D01*
X33389407Y-172602210D01*
X33399496Y-172590397D01*
X36502597Y-169487296D01*
X36557114Y-169459519D01*
X36572601Y-169458300D01*
X47720969Y-169458300D01*
X47779160Y-169477207D01*
X47790966Y-169487290D01*
X47801985Y-169498309D01*
X47801987Y-169498310D01*
X47801989Y-169498312D01*
X47927511Y-169570782D01*
X47927512Y-169570782D01*
X47927515Y-169570784D01*
X48067525Y-169608300D01*
X48067526Y-169608300D01*
X48212474Y-169608300D01*
X48212475Y-169608300D01*
X48352485Y-169570784D01*
X48352487Y-169570782D01*
X48352489Y-169570782D01*
X48478010Y-169498312D01*
X48478010Y-169498311D01*
X48478015Y-169498309D01*
X48580509Y-169395815D01*
X48652984Y-169270285D01*
X48690500Y-169130275D01*
X48690500Y-169114701D01*
X48709407Y-169056510D01*
X48719496Y-169044697D01*
X49157697Y-168606496D01*
X49212214Y-168578719D01*
X49227701Y-168577500D01*
X51183469Y-168577500D01*
X51241660Y-168596407D01*
X51253466Y-168606490D01*
X51264485Y-168617509D01*
X51264487Y-168617510D01*
X51264489Y-168617512D01*
X51390011Y-168689982D01*
X51390012Y-168689982D01*
X51390015Y-168689984D01*
X51530025Y-168727500D01*
X51530026Y-168727500D01*
X51674974Y-168727500D01*
X51674975Y-168727500D01*
X51814985Y-168689984D01*
X51814987Y-168689982D01*
X51814989Y-168689982D01*
X51940510Y-168617512D01*
X51940510Y-168617511D01*
X51940515Y-168617509D01*
X52043009Y-168515015D01*
X52115484Y-168389485D01*
X52153000Y-168249475D01*
X52153000Y-168104525D01*
X52115484Y-167964515D01*
X52115482Y-167964512D01*
X52115482Y-167964510D01*
X52043012Y-167838989D01*
X52043010Y-167838987D01*
X52043009Y-167838985D01*
X51940515Y-167736491D01*
X51940512Y-167736489D01*
X51940510Y-167736487D01*
X51814988Y-167664017D01*
X51814989Y-167664017D01*
X51785396Y-167656087D01*
X51674975Y-167626500D01*
X51674974Y-167626500D01*
X51659400Y-167626500D01*
X51601209Y-167607593D01*
X51589396Y-167597504D01*
X50481596Y-166489703D01*
X50453819Y-166435186D01*
X50452600Y-166419699D01*
X50452600Y-160678021D01*
X50471507Y-160619830D01*
X50521007Y-160583866D01*
X50582193Y-160583866D01*
X50621601Y-160608015D01*
X52429486Y-162415900D01*
X54083300Y-164069714D01*
X54097404Y-164083818D01*
X54125181Y-164138335D01*
X54126400Y-164153822D01*
X54126400Y-165791965D01*
X54115234Y-165833638D01*
X54116399Y-165834121D01*
X54113916Y-165840113D01*
X54076400Y-165980125D01*
X54076400Y-166125074D01*
X54113917Y-166265089D01*
X54186387Y-166390610D01*
X54186389Y-166390612D01*
X54186391Y-166390615D01*
X54288885Y-166493109D01*
X54288887Y-166493110D01*
X54288889Y-166493112D01*
X54414411Y-166565582D01*
X54414412Y-166565582D01*
X54414415Y-166565584D01*
X54554425Y-166603100D01*
X54554426Y-166603100D01*
X54699374Y-166603100D01*
X54699375Y-166603100D01*
X54839385Y-166565584D01*
X54839387Y-166565582D01*
X54839389Y-166565582D01*
X54964910Y-166493112D01*
X54964910Y-166493111D01*
X54964915Y-166493109D01*
X55067409Y-166390615D01*
X55139884Y-166265085D01*
X55177400Y-166125075D01*
X55177400Y-165980125D01*
X55139884Y-165840115D01*
X55139883Y-165840113D01*
X55137401Y-165834121D01*
X55138565Y-165833638D01*
X55127400Y-165791965D01*
X55127400Y-164010720D01*
X55146307Y-163952529D01*
X55156390Y-163940723D01*
X55592509Y-163504603D01*
X55629869Y-163483035D01*
X55629386Y-163481869D01*
X55635381Y-163479385D01*
X55635380Y-163479385D01*
X55635385Y-163479384D01*
X55760915Y-163406909D01*
X55863409Y-163304415D01*
X55935884Y-163178885D01*
X55973400Y-163038875D01*
X55973400Y-162893925D01*
X55935884Y-162753915D01*
X55935882Y-162753912D01*
X55935882Y-162753910D01*
X55863412Y-162628389D01*
X55863410Y-162628387D01*
X55863409Y-162628385D01*
X55760915Y-162525891D01*
X55760912Y-162525889D01*
X55760910Y-162525887D01*
X55635388Y-162453417D01*
X55635389Y-162453417D01*
X55605796Y-162445487D01*
X55495375Y-162415900D01*
X55350425Y-162415900D01*
X55288690Y-162432441D01*
X55210410Y-162453417D01*
X55084889Y-162525887D01*
X54982390Y-162628386D01*
X54909914Y-162753919D01*
X54907433Y-162759910D01*
X54906271Y-162759428D01*
X54884697Y-162796787D01*
X54625354Y-163056131D01*
X54570837Y-163083909D01*
X54510405Y-163074338D01*
X54485346Y-163056132D01*
X52346911Y-160917697D01*
X52319134Y-160863180D01*
X52328705Y-160802748D01*
X52367413Y-160761957D01*
X52443015Y-160718309D01*
X52545509Y-160615815D01*
X52617984Y-160490285D01*
X52655500Y-160350275D01*
X52655500Y-160205325D01*
X52617984Y-160065315D01*
X52617982Y-160065312D01*
X52617982Y-160065310D01*
X52545512Y-159939789D01*
X52545510Y-159939787D01*
X52545509Y-159939785D01*
X52459494Y-159853770D01*
X52431719Y-159799256D01*
X52430500Y-159783769D01*
X52430500Y-158224951D01*
X52430500Y-158224947D01*
X52430274Y-158224103D01*
X52430274Y-158224099D01*
X52430273Y-158224100D01*
X52408318Y-158142161D01*
X52408315Y-158142155D01*
X52365468Y-158067942D01*
X52365467Y-158067941D01*
X52365466Y-158067940D01*
X52365465Y-158067938D01*
X50187996Y-155890469D01*
X50160219Y-155835952D01*
X50159000Y-155820465D01*
X50159000Y-154531931D01*
X50177907Y-154473740D01*
X50187990Y-154461933D01*
X50274009Y-154375915D01*
X50346484Y-154250385D01*
X50384000Y-154110375D01*
X50384000Y-153965425D01*
X50346484Y-153825415D01*
X50346482Y-153825412D01*
X50346482Y-153825410D01*
X50274012Y-153699889D01*
X50274010Y-153699887D01*
X50274009Y-153699885D01*
X50171515Y-153597391D01*
X50171512Y-153597389D01*
X50171510Y-153597387D01*
X50045992Y-153524919D01*
X50042483Y-153523466D01*
X50040412Y-153521698D01*
X50040366Y-153521671D01*
X50040371Y-153521662D01*
X49995956Y-153483731D01*
X49981670Y-153424236D01*
X50005082Y-153367708D01*
X50057250Y-153335736D01*
X50080365Y-153333000D01*
X52862151Y-153333000D01*
X52862153Y-153333000D01*
X52944939Y-153310818D01*
X52944941Y-153310816D01*
X52944943Y-153310816D01*
X53019157Y-153267968D01*
X53019157Y-153267967D01*
X53019162Y-153267965D01*
X53255829Y-153031296D01*
X53310346Y-153003519D01*
X53325833Y-153002300D01*
X53447474Y-153002300D01*
X53447475Y-153002300D01*
X53587485Y-152964784D01*
X53587487Y-152964782D01*
X53587489Y-152964782D01*
X53713010Y-152892312D01*
X53713010Y-152892311D01*
X53713015Y-152892309D01*
X53815509Y-152789815D01*
X53887984Y-152664285D01*
X53925500Y-152524275D01*
X53925500Y-152379325D01*
X53887984Y-152239315D01*
X53887982Y-152239311D01*
X53887982Y-152239310D01*
X53815512Y-152113789D01*
X53815510Y-152113787D01*
X53815509Y-152113785D01*
X53713015Y-152011291D01*
X53713012Y-152011289D01*
X53713010Y-152011287D01*
X53587488Y-151938817D01*
X53587489Y-151938817D01*
X53503828Y-151916400D01*
X53447475Y-151901300D01*
X53302525Y-151901300D01*
X53246172Y-151916400D01*
X53162510Y-151938817D01*
X53036989Y-152011287D01*
X52934487Y-152113789D01*
X52862017Y-152239311D01*
X52862015Y-152239315D01*
X52833602Y-152345351D01*
X52800278Y-152396665D01*
X52743156Y-152418591D01*
X52684056Y-152402755D01*
X52645551Y-152355204D01*
X52642356Y-152345371D01*
X52617984Y-152254415D01*
X52617982Y-152254412D01*
X52617982Y-152254410D01*
X52545512Y-152128889D01*
X52545510Y-152128887D01*
X52545509Y-152128885D01*
X52443015Y-152026391D01*
X52443012Y-152026389D01*
X52443010Y-152026387D01*
X52317488Y-151953917D01*
X52317489Y-151953917D01*
X52261135Y-151938817D01*
X52177475Y-151916400D01*
X52055834Y-151916400D01*
X51997643Y-151897493D01*
X51985830Y-151887404D01*
X45922135Y-145823709D01*
X53089500Y-145823709D01*
X53089500Y-146036290D01*
X53122752Y-146246238D01*
X53188443Y-146448412D01*
X53284948Y-146637815D01*
X53284950Y-146637819D01*
X53409891Y-146809786D01*
X53409893Y-146809788D01*
X53409896Y-146809792D01*
X53560208Y-146960104D01*
X53560211Y-146960106D01*
X53560213Y-146960108D01*
X53732180Y-147085049D01*
X53732184Y-147085051D01*
X53921588Y-147181557D01*
X54123757Y-147247246D01*
X54123758Y-147247246D01*
X54123761Y-147247247D01*
X54333710Y-147280500D01*
X54333713Y-147280500D01*
X54546290Y-147280500D01*
X54756238Y-147247247D01*
X54756239Y-147247246D01*
X54756243Y-147247246D01*
X54958412Y-147181557D01*
X55147816Y-147085051D01*
X55319792Y-146960104D01*
X55470104Y-146809792D01*
X55595051Y-146637816D01*
X55691557Y-146448412D01*
X55757246Y-146246243D01*
X55790500Y-146036287D01*
X55790500Y-145823713D01*
X55790500Y-145823709D01*
X55757247Y-145613761D01*
X55757246Y-145613757D01*
X55691557Y-145411588D01*
X55595051Y-145222184D01*
X55595049Y-145222180D01*
X55470108Y-145050213D01*
X55470106Y-145050211D01*
X55470104Y-145050208D01*
X55319792Y-144899896D01*
X55319788Y-144899893D01*
X55319786Y-144899891D01*
X55147819Y-144774950D01*
X55147815Y-144774948D01*
X54958412Y-144678443D01*
X54756238Y-144612752D01*
X54546290Y-144579500D01*
X54546287Y-144579500D01*
X54333713Y-144579500D01*
X54333710Y-144579500D01*
X54123761Y-144612752D01*
X53921587Y-144678443D01*
X53732184Y-144774948D01*
X53732180Y-144774950D01*
X53560213Y-144899891D01*
X53409891Y-145050213D01*
X53284950Y-145222180D01*
X53284948Y-145222184D01*
X53188443Y-145411587D01*
X53122752Y-145613761D01*
X53089500Y-145823709D01*
X45922135Y-145823709D01*
X45320606Y-145222180D01*
X38417662Y-138319235D01*
X38417659Y-138319233D01*
X38417657Y-138319231D01*
X38343442Y-138276383D01*
X38343444Y-138276383D01*
X38311321Y-138267776D01*
X38260653Y-138254200D01*
X38260651Y-138254200D01*
X37569535Y-138254200D01*
X37511344Y-138235293D01*
X37499531Y-138225204D01*
X30679944Y-131405617D01*
X30652167Y-131351100D01*
X30661738Y-131290668D01*
X30700451Y-131249875D01*
X30708015Y-131245509D01*
X30810509Y-131143015D01*
X30810512Y-131143010D01*
X30882982Y-131017489D01*
X30882982Y-131017487D01*
X30882984Y-131017485D01*
X30920500Y-130877475D01*
X30920500Y-130755834D01*
X30939407Y-130697643D01*
X30949496Y-130685830D01*
X34578131Y-127057196D01*
X34632648Y-127029419D01*
X34648135Y-127028200D01*
X37396769Y-127028200D01*
X37454960Y-127047107D01*
X37466766Y-127057190D01*
X37552785Y-127143209D01*
X37552787Y-127143210D01*
X37552789Y-127143212D01*
X37678311Y-127215682D01*
X37678312Y-127215682D01*
X37678315Y-127215684D01*
X37818325Y-127253200D01*
X37818326Y-127253200D01*
X37963274Y-127253200D01*
X37963275Y-127253200D01*
X38103285Y-127215684D01*
X38103287Y-127215682D01*
X38103289Y-127215682D01*
X38228810Y-127143212D01*
X38228810Y-127143211D01*
X38228815Y-127143209D01*
X38331309Y-127040715D01*
X38390654Y-126937925D01*
X38436124Y-126896985D01*
X38496974Y-126890589D01*
X38546395Y-126917422D01*
X50557104Y-138928131D01*
X50584881Y-138982648D01*
X50586100Y-138998135D01*
X50586100Y-139119774D01*
X50623617Y-139259789D01*
X50696087Y-139385310D01*
X50696089Y-139385312D01*
X50696091Y-139385315D01*
X50798585Y-139487809D01*
X50798587Y-139487810D01*
X50798589Y-139487812D01*
X50924111Y-139560282D01*
X50924112Y-139560282D01*
X50924115Y-139560284D01*
X51064125Y-139597800D01*
X51064126Y-139597800D01*
X51209074Y-139597800D01*
X51209075Y-139597800D01*
X51349085Y-139560284D01*
X51349087Y-139560282D01*
X51349089Y-139560282D01*
X51474610Y-139487812D01*
X51474610Y-139487811D01*
X51474615Y-139487809D01*
X51577109Y-139385315D01*
X51577112Y-139385310D01*
X51649582Y-139259789D01*
X51649582Y-139259787D01*
X51649584Y-139259785D01*
X51687100Y-139119775D01*
X51687100Y-138974825D01*
X51687100Y-138974824D01*
X51687099Y-138974819D01*
X51686001Y-138970720D01*
X51689205Y-138909619D01*
X51727711Y-138862070D01*
X51781628Y-138846100D01*
X52190142Y-138846100D01*
X52248333Y-138865007D01*
X52284297Y-138914507D01*
X52285763Y-138919458D01*
X52296544Y-138959693D01*
X52298017Y-138965189D01*
X52370487Y-139090710D01*
X52370489Y-139090712D01*
X52370491Y-139090715D01*
X52472985Y-139193209D01*
X52472987Y-139193210D01*
X52472989Y-139193212D01*
X52598511Y-139265682D01*
X52598512Y-139265682D01*
X52598515Y-139265684D01*
X52738525Y-139303200D01*
X52738526Y-139303200D01*
X52883474Y-139303200D01*
X52883475Y-139303200D01*
X53023485Y-139265684D01*
X53023487Y-139265682D01*
X53023489Y-139265682D01*
X53149010Y-139193212D01*
X53149010Y-139193211D01*
X53149015Y-139193209D01*
X53251509Y-139090715D01*
X53251512Y-139090710D01*
X53323982Y-138965189D01*
X53323982Y-138965187D01*
X53323984Y-138965185D01*
X53361500Y-138825175D01*
X53361500Y-138680225D01*
X53323984Y-138540215D01*
X53323982Y-138540212D01*
X53323982Y-138540210D01*
X53251512Y-138414689D01*
X53251510Y-138414687D01*
X53251509Y-138414685D01*
X53149015Y-138312191D01*
X53149012Y-138312189D01*
X53149010Y-138312187D01*
X53023488Y-138239717D01*
X53023489Y-138239717D01*
X52969326Y-138225204D01*
X52883475Y-138202200D01*
X52738525Y-138202200D01*
X52738524Y-138202200D01*
X52719007Y-138207429D01*
X52667768Y-138207428D01*
X52644037Y-138201070D01*
X52592721Y-138167748D01*
X52570793Y-138110627D01*
X52586627Y-138051526D01*
X52599649Y-138035443D01*
X54423410Y-136211681D01*
X54423413Y-136211680D01*
X54497980Y-136137113D01*
X54550707Y-136045787D01*
X54561377Y-136005966D01*
X54578001Y-135943927D01*
X54578001Y-135838473D01*
X54578001Y-135832411D01*
X54578000Y-135832393D01*
X54578000Y-131685131D01*
X54596907Y-131626940D01*
X54606990Y-131615133D01*
X54618009Y-131604115D01*
X54690484Y-131478585D01*
X54728000Y-131338575D01*
X54728000Y-131193625D01*
X54690484Y-131053615D01*
X54690482Y-131053612D01*
X54690482Y-131053610D01*
X54618012Y-130928089D01*
X54618010Y-130928087D01*
X54618009Y-130928085D01*
X54515515Y-130825591D01*
X54515512Y-130825589D01*
X54515510Y-130825587D01*
X54389988Y-130753117D01*
X54389989Y-130753117D01*
X54313139Y-130732525D01*
X54249975Y-130715600D01*
X54105025Y-130715600D01*
X54043290Y-130732141D01*
X53965010Y-130753117D01*
X53839489Y-130825587D01*
X53736987Y-130928089D01*
X53664517Y-131053610D01*
X53627000Y-131193625D01*
X53627000Y-131338574D01*
X53664517Y-131478589D01*
X53736987Y-131604110D01*
X53736989Y-131604112D01*
X53736991Y-131604115D01*
X53748005Y-131615129D01*
X53775781Y-131669644D01*
X53777000Y-131685131D01*
X53777000Y-135684298D01*
X53758093Y-135742489D01*
X53748004Y-135754302D01*
X52287001Y-137215304D01*
X52232484Y-137243081D01*
X52172052Y-137233510D01*
X52131260Y-137194798D01*
X52124209Y-137182585D01*
X52124208Y-137182584D01*
X52113194Y-137171569D01*
X52085418Y-137117052D01*
X52084200Y-137101568D01*
X52084200Y-121523709D01*
X53089500Y-121523709D01*
X53089500Y-121736290D01*
X53122752Y-121946238D01*
X53188443Y-122148412D01*
X53284948Y-122337815D01*
X53284950Y-122337819D01*
X53409891Y-122509786D01*
X53409893Y-122509788D01*
X53409896Y-122509792D01*
X53560208Y-122660104D01*
X53560211Y-122660106D01*
X53560213Y-122660108D01*
X53732180Y-122785049D01*
X53732184Y-122785051D01*
X53921588Y-122881557D01*
X54123757Y-122947246D01*
X54123758Y-122947246D01*
X54123761Y-122947247D01*
X54333710Y-122980500D01*
X54333713Y-122980500D01*
X54546290Y-122980500D01*
X54756238Y-122947247D01*
X54756239Y-122947246D01*
X54756243Y-122947246D01*
X54958412Y-122881557D01*
X55147816Y-122785051D01*
X55319792Y-122660104D01*
X55470104Y-122509792D01*
X55595051Y-122337816D01*
X55691557Y-122148412D01*
X55757246Y-121946243D01*
X55790500Y-121736287D01*
X55790500Y-121523713D01*
X55790500Y-121523709D01*
X55757247Y-121313761D01*
X55751179Y-121295085D01*
X55691557Y-121111588D01*
X55595051Y-120922184D01*
X55595049Y-120922180D01*
X55470108Y-120750213D01*
X55470106Y-120750211D01*
X55470104Y-120750208D01*
X55319792Y-120599896D01*
X55319788Y-120599893D01*
X55319786Y-120599891D01*
X55147819Y-120474950D01*
X55147815Y-120474948D01*
X54958412Y-120378443D01*
X54756238Y-120312752D01*
X54546290Y-120279500D01*
X54546287Y-120279500D01*
X54333713Y-120279500D01*
X54333710Y-120279500D01*
X54123761Y-120312752D01*
X53921587Y-120378443D01*
X53732184Y-120474948D01*
X53732180Y-120474950D01*
X53560213Y-120599891D01*
X53409891Y-120750213D01*
X53284950Y-120922180D01*
X53284948Y-120922184D01*
X53188443Y-121111587D01*
X53122752Y-121313761D01*
X53089500Y-121523709D01*
X52084200Y-121523709D01*
X52084200Y-119160972D01*
X52077123Y-119134563D01*
X52077122Y-119134560D01*
X52056907Y-119059112D01*
X52056905Y-119059109D01*
X52056905Y-119059107D01*
X52004183Y-118967791D01*
X52004182Y-118967790D01*
X52004181Y-118967789D01*
X52004180Y-118967787D01*
X49785397Y-116749004D01*
X49757620Y-116694487D01*
X49767191Y-116634055D01*
X49810456Y-116590790D01*
X49855401Y-116580000D01*
X56840500Y-116580000D01*
X56898691Y-116598907D01*
X56934655Y-116648407D01*
X56939500Y-116679000D01*
X56939500Y-162228820D01*
X56939472Y-162231176D01*
X56921208Y-162998442D01*
X56920984Y-163003149D01*
X56866315Y-163767512D01*
X56865867Y-163772202D01*
X56774891Y-164533097D01*
X56774220Y-164537761D01*
X56647147Y-165293436D01*
X56646256Y-165298063D01*
X56483362Y-166046877D01*
X56482251Y-166051456D01*
X56283914Y-166791660D01*
X56282586Y-166796181D01*
X56049259Y-167526089D01*
X56047718Y-167530542D01*
X55779921Y-168248536D01*
X55778170Y-168252910D01*
X55476510Y-168957352D01*
X55474552Y-168961639D01*
X55139720Y-169650920D01*
X55137561Y-169655108D01*
X54770304Y-170327688D01*
X54767948Y-170331768D01*
X54369118Y-170986091D01*
X54366571Y-170990055D01*
X53937045Y-171624680D01*
X53934323Y-171628502D01*
X53834682Y-171761609D01*
X53475078Y-172241983D01*
X53472165Y-172245686D01*
X52984262Y-172836604D01*
X52981176Y-172840165D01*
X52465729Y-173407175D01*
X52462478Y-173410586D01*
X51920586Y-173952478D01*
X51917175Y-173955729D01*
X51350165Y-174471176D01*
X51346604Y-174474262D01*
X50755686Y-174962165D01*
X50751983Y-174965078D01*
X50595894Y-175081925D01*
X50138502Y-175424323D01*
X50134680Y-175427045D01*
X49500055Y-175856571D01*
X49496091Y-175859118D01*
X48841768Y-176257948D01*
X48837688Y-176260304D01*
X48165108Y-176627561D01*
X48160920Y-176629720D01*
X47471639Y-176964552D01*
X47467352Y-176966510D01*
X46762910Y-177268170D01*
X46758536Y-177269921D01*
X46040542Y-177537718D01*
X46036089Y-177539259D01*
X45306181Y-177772586D01*
X45301660Y-177773914D01*
X44561456Y-177972251D01*
X44556877Y-177973362D01*
X43808063Y-178136256D01*
X43803436Y-178137147D01*
X43047761Y-178264220D01*
X43043097Y-178264891D01*
X42282202Y-178355867D01*
X42277512Y-178356315D01*
X41513149Y-178410984D01*
X41508442Y-178411208D01*
X40741176Y-178429472D01*
X40738820Y-178429500D01*
X36422727Y-178429500D01*
X36317273Y-178429500D01*
X36215413Y-178456793D01*
X36215412Y-178456793D01*
X36215410Y-178456794D01*
X36215409Y-178456794D01*
X36124089Y-178509518D01*
X36049518Y-178584089D01*
X35996794Y-178675409D01*
X35996794Y-178675410D01*
X35969500Y-178777274D01*
X35969500Y-180430500D01*
X35950593Y-180488691D01*
X35901093Y-180524655D01*
X35870500Y-180529500D01*
X24869500Y-180529500D01*
X24811309Y-180510593D01*
X24775345Y-180461093D01*
X24770500Y-180430500D01*
X24770500Y-178777274D01*
X24770500Y-178777273D01*
X24743207Y-178675413D01*
X24690480Y-178584087D01*
X24615913Y-178509520D01*
X24601514Y-178501207D01*
X24601509Y-178501204D01*
X25250000Y-178501204D01*
X25250000Y-178704999D01*
X25250001Y-178705000D01*
X25750000Y-178705000D01*
X25750000Y-179055000D01*
X25250001Y-179055000D01*
X25250000Y-179055001D01*
X25250000Y-179258795D01*
X25280742Y-179413349D01*
X25341048Y-179558940D01*
X25341052Y-179558949D01*
X25428599Y-179689969D01*
X25428602Y-179689973D01*
X25540026Y-179801397D01*
X25540030Y-179801400D01*
X25671050Y-179888947D01*
X25671059Y-179888951D01*
X25816646Y-179949255D01*
X25816653Y-179949257D01*
X25875000Y-179960862D01*
X25875000Y-179425374D01*
X25934204Y-179459556D01*
X26010504Y-179480000D01*
X26089496Y-179480000D01*
X26165796Y-179459556D01*
X26225000Y-179425374D01*
X26225000Y-179960861D01*
X26283346Y-179949257D01*
X26283353Y-179949255D01*
X26428940Y-179888951D01*
X26428949Y-179888947D01*
X26559969Y-179801400D01*
X26559973Y-179801397D01*
X26671397Y-179689973D01*
X26671400Y-179689969D01*
X26758947Y-179558949D01*
X26758951Y-179558940D01*
X26819257Y-179413349D01*
X26849999Y-179258795D01*
X26850000Y-179258792D01*
X26850000Y-179055001D01*
X26849999Y-179055000D01*
X26350000Y-179055000D01*
X26350000Y-178705000D01*
X26849999Y-178705000D01*
X26850000Y-178704999D01*
X26850000Y-178501207D01*
X26849999Y-178501204D01*
X33890000Y-178501204D01*
X33890000Y-178704999D01*
X33890001Y-178705000D01*
X34390000Y-178705000D01*
X34390000Y-179055000D01*
X33890001Y-179055000D01*
X33890000Y-179055001D01*
X33890000Y-179258795D01*
X33920742Y-179413349D01*
X33981048Y-179558940D01*
X33981052Y-179558949D01*
X34068599Y-179689969D01*
X34068602Y-179689973D01*
X34180026Y-179801397D01*
X34180030Y-179801400D01*
X34311050Y-179888947D01*
X34311059Y-179888951D01*
X34456646Y-179949255D01*
X34456653Y-179949257D01*
X34515000Y-179960862D01*
X34515000Y-179425374D01*
X34574204Y-179459556D01*
X34650504Y-179480000D01*
X34729496Y-179480000D01*
X34805796Y-179459556D01*
X34865000Y-179425374D01*
X34865000Y-179960861D01*
X34923346Y-179949257D01*
X34923353Y-179949255D01*
X35068940Y-179888951D01*
X35068949Y-179888947D01*
X35199969Y-179801400D01*
X35199973Y-179801397D01*
X35311397Y-179689973D01*
X35311400Y-179689969D01*
X35398947Y-179558949D01*
X35398951Y-179558940D01*
X35459257Y-179413349D01*
X35489999Y-179258795D01*
X35490000Y-179258792D01*
X35490000Y-179055001D01*
X35489999Y-179055000D01*
X34990000Y-179055000D01*
X34990000Y-178705000D01*
X35489999Y-178705000D01*
X35490000Y-178704999D01*
X35490000Y-178501207D01*
X35489999Y-178501204D01*
X35459257Y-178346650D01*
X35398951Y-178201059D01*
X35398947Y-178201050D01*
X35311400Y-178070030D01*
X35311397Y-178070026D01*
X35199973Y-177958602D01*
X35199969Y-177958599D01*
X35068949Y-177871052D01*
X35068940Y-177871048D01*
X34923354Y-177810744D01*
X34923348Y-177810742D01*
X34865000Y-177799136D01*
X34865000Y-178334625D01*
X34805796Y-178300444D01*
X34729496Y-178280000D01*
X34650504Y-178280000D01*
X34574204Y-178300444D01*
X34515000Y-178334625D01*
X34515000Y-177799136D01*
X34456651Y-177810742D01*
X34456645Y-177810744D01*
X34311059Y-177871048D01*
X34311050Y-177871052D01*
X34180030Y-177958599D01*
X34180026Y-177958602D01*
X34068602Y-178070026D01*
X34068599Y-178070030D01*
X33981052Y-178201050D01*
X33981048Y-178201059D01*
X33920742Y-178346650D01*
X33890000Y-178501204D01*
X26849999Y-178501204D01*
X26819257Y-178346650D01*
X26758951Y-178201059D01*
X26758947Y-178201050D01*
X26671400Y-178070030D01*
X26671397Y-178070026D01*
X26559973Y-177958602D01*
X26559969Y-177958599D01*
X26428949Y-177871052D01*
X26428940Y-177871048D01*
X26283354Y-177810744D01*
X26283348Y-177810742D01*
X26225000Y-177799136D01*
X26225000Y-178334625D01*
X26165796Y-178300444D01*
X26089496Y-178280000D01*
X26010504Y-178280000D01*
X25934204Y-178300444D01*
X25875000Y-178334625D01*
X25875000Y-177799136D01*
X25816651Y-177810742D01*
X25816645Y-177810744D01*
X25671059Y-177871048D01*
X25671050Y-177871052D01*
X25540030Y-177958599D01*
X25540026Y-177958602D01*
X25428602Y-178070026D01*
X25428599Y-178070030D01*
X25341052Y-178201050D01*
X25341048Y-178201059D01*
X25280742Y-178346650D01*
X25250000Y-178501204D01*
X24601509Y-178501204D01*
X24524589Y-178456794D01*
X24524588Y-178456793D01*
X24524587Y-178456793D01*
X24422727Y-178429500D01*
X24422725Y-178429500D01*
X20001180Y-178429500D01*
X19998824Y-178429472D01*
X19231557Y-178411208D01*
X19226850Y-178410984D01*
X18462487Y-178356315D01*
X18457797Y-178355867D01*
X17696902Y-178264891D01*
X17692238Y-178264220D01*
X16936563Y-178137147D01*
X16931936Y-178136256D01*
X16183122Y-177973362D01*
X16178543Y-177972251D01*
X15438339Y-177773914D01*
X15433818Y-177772586D01*
X14703910Y-177539259D01*
X14699457Y-177537718D01*
X13981463Y-177269921D01*
X13977089Y-177268170D01*
X13272647Y-176966510D01*
X13268360Y-176964552D01*
X12873410Y-176772697D01*
X12579073Y-176629717D01*
X12574891Y-176627561D01*
X11902311Y-176260304D01*
X11898231Y-176257948D01*
X11447489Y-175983207D01*
X11243897Y-175859111D01*
X11239956Y-175856578D01*
X10605303Y-175427034D01*
X10601516Y-175424337D01*
X9988005Y-174965069D01*
X9984313Y-174962165D01*
X9393395Y-174474262D01*
X9389834Y-174471176D01*
X8822824Y-173955729D01*
X8819413Y-173952478D01*
X8490644Y-173623709D01*
X10149500Y-173623709D01*
X10149500Y-173836290D01*
X10182752Y-174046238D01*
X10248443Y-174248412D01*
X10344948Y-174437815D01*
X10344950Y-174437819D01*
X10469891Y-174609786D01*
X10469893Y-174609788D01*
X10469896Y-174609792D01*
X10620208Y-174760104D01*
X10620211Y-174760106D01*
X10620213Y-174760108D01*
X10792180Y-174885049D01*
X10792184Y-174885051D01*
X10981588Y-174981557D01*
X11183757Y-175047246D01*
X11183758Y-175047246D01*
X11183761Y-175047247D01*
X11393710Y-175080500D01*
X11393713Y-175080500D01*
X11606290Y-175080500D01*
X11816238Y-175047247D01*
X11816239Y-175047246D01*
X11816243Y-175047246D01*
X12018412Y-174981557D01*
X12207816Y-174885051D01*
X12214905Y-174879901D01*
X12306839Y-174813107D01*
X12379792Y-174760104D01*
X12530104Y-174609792D01*
X12650093Y-174444640D01*
X12655049Y-174437819D01*
X12655051Y-174437816D01*
X12751557Y-174248412D01*
X12817246Y-174046243D01*
X12831582Y-173955729D01*
X12850500Y-173836290D01*
X12850500Y-173623709D01*
X12817247Y-173413761D01*
X12817246Y-173413757D01*
X12751557Y-173211588D01*
X12655051Y-173022184D01*
X12655049Y-173022180D01*
X12530108Y-172850213D01*
X12530106Y-172850211D01*
X12530104Y-172850208D01*
X12379792Y-172699896D01*
X12379788Y-172699893D01*
X12379786Y-172699891D01*
X12207819Y-172574950D01*
X12207815Y-172574948D01*
X12018412Y-172478443D01*
X11816238Y-172412752D01*
X11606290Y-172379500D01*
X11606287Y-172379500D01*
X11393713Y-172379500D01*
X11393710Y-172379500D01*
X11183761Y-172412752D01*
X10981587Y-172478443D01*
X10792184Y-172574948D01*
X10792180Y-172574950D01*
X10620213Y-172699891D01*
X10469891Y-172850213D01*
X10344950Y-173022180D01*
X10344948Y-173022184D01*
X10248443Y-173211587D01*
X10182752Y-173413761D01*
X10149500Y-173623709D01*
X8490644Y-173623709D01*
X8277521Y-173410586D01*
X8274270Y-173407175D01*
X8096468Y-173211587D01*
X7758822Y-172840164D01*
X7755737Y-172836604D01*
X7267834Y-172245686D01*
X7264934Y-172242000D01*
X6805656Y-171628475D01*
X6802971Y-171624704D01*
X6373414Y-170990033D01*
X6370895Y-170986113D01*
X5972050Y-170331766D01*
X5969695Y-170327688D01*
X5605317Y-169660380D01*
X5602426Y-169655086D01*
X5600290Y-169650942D01*
X5265442Y-168961628D01*
X5263489Y-168957352D01*
X5165061Y-168727500D01*
X4961819Y-168252885D01*
X4960088Y-168248562D01*
X4692280Y-167530540D01*
X4690740Y-167526089D01*
X4457407Y-166796160D01*
X4456091Y-166791681D01*
X4257741Y-166051430D01*
X4256643Y-166046903D01*
X4093739Y-165298042D01*
X4092856Y-165293456D01*
X3965778Y-164537754D01*
X3965108Y-164533097D01*
X3917908Y-164138335D01*
X3874131Y-163772201D01*
X3873684Y-163767512D01*
X3819013Y-163003116D01*
X3818792Y-162998475D01*
X3800528Y-162231176D01*
X3800500Y-162228820D01*
X3800500Y-156062425D01*
X13047700Y-156062425D01*
X13047700Y-156207375D01*
X13068900Y-156286493D01*
X13085217Y-156347389D01*
X13157687Y-156472910D01*
X13157689Y-156472912D01*
X13157691Y-156472915D01*
X13260185Y-156575409D01*
X13260187Y-156575410D01*
X13260189Y-156575412D01*
X13385711Y-156647882D01*
X13385712Y-156647882D01*
X13385715Y-156647884D01*
X13525725Y-156685400D01*
X13525726Y-156685400D01*
X13670674Y-156685400D01*
X13670675Y-156685400D01*
X13810685Y-156647884D01*
X13810687Y-156647882D01*
X13810689Y-156647882D01*
X13936210Y-156575412D01*
X13936210Y-156575411D01*
X13936215Y-156575409D01*
X14038709Y-156472915D01*
X14064979Y-156427415D01*
X14111182Y-156347389D01*
X14111182Y-156347387D01*
X14111184Y-156347385D01*
X14148700Y-156207375D01*
X14148700Y-156085733D01*
X14167607Y-156027542D01*
X14177697Y-156015729D01*
X14239980Y-155953447D01*
X14302431Y-155890996D01*
X14356947Y-155863219D01*
X14372434Y-155862000D01*
X18590466Y-155862000D01*
X18648657Y-155880907D01*
X18660469Y-155890996D01*
X18790503Y-156021029D01*
X18818281Y-156075546D01*
X18819500Y-156091033D01*
X18819500Y-156212674D01*
X18857017Y-156352689D01*
X18929487Y-156478210D01*
X18929489Y-156478212D01*
X18929491Y-156478215D01*
X19031985Y-156580709D01*
X19031987Y-156580710D01*
X19031989Y-156580712D01*
X19157511Y-156653182D01*
X19157512Y-156653182D01*
X19157515Y-156653184D01*
X19297525Y-156690700D01*
X19297526Y-156690700D01*
X19442474Y-156690700D01*
X19442475Y-156690700D01*
X19582485Y-156653184D01*
X19582487Y-156653182D01*
X19582489Y-156653182D01*
X19708010Y-156580712D01*
X19708010Y-156580711D01*
X19708015Y-156580709D01*
X19810509Y-156478215D01*
X19813572Y-156472910D01*
X19882982Y-156352689D01*
X19882982Y-156352687D01*
X19882984Y-156352685D01*
X19920500Y-156212675D01*
X19920500Y-156067725D01*
X19882984Y-155927715D01*
X19882982Y-155927712D01*
X19882982Y-155927710D01*
X19810512Y-155802189D01*
X19810510Y-155802187D01*
X19810509Y-155802185D01*
X19708015Y-155699691D01*
X19708012Y-155699689D01*
X19708010Y-155699687D01*
X19582488Y-155627217D01*
X19582489Y-155627217D01*
X19552896Y-155619287D01*
X19442475Y-155589700D01*
X19320833Y-155589700D01*
X19262642Y-155570793D01*
X19250829Y-155560703D01*
X19116090Y-155425964D01*
X18966162Y-155276035D01*
X18966157Y-155276031D01*
X18891942Y-155233183D01*
X18891944Y-155233183D01*
X18859821Y-155224576D01*
X18809153Y-155211000D01*
X14153747Y-155211000D01*
X14070962Y-155233182D01*
X13996735Y-155276037D01*
X13717368Y-155555404D01*
X13662852Y-155583181D01*
X13647365Y-155584400D01*
X13525725Y-155584400D01*
X13463990Y-155600941D01*
X13385710Y-155621917D01*
X13260189Y-155694387D01*
X13157687Y-155796889D01*
X13085217Y-155922410D01*
X13084117Y-155926515D01*
X13047700Y-156062425D01*
X3800500Y-156062425D01*
X3800500Y-145823709D01*
X4949500Y-145823709D01*
X4949500Y-146036290D01*
X4982752Y-146246238D01*
X5048443Y-146448412D01*
X5144948Y-146637815D01*
X5144950Y-146637819D01*
X5269891Y-146809786D01*
X5269893Y-146809788D01*
X5269896Y-146809792D01*
X5420208Y-146960104D01*
X5420211Y-146960106D01*
X5420213Y-146960108D01*
X5592180Y-147085049D01*
X5592184Y-147085051D01*
X5781588Y-147181557D01*
X5983757Y-147247246D01*
X5983758Y-147247246D01*
X5983761Y-147247247D01*
X6193710Y-147280500D01*
X6193713Y-147280500D01*
X6406290Y-147280500D01*
X6616238Y-147247247D01*
X6616239Y-147247246D01*
X6616243Y-147247246D01*
X6818412Y-147181557D01*
X7007816Y-147085051D01*
X7179792Y-146960104D01*
X7330104Y-146809792D01*
X7455051Y-146637816D01*
X7551557Y-146448412D01*
X7617246Y-146246243D01*
X7650500Y-146036287D01*
X7650500Y-145823713D01*
X7650500Y-145823709D01*
X7617247Y-145613761D01*
X7617246Y-145613757D01*
X7551557Y-145411588D01*
X7455051Y-145222184D01*
X7455049Y-145222180D01*
X7330108Y-145050213D01*
X7330106Y-145050211D01*
X7330104Y-145050208D01*
X7179792Y-144899896D01*
X7179788Y-144899893D01*
X7179786Y-144899891D01*
X7007819Y-144774950D01*
X7007815Y-144774948D01*
X6818412Y-144678443D01*
X6616238Y-144612752D01*
X6406290Y-144579500D01*
X6406287Y-144579500D01*
X6193713Y-144579500D01*
X6193710Y-144579500D01*
X5983761Y-144612752D01*
X5781587Y-144678443D01*
X5592184Y-144774948D01*
X5592180Y-144774950D01*
X5420213Y-144899891D01*
X5269891Y-145050213D01*
X5144950Y-145222180D01*
X5144948Y-145222184D01*
X5048443Y-145411587D01*
X4982752Y-145613761D01*
X4949500Y-145823709D01*
X3800500Y-145823709D01*
X3800500Y-23483900D01*
X10119500Y-23483900D01*
X10119500Y-23708095D01*
X10154569Y-23929516D01*
X10154571Y-23929521D01*
X10223849Y-24142737D01*
X10325629Y-24342490D01*
X10457403Y-24523862D01*
X10615929Y-24682388D01*
X10797301Y-24814162D01*
X10997054Y-24915942D01*
X11210270Y-24985220D01*
X11210271Y-24985220D01*
X11210274Y-24985221D01*
X11431696Y-25020291D01*
X11431699Y-25020291D01*
X11655890Y-25020291D01*
X11877311Y-24985221D01*
X11877312Y-24985220D01*
X11877316Y-24985220D01*
X12090532Y-24915942D01*
X12290285Y-24814162D01*
X12471657Y-24682388D01*
X12630183Y-24523862D01*
X12761957Y-24342490D01*
X12863737Y-24142737D01*
X12933015Y-23929521D01*
X12968086Y-23708092D01*
X12968086Y-23483904D01*
X12968086Y-23483900D01*
X12933016Y-23262479D01*
X12863738Y-23049263D01*
X12863737Y-23049259D01*
X12761957Y-22849506D01*
X12630183Y-22668134D01*
X12471657Y-22509608D01*
X12290285Y-22377834D01*
X12290284Y-22377833D01*
X12290282Y-22377832D01*
X12197876Y-22330749D01*
X12090532Y-22276054D01*
X12090529Y-22276053D01*
X12090527Y-22276052D01*
X11877311Y-22206774D01*
X11655890Y-22171705D01*
X11655887Y-22171705D01*
X11431699Y-22171705D01*
X11431696Y-22171705D01*
X11210274Y-22206774D01*
X10997058Y-22276052D01*
X10797303Y-22377832D01*
X10706615Y-22443721D01*
X10615929Y-22509608D01*
X10457403Y-22668134D01*
X10391516Y-22758820D01*
X10325627Y-22849508D01*
X10223847Y-23049263D01*
X10154569Y-23262479D01*
X10119500Y-23483900D01*
X3800500Y-23483900D01*
X3800500Y-10212025D01*
X30757000Y-10212025D01*
X30757000Y-10356974D01*
X30794517Y-10496989D01*
X30866987Y-10622510D01*
X30866989Y-10622512D01*
X30866991Y-10622515D01*
X30969485Y-10725009D01*
X30969487Y-10725010D01*
X30969489Y-10725012D01*
X31095011Y-10797482D01*
X31095012Y-10797482D01*
X31095015Y-10797484D01*
X31235025Y-10835000D01*
X31235026Y-10835000D01*
X31379974Y-10835000D01*
X31379975Y-10835000D01*
X31519985Y-10797484D01*
X31519987Y-10797482D01*
X31519989Y-10797482D01*
X31645510Y-10725012D01*
X31645510Y-10725011D01*
X31645515Y-10725009D01*
X31748009Y-10622515D01*
X31820484Y-10496985D01*
X31858000Y-10356975D01*
X31858000Y-10212025D01*
X31820484Y-10072015D01*
X31820482Y-10072012D01*
X31820482Y-10072010D01*
X31748012Y-9946489D01*
X31748007Y-9946483D01*
X31736994Y-9935469D01*
X31709218Y-9880952D01*
X31708000Y-9865468D01*
X31708000Y-8675201D01*
X31726907Y-8617010D01*
X31736996Y-8605197D01*
X31968497Y-8373696D01*
X32023014Y-8345919D01*
X32038501Y-8344700D01*
X32054074Y-8344700D01*
X32054075Y-8344700D01*
X32194085Y-8307184D01*
X32194087Y-8307182D01*
X32194089Y-8307182D01*
X32319610Y-8234712D01*
X32319610Y-8234711D01*
X32319615Y-8234709D01*
X32422109Y-8132215D01*
X32494584Y-8006685D01*
X32532100Y-7866675D01*
X32532100Y-7721725D01*
X32494584Y-7581715D01*
X32494582Y-7581712D01*
X32494582Y-7581710D01*
X32422112Y-7456189D01*
X32422110Y-7456187D01*
X32422109Y-7456185D01*
X32319615Y-7353691D01*
X32319612Y-7353689D01*
X32319610Y-7353687D01*
X32194088Y-7281217D01*
X32194089Y-7281217D01*
X32164496Y-7273287D01*
X32054075Y-7243700D01*
X31909125Y-7243700D01*
X31847390Y-7260241D01*
X31769110Y-7281217D01*
X31643589Y-7353687D01*
X31541087Y-7456189D01*
X31468617Y-7581710D01*
X31431100Y-7721725D01*
X31431100Y-7737299D01*
X31412193Y-7795490D01*
X31402104Y-7807302D01*
X30987020Y-8222386D01*
X30987016Y-8222391D01*
X30934293Y-8313711D01*
X30934292Y-8313711D01*
X30934293Y-8313712D01*
X30907000Y-8415573D01*
X30907000Y-9865468D01*
X30888093Y-9923659D01*
X30878006Y-9935469D01*
X30866992Y-9946483D01*
X30866987Y-9946489D01*
X30794517Y-10072010D01*
X30757000Y-10212025D01*
X3800500Y-10212025D01*
X3800500Y-5003892D01*
X3800805Y-4996125D01*
X3810819Y-4868880D01*
X3814657Y-4820116D01*
X3817084Y-4804791D01*
X3857391Y-4636900D01*
X3862190Y-4622134D01*
X3867678Y-4608885D01*
X3928258Y-4462631D01*
X3935308Y-4448796D01*
X4025516Y-4301590D01*
X4034642Y-4289028D01*
X4146773Y-4157739D01*
X4157739Y-4146773D01*
X4289028Y-4034642D01*
X4301590Y-4025516D01*
X4448796Y-3935308D01*
X4462631Y-3928258D01*
X4622137Y-3862188D01*
X4636900Y-3857391D01*
X4804791Y-3817084D01*
X4820116Y-3814657D01*
X4971053Y-3802778D01*
X4996126Y-3800805D01*
X5003893Y-3800500D01*
X5057583Y-3800500D01*
X55682417Y-3800500D01*
X55736107Y-3800500D01*
X55743874Y-3800805D01*
G37*
%TD.AperFunction*%
%TA.AperFunction,Conductor*%
G36*
X46430001Y-113794411D02*
G01*
X46462260Y-113815966D01*
X46517808Y-113827015D01*
X46535315Y-113830498D01*
X46535320Y-113830498D01*
X46535326Y-113830500D01*
X46585500Y-113830500D01*
X46643691Y-113849407D01*
X46679655Y-113898907D01*
X46684500Y-113929500D01*
X46684500Y-113985969D01*
X46665593Y-114044160D01*
X46655509Y-114055966D01*
X46610142Y-114101334D01*
X46569488Y-114141988D01*
X46569487Y-114141989D01*
X46497017Y-114267510D01*
X46471567Y-114362489D01*
X46459500Y-114407525D01*
X46459500Y-114552475D01*
X46485744Y-114650418D01*
X46497017Y-114692489D01*
X46569487Y-114818010D01*
X46569489Y-114818012D01*
X46569491Y-114818015D01*
X46651720Y-114900244D01*
X46679496Y-114954759D01*
X46680712Y-114971007D01*
X46675604Y-115635147D01*
X46672954Y-115979739D01*
X46672942Y-115981261D01*
X46653588Y-116039305D01*
X46603813Y-116074887D01*
X46573945Y-116079500D01*
X46215326Y-116079500D01*
X46215325Y-116079500D01*
X46215315Y-116079501D01*
X46142263Y-116094033D01*
X46142257Y-116094035D01*
X46059400Y-116149397D01*
X46059397Y-116149400D01*
X46004035Y-116232257D01*
X46004033Y-116232263D01*
X45989501Y-116305315D01*
X45989500Y-116305327D01*
X45989500Y-117854672D01*
X45989501Y-117854684D01*
X46004033Y-117927736D01*
X46004035Y-117927742D01*
X46059397Y-118010599D01*
X46059399Y-118010601D01*
X46142260Y-118065966D01*
X46197808Y-118077015D01*
X46215315Y-118080498D01*
X46215320Y-118080498D01*
X46215326Y-118080500D01*
X46215327Y-118080500D01*
X47764673Y-118080500D01*
X47764674Y-118080500D01*
X47837740Y-118065966D01*
X47920601Y-118010601D01*
X47975966Y-117927740D01*
X47990500Y-117854674D01*
X47990500Y-116325901D01*
X48009407Y-116267710D01*
X48058907Y-116231746D01*
X48120093Y-116231746D01*
X48159504Y-116255897D01*
X51254204Y-119350597D01*
X51281981Y-119405114D01*
X51283200Y-119420601D01*
X51283200Y-137101568D01*
X51264293Y-137159759D01*
X51254206Y-137171569D01*
X51243189Y-137182586D01*
X51220471Y-137221936D01*
X51175001Y-137262876D01*
X51114151Y-137269271D01*
X51064731Y-137242439D01*
X43359296Y-129537003D01*
X43331519Y-129482486D01*
X43330300Y-129466999D01*
X43330300Y-118228999D01*
X43349207Y-118170808D01*
X43398707Y-118134844D01*
X43429300Y-118129999D01*
X43814999Y-118129999D01*
X43815000Y-118129998D01*
X43815000Y-117255001D01*
X44165000Y-117255001D01*
X44165000Y-118129998D01*
X44165001Y-118129999D01*
X44784790Y-118129999D01*
X44784791Y-118129998D01*
X44809874Y-118127090D01*
X44912477Y-118081786D01*
X44991786Y-118002477D01*
X45037090Y-117899872D01*
X45039999Y-117874797D01*
X45040000Y-117874795D01*
X45040000Y-117255001D01*
X45039999Y-117255000D01*
X44165001Y-117255000D01*
X44165000Y-117255001D01*
X43815000Y-117255001D01*
X43815000Y-116030001D01*
X44165000Y-116030001D01*
X44165000Y-116904999D01*
X44165001Y-116905000D01*
X45039998Y-116905000D01*
X45039999Y-116904999D01*
X45039999Y-116285210D01*
X45039998Y-116285208D01*
X45037090Y-116260125D01*
X44991786Y-116157522D01*
X44912477Y-116078213D01*
X44809872Y-116032909D01*
X44784797Y-116030000D01*
X44165001Y-116030000D01*
X44165000Y-116030001D01*
X43815000Y-116030001D01*
X43814999Y-116030000D01*
X43579300Y-116030000D01*
X43521109Y-116011093D01*
X43485145Y-115961593D01*
X43480300Y-115931000D01*
X43480300Y-115898025D01*
X43469976Y-115859496D01*
X43442784Y-115758015D01*
X43442782Y-115758012D01*
X43442782Y-115758010D01*
X43370838Y-115633400D01*
X43358116Y-115573552D01*
X43383003Y-115517656D01*
X43435991Y-115487063D01*
X43456574Y-115484900D01*
X44430151Y-115484900D01*
X44430153Y-115484900D01*
X44512939Y-115462718D01*
X44512941Y-115462716D01*
X44512943Y-115462716D01*
X44587157Y-115419868D01*
X44587157Y-115419867D01*
X44587162Y-115419865D01*
X45939859Y-114067166D01*
X45939862Y-114067165D01*
X46000465Y-114006562D01*
X46035084Y-113946600D01*
X46043318Y-113932339D01*
X46050944Y-113903875D01*
X46084268Y-113852563D01*
X46141389Y-113830636D01*
X46146571Y-113830500D01*
X46214673Y-113830500D01*
X46214674Y-113830500D01*
X46287740Y-113815966D01*
X46319998Y-113794411D01*
X46378886Y-113777803D01*
X46430001Y-113794411D01*
G37*
%TD.AperFunction*%
%TA.AperFunction,Conductor*%
G36*
X22097304Y-121654430D02*
G01*
X22425333Y-121982459D01*
X22425335Y-121982462D01*
X22485938Y-122043065D01*
X22523047Y-122064489D01*
X22523049Y-122064491D01*
X22538842Y-122073609D01*
X22560161Y-122085918D01*
X22642947Y-122108101D01*
X22642949Y-122108101D01*
X22734716Y-122108101D01*
X22734732Y-122108100D01*
X33696065Y-122108100D01*
X33754256Y-122127007D01*
X33766069Y-122137096D01*
X37676077Y-126047104D01*
X37703854Y-126101621D01*
X37694283Y-126162053D01*
X37655574Y-126202844D01*
X37552787Y-126262189D01*
X37552785Y-126262190D01*
X37552785Y-126262191D01*
X37466770Y-126348205D01*
X37412256Y-126375981D01*
X37396769Y-126377200D01*
X34429447Y-126377200D01*
X34346662Y-126399382D01*
X34272438Y-126442235D01*
X30489168Y-130225504D01*
X30434651Y-130253281D01*
X30419164Y-130254500D01*
X30297525Y-130254500D01*
X30235790Y-130271041D01*
X30157510Y-130292017D01*
X30031989Y-130364487D01*
X29929487Y-130466989D01*
X29925117Y-130474558D01*
X29879644Y-130515495D01*
X29818793Y-130521885D01*
X29769381Y-130495054D01*
X21957296Y-122682969D01*
X21929519Y-122628452D01*
X21928300Y-122612965D01*
X21928300Y-121724434D01*
X21947207Y-121666243D01*
X21996707Y-121630279D01*
X22057893Y-121630279D01*
X22097304Y-121654430D01*
G37*
%TD.AperFunction*%
%TA.AperFunction,Conductor*%
G36*
X13413945Y-110067324D02*
G01*
X13457210Y-110110589D01*
X13468000Y-110155534D01*
X13468000Y-113887264D01*
X13449093Y-113945455D01*
X13439004Y-113957268D01*
X10531868Y-116864404D01*
X10477351Y-116892181D01*
X10461864Y-116893400D01*
X10340225Y-116893400D01*
X10296934Y-116905000D01*
X10200210Y-116930917D01*
X10074689Y-117003387D01*
X9972187Y-117105889D01*
X9899717Y-117231410D01*
X9862200Y-117371425D01*
X9862200Y-117516374D01*
X9899717Y-117656389D01*
X9972187Y-117781910D01*
X9972189Y-117781912D01*
X9972191Y-117781915D01*
X10058205Y-117867929D01*
X10085981Y-117922444D01*
X10087200Y-117937931D01*
X10087200Y-120627964D01*
X10068293Y-120686155D01*
X10058204Y-120697968D01*
X7819168Y-122937004D01*
X7764651Y-122964781D01*
X7749164Y-122966000D01*
X7627525Y-122966000D01*
X7584223Y-122977603D01*
X7523122Y-122974400D01*
X7475572Y-122935895D01*
X7459600Y-122881976D01*
X7459600Y-115965934D01*
X7478507Y-115907743D01*
X7488596Y-115895930D01*
X13298996Y-110085530D01*
X13353513Y-110057753D01*
X13413945Y-110067324D01*
G37*
%TD.AperFunction*%
%TA.AperFunction,Conductor*%
G36*
X38810001Y-113794411D02*
G01*
X38842260Y-113815966D01*
X38897808Y-113827015D01*
X38915315Y-113830498D01*
X38915320Y-113830498D01*
X38915326Y-113830500D01*
X38965500Y-113830500D01*
X39023691Y-113849407D01*
X39059655Y-113898907D01*
X39064500Y-113929500D01*
X39064500Y-115968665D01*
X39045593Y-116026856D01*
X39035504Y-116038669D01*
X38701369Y-116372804D01*
X38646852Y-116400581D01*
X38631365Y-116401800D01*
X38509725Y-116401800D01*
X38447990Y-116418341D01*
X38369710Y-116439317D01*
X38244189Y-116511787D01*
X38141687Y-116614289D01*
X38069217Y-116739810D01*
X38031700Y-116879825D01*
X38031700Y-117024774D01*
X38069217Y-117164789D01*
X38141687Y-117290310D01*
X38141689Y-117290312D01*
X38141691Y-117290315D01*
X38244185Y-117392809D01*
X38244187Y-117392810D01*
X38244189Y-117392812D01*
X38369711Y-117465282D01*
X38369712Y-117465282D01*
X38369715Y-117465284D01*
X38509725Y-117502800D01*
X38509726Y-117502800D01*
X38654674Y-117502800D01*
X38654675Y-117502800D01*
X38794685Y-117465284D01*
X38794687Y-117465282D01*
X38794689Y-117465282D01*
X38920210Y-117392812D01*
X38920210Y-117392811D01*
X38920215Y-117392809D01*
X39022709Y-117290315D01*
X39069245Y-117209711D01*
X39114713Y-117168771D01*
X39175564Y-117162375D01*
X39224982Y-117189206D01*
X39297285Y-117261509D01*
X39363557Y-117299771D01*
X39404497Y-117345240D01*
X39410893Y-117406090D01*
X39384060Y-117455511D01*
X36139869Y-120699704D01*
X36085352Y-120727481D01*
X36069865Y-120728700D01*
X23196331Y-120728700D01*
X23138140Y-120709793D01*
X23126333Y-120699709D01*
X23040315Y-120613691D01*
X23040312Y-120613689D01*
X23040310Y-120613687D01*
X22914788Y-120541217D01*
X22914789Y-120541217D01*
X22885196Y-120533287D01*
X22774775Y-120503700D01*
X22629825Y-120503700D01*
X22583155Y-120516205D01*
X22489813Y-120541216D01*
X22419400Y-120581870D01*
X22359551Y-120594591D01*
X22303656Y-120569704D01*
X22273063Y-120516716D01*
X22270900Y-120496133D01*
X22270900Y-117563561D01*
X22289807Y-117505370D01*
X22339307Y-117469406D01*
X22395521Y-117467934D01*
X22440925Y-117480100D01*
X22440927Y-117480100D01*
X22585874Y-117480100D01*
X22585875Y-117480100D01*
X22725885Y-117442584D01*
X22725887Y-117442582D01*
X22725889Y-117442582D01*
X22851410Y-117370112D01*
X22851410Y-117370111D01*
X22851415Y-117370109D01*
X22953909Y-117267615D01*
X22987339Y-117209713D01*
X23026382Y-117142089D01*
X23026382Y-117142087D01*
X23026384Y-117142085D01*
X23063900Y-117002075D01*
X23063900Y-116880433D01*
X23082807Y-116822242D01*
X23092897Y-116810429D01*
X23171731Y-116731596D01*
X23226248Y-116703819D01*
X23241734Y-116702600D01*
X34268434Y-116702600D01*
X34317933Y-116715863D01*
X34334088Y-116725190D01*
X34359418Y-116739815D01*
X34359419Y-116739815D01*
X34389562Y-116757218D01*
X34472344Y-116779400D01*
X34472346Y-116779401D01*
X34472347Y-116779401D01*
X34564116Y-116779401D01*
X34564132Y-116779400D01*
X35624351Y-116779400D01*
X35624353Y-116779400D01*
X35707139Y-116757218D01*
X35707141Y-116757216D01*
X35707143Y-116757216D01*
X35781357Y-116714368D01*
X35781357Y-116714367D01*
X35781362Y-116714365D01*
X38380465Y-114115262D01*
X38385841Y-114105951D01*
X38423316Y-114041043D01*
X38423316Y-114041041D01*
X38423318Y-114041039D01*
X38445500Y-113958253D01*
X38445500Y-113929500D01*
X38464407Y-113871309D01*
X38513907Y-113835345D01*
X38544500Y-113830500D01*
X38594673Y-113830500D01*
X38594674Y-113830500D01*
X38667740Y-113815966D01*
X38699998Y-113794411D01*
X38758886Y-113777803D01*
X38810001Y-113794411D01*
G37*
%TD.AperFunction*%
%TA.AperFunction,Conductor*%
G36*
X29987143Y-107312125D02*
G01*
X30030408Y-107355390D01*
X30039979Y-107415822D01*
X30037826Y-107425953D01*
X30037700Y-107426422D01*
X30037700Y-107571374D01*
X30075217Y-107711389D01*
X30147687Y-107836910D01*
X30147689Y-107836912D01*
X30147691Y-107836915D01*
X30250185Y-107939409D01*
X30250187Y-107939410D01*
X30250189Y-107939412D01*
X30380702Y-108014764D01*
X30421643Y-108060233D01*
X30428039Y-108121083D01*
X30397446Y-108174071D01*
X30341550Y-108198958D01*
X30331202Y-108199500D01*
X30263653Y-108199500D01*
X30177947Y-108199500D01*
X30127278Y-108213076D01*
X30095156Y-108221683D01*
X30020942Y-108264531D01*
X30020941Y-108264532D01*
X25918468Y-112367004D01*
X25863951Y-112394781D01*
X25848464Y-112396000D01*
X25726825Y-112396000D01*
X25665090Y-112412541D01*
X25586810Y-112433517D01*
X25461289Y-112505987D01*
X25358787Y-112608489D01*
X25286317Y-112734010D01*
X25271178Y-112790509D01*
X25248800Y-112874025D01*
X25248800Y-113018975D01*
X25266639Y-113085552D01*
X25267236Y-113087777D01*
X25264034Y-113148878D01*
X25225529Y-113196428D01*
X25171609Y-113212400D01*
X25143132Y-113212400D01*
X25143116Y-113212399D01*
X25137053Y-113212399D01*
X25051347Y-113212399D01*
X25051344Y-113212399D01*
X24968562Y-113234581D01*
X24968558Y-113234583D01*
X24894338Y-113277434D01*
X24833734Y-113338037D01*
X24833735Y-113338038D01*
X22097304Y-116074469D01*
X22042787Y-116102246D01*
X21982355Y-116092675D01*
X21939090Y-116049410D01*
X21928300Y-116004465D01*
X21928300Y-114101334D01*
X21947207Y-114043143D01*
X21957290Y-114031336D01*
X24614796Y-111373829D01*
X24669313Y-111346053D01*
X24729745Y-111355624D01*
X24773010Y-111398889D01*
X24783800Y-111443834D01*
X24783800Y-111480374D01*
X24821317Y-111620389D01*
X24893787Y-111745910D01*
X24893789Y-111745912D01*
X24893791Y-111745915D01*
X24996285Y-111848409D01*
X24996287Y-111848410D01*
X24996289Y-111848412D01*
X25121811Y-111920882D01*
X25121812Y-111920882D01*
X25121815Y-111920884D01*
X25261825Y-111958400D01*
X25261826Y-111958400D01*
X25406774Y-111958400D01*
X25406775Y-111958400D01*
X25546785Y-111920884D01*
X25546787Y-111920882D01*
X25546789Y-111920882D01*
X25672310Y-111848412D01*
X25672310Y-111848411D01*
X25672315Y-111848409D01*
X25774809Y-111745915D01*
X25847284Y-111620385D01*
X25884800Y-111480375D01*
X25884800Y-111358734D01*
X25903707Y-111300543D01*
X25913796Y-111288730D01*
X27887770Y-109314756D01*
X29872196Y-107330329D01*
X29926711Y-107302554D01*
X29987143Y-107312125D01*
G37*
%TD.AperFunction*%
%TA.AperFunction,Conductor*%
G36*
X25736320Y-113882307D02*
G01*
X25772284Y-113931807D01*
X25772284Y-113992993D01*
X25763865Y-114011900D01*
X25693017Y-114134610D01*
X25655500Y-114274625D01*
X25655500Y-114419574D01*
X25693017Y-114559589D01*
X25765487Y-114685110D01*
X25765489Y-114685112D01*
X25765491Y-114685115D01*
X25867985Y-114787609D01*
X25867987Y-114787610D01*
X25867989Y-114787612D01*
X25993511Y-114860082D01*
X25993512Y-114860082D01*
X25993515Y-114860084D01*
X26133525Y-114897600D01*
X26133526Y-114897600D01*
X26278474Y-114897600D01*
X26278475Y-114897600D01*
X26418485Y-114860084D01*
X26418487Y-114860082D01*
X26418489Y-114860082D01*
X26544010Y-114787612D01*
X26544010Y-114787611D01*
X26544015Y-114787609D01*
X26630029Y-114701594D01*
X26684544Y-114673819D01*
X26700031Y-114672600D01*
X32538065Y-114672600D01*
X32596256Y-114691507D01*
X32632220Y-114741007D01*
X32632220Y-114802193D01*
X32608069Y-114841604D01*
X32311069Y-115138604D01*
X32256552Y-115166381D01*
X32241065Y-115167600D01*
X32119425Y-115167600D01*
X32098929Y-115173092D01*
X31979410Y-115205117D01*
X31853889Y-115277587D01*
X31751387Y-115380089D01*
X31678917Y-115505610D01*
X31641400Y-115645625D01*
X31641400Y-115790577D01*
X31677949Y-115926976D01*
X31674748Y-115988078D01*
X31636243Y-116035628D01*
X31582323Y-116051600D01*
X23279835Y-116051600D01*
X23221644Y-116032693D01*
X23185680Y-115983193D01*
X23185680Y-115922007D01*
X23209831Y-115882596D01*
X25200030Y-113892396D01*
X25254547Y-113864619D01*
X25270034Y-113863400D01*
X25678129Y-113863400D01*
X25736320Y-113882307D01*
G37*
%TD.AperFunction*%
%TA.AperFunction,Conductor*%
G36*
X42765756Y-88497407D02*
G01*
X42777569Y-88507496D01*
X47925504Y-93655431D01*
X47953281Y-93709948D01*
X47954500Y-93725435D01*
X47954500Y-94230500D01*
X47935593Y-94288691D01*
X47886093Y-94324655D01*
X47855500Y-94329500D01*
X47805326Y-94329500D01*
X47805325Y-94329500D01*
X47805315Y-94329501D01*
X47732263Y-94344033D01*
X47732254Y-94344036D01*
X47700000Y-94365588D01*
X47641112Y-94382196D01*
X47590000Y-94365588D01*
X47557745Y-94344036D01*
X47557740Y-94344034D01*
X47557737Y-94344033D01*
X47557736Y-94344033D01*
X47484684Y-94329501D01*
X47484674Y-94329500D01*
X47484673Y-94329500D01*
X47434500Y-94329500D01*
X47376309Y-94310593D01*
X47340345Y-94261093D01*
X47335500Y-94230500D01*
X47335500Y-94204548D01*
X47335500Y-94204547D01*
X47313318Y-94121762D01*
X47270465Y-94047538D01*
X47250727Y-94027800D01*
X47209862Y-93986934D01*
X47209862Y-93986935D01*
X41870431Y-88647504D01*
X41842654Y-88592987D01*
X41852225Y-88532555D01*
X41895490Y-88489290D01*
X41940435Y-88478500D01*
X42707565Y-88478500D01*
X42765756Y-88497407D01*
G37*
%TD.AperFunction*%
%TA.AperFunction,Conductor*%
G36*
X38645356Y-90260707D02*
G01*
X38657169Y-90270796D01*
X40671373Y-92285000D01*
X42562375Y-94176001D01*
X42590152Y-94230518D01*
X42580581Y-94290950D01*
X42537316Y-94334215D01*
X42476884Y-94343786D01*
X42473056Y-94343102D01*
X42404684Y-94329501D01*
X42404674Y-94329500D01*
X42404673Y-94329500D01*
X42336571Y-94329500D01*
X42278380Y-94310593D01*
X42242416Y-94261093D01*
X42240945Y-94256124D01*
X42233319Y-94227665D01*
X42233318Y-94227663D01*
X42233318Y-94227662D01*
X42190465Y-94153438D01*
X42129862Y-94092835D01*
X42055638Y-94049982D01*
X41972853Y-94027800D01*
X41972851Y-94027800D01*
X41447735Y-94027800D01*
X41389544Y-94008893D01*
X41377731Y-93998804D01*
X39617337Y-92238410D01*
X37789728Y-90410801D01*
X37761953Y-90356287D01*
X37771524Y-90295855D01*
X37814789Y-90252590D01*
X37859734Y-90241800D01*
X38587165Y-90241800D01*
X38645356Y-90260707D01*
G37*
%TD.AperFunction*%
%TA.AperFunction,Conductor*%
G36*
X38849956Y-63182507D02*
G01*
X38861769Y-63192596D01*
X45216704Y-69547530D01*
X45244481Y-69602047D01*
X45245700Y-69617534D01*
X45245700Y-70922275D01*
X45226793Y-70980466D01*
X45177293Y-71016430D01*
X45121077Y-71017902D01*
X45068075Y-71003700D01*
X44946435Y-71003700D01*
X44888244Y-70984793D01*
X44876431Y-70974704D01*
X37234331Y-63332604D01*
X37206554Y-63278087D01*
X37216125Y-63217655D01*
X37259390Y-63174390D01*
X37304335Y-63163600D01*
X38791765Y-63163600D01*
X38849956Y-63182507D01*
G37*
%TD.AperFunction*%
%TD*%
M02*
