%TF.GenerationSoftware,KiCad,Pcbnew,10.0.6*%
%TF.CreationDate,2026-10-08T10:50:33+03:00*%
%TF.ProjectId,mainboard,6d61696e-626f-4617-9264-2e6b69636164,rev?*%
%TF.SameCoordinates,Original*%
%TF.FileFunction,Legend,Top*%
%TF.FilePolarity,Positive*%
%FSLAX46Y46*%
G04 Gerber Fmt 4.6, Leading zero omitted, Abs format (unit mm)*
G04 Created by KiCad (PCBNEW 10.0.6) date 2026-10-08 10:50:33*
%MOMM*%
%LPD*%
G01*
G04 APERTURE LIST*
G04 Aperture macros list*
%AMRoundRect*
0 Rectangle with rounded corners*
0 $1 Rounding radius*
0 $2 $3 $4 $5 $6 $7 $8 $9 X,Y pos of 4 corners*
0 Add a 4 corners polygon primitive as box body*
4,1,4,$2,$3,$4,$5,$6,$7,$8,$9,$2,$3,0*
0 Add four circle primitives for the rounded corners*
1,1,$1+$1,$2,$3*
1,1,$1+$1,$4,$5*
1,1,$1+$1,$6,$7*
1,1,$1+$1,$8,$9*
0 Add four rect primitives between the rounded corners*
20,1,$1+$1,$2,$3,$4,$5,0*
20,1,$1+$1,$4,$5,$6,$7,0*
20,1,$1+$1,$6,$7,$8,$9,0*
20,1,$1+$1,$8,$9,$2,$3,0*%
G04 Aperture macros list end*
%ADD10C,0.000000*%
%ADD11C,0.150000*%
%ADD12C,0.120000*%
%ADD13RoundRect,0.200000X-0.200000X-0.275000X0.200000X-0.275000X0.200000X0.275000X-0.200000X0.275000X0*%
%ADD14RoundRect,0.250000X0.625000X-0.312500X0.625000X0.312500X-0.625000X0.312500X-0.625000X-0.312500X0*%
%ADD15C,0.650000*%
%ADD16RoundRect,0.150000X-0.150000X-0.575000X0.150000X-0.575000X0.150000X0.575000X-0.150000X0.575000X0*%
%ADD17RoundRect,0.075000X-0.075000X-0.650000X0.075000X-0.650000X0.075000X0.650000X-0.075000X0.650000X0*%
%ADD18O,1.000000X2.100000*%
%ADD19O,1.000000X1.600000*%
%ADD20RoundRect,0.225000X-0.225000X-0.250000X0.225000X-0.250000X0.225000X0.250000X-0.225000X0.250000X0*%
%ADD21R,1.000000X0.750000*%
%ADD22RoundRect,0.200000X0.275000X-0.200000X0.275000X0.200000X-0.275000X0.200000X-0.275000X-0.200000X0*%
%ADD23RoundRect,0.150000X-0.587500X-0.150000X0.587500X-0.150000X0.587500X0.150000X-0.587500X0.150000X0*%
%ADD24RoundRect,0.150000X-0.512500X-0.150000X0.512500X-0.150000X0.512500X0.150000X-0.512500X0.150000X0*%
%ADD25RoundRect,0.150000X0.150000X-0.825000X0.150000X0.825000X-0.150000X0.825000X-0.150000X-0.825000X0*%
%ADD26R,3.300000X2.410000*%
%ADD27C,2.200000*%
%ADD28RoundRect,0.225000X0.250000X-0.225000X0.250000X0.225000X-0.250000X0.225000X-0.250000X-0.225000X0*%
%ADD29RoundRect,0.250000X-0.250000X-0.475000X0.250000X-0.475000X0.250000X0.475000X-0.250000X0.475000X0*%
%ADD30RoundRect,0.250000X0.475000X-0.250000X0.475000X0.250000X-0.475000X0.250000X-0.475000X-0.250000X0*%
%ADD31R,0.900000X1.200000*%
%ADD32RoundRect,0.225000X-0.225000X-0.375000X0.225000X-0.375000X0.225000X0.375000X-0.225000X0.375000X0*%
%ADD33C,1.525931*%
%ADD34R,0.300000X0.900000*%
%ADD35R,1.100000X1.800000*%
%ADD36R,0.600000X0.250000*%
%ADD37R,0.250000X0.600000*%
%ADD38RoundRect,0.087500X-0.662500X-0.087500X0.662500X-0.087500X0.662500X0.087500X-0.662500X0.087500X0*%
%ADD39R,0.280000X0.425000*%
%ADD40R,1.200000X0.800000*%
%ADD41R,1.500000X0.900000*%
%ADD42C,0.617043*%
%ADD43RoundRect,0.182000X-0.000010X-0.241500X0.000010X-0.241500X0.000010X0.241500X-0.000010X0.241500X0*%
%ADD44C,1.500000*%
G04 APERTURE END LIST*
D10*
G36*
X27276379Y-39816640D02*
G01*
X26215323Y-39816640D01*
X26215323Y-35048104D01*
X25698184Y-35041695D01*
X25696048Y-34253323D01*
X27276379Y-34253323D01*
X27276379Y-39816640D01*
G37*
G36*
X22194950Y-36332404D02*
G01*
X22200215Y-36344307D01*
X22300316Y-36186144D01*
X22429105Y-36030117D01*
X22594439Y-35879203D01*
X22778848Y-35757433D01*
X22963181Y-35670226D01*
X23185738Y-35599194D01*
X23395553Y-35560512D01*
X23630776Y-35547160D01*
X23885149Y-35561199D01*
X24126704Y-35605908D01*
X24323854Y-35668853D01*
X24495521Y-35746752D01*
X24667189Y-35847158D01*
X24864263Y-35999828D01*
X25012278Y-36147996D01*
X25138854Y-36306998D01*
X25247958Y-36478665D01*
X25361945Y-36713887D01*
X25432214Y-36910961D01*
X25482341Y-37108112D01*
X25515149Y-37305186D01*
X25533918Y-37527743D01*
X25534681Y-37909226D01*
X25527967Y-38036336D01*
X25501797Y-38252561D01*
X25457316Y-38462376D01*
X25399331Y-38653118D01*
X25330435Y-38824785D01*
X25229342Y-39021859D01*
X25126265Y-39180785D01*
X25031200Y-39301639D01*
X24912329Y-39428749D01*
X24807040Y-39525645D01*
X24718002Y-39596143D01*
X24552744Y-39704561D01*
X24381076Y-39792989D01*
X24177593Y-39869667D01*
X23974110Y-39920022D01*
X23719814Y-39952372D01*
X23414628Y-39953059D01*
X23198479Y-39926965D01*
X22969590Y-39870430D01*
X22785181Y-39800008D01*
X22638920Y-39723406D01*
X22479994Y-39615980D01*
X22314660Y-39465142D01*
X22179081Y-39301639D01*
X22057769Y-39104488D01*
X21977734Y-38927099D01*
X21973767Y-39816640D01*
X21134428Y-39816640D01*
X21134428Y-37534076D01*
X22165958Y-37534076D01*
X22166797Y-38023671D01*
X22178852Y-38131707D01*
X22205098Y-38258893D01*
X22229436Y-38335190D01*
X22286354Y-38462376D01*
X22331445Y-38538673D01*
X22407742Y-38640376D01*
X22473662Y-38713468D01*
X22562624Y-38794571D01*
X22638920Y-38852175D01*
X22734291Y-38909703D01*
X22836071Y-38960288D01*
X22975922Y-39012017D01*
X23185738Y-39055887D01*
X23331998Y-39064204D01*
X23437440Y-39060007D01*
X23490924Y-39055735D01*
X23649850Y-39023232D01*
X23770704Y-38979591D01*
X23872407Y-38929159D01*
X23961445Y-38871249D01*
X24056816Y-38794953D01*
X24173168Y-38672192D01*
X24248091Y-38570412D01*
X24294556Y-38494115D01*
X24362536Y-38354264D01*
X24396031Y-38265226D01*
X24440664Y-38099967D01*
X24472937Y-37845595D01*
X24473243Y-37635779D01*
X24466376Y-37540408D01*
X24452871Y-37438705D01*
X24420140Y-37286112D01*
X24383060Y-37171667D01*
X24331102Y-37050889D01*
X24274643Y-36949110D01*
X24204755Y-36847406D01*
X24050407Y-36686726D01*
X23955036Y-36615846D01*
X23872407Y-36566635D01*
X23789778Y-36527266D01*
X23662591Y-36482632D01*
X23548147Y-36457683D01*
X23440034Y-36445018D01*
X23331998Y-36440593D01*
X23198479Y-36446620D01*
X23077626Y-36464474D01*
X22950515Y-36496747D01*
X22816996Y-36547484D01*
X22696143Y-36609819D01*
X22594439Y-36680317D01*
X22510818Y-36752036D01*
X22407742Y-36866480D01*
X22331521Y-36974593D01*
X22248511Y-37139851D01*
X22204716Y-37273370D01*
X22185337Y-37362408D01*
X22165958Y-37534076D01*
X21134428Y-37534076D01*
X21134428Y-34253323D01*
X22194950Y-34253323D01*
X22194950Y-36332404D01*
G37*
G36*
X30160543Y-35535868D02*
G01*
X30294062Y-35547847D01*
X30472062Y-35573559D01*
X30611913Y-35605222D01*
X30758174Y-35649321D01*
X30993396Y-35752169D01*
X31120582Y-35827321D01*
X31222286Y-35897666D01*
X31343140Y-35994563D01*
X31517172Y-36167070D01*
X31637416Y-36319663D01*
X31739577Y-36478665D01*
X31853182Y-36713887D01*
X31942907Y-36974593D01*
X31994102Y-37203482D01*
X32018670Y-37394224D01*
X32028588Y-37623114D01*
X32028741Y-37998188D01*
X32023400Y-38004597D01*
X28920723Y-38004597D01*
X28918282Y-38036336D01*
X28932015Y-38125374D01*
X28970545Y-38290709D01*
X29020138Y-38436893D01*
X29090178Y-38583154D01*
X29166322Y-38697598D01*
X29230258Y-38773895D01*
X29333945Y-38870029D01*
X29461132Y-38955023D01*
X29581909Y-39011483D01*
X29702763Y-39049173D01*
X29842615Y-39075343D01*
X30039689Y-39087550D01*
X30192282Y-39080760D01*
X30389432Y-39049402D01*
X30542025Y-38999123D01*
X30643729Y-38947622D01*
X30777248Y-38852023D01*
X30867430Y-38761154D01*
X30932511Y-38665783D01*
X30987063Y-38545005D01*
X31635584Y-38545005D01*
X31953512Y-38545005D01*
X31958395Y-38551338D01*
X31903462Y-38754821D01*
X31821061Y-38958304D01*
X31726683Y-39129971D01*
X31618418Y-39282564D01*
X31548454Y-39365194D01*
X31438510Y-39474908D01*
X31317657Y-39575848D01*
X31165063Y-39678238D01*
X31037953Y-39748431D01*
X30847212Y-39831366D01*
X30732767Y-39869209D01*
X30529284Y-39919870D01*
X30363949Y-39945734D01*
X30160543Y-39962977D01*
X30039689Y-39964961D01*
X29848947Y-39958171D01*
X29658206Y-39939783D01*
X29512022Y-39913995D01*
X29333945Y-39868980D01*
X29098723Y-39780018D01*
X28939797Y-39697618D01*
X28825352Y-39628569D01*
X28717240Y-39551510D01*
X28602795Y-39456673D01*
X28467445Y-39320713D01*
X28371388Y-39206268D01*
X28213225Y-38970969D01*
X28098399Y-38742079D01*
X28010123Y-38500524D01*
X27945882Y-38233486D01*
X27913456Y-37960039D01*
X27911472Y-37578556D01*
X27920322Y-37438705D01*
X27931630Y-37349667D01*
X28935525Y-37349667D01*
X28939797Y-37355999D01*
X30084246Y-37355999D01*
X31012470Y-37355694D01*
X30995227Y-37235222D01*
X30931672Y-37019074D01*
X30856520Y-36860148D01*
X30798001Y-36771110D01*
X30734598Y-36694813D01*
X30618322Y-36591126D01*
X30510210Y-36522688D01*
X30440246Y-36489423D01*
X30332210Y-36450817D01*
X30211356Y-36426020D01*
X30103320Y-36413279D01*
X29988875Y-36408930D01*
X29868021Y-36414576D01*
X29772651Y-36425791D01*
X29658206Y-36450817D01*
X29518354Y-36501478D01*
X29365761Y-36590821D01*
X29231708Y-36707555D01*
X29134888Y-36828332D01*
X29051877Y-36974593D01*
X28982905Y-37152593D01*
X28935525Y-37349667D01*
X27931630Y-37349667D01*
X27939702Y-37286112D01*
X27965185Y-37152593D01*
X28009360Y-36980925D01*
X28072687Y-36796517D01*
X28118617Y-36688481D01*
X28161648Y-36599442D01*
X28257095Y-36434108D01*
X28327136Y-36332404D01*
X28422735Y-36211627D01*
X28590054Y-36037976D01*
X28729982Y-35923226D01*
X28812611Y-35865393D01*
X28914314Y-35802372D01*
X29085981Y-35713258D01*
X29295797Y-35631239D01*
X29486539Y-35580120D01*
X29645541Y-35553950D01*
X29817361Y-35537623D01*
X29995208Y-35531443D01*
X30160543Y-35535868D01*
G37*
G36*
X34585744Y-35535868D02*
G01*
X34719263Y-35547847D01*
X34897263Y-35573559D01*
X35037115Y-35605222D01*
X35183376Y-35649321D01*
X35418598Y-35752169D01*
X35545784Y-35827321D01*
X35647488Y-35897666D01*
X35768341Y-35994563D01*
X35942374Y-36167070D01*
X36062617Y-36319663D01*
X36164778Y-36478665D01*
X36278384Y-36713887D01*
X36368109Y-36974593D01*
X36419304Y-37203482D01*
X36443871Y-37394224D01*
X36453790Y-37623114D01*
X36453943Y-37998188D01*
X36448602Y-38004597D01*
X33345925Y-38004597D01*
X33343483Y-38036336D01*
X33357217Y-38125374D01*
X33395747Y-38290709D01*
X33445339Y-38436893D01*
X33515380Y-38583154D01*
X33591524Y-38697598D01*
X33655460Y-38773895D01*
X33759147Y-38870029D01*
X33886334Y-38955023D01*
X34007111Y-39011483D01*
X34127965Y-39049173D01*
X34267817Y-39075343D01*
X34464891Y-39087550D01*
X34617484Y-39080760D01*
X34814634Y-39049402D01*
X34967227Y-38999123D01*
X35068931Y-38947622D01*
X35202450Y-38852023D01*
X35292632Y-38761154D01*
X35357713Y-38665783D01*
X35412265Y-38545005D01*
X36060786Y-38545005D01*
X36378714Y-38545005D01*
X36383597Y-38551338D01*
X36328664Y-38754821D01*
X36246263Y-38958304D01*
X36151884Y-39129971D01*
X36043619Y-39282564D01*
X35973656Y-39365194D01*
X35863712Y-39474908D01*
X35742858Y-39575848D01*
X35590265Y-39678238D01*
X35463155Y-39748431D01*
X35272414Y-39831366D01*
X35157969Y-39869209D01*
X34954486Y-39919870D01*
X34789151Y-39945734D01*
X34585744Y-39962977D01*
X34464891Y-39964961D01*
X34274149Y-39958171D01*
X34083408Y-39939783D01*
X33937223Y-39913995D01*
X33759147Y-39868980D01*
X33523925Y-39780018D01*
X33364999Y-39697618D01*
X33250554Y-39628569D01*
X33142442Y-39551510D01*
X33027997Y-39456673D01*
X32892647Y-39320713D01*
X32796590Y-39206268D01*
X32638427Y-38970969D01*
X32523600Y-38742079D01*
X32435325Y-38500524D01*
X32371083Y-38233486D01*
X32338657Y-37960039D01*
X32336674Y-37578556D01*
X32345524Y-37438705D01*
X32356832Y-37349667D01*
X33360726Y-37349667D01*
X33364999Y-37355999D01*
X34509448Y-37355999D01*
X35437672Y-37355694D01*
X35420429Y-37235222D01*
X35356874Y-37019074D01*
X35281722Y-36860148D01*
X35223202Y-36771110D01*
X35159800Y-36694813D01*
X35043524Y-36591126D01*
X34935412Y-36522688D01*
X34865448Y-36489423D01*
X34757412Y-36450817D01*
X34636558Y-36426020D01*
X34528522Y-36413279D01*
X34414077Y-36408930D01*
X34293223Y-36414576D01*
X34197853Y-36425791D01*
X34083408Y-36450817D01*
X33943556Y-36501478D01*
X33790963Y-36590821D01*
X33656910Y-36707555D01*
X33560089Y-36828332D01*
X33477079Y-36974593D01*
X33408107Y-37152593D01*
X33360726Y-37349667D01*
X32356832Y-37349667D01*
X32364903Y-37286112D01*
X32390386Y-37152593D01*
X32434562Y-36980925D01*
X32497888Y-36796517D01*
X32543819Y-36688481D01*
X32586850Y-36599442D01*
X32682297Y-36434108D01*
X32752337Y-36332404D01*
X32847937Y-36211627D01*
X33015256Y-36037976D01*
X33155183Y-35923226D01*
X33237813Y-35865393D01*
X33339516Y-35802372D01*
X33511183Y-35713258D01*
X33720999Y-35631239D01*
X33911740Y-35580120D01*
X34070742Y-35553950D01*
X34242562Y-35537623D01*
X34420410Y-35531443D01*
X34585744Y-35535868D01*
G37*
G36*
X39697615Y-35555171D02*
G01*
X39913764Y-35586071D01*
X40028209Y-35611936D01*
X40187134Y-35662749D01*
X40377876Y-35747133D01*
X40568617Y-35859900D01*
X40689471Y-35949243D01*
X40778433Y-36026150D01*
X40920116Y-36173479D01*
X41078202Y-36383294D01*
X41200734Y-36599442D01*
X41295495Y-36822000D01*
X41358668Y-37025406D01*
X41415891Y-37324260D01*
X41434889Y-37553150D01*
X41434660Y-37934633D01*
X41403760Y-38252561D01*
X41359279Y-38468709D01*
X41269020Y-38748488D01*
X41168690Y-38964637D01*
X41091096Y-39098156D01*
X41021895Y-39199859D01*
X40857324Y-39397009D01*
X40772100Y-39481164D01*
X40657655Y-39577145D01*
X40460581Y-39709978D01*
X40225283Y-39824728D01*
X40009134Y-39894997D01*
X39862874Y-39926355D01*
X39729355Y-39945276D01*
X39500465Y-39956492D01*
X39271575Y-39945505D01*
X39080834Y-39914453D01*
X38947315Y-39881264D01*
X38712092Y-39793141D01*
X38553167Y-39710970D01*
X38464129Y-39652298D01*
X38375090Y-39583326D01*
X38283687Y-39498713D01*
X38201745Y-39409674D01*
X38095387Y-39274935D01*
X38094319Y-40681310D01*
X38094319Y-41342572D01*
X37034560Y-41342572D01*
X37034560Y-37623114D01*
X38064563Y-37623114D01*
X38068226Y-38036336D01*
X38081120Y-38144448D01*
X38105458Y-38258893D01*
X38137274Y-38354264D01*
X38189537Y-38468709D01*
X38258509Y-38576821D01*
X38329465Y-38665783D01*
X38470461Y-38800904D01*
X38578573Y-38877582D01*
X38667612Y-38927022D01*
X38750241Y-38966162D01*
X38871018Y-39010491D01*
X38972798Y-39036813D01*
X39087243Y-39055964D01*
X39233427Y-39064204D01*
X39336656Y-39060007D01*
X39551355Y-39023080D01*
X39627651Y-38998512D01*
X39767503Y-38934805D01*
X39894690Y-38851412D01*
X40002802Y-38756042D01*
X40062237Y-38691266D01*
X40138228Y-38589486D01*
X40189805Y-38506857D01*
X40266178Y-38347931D01*
X40316304Y-38201671D01*
X40341177Y-38099967D01*
X40366889Y-37934633D01*
X40373985Y-37839262D01*
X40367347Y-37553150D01*
X40354224Y-37451446D01*
X40322027Y-37298853D01*
X40290516Y-37197074D01*
X40234362Y-37063555D01*
X40189347Y-36980925D01*
X40112974Y-36866480D01*
X40055828Y-36796517D01*
X39958245Y-36700307D01*
X39831134Y-36604173D01*
X39754838Y-36560684D01*
X39640393Y-36508955D01*
X39557688Y-36482327D01*
X39443243Y-36457378D01*
X39341539Y-36445171D01*
X39233427Y-36440593D01*
X39099908Y-36446468D01*
X38979131Y-36464169D01*
X38851944Y-36496213D01*
X38718425Y-36546798D01*
X38584906Y-36616609D01*
X38470461Y-36699086D01*
X38367308Y-36796517D01*
X38303066Y-36872813D01*
X38227838Y-36980925D01*
X38188545Y-37050889D01*
X38132162Y-37184408D01*
X38105153Y-37273370D01*
X38080815Y-37394224D01*
X38067539Y-37515001D01*
X38064563Y-37623114D01*
X37034560Y-37623114D01*
X37034560Y-35683883D01*
X37039900Y-35677475D01*
X37872830Y-35681747D01*
X37873898Y-36675739D01*
X37879163Y-36690388D01*
X37940658Y-36529478D01*
X37999635Y-36408701D01*
X38124761Y-36205218D01*
X38278575Y-36020885D01*
X38438722Y-35878821D01*
X38527684Y-35816487D01*
X38635796Y-35753237D01*
X38832870Y-35663207D01*
X38947315Y-35624677D01*
X39125391Y-35580502D01*
X39380756Y-35550364D01*
X39500465Y-35547160D01*
X39697615Y-35555171D01*
G37*
G36*
X19078974Y-34254589D02*
G01*
X19091018Y-34255884D01*
X19102938Y-34258034D01*
X19114675Y-34261030D01*
X19126168Y-34264855D01*
X19137359Y-34269491D01*
X19148191Y-34274913D01*
X19158609Y-34281094D01*
X19168558Y-34288002D01*
X19177990Y-34295602D01*
X19186856Y-34303857D01*
X19195110Y-34312722D01*
X19202710Y-34322154D01*
X19209619Y-34332104D01*
X19215800Y-34342521D01*
X19221222Y-34353353D01*
X19225857Y-34364544D01*
X19229682Y-34376037D01*
X19232678Y-34387774D01*
X19234829Y-34399694D01*
X19236123Y-34411738D01*
X19236556Y-34423843D01*
X19236556Y-39097947D01*
X19234905Y-39144167D01*
X19229961Y-39190152D01*
X19221749Y-39235667D01*
X19210311Y-39280480D01*
X19195706Y-39324363D01*
X19178007Y-39367093D01*
X19157305Y-39408450D01*
X19133705Y-39448226D01*
X19107327Y-39486216D01*
X19078307Y-39522228D01*
X19046792Y-39556078D01*
X19012942Y-39587594D01*
X18976930Y-39616614D01*
X18938939Y-39642992D01*
X18899164Y-39666591D01*
X18857806Y-39687294D01*
X18815077Y-39704993D01*
X18771194Y-39719598D01*
X18726380Y-39731036D01*
X18680865Y-39739248D01*
X18634881Y-39744192D01*
X18588660Y-39745843D01*
X18095026Y-39745843D01*
X18048805Y-39744192D01*
X18002820Y-39739248D01*
X17957305Y-39731036D01*
X17912492Y-39719598D01*
X17868609Y-39704993D01*
X17825880Y-39687294D01*
X17784522Y-39666591D01*
X17744747Y-39642992D01*
X17706756Y-39616614D01*
X17670744Y-39587594D01*
X17636894Y-39556078D01*
X17605379Y-39522228D01*
X17576358Y-39486216D01*
X17549981Y-39448226D01*
X17526381Y-39408450D01*
X17505679Y-39367093D01*
X17487980Y-39324363D01*
X17473374Y-39280480D01*
X17461936Y-39235667D01*
X17453725Y-39190152D01*
X17448781Y-39144167D01*
X17447130Y-39097947D01*
X17447130Y-37863860D01*
X17925339Y-37863860D01*
X17926353Y-37892914D01*
X17929392Y-37921826D01*
X17934440Y-37950456D01*
X17941473Y-37978664D01*
X17950457Y-38006313D01*
X17961347Y-38033268D01*
X17974091Y-38059397D01*
X17988627Y-38084574D01*
X18004884Y-38108675D01*
X18022782Y-38131584D01*
X18042235Y-38153188D01*
X18063147Y-38173383D01*
X18085417Y-38192070D01*
X18108937Y-38209158D01*
X18133591Y-38224564D01*
X18159259Y-38238212D01*
X18185818Y-38250036D01*
X18213136Y-38259979D01*
X18241081Y-38267993D01*
X18269518Y-38274037D01*
X18298306Y-38278083D01*
X18327307Y-38280111D01*
X18356379Y-38280111D01*
X18385379Y-38278083D01*
X18414168Y-38274037D01*
X18442604Y-38267993D01*
X18470550Y-38259979D01*
X18497868Y-38250036D01*
X18524426Y-38238212D01*
X18550095Y-38224564D01*
X18574749Y-38209158D01*
X18598269Y-38192070D01*
X18620539Y-38173383D01*
X18641451Y-38153188D01*
X18660904Y-38131584D01*
X18678802Y-38108675D01*
X18695059Y-38084574D01*
X18709594Y-38059397D01*
X18722338Y-38033268D01*
X18733229Y-38006313D01*
X18742212Y-37978664D01*
X18749246Y-37950456D01*
X18754294Y-37921826D01*
X18757333Y-37892914D01*
X18758347Y-37863860D01*
X18757333Y-37834806D01*
X18754294Y-37805894D01*
X18749246Y-37777264D01*
X18742212Y-37749056D01*
X18733229Y-37721407D01*
X18722338Y-37694453D01*
X18709594Y-37668323D01*
X18695059Y-37643147D01*
X18678802Y-37619045D01*
X18660904Y-37596136D01*
X18641451Y-37574532D01*
X18620539Y-37554337D01*
X18598269Y-37535650D01*
X18574749Y-37518563D01*
X18550095Y-37503157D01*
X18524426Y-37489509D01*
X18497868Y-37477684D01*
X18470550Y-37467741D01*
X18442604Y-37459728D01*
X18414168Y-37453684D01*
X18385379Y-37449638D01*
X18356379Y-37447610D01*
X18327307Y-37447610D01*
X18298306Y-37449638D01*
X18269518Y-37453684D01*
X18241081Y-37459728D01*
X18213136Y-37467741D01*
X18185818Y-37477684D01*
X18159259Y-37489509D01*
X18133591Y-37503157D01*
X18108937Y-37518563D01*
X18085417Y-37535650D01*
X18063147Y-37554337D01*
X18042235Y-37574532D01*
X18022782Y-37596136D01*
X18004884Y-37619045D01*
X17988627Y-37643147D01*
X17974091Y-37668323D01*
X17961347Y-37694453D01*
X17950457Y-37721407D01*
X17941473Y-37749056D01*
X17934440Y-37777264D01*
X17929392Y-37805894D01*
X17926353Y-37834806D01*
X17925339Y-37863860D01*
X17447130Y-37863860D01*
X17447130Y-36830313D01*
X17632243Y-36830313D01*
X17632361Y-36833614D01*
X17632714Y-36836899D01*
X17633301Y-36840150D01*
X17634118Y-36843351D01*
X17635161Y-36846485D01*
X17636425Y-36849537D01*
X17637904Y-36852491D01*
X17639589Y-36855332D01*
X17641474Y-36858046D01*
X17643546Y-36860618D01*
X17645798Y-36863036D01*
X17648215Y-36865287D01*
X17650788Y-36867360D01*
X17653501Y-36869244D01*
X17656342Y-36870930D01*
X17659297Y-36872409D01*
X17662349Y-36873673D01*
X17665483Y-36874716D01*
X17668684Y-36875533D01*
X17671935Y-36876120D01*
X17675220Y-36876473D01*
X17678521Y-36876591D01*
X19005165Y-36876591D01*
X19008466Y-36876473D01*
X19011751Y-36876120D01*
X19015002Y-36875533D01*
X19018203Y-36874716D01*
X19021337Y-36873673D01*
X19024389Y-36872409D01*
X19027343Y-36870930D01*
X19030184Y-36869244D01*
X19032898Y-36867360D01*
X19035470Y-36865287D01*
X19037888Y-36863036D01*
X19040139Y-36860618D01*
X19042212Y-36858046D01*
X19044096Y-36855332D01*
X19045782Y-36852491D01*
X19047261Y-36849537D01*
X19048525Y-36846485D01*
X19049568Y-36843351D01*
X19050385Y-36840150D01*
X19050972Y-36836899D01*
X19051325Y-36833614D01*
X19051443Y-36830313D01*
X19051443Y-34516400D01*
X19051325Y-34513098D01*
X19050972Y-34509814D01*
X19050385Y-34506563D01*
X19049568Y-34503362D01*
X19048525Y-34500227D01*
X19047261Y-34497175D01*
X19045782Y-34494221D01*
X19044096Y-34491380D01*
X19042212Y-34488666D01*
X19040139Y-34486094D01*
X19037888Y-34483676D01*
X19035470Y-34481425D01*
X19032898Y-34479352D01*
X19030184Y-34477468D01*
X19027343Y-34475782D01*
X19024389Y-34474304D01*
X19021337Y-34473039D01*
X19018203Y-34471996D01*
X19015002Y-34471179D01*
X19011751Y-34470593D01*
X19008466Y-34470239D01*
X19005165Y-34470122D01*
X17678521Y-34470122D01*
X17675220Y-34470239D01*
X17671935Y-34470593D01*
X17668684Y-34471179D01*
X17665483Y-34471996D01*
X17662349Y-34473039D01*
X17659297Y-34474304D01*
X17656342Y-34475782D01*
X17653501Y-34477468D01*
X17650788Y-34479352D01*
X17648215Y-34481425D01*
X17645798Y-34483676D01*
X17643546Y-34486094D01*
X17641474Y-34488666D01*
X17639589Y-34491380D01*
X17637904Y-34494221D01*
X17636425Y-34497175D01*
X17635161Y-34500227D01*
X17634118Y-34503362D01*
X17633301Y-34506563D01*
X17632714Y-34509814D01*
X17632361Y-34513098D01*
X17632243Y-34516400D01*
X17632243Y-36830313D01*
X17447130Y-36830313D01*
X17447130Y-34516400D01*
X17447130Y-34423843D01*
X17447562Y-34411738D01*
X17448857Y-34399694D01*
X17451008Y-34387774D01*
X17454003Y-34376037D01*
X17457829Y-34364544D01*
X17462464Y-34353353D01*
X17467886Y-34342521D01*
X17474067Y-34332104D01*
X17480975Y-34322154D01*
X17488576Y-34312722D01*
X17496830Y-34303857D01*
X17505696Y-34295602D01*
X17515127Y-34288002D01*
X17525077Y-34281094D01*
X17535495Y-34274913D01*
X17546326Y-34269491D01*
X17557517Y-34264855D01*
X17569011Y-34261030D01*
X17580747Y-34258034D01*
X17592668Y-34255884D01*
X17604712Y-34254589D01*
X17616817Y-34254156D01*
X19066869Y-34254156D01*
X19078974Y-34254589D01*
G37*
D11*
X24570000Y-4420000D02*
X24070000Y-5119999D01*
X24570000Y-4420000D02*
X25070000Y-5119999D01*
X24570000Y-7420000D02*
X24570000Y-4420000D01*
X36170000Y-4420000D02*
X35670000Y-5119999D01*
X36170000Y-4420000D02*
X36670000Y-5119999D01*
X36170000Y-7420000D02*
X36170000Y-4420000D01*
D12*
X28910476Y-7183854D02*
X28910476Y-6383854D01*
X29367619Y-7183854D02*
X29024761Y-6726711D01*
X29367619Y-6383854D02*
X28910476Y-6840997D01*
X12846187Y-43963855D02*
X12922377Y-43963855D01*
X12922377Y-43963855D02*
X12998568Y-44001950D01*
X12998568Y-44001950D02*
X13036663Y-44040045D01*
X13036663Y-44040045D02*
X13074758Y-44116236D01*
X13074758Y-44116236D02*
X13112853Y-44268617D01*
X13112853Y-44268617D02*
X13112853Y-44459093D01*
X13112853Y-44459093D02*
X13074758Y-44611474D01*
X13074758Y-44611474D02*
X13036663Y-44687664D01*
X13036663Y-44687664D02*
X12998568Y-44725760D01*
X12998568Y-44725760D02*
X12922377Y-44763855D01*
X12922377Y-44763855D02*
X12846187Y-44763855D01*
X12846187Y-44763855D02*
X12769996Y-44725760D01*
X12769996Y-44725760D02*
X12731901Y-44687664D01*
X12731901Y-44687664D02*
X12693806Y-44611474D01*
X12693806Y-44611474D02*
X12655710Y-44459093D01*
X12655710Y-44459093D02*
X12655710Y-44268617D01*
X12655710Y-44268617D02*
X12693806Y-44116236D01*
X12693806Y-44116236D02*
X12731901Y-44040045D01*
X12731901Y-44040045D02*
X12769996Y-44001950D01*
X12769996Y-44001950D02*
X12846187Y-43963855D01*
X13455711Y-44687664D02*
X13493806Y-44725760D01*
X13493806Y-44725760D02*
X13455711Y-44763855D01*
X13455711Y-44763855D02*
X13417615Y-44725760D01*
X13417615Y-44725760D02*
X13455711Y-44687664D01*
X13455711Y-44687664D02*
X13455711Y-44763855D01*
X13950948Y-44306712D02*
X13874758Y-44268617D01*
X13874758Y-44268617D02*
X13836663Y-44230521D01*
X13836663Y-44230521D02*
X13798567Y-44154331D01*
X13798567Y-44154331D02*
X13798567Y-44116236D01*
X13798567Y-44116236D02*
X13836663Y-44040045D01*
X13836663Y-44040045D02*
X13874758Y-44001950D01*
X13874758Y-44001950D02*
X13950948Y-43963855D01*
X13950948Y-43963855D02*
X14103329Y-43963855D01*
X14103329Y-43963855D02*
X14179520Y-44001950D01*
X14179520Y-44001950D02*
X14217615Y-44040045D01*
X14217615Y-44040045D02*
X14255710Y-44116236D01*
X14255710Y-44116236D02*
X14255710Y-44154331D01*
X14255710Y-44154331D02*
X14217615Y-44230521D01*
X14217615Y-44230521D02*
X14179520Y-44268617D01*
X14179520Y-44268617D02*
X14103329Y-44306712D01*
X14103329Y-44306712D02*
X13950948Y-44306712D01*
X13950948Y-44306712D02*
X13874758Y-44344807D01*
X13874758Y-44344807D02*
X13836663Y-44382902D01*
X13836663Y-44382902D02*
X13798567Y-44459093D01*
X13798567Y-44459093D02*
X13798567Y-44611474D01*
X13798567Y-44611474D02*
X13836663Y-44687664D01*
X13836663Y-44687664D02*
X13874758Y-44725760D01*
X13874758Y-44725760D02*
X13950948Y-44763855D01*
X13950948Y-44763855D02*
X14103329Y-44763855D01*
X14103329Y-44763855D02*
X14179520Y-44725760D01*
X14179520Y-44725760D02*
X14217615Y-44687664D01*
X14217615Y-44687664D02*
X14255710Y-44611474D01*
X14255710Y-44611474D02*
X14255710Y-44459093D01*
X14255710Y-44459093D02*
X14217615Y-44382902D01*
X14217615Y-44382902D02*
X14179520Y-44344807D01*
X14179520Y-44344807D02*
X14103329Y-44306712D01*
X15208092Y-44763855D02*
X15208092Y-44230521D01*
X15208092Y-44306712D02*
X15246187Y-44268617D01*
X15246187Y-44268617D02*
X15322377Y-44230521D01*
X15322377Y-44230521D02*
X15436663Y-44230521D01*
X15436663Y-44230521D02*
X15512854Y-44268617D01*
X15512854Y-44268617D02*
X15550949Y-44344807D01*
X15550949Y-44344807D02*
X15550949Y-44763855D01*
X15550949Y-44344807D02*
X15589044Y-44268617D01*
X15589044Y-44268617D02*
X15665235Y-44230521D01*
X15665235Y-44230521D02*
X15779520Y-44230521D01*
X15779520Y-44230521D02*
X15855711Y-44268617D01*
X15855711Y-44268617D02*
X15893806Y-44344807D01*
X15893806Y-44344807D02*
X15893806Y-44763855D01*
X16274759Y-44763855D02*
X16274759Y-44230521D01*
X16274759Y-44306712D02*
X16312854Y-44268617D01*
X16312854Y-44268617D02*
X16389044Y-44230521D01*
X16389044Y-44230521D02*
X16503330Y-44230521D01*
X16503330Y-44230521D02*
X16579521Y-44268617D01*
X16579521Y-44268617D02*
X16617616Y-44344807D01*
X16617616Y-44344807D02*
X16617616Y-44763855D01*
X16617616Y-44344807D02*
X16655711Y-44268617D01*
X16655711Y-44268617D02*
X16731902Y-44230521D01*
X16731902Y-44230521D02*
X16846187Y-44230521D01*
X16846187Y-44230521D02*
X16922378Y-44268617D01*
X16922378Y-44268617D02*
X16960473Y-44344807D01*
X16960473Y-44344807D02*
X16960473Y-44763855D01*
X18560474Y-44459093D02*
X19169998Y-44459093D01*
X20769998Y-44230521D02*
X20769998Y-45030521D01*
X20769998Y-44268617D02*
X20846188Y-44230521D01*
X20846188Y-44230521D02*
X20998569Y-44230521D01*
X20998569Y-44230521D02*
X21074760Y-44268617D01*
X21074760Y-44268617D02*
X21112855Y-44306712D01*
X21112855Y-44306712D02*
X21150950Y-44382902D01*
X21150950Y-44382902D02*
X21150950Y-44611474D01*
X21150950Y-44611474D02*
X21112855Y-44687664D01*
X21112855Y-44687664D02*
X21074760Y-44725760D01*
X21074760Y-44725760D02*
X20998569Y-44763855D01*
X20998569Y-44763855D02*
X20846188Y-44763855D01*
X20846188Y-44763855D02*
X20769998Y-44725760D01*
X21836665Y-44763855D02*
X21836665Y-44344807D01*
X21836665Y-44344807D02*
X21798570Y-44268617D01*
X21798570Y-44268617D02*
X21722379Y-44230521D01*
X21722379Y-44230521D02*
X21569998Y-44230521D01*
X21569998Y-44230521D02*
X21493808Y-44268617D01*
X21836665Y-44725760D02*
X21760474Y-44763855D01*
X21760474Y-44763855D02*
X21569998Y-44763855D01*
X21569998Y-44763855D02*
X21493808Y-44725760D01*
X21493808Y-44725760D02*
X21455712Y-44649569D01*
X21455712Y-44649569D02*
X21455712Y-44573379D01*
X21455712Y-44573379D02*
X21493808Y-44497188D01*
X21493808Y-44497188D02*
X21569998Y-44459093D01*
X21569998Y-44459093D02*
X21760474Y-44459093D01*
X21760474Y-44459093D02*
X21836665Y-44420998D01*
X22217618Y-44230521D02*
X22217618Y-44763855D01*
X22217618Y-44306712D02*
X22255713Y-44268617D01*
X22255713Y-44268617D02*
X22331903Y-44230521D01*
X22331903Y-44230521D02*
X22446189Y-44230521D01*
X22446189Y-44230521D02*
X22522380Y-44268617D01*
X22522380Y-44268617D02*
X22560475Y-44344807D01*
X22560475Y-44344807D02*
X22560475Y-44763855D01*
X23246190Y-44725760D02*
X23169999Y-44763855D01*
X23169999Y-44763855D02*
X23017618Y-44763855D01*
X23017618Y-44763855D02*
X22941428Y-44725760D01*
X22941428Y-44725760D02*
X22903332Y-44649569D01*
X22903332Y-44649569D02*
X22903332Y-44344807D01*
X22903332Y-44344807D02*
X22941428Y-44268617D01*
X22941428Y-44268617D02*
X23017618Y-44230521D01*
X23017618Y-44230521D02*
X23169999Y-44230521D01*
X23169999Y-44230521D02*
X23246190Y-44268617D01*
X23246190Y-44268617D02*
X23284285Y-44344807D01*
X23284285Y-44344807D02*
X23284285Y-44420998D01*
X23284285Y-44420998D02*
X22903332Y-44497188D01*
X23741427Y-44763855D02*
X23665237Y-44725760D01*
X23665237Y-44725760D02*
X23627142Y-44649569D01*
X23627142Y-44649569D02*
X23627142Y-43963855D01*
X24998571Y-44230521D02*
X24998571Y-44878140D01*
X24998571Y-44878140D02*
X24960476Y-44954331D01*
X24960476Y-44954331D02*
X24922380Y-44992426D01*
X24922380Y-44992426D02*
X24846190Y-45030521D01*
X24846190Y-45030521D02*
X24731904Y-45030521D01*
X24731904Y-45030521D02*
X24655714Y-44992426D01*
X24998571Y-44725760D02*
X24922380Y-44763855D01*
X24922380Y-44763855D02*
X24769999Y-44763855D01*
X24769999Y-44763855D02*
X24693809Y-44725760D01*
X24693809Y-44725760D02*
X24655714Y-44687664D01*
X24655714Y-44687664D02*
X24617618Y-44611474D01*
X24617618Y-44611474D02*
X24617618Y-44382902D01*
X24617618Y-44382902D02*
X24655714Y-44306712D01*
X24655714Y-44306712D02*
X24693809Y-44268617D01*
X24693809Y-44268617D02*
X24769999Y-44230521D01*
X24769999Y-44230521D02*
X24922380Y-44230521D01*
X24922380Y-44230521D02*
X24998571Y-44268617D01*
X25493809Y-44763855D02*
X25417619Y-44725760D01*
X25417619Y-44725760D02*
X25379524Y-44687664D01*
X25379524Y-44687664D02*
X25341428Y-44611474D01*
X25341428Y-44611474D02*
X25341428Y-44382902D01*
X25341428Y-44382902D02*
X25379524Y-44306712D01*
X25379524Y-44306712D02*
X25417619Y-44268617D01*
X25417619Y-44268617D02*
X25493809Y-44230521D01*
X25493809Y-44230521D02*
X25608095Y-44230521D01*
X25608095Y-44230521D02*
X25684286Y-44268617D01*
X25684286Y-44268617D02*
X25722381Y-44306712D01*
X25722381Y-44306712D02*
X25760476Y-44382902D01*
X25760476Y-44382902D02*
X25760476Y-44611474D01*
X25760476Y-44611474D02*
X25722381Y-44687664D01*
X25722381Y-44687664D02*
X25684286Y-44725760D01*
X25684286Y-44725760D02*
X25608095Y-44763855D01*
X25608095Y-44763855D02*
X25493809Y-44763855D01*
X26408096Y-44725760D02*
X26331905Y-44763855D01*
X26331905Y-44763855D02*
X26179524Y-44763855D01*
X26179524Y-44763855D02*
X26103334Y-44725760D01*
X26103334Y-44725760D02*
X26065238Y-44649569D01*
X26065238Y-44649569D02*
X26065238Y-44344807D01*
X26065238Y-44344807D02*
X26103334Y-44268617D01*
X26103334Y-44268617D02*
X26179524Y-44230521D01*
X26179524Y-44230521D02*
X26331905Y-44230521D01*
X26331905Y-44230521D02*
X26408096Y-44268617D01*
X26408096Y-44268617D02*
X26446191Y-44344807D01*
X26446191Y-44344807D02*
X26446191Y-44420998D01*
X26446191Y-44420998D02*
X26065238Y-44497188D01*
X26750952Y-44725760D02*
X26827143Y-44763855D01*
X26827143Y-44763855D02*
X26979524Y-44763855D01*
X26979524Y-44763855D02*
X27055714Y-44725760D01*
X27055714Y-44725760D02*
X27093810Y-44649569D01*
X27093810Y-44649569D02*
X27093810Y-44611474D01*
X27093810Y-44611474D02*
X27055714Y-44535283D01*
X27055714Y-44535283D02*
X26979524Y-44497188D01*
X26979524Y-44497188D02*
X26865238Y-44497188D01*
X26865238Y-44497188D02*
X26789048Y-44459093D01*
X26789048Y-44459093D02*
X26750952Y-44382902D01*
X26750952Y-44382902D02*
X26750952Y-44344807D01*
X26750952Y-44344807D02*
X26789048Y-44268617D01*
X26789048Y-44268617D02*
X26865238Y-44230521D01*
X26865238Y-44230521D02*
X26979524Y-44230521D01*
X26979524Y-44230521D02*
X27055714Y-44268617D01*
X28046191Y-44763855D02*
X28046191Y-43963855D01*
X28389048Y-44763855D02*
X28389048Y-44344807D01*
X28389048Y-44344807D02*
X28350953Y-44268617D01*
X28350953Y-44268617D02*
X28274762Y-44230521D01*
X28274762Y-44230521D02*
X28160476Y-44230521D01*
X28160476Y-44230521D02*
X28084286Y-44268617D01*
X28084286Y-44268617D02*
X28046191Y-44306712D01*
X29074763Y-44725760D02*
X28998572Y-44763855D01*
X28998572Y-44763855D02*
X28846191Y-44763855D01*
X28846191Y-44763855D02*
X28770001Y-44725760D01*
X28770001Y-44725760D02*
X28731905Y-44649569D01*
X28731905Y-44649569D02*
X28731905Y-44344807D01*
X28731905Y-44344807D02*
X28770001Y-44268617D01*
X28770001Y-44268617D02*
X28846191Y-44230521D01*
X28846191Y-44230521D02*
X28998572Y-44230521D01*
X28998572Y-44230521D02*
X29074763Y-44268617D01*
X29074763Y-44268617D02*
X29112858Y-44344807D01*
X29112858Y-44344807D02*
X29112858Y-44420998D01*
X29112858Y-44420998D02*
X28731905Y-44497188D01*
X29455715Y-44763855D02*
X29455715Y-44230521D01*
X29455715Y-44382902D02*
X29493810Y-44306712D01*
X29493810Y-44306712D02*
X29531905Y-44268617D01*
X29531905Y-44268617D02*
X29608096Y-44230521D01*
X29608096Y-44230521D02*
X29684286Y-44230521D01*
X30255715Y-44725760D02*
X30179524Y-44763855D01*
X30179524Y-44763855D02*
X30027143Y-44763855D01*
X30027143Y-44763855D02*
X29950953Y-44725760D01*
X29950953Y-44725760D02*
X29912857Y-44649569D01*
X29912857Y-44649569D02*
X29912857Y-44344807D01*
X29912857Y-44344807D02*
X29950953Y-44268617D01*
X29950953Y-44268617D02*
X30027143Y-44230521D01*
X30027143Y-44230521D02*
X30179524Y-44230521D01*
X30179524Y-44230521D02*
X30255715Y-44268617D01*
X30255715Y-44268617D02*
X30293810Y-44344807D01*
X30293810Y-44344807D02*
X30293810Y-44420998D01*
X30293810Y-44420998D02*
X29912857Y-44497188D01*
X30674762Y-44725760D02*
X30674762Y-44763855D01*
X30674762Y-44763855D02*
X30636667Y-44840045D01*
X30636667Y-44840045D02*
X30598571Y-44878140D01*
X31627143Y-44763855D02*
X31627143Y-44230521D01*
X31627143Y-43963855D02*
X31589047Y-44001950D01*
X31589047Y-44001950D02*
X31627143Y-44040045D01*
X31627143Y-44040045D02*
X31665238Y-44001950D01*
X31665238Y-44001950D02*
X31627143Y-43963855D01*
X31627143Y-43963855D02*
X31627143Y-44040045D01*
X31893809Y-44230521D02*
X32198571Y-44230521D01*
X32008095Y-43963855D02*
X32008095Y-44649569D01*
X32008095Y-44649569D02*
X32046190Y-44725760D01*
X32046190Y-44725760D02*
X32122380Y-44763855D01*
X32122380Y-44763855D02*
X32198571Y-44763855D01*
X32427142Y-44725760D02*
X32503333Y-44763855D01*
X32503333Y-44763855D02*
X32655714Y-44763855D01*
X32655714Y-44763855D02*
X32731904Y-44725760D01*
X32731904Y-44725760D02*
X32770000Y-44649569D01*
X32770000Y-44649569D02*
X32770000Y-44611474D01*
X32770000Y-44611474D02*
X32731904Y-44535283D01*
X32731904Y-44535283D02*
X32655714Y-44497188D01*
X32655714Y-44497188D02*
X32541428Y-44497188D01*
X32541428Y-44497188D02*
X32465238Y-44459093D01*
X32465238Y-44459093D02*
X32427142Y-44382902D01*
X32427142Y-44382902D02*
X32427142Y-44344807D01*
X32427142Y-44344807D02*
X32465238Y-44268617D01*
X32465238Y-44268617D02*
X32541428Y-44230521D01*
X32541428Y-44230521D02*
X32655714Y-44230521D01*
X32655714Y-44230521D02*
X32731904Y-44268617D01*
X33989047Y-44344807D02*
X33722381Y-44344807D01*
X33722381Y-44763855D02*
X33722381Y-43963855D01*
X33722381Y-43963855D02*
X34103333Y-43963855D01*
X34408095Y-44763855D02*
X34408095Y-43963855D01*
X34408095Y-43963855D02*
X34712857Y-43963855D01*
X34712857Y-43963855D02*
X34789047Y-44001950D01*
X34789047Y-44001950D02*
X34827142Y-44040045D01*
X34827142Y-44040045D02*
X34865238Y-44116236D01*
X34865238Y-44116236D02*
X34865238Y-44230521D01*
X34865238Y-44230521D02*
X34827142Y-44306712D01*
X34827142Y-44306712D02*
X34789047Y-44344807D01*
X34789047Y-44344807D02*
X34712857Y-44382902D01*
X34712857Y-44382902D02*
X34408095Y-44382902D01*
X35665238Y-44687664D02*
X35627142Y-44725760D01*
X35627142Y-44725760D02*
X35512857Y-44763855D01*
X35512857Y-44763855D02*
X35436666Y-44763855D01*
X35436666Y-44763855D02*
X35322380Y-44725760D01*
X35322380Y-44725760D02*
X35246190Y-44649569D01*
X35246190Y-44649569D02*
X35208095Y-44573379D01*
X35208095Y-44573379D02*
X35169999Y-44420998D01*
X35169999Y-44420998D02*
X35169999Y-44306712D01*
X35169999Y-44306712D02*
X35208095Y-44154331D01*
X35208095Y-44154331D02*
X35246190Y-44078140D01*
X35246190Y-44078140D02*
X35322380Y-44001950D01*
X35322380Y-44001950D02*
X35436666Y-43963855D01*
X35436666Y-43963855D02*
X35512857Y-43963855D01*
X35512857Y-43963855D02*
X35627142Y-44001950D01*
X35627142Y-44001950D02*
X35665238Y-44040045D01*
X36503333Y-44230521D02*
X36808095Y-44230521D01*
X36617619Y-44763855D02*
X36617619Y-44078140D01*
X36617619Y-44078140D02*
X36655714Y-44001950D01*
X36655714Y-44001950D02*
X36731904Y-43963855D01*
X36731904Y-43963855D02*
X36808095Y-43963855D01*
X37189047Y-44763855D02*
X37112857Y-44725760D01*
X37112857Y-44725760D02*
X37074762Y-44687664D01*
X37074762Y-44687664D02*
X37036666Y-44611474D01*
X37036666Y-44611474D02*
X37036666Y-44382902D01*
X37036666Y-44382902D02*
X37074762Y-44306712D01*
X37074762Y-44306712D02*
X37112857Y-44268617D01*
X37112857Y-44268617D02*
X37189047Y-44230521D01*
X37189047Y-44230521D02*
X37303333Y-44230521D01*
X37303333Y-44230521D02*
X37379524Y-44268617D01*
X37379524Y-44268617D02*
X37417619Y-44306712D01*
X37417619Y-44306712D02*
X37455714Y-44382902D01*
X37455714Y-44382902D02*
X37455714Y-44611474D01*
X37455714Y-44611474D02*
X37417619Y-44687664D01*
X37417619Y-44687664D02*
X37379524Y-44725760D01*
X37379524Y-44725760D02*
X37303333Y-44763855D01*
X37303333Y-44763855D02*
X37189047Y-44763855D01*
X37912857Y-44763855D02*
X37836667Y-44725760D01*
X37836667Y-44725760D02*
X37798572Y-44649569D01*
X37798572Y-44649569D02*
X37798572Y-43963855D01*
X38560477Y-44763855D02*
X38560477Y-43963855D01*
X38560477Y-44725760D02*
X38484286Y-44763855D01*
X38484286Y-44763855D02*
X38331905Y-44763855D01*
X38331905Y-44763855D02*
X38255715Y-44725760D01*
X38255715Y-44725760D02*
X38217620Y-44687664D01*
X38217620Y-44687664D02*
X38179524Y-44611474D01*
X38179524Y-44611474D02*
X38179524Y-44382902D01*
X38179524Y-44382902D02*
X38217620Y-44306712D01*
X38217620Y-44306712D02*
X38255715Y-44268617D01*
X38255715Y-44268617D02*
X38331905Y-44230521D01*
X38331905Y-44230521D02*
X38484286Y-44230521D01*
X38484286Y-44230521D02*
X38560477Y-44268617D01*
X38903334Y-44725760D02*
X38979525Y-44763855D01*
X38979525Y-44763855D02*
X39131906Y-44763855D01*
X39131906Y-44763855D02*
X39208096Y-44725760D01*
X39208096Y-44725760D02*
X39246192Y-44649569D01*
X39246192Y-44649569D02*
X39246192Y-44611474D01*
X39246192Y-44611474D02*
X39208096Y-44535283D01*
X39208096Y-44535283D02*
X39131906Y-44497188D01*
X39131906Y-44497188D02*
X39017620Y-44497188D01*
X39017620Y-44497188D02*
X38941430Y-44459093D01*
X38941430Y-44459093D02*
X38903334Y-44382902D01*
X38903334Y-44382902D02*
X38903334Y-44344807D01*
X38903334Y-44344807D02*
X38941430Y-44268617D01*
X38941430Y-44268617D02*
X39017620Y-44230521D01*
X39017620Y-44230521D02*
X39131906Y-44230521D01*
X39131906Y-44230521D02*
X39208096Y-44268617D01*
X40541430Y-44230521D02*
X40541430Y-44763855D01*
X40198573Y-44230521D02*
X40198573Y-44649569D01*
X40198573Y-44649569D02*
X40236668Y-44725760D01*
X40236668Y-44725760D02*
X40312858Y-44763855D01*
X40312858Y-44763855D02*
X40427144Y-44763855D01*
X40427144Y-44763855D02*
X40503335Y-44725760D01*
X40503335Y-44725760D02*
X40541430Y-44687664D01*
X40922383Y-44230521D02*
X40922383Y-44763855D01*
X40922383Y-44306712D02*
X40960478Y-44268617D01*
X40960478Y-44268617D02*
X41036668Y-44230521D01*
X41036668Y-44230521D02*
X41150954Y-44230521D01*
X41150954Y-44230521D02*
X41227145Y-44268617D01*
X41227145Y-44268617D02*
X41265240Y-44344807D01*
X41265240Y-44344807D02*
X41265240Y-44763855D01*
X41989050Y-44763855D02*
X41989050Y-43963855D01*
X41989050Y-44725760D02*
X41912859Y-44763855D01*
X41912859Y-44763855D02*
X41760478Y-44763855D01*
X41760478Y-44763855D02*
X41684288Y-44725760D01*
X41684288Y-44725760D02*
X41646193Y-44687664D01*
X41646193Y-44687664D02*
X41608097Y-44611474D01*
X41608097Y-44611474D02*
X41608097Y-44382902D01*
X41608097Y-44382902D02*
X41646193Y-44306712D01*
X41646193Y-44306712D02*
X41684288Y-44268617D01*
X41684288Y-44268617D02*
X41760478Y-44230521D01*
X41760478Y-44230521D02*
X41912859Y-44230521D01*
X41912859Y-44230521D02*
X41989050Y-44268617D01*
X42674765Y-44725760D02*
X42598574Y-44763855D01*
X42598574Y-44763855D02*
X42446193Y-44763855D01*
X42446193Y-44763855D02*
X42370003Y-44725760D01*
X42370003Y-44725760D02*
X42331907Y-44649569D01*
X42331907Y-44649569D02*
X42331907Y-44344807D01*
X42331907Y-44344807D02*
X42370003Y-44268617D01*
X42370003Y-44268617D02*
X42446193Y-44230521D01*
X42446193Y-44230521D02*
X42598574Y-44230521D01*
X42598574Y-44230521D02*
X42674765Y-44268617D01*
X42674765Y-44268617D02*
X42712860Y-44344807D01*
X42712860Y-44344807D02*
X42712860Y-44420998D01*
X42712860Y-44420998D02*
X42331907Y-44497188D01*
X43055717Y-44763855D02*
X43055717Y-44230521D01*
X43055717Y-44382902D02*
X43093812Y-44306712D01*
X43093812Y-44306712D02*
X43131907Y-44268617D01*
X43131907Y-44268617D02*
X43208098Y-44230521D01*
X43208098Y-44230521D02*
X43284288Y-44230521D01*
X44160479Y-44763855D02*
X44160479Y-44230521D01*
X44160479Y-43963855D02*
X44122383Y-44001950D01*
X44122383Y-44001950D02*
X44160479Y-44040045D01*
X44160479Y-44040045D02*
X44198574Y-44001950D01*
X44198574Y-44001950D02*
X44160479Y-43963855D01*
X44160479Y-43963855D02*
X44160479Y-44040045D01*
X44541431Y-44230521D02*
X44541431Y-44763855D01*
X44541431Y-44306712D02*
X44579526Y-44268617D01*
X44579526Y-44268617D02*
X44655716Y-44230521D01*
X44655716Y-44230521D02*
X44770002Y-44230521D01*
X44770002Y-44230521D02*
X44846193Y-44268617D01*
X44846193Y-44268617D02*
X44884288Y-44344807D01*
X44884288Y-44344807D02*
X44884288Y-44763855D01*
X45150955Y-44230521D02*
X45455717Y-44230521D01*
X45265241Y-43963855D02*
X45265241Y-44649569D01*
X45265241Y-44649569D02*
X45303336Y-44725760D01*
X45303336Y-44725760D02*
X45379526Y-44763855D01*
X45379526Y-44763855D02*
X45455717Y-44763855D01*
X45836669Y-44763855D02*
X45760479Y-44725760D01*
X45760479Y-44725760D02*
X45722384Y-44687664D01*
X45722384Y-44687664D02*
X45684288Y-44611474D01*
X45684288Y-44611474D02*
X45684288Y-44382902D01*
X45684288Y-44382902D02*
X45722384Y-44306712D01*
X45722384Y-44306712D02*
X45760479Y-44268617D01*
X45760479Y-44268617D02*
X45836669Y-44230521D01*
X45836669Y-44230521D02*
X45950955Y-44230521D01*
X45950955Y-44230521D02*
X46027146Y-44268617D01*
X46027146Y-44268617D02*
X46065241Y-44306712D01*
X46065241Y-44306712D02*
X46103336Y-44382902D01*
X46103336Y-44382902D02*
X46103336Y-44611474D01*
X46103336Y-44611474D02*
X46065241Y-44687664D01*
X46065241Y-44687664D02*
X46027146Y-44725760D01*
X46027146Y-44725760D02*
X45950955Y-44763855D01*
X45950955Y-44763855D02*
X45836669Y-44763855D01*
X47284289Y-43963855D02*
X47284289Y-44535283D01*
X47284289Y-44535283D02*
X47246194Y-44649569D01*
X47246194Y-44649569D02*
X47170003Y-44725760D01*
X47170003Y-44725760D02*
X47055718Y-44763855D01*
X47055718Y-44763855D02*
X46979527Y-44763855D01*
X48084289Y-44763855D02*
X47627146Y-44763855D01*
X47855718Y-44763855D02*
X47855718Y-43963855D01*
X47855718Y-43963855D02*
X47779527Y-44078140D01*
X47779527Y-44078140D02*
X47703337Y-44154331D01*
X47703337Y-44154331D02*
X47627146Y-44192426D01*
X17741427Y-73000624D02*
X17741427Y-72200624D01*
X17741427Y-72200624D02*
X17931903Y-72200624D01*
X17931903Y-72200624D02*
X18046189Y-72238719D01*
X18046189Y-72238719D02*
X18122379Y-72314909D01*
X18122379Y-72314909D02*
X18160474Y-72391100D01*
X18160474Y-72391100D02*
X18198570Y-72543481D01*
X18198570Y-72543481D02*
X18198570Y-72657767D01*
X18198570Y-72657767D02*
X18160474Y-72810148D01*
X18160474Y-72810148D02*
X18122379Y-72886338D01*
X18122379Y-72886338D02*
X18046189Y-72962529D01*
X18046189Y-72962529D02*
X17931903Y-73000624D01*
X17931903Y-73000624D02*
X17741427Y-73000624D01*
X18541427Y-73000624D02*
X18541427Y-72200624D01*
X18884283Y-72962529D02*
X18998569Y-73000624D01*
X18998569Y-73000624D02*
X19189045Y-73000624D01*
X19189045Y-73000624D02*
X19265236Y-72962529D01*
X19265236Y-72962529D02*
X19303331Y-72924433D01*
X19303331Y-72924433D02*
X19341426Y-72848243D01*
X19341426Y-72848243D02*
X19341426Y-72772052D01*
X19341426Y-72772052D02*
X19303331Y-72695862D01*
X19303331Y-72695862D02*
X19265236Y-72657767D01*
X19265236Y-72657767D02*
X19189045Y-72619671D01*
X19189045Y-72619671D02*
X19036664Y-72581576D01*
X19036664Y-72581576D02*
X18960474Y-72543481D01*
X18960474Y-72543481D02*
X18922379Y-72505386D01*
X18922379Y-72505386D02*
X18884283Y-72429195D01*
X18884283Y-72429195D02*
X18884283Y-72353005D01*
X18884283Y-72353005D02*
X18922379Y-72276814D01*
X18922379Y-72276814D02*
X18960474Y-72238719D01*
X18960474Y-72238719D02*
X19036664Y-72200624D01*
X19036664Y-72200624D02*
X19227141Y-72200624D01*
X19227141Y-72200624D02*
X19341426Y-72238719D01*
X19684284Y-73000624D02*
X19684284Y-72200624D01*
X19684284Y-72200624D02*
X19989046Y-72200624D01*
X19989046Y-72200624D02*
X20065236Y-72238719D01*
X20065236Y-72238719D02*
X20103331Y-72276814D01*
X20103331Y-72276814D02*
X20141427Y-72353005D01*
X20141427Y-72353005D02*
X20141427Y-72467290D01*
X20141427Y-72467290D02*
X20103331Y-72543481D01*
X20103331Y-72543481D02*
X20065236Y-72581576D01*
X20065236Y-72581576D02*
X19989046Y-72619671D01*
X19989046Y-72619671D02*
X19684284Y-72619671D01*
X20865236Y-73000624D02*
X20484284Y-73000624D01*
X20484284Y-73000624D02*
X20484284Y-72200624D01*
X21093807Y-72772052D02*
X21474760Y-72772052D01*
X21017617Y-73000624D02*
X21284284Y-72200624D01*
X21284284Y-72200624D02*
X21550950Y-73000624D01*
X21969998Y-72619671D02*
X21969998Y-73000624D01*
X21703331Y-72200624D02*
X21969998Y-72619671D01*
X21969998Y-72619671D02*
X22236664Y-72200624D01*
X23379521Y-72581576D02*
X23112855Y-72581576D01*
X23112855Y-73000624D02*
X23112855Y-72200624D01*
X23112855Y-72200624D02*
X23493807Y-72200624D01*
X23798569Y-73000624D02*
X23798569Y-72200624D01*
X23798569Y-72200624D02*
X24103331Y-72200624D01*
X24103331Y-72200624D02*
X24179521Y-72238719D01*
X24179521Y-72238719D02*
X24217616Y-72276814D01*
X24217616Y-72276814D02*
X24255712Y-72353005D01*
X24255712Y-72353005D02*
X24255712Y-72467290D01*
X24255712Y-72467290D02*
X24217616Y-72543481D01*
X24217616Y-72543481D02*
X24179521Y-72581576D01*
X24179521Y-72581576D02*
X24103331Y-72619671D01*
X24103331Y-72619671D02*
X23798569Y-72619671D01*
X25055712Y-72924433D02*
X25017616Y-72962529D01*
X25017616Y-72962529D02*
X24903331Y-73000624D01*
X24903331Y-73000624D02*
X24827140Y-73000624D01*
X24827140Y-73000624D02*
X24712854Y-72962529D01*
X24712854Y-72962529D02*
X24636664Y-72886338D01*
X24636664Y-72886338D02*
X24598569Y-72810148D01*
X24598569Y-72810148D02*
X24560473Y-72657767D01*
X24560473Y-72657767D02*
X24560473Y-72543481D01*
X24560473Y-72543481D02*
X24598569Y-72391100D01*
X24598569Y-72391100D02*
X24636664Y-72314909D01*
X24636664Y-72314909D02*
X24712854Y-72238719D01*
X24712854Y-72238719D02*
X24827140Y-72200624D01*
X24827140Y-72200624D02*
X24903331Y-72200624D01*
X24903331Y-72200624D02*
X25017616Y-72238719D01*
X25017616Y-72238719D02*
X25055712Y-72276814D01*
X26236664Y-73305386D02*
X26198569Y-73267290D01*
X26198569Y-73267290D02*
X26122378Y-73153005D01*
X26122378Y-73153005D02*
X26084283Y-73076814D01*
X26084283Y-73076814D02*
X26046188Y-72962529D01*
X26046188Y-72962529D02*
X26008093Y-72772052D01*
X26008093Y-72772052D02*
X26008093Y-72619671D01*
X26008093Y-72619671D02*
X26046188Y-72429195D01*
X26046188Y-72429195D02*
X26084283Y-72314909D01*
X26084283Y-72314909D02*
X26122378Y-72238719D01*
X26122378Y-72238719D02*
X26198569Y-72124433D01*
X26198569Y-72124433D02*
X26236664Y-72086338D01*
X26541426Y-72467290D02*
X26541426Y-73267290D01*
X26541426Y-72505386D02*
X26617616Y-72467290D01*
X26617616Y-72467290D02*
X26769997Y-72467290D01*
X26769997Y-72467290D02*
X26846188Y-72505386D01*
X26846188Y-72505386D02*
X26884283Y-72543481D01*
X26884283Y-72543481D02*
X26922378Y-72619671D01*
X26922378Y-72619671D02*
X26922378Y-72848243D01*
X26922378Y-72848243D02*
X26884283Y-72924433D01*
X26884283Y-72924433D02*
X26846188Y-72962529D01*
X26846188Y-72962529D02*
X26769997Y-73000624D01*
X26769997Y-73000624D02*
X26617616Y-73000624D01*
X26617616Y-73000624D02*
X26541426Y-72962529D01*
X27265236Y-73000624D02*
X27265236Y-72467290D01*
X27265236Y-72200624D02*
X27227140Y-72238719D01*
X27227140Y-72238719D02*
X27265236Y-72276814D01*
X27265236Y-72276814D02*
X27303331Y-72238719D01*
X27303331Y-72238719D02*
X27265236Y-72200624D01*
X27265236Y-72200624D02*
X27265236Y-72276814D01*
X27646188Y-72467290D02*
X27646188Y-73000624D01*
X27646188Y-72543481D02*
X27684283Y-72505386D01*
X27684283Y-72505386D02*
X27760473Y-72467290D01*
X27760473Y-72467290D02*
X27874759Y-72467290D01*
X27874759Y-72467290D02*
X27950950Y-72505386D01*
X27950950Y-72505386D02*
X27989045Y-72581576D01*
X27989045Y-72581576D02*
X27989045Y-73000624D01*
X29398569Y-73000624D02*
X28941426Y-73000624D01*
X29169998Y-73000624D02*
X29169998Y-72200624D01*
X29169998Y-72200624D02*
X29093807Y-72314909D01*
X29093807Y-72314909D02*
X29017617Y-72391100D01*
X29017617Y-72391100D02*
X28941426Y-72429195D01*
X30350951Y-73000624D02*
X30350951Y-72467290D01*
X30350951Y-72619671D02*
X30389046Y-72543481D01*
X30389046Y-72543481D02*
X30427141Y-72505386D01*
X30427141Y-72505386D02*
X30503332Y-72467290D01*
X30503332Y-72467290D02*
X30579522Y-72467290D01*
X30846189Y-73000624D02*
X30846189Y-72467290D01*
X30846189Y-72200624D02*
X30808093Y-72238719D01*
X30808093Y-72238719D02*
X30846189Y-72276814D01*
X30846189Y-72276814D02*
X30884284Y-72238719D01*
X30884284Y-72238719D02*
X30846189Y-72200624D01*
X30846189Y-72200624D02*
X30846189Y-72276814D01*
X31569998Y-72467290D02*
X31569998Y-73114909D01*
X31569998Y-73114909D02*
X31531903Y-73191100D01*
X31531903Y-73191100D02*
X31493807Y-73229195D01*
X31493807Y-73229195D02*
X31417617Y-73267290D01*
X31417617Y-73267290D02*
X31303331Y-73267290D01*
X31303331Y-73267290D02*
X31227141Y-73229195D01*
X31569998Y-72962529D02*
X31493807Y-73000624D01*
X31493807Y-73000624D02*
X31341426Y-73000624D01*
X31341426Y-73000624D02*
X31265236Y-72962529D01*
X31265236Y-72962529D02*
X31227141Y-72924433D01*
X31227141Y-72924433D02*
X31189045Y-72848243D01*
X31189045Y-72848243D02*
X31189045Y-72619671D01*
X31189045Y-72619671D02*
X31227141Y-72543481D01*
X31227141Y-72543481D02*
X31265236Y-72505386D01*
X31265236Y-72505386D02*
X31341426Y-72467290D01*
X31341426Y-72467290D02*
X31493807Y-72467290D01*
X31493807Y-72467290D02*
X31569998Y-72505386D01*
X31950951Y-73000624D02*
X31950951Y-72200624D01*
X32293808Y-73000624D02*
X32293808Y-72581576D01*
X32293808Y-72581576D02*
X32255713Y-72505386D01*
X32255713Y-72505386D02*
X32179522Y-72467290D01*
X32179522Y-72467290D02*
X32065236Y-72467290D01*
X32065236Y-72467290D02*
X31989046Y-72505386D01*
X31989046Y-72505386D02*
X31950951Y-72543481D01*
X32560475Y-72467290D02*
X32865237Y-72467290D01*
X32674761Y-72200624D02*
X32674761Y-72886338D01*
X32674761Y-72886338D02*
X32712856Y-72962529D01*
X32712856Y-72962529D02*
X32789046Y-73000624D01*
X32789046Y-73000624D02*
X32865237Y-73000624D01*
X33169999Y-72962529D02*
X33169999Y-73000624D01*
X33169999Y-73000624D02*
X33131904Y-73076814D01*
X33131904Y-73076814D02*
X33093808Y-73114909D01*
X34465237Y-72962529D02*
X34389046Y-73000624D01*
X34389046Y-73000624D02*
X34236665Y-73000624D01*
X34236665Y-73000624D02*
X34160475Y-72962529D01*
X34160475Y-72962529D02*
X34122380Y-72924433D01*
X34122380Y-72924433D02*
X34084284Y-72848243D01*
X34084284Y-72848243D02*
X34084284Y-72619671D01*
X34084284Y-72619671D02*
X34122380Y-72543481D01*
X34122380Y-72543481D02*
X34160475Y-72505386D01*
X34160475Y-72505386D02*
X34236665Y-72467290D01*
X34236665Y-72467290D02*
X34389046Y-72467290D01*
X34389046Y-72467290D02*
X34465237Y-72505386D01*
X34922379Y-73000624D02*
X34846189Y-72962529D01*
X34846189Y-72962529D02*
X34808094Y-72924433D01*
X34808094Y-72924433D02*
X34769998Y-72848243D01*
X34769998Y-72848243D02*
X34769998Y-72619671D01*
X34769998Y-72619671D02*
X34808094Y-72543481D01*
X34808094Y-72543481D02*
X34846189Y-72505386D01*
X34846189Y-72505386D02*
X34922379Y-72467290D01*
X34922379Y-72467290D02*
X35036665Y-72467290D01*
X35036665Y-72467290D02*
X35112856Y-72505386D01*
X35112856Y-72505386D02*
X35150951Y-72543481D01*
X35150951Y-72543481D02*
X35189046Y-72619671D01*
X35189046Y-72619671D02*
X35189046Y-72848243D01*
X35189046Y-72848243D02*
X35150951Y-72924433D01*
X35150951Y-72924433D02*
X35112856Y-72962529D01*
X35112856Y-72962529D02*
X35036665Y-73000624D01*
X35036665Y-73000624D02*
X34922379Y-73000624D01*
X35531904Y-72467290D02*
X35531904Y-73000624D01*
X35531904Y-72543481D02*
X35569999Y-72505386D01*
X35569999Y-72505386D02*
X35646189Y-72467290D01*
X35646189Y-72467290D02*
X35760475Y-72467290D01*
X35760475Y-72467290D02*
X35836666Y-72505386D01*
X35836666Y-72505386D02*
X35874761Y-72581576D01*
X35874761Y-72581576D02*
X35874761Y-73000624D01*
X36141428Y-72467290D02*
X36446190Y-72467290D01*
X36255714Y-72200624D02*
X36255714Y-72886338D01*
X36255714Y-72886338D02*
X36293809Y-72962529D01*
X36293809Y-72962529D02*
X36369999Y-73000624D01*
X36369999Y-73000624D02*
X36446190Y-73000624D01*
X37055714Y-73000624D02*
X37055714Y-72581576D01*
X37055714Y-72581576D02*
X37017619Y-72505386D01*
X37017619Y-72505386D02*
X36941428Y-72467290D01*
X36941428Y-72467290D02*
X36789047Y-72467290D01*
X36789047Y-72467290D02*
X36712857Y-72505386D01*
X37055714Y-72962529D02*
X36979523Y-73000624D01*
X36979523Y-73000624D02*
X36789047Y-73000624D01*
X36789047Y-73000624D02*
X36712857Y-72962529D01*
X36712857Y-72962529D02*
X36674761Y-72886338D01*
X36674761Y-72886338D02*
X36674761Y-72810148D01*
X36674761Y-72810148D02*
X36712857Y-72733957D01*
X36712857Y-72733957D02*
X36789047Y-72695862D01*
X36789047Y-72695862D02*
X36979523Y-72695862D01*
X36979523Y-72695862D02*
X37055714Y-72657767D01*
X37779524Y-72962529D02*
X37703333Y-73000624D01*
X37703333Y-73000624D02*
X37550952Y-73000624D01*
X37550952Y-73000624D02*
X37474762Y-72962529D01*
X37474762Y-72962529D02*
X37436667Y-72924433D01*
X37436667Y-72924433D02*
X37398571Y-72848243D01*
X37398571Y-72848243D02*
X37398571Y-72619671D01*
X37398571Y-72619671D02*
X37436667Y-72543481D01*
X37436667Y-72543481D02*
X37474762Y-72505386D01*
X37474762Y-72505386D02*
X37550952Y-72467290D01*
X37550952Y-72467290D02*
X37703333Y-72467290D01*
X37703333Y-72467290D02*
X37779524Y-72505386D01*
X38008095Y-72467290D02*
X38312857Y-72467290D01*
X38122381Y-72200624D02*
X38122381Y-72886338D01*
X38122381Y-72886338D02*
X38160476Y-72962529D01*
X38160476Y-72962529D02*
X38236666Y-73000624D01*
X38236666Y-73000624D02*
X38312857Y-73000624D01*
X38541428Y-72962529D02*
X38617619Y-73000624D01*
X38617619Y-73000624D02*
X38770000Y-73000624D01*
X38770000Y-73000624D02*
X38846190Y-72962529D01*
X38846190Y-72962529D02*
X38884286Y-72886338D01*
X38884286Y-72886338D02*
X38884286Y-72848243D01*
X38884286Y-72848243D02*
X38846190Y-72772052D01*
X38846190Y-72772052D02*
X38770000Y-72733957D01*
X38770000Y-72733957D02*
X38655714Y-72733957D01*
X38655714Y-72733957D02*
X38579524Y-72695862D01*
X38579524Y-72695862D02*
X38541428Y-72619671D01*
X38541428Y-72619671D02*
X38541428Y-72581576D01*
X38541428Y-72581576D02*
X38579524Y-72505386D01*
X38579524Y-72505386D02*
X38655714Y-72467290D01*
X38655714Y-72467290D02*
X38770000Y-72467290D01*
X38770000Y-72467290D02*
X38846190Y-72505386D01*
X40179524Y-73000624D02*
X40179524Y-72200624D01*
X40179524Y-72962529D02*
X40103333Y-73000624D01*
X40103333Y-73000624D02*
X39950952Y-73000624D01*
X39950952Y-73000624D02*
X39874762Y-72962529D01*
X39874762Y-72962529D02*
X39836667Y-72924433D01*
X39836667Y-72924433D02*
X39798571Y-72848243D01*
X39798571Y-72848243D02*
X39798571Y-72619671D01*
X39798571Y-72619671D02*
X39836667Y-72543481D01*
X39836667Y-72543481D02*
X39874762Y-72505386D01*
X39874762Y-72505386D02*
X39950952Y-72467290D01*
X39950952Y-72467290D02*
X40103333Y-72467290D01*
X40103333Y-72467290D02*
X40179524Y-72505386D01*
X40674762Y-73000624D02*
X40598572Y-72962529D01*
X40598572Y-72962529D02*
X40560477Y-72924433D01*
X40560477Y-72924433D02*
X40522381Y-72848243D01*
X40522381Y-72848243D02*
X40522381Y-72619671D01*
X40522381Y-72619671D02*
X40560477Y-72543481D01*
X40560477Y-72543481D02*
X40598572Y-72505386D01*
X40598572Y-72505386D02*
X40674762Y-72467290D01*
X40674762Y-72467290D02*
X40789048Y-72467290D01*
X40789048Y-72467290D02*
X40865239Y-72505386D01*
X40865239Y-72505386D02*
X40903334Y-72543481D01*
X40903334Y-72543481D02*
X40941429Y-72619671D01*
X40941429Y-72619671D02*
X40941429Y-72848243D01*
X40941429Y-72848243D02*
X40903334Y-72924433D01*
X40903334Y-72924433D02*
X40865239Y-72962529D01*
X40865239Y-72962529D02*
X40789048Y-73000624D01*
X40789048Y-73000624D02*
X40674762Y-73000624D01*
X41208096Y-72467290D02*
X41360477Y-73000624D01*
X41360477Y-73000624D02*
X41512858Y-72619671D01*
X41512858Y-72619671D02*
X41665239Y-73000624D01*
X41665239Y-73000624D02*
X41817620Y-72467290D01*
X42122382Y-72467290D02*
X42122382Y-73000624D01*
X42122382Y-72543481D02*
X42160477Y-72505386D01*
X42160477Y-72505386D02*
X42236667Y-72467290D01*
X42236667Y-72467290D02*
X42350953Y-72467290D01*
X42350953Y-72467290D02*
X42427144Y-72505386D01*
X42427144Y-72505386D02*
X42465239Y-72581576D01*
X42465239Y-72581576D02*
X42465239Y-73000624D01*
X42770001Y-73305386D02*
X42808096Y-73267290D01*
X42808096Y-73267290D02*
X42884287Y-73153005D01*
X42884287Y-73153005D02*
X42922382Y-73076814D01*
X42922382Y-73076814D02*
X42960477Y-72962529D01*
X42960477Y-72962529D02*
X42998573Y-72772052D01*
X42998573Y-72772052D02*
X42998573Y-72619671D01*
X42998573Y-72619671D02*
X42960477Y-72429195D01*
X42960477Y-72429195D02*
X42922382Y-72314909D01*
X42922382Y-72314909D02*
X42884287Y-72238719D01*
X42884287Y-72238719D02*
X42808096Y-72124433D01*
X42808096Y-72124433D02*
X42770001Y-72086338D01*
X34710476Y-7183854D02*
X34710476Y-6383854D01*
X35167619Y-7183854D02*
X34824761Y-6726711D01*
X35167619Y-6383854D02*
X34710476Y-6840997D01*
D11*
X21679523Y-42854819D02*
X21679523Y-41854819D01*
X21679523Y-41854819D02*
X22012856Y-42569104D01*
X22012856Y-42569104D02*
X22346189Y-41854819D01*
X22346189Y-41854819D02*
X22346189Y-42854819D01*
X22774761Y-42569104D02*
X23250951Y-42569104D01*
X22679523Y-42854819D02*
X23012856Y-41854819D01*
X23012856Y-41854819D02*
X23346189Y-42854819D01*
X23679523Y-42854819D02*
X23679523Y-41854819D01*
X24155713Y-42854819D02*
X24155713Y-41854819D01*
X24155713Y-41854819D02*
X24727141Y-42854819D01*
X24727141Y-42854819D02*
X24727141Y-41854819D01*
X26298570Y-42331009D02*
X26441427Y-42378628D01*
X26441427Y-42378628D02*
X26489046Y-42426247D01*
X26489046Y-42426247D02*
X26536665Y-42521485D01*
X26536665Y-42521485D02*
X26536665Y-42664342D01*
X26536665Y-42664342D02*
X26489046Y-42759580D01*
X26489046Y-42759580D02*
X26441427Y-42807200D01*
X26441427Y-42807200D02*
X26346189Y-42854819D01*
X26346189Y-42854819D02*
X25965237Y-42854819D01*
X25965237Y-42854819D02*
X25965237Y-41854819D01*
X25965237Y-41854819D02*
X26298570Y-41854819D01*
X26298570Y-41854819D02*
X26393808Y-41902438D01*
X26393808Y-41902438D02*
X26441427Y-41950057D01*
X26441427Y-41950057D02*
X26489046Y-42045295D01*
X26489046Y-42045295D02*
X26489046Y-42140533D01*
X26489046Y-42140533D02*
X26441427Y-42235771D01*
X26441427Y-42235771D02*
X26393808Y-42283390D01*
X26393808Y-42283390D02*
X26298570Y-42331009D01*
X26298570Y-42331009D02*
X25965237Y-42331009D01*
X27155713Y-41854819D02*
X27346189Y-41854819D01*
X27346189Y-41854819D02*
X27441427Y-41902438D01*
X27441427Y-41902438D02*
X27536665Y-41997676D01*
X27536665Y-41997676D02*
X27584284Y-42188152D01*
X27584284Y-42188152D02*
X27584284Y-42521485D01*
X27584284Y-42521485D02*
X27536665Y-42711961D01*
X27536665Y-42711961D02*
X27441427Y-42807200D01*
X27441427Y-42807200D02*
X27346189Y-42854819D01*
X27346189Y-42854819D02*
X27155713Y-42854819D01*
X27155713Y-42854819D02*
X27060475Y-42807200D01*
X27060475Y-42807200D02*
X26965237Y-42711961D01*
X26965237Y-42711961D02*
X26917618Y-42521485D01*
X26917618Y-42521485D02*
X26917618Y-42188152D01*
X26917618Y-42188152D02*
X26965237Y-41997676D01*
X26965237Y-41997676D02*
X27060475Y-41902438D01*
X27060475Y-41902438D02*
X27155713Y-41854819D01*
X27965237Y-42569104D02*
X28441427Y-42569104D01*
X27869999Y-42854819D02*
X28203332Y-41854819D01*
X28203332Y-41854819D02*
X28536665Y-42854819D01*
X29441427Y-42854819D02*
X29108094Y-42378628D01*
X28869999Y-42854819D02*
X28869999Y-41854819D01*
X28869999Y-41854819D02*
X29250951Y-41854819D01*
X29250951Y-41854819D02*
X29346189Y-41902438D01*
X29346189Y-41902438D02*
X29393808Y-41950057D01*
X29393808Y-41950057D02*
X29441427Y-42045295D01*
X29441427Y-42045295D02*
X29441427Y-42188152D01*
X29441427Y-42188152D02*
X29393808Y-42283390D01*
X29393808Y-42283390D02*
X29346189Y-42331009D01*
X29346189Y-42331009D02*
X29250951Y-42378628D01*
X29250951Y-42378628D02*
X28869999Y-42378628D01*
X29869999Y-42854819D02*
X29869999Y-41854819D01*
X29869999Y-41854819D02*
X30108094Y-41854819D01*
X30108094Y-41854819D02*
X30250951Y-41902438D01*
X30250951Y-41902438D02*
X30346189Y-41997676D01*
X30346189Y-41997676D02*
X30393808Y-42092914D01*
X30393808Y-42092914D02*
X30441427Y-42283390D01*
X30441427Y-42283390D02*
X30441427Y-42426247D01*
X30441427Y-42426247D02*
X30393808Y-42616723D01*
X30393808Y-42616723D02*
X30346189Y-42711961D01*
X30346189Y-42711961D02*
X30250951Y-42807200D01*
X30250951Y-42807200D02*
X30108094Y-42854819D01*
X30108094Y-42854819D02*
X29869999Y-42854819D01*
X31774761Y-42426247D02*
X31727142Y-42473866D01*
X31727142Y-42473866D02*
X31774761Y-42521485D01*
X31774761Y-42521485D02*
X31822380Y-42473866D01*
X31822380Y-42473866D02*
X31774761Y-42426247D01*
X31774761Y-42426247D02*
X31774761Y-42521485D01*
X33012857Y-41854819D02*
X33346190Y-42854819D01*
X33346190Y-42854819D02*
X33679523Y-41854819D01*
X34536666Y-42854819D02*
X33965238Y-42854819D01*
X34250952Y-42854819D02*
X34250952Y-41854819D01*
X34250952Y-41854819D02*
X34155714Y-41997676D01*
X34155714Y-41997676D02*
X34060476Y-42092914D01*
X34060476Y-42092914D02*
X33965238Y-42140533D01*
X35679524Y-41950057D02*
X35727143Y-41902438D01*
X35727143Y-41902438D02*
X35822381Y-41854819D01*
X35822381Y-41854819D02*
X36060476Y-41854819D01*
X36060476Y-41854819D02*
X36155714Y-41902438D01*
X36155714Y-41902438D02*
X36203333Y-41950057D01*
X36203333Y-41950057D02*
X36250952Y-42045295D01*
X36250952Y-42045295D02*
X36250952Y-42140533D01*
X36250952Y-42140533D02*
X36203333Y-42283390D01*
X36203333Y-42283390D02*
X35631905Y-42854819D01*
X35631905Y-42854819D02*
X36250952Y-42854819D01*
X36870000Y-41854819D02*
X36965238Y-41854819D01*
X36965238Y-41854819D02*
X37060476Y-41902438D01*
X37060476Y-41902438D02*
X37108095Y-41950057D01*
X37108095Y-41950057D02*
X37155714Y-42045295D01*
X37155714Y-42045295D02*
X37203333Y-42235771D01*
X37203333Y-42235771D02*
X37203333Y-42473866D01*
X37203333Y-42473866D02*
X37155714Y-42664342D01*
X37155714Y-42664342D02*
X37108095Y-42759580D01*
X37108095Y-42759580D02*
X37060476Y-42807200D01*
X37060476Y-42807200D02*
X36965238Y-42854819D01*
X36965238Y-42854819D02*
X36870000Y-42854819D01*
X36870000Y-42854819D02*
X36774762Y-42807200D01*
X36774762Y-42807200D02*
X36727143Y-42759580D01*
X36727143Y-42759580D02*
X36679524Y-42664342D01*
X36679524Y-42664342D02*
X36631905Y-42473866D01*
X36631905Y-42473866D02*
X36631905Y-42235771D01*
X36631905Y-42235771D02*
X36679524Y-42045295D01*
X36679524Y-42045295D02*
X36727143Y-41950057D01*
X36727143Y-41950057D02*
X36774762Y-41902438D01*
X36774762Y-41902438D02*
X36870000Y-41854819D01*
X37584286Y-41950057D02*
X37631905Y-41902438D01*
X37631905Y-41902438D02*
X37727143Y-41854819D01*
X37727143Y-41854819D02*
X37965238Y-41854819D01*
X37965238Y-41854819D02*
X38060476Y-41902438D01*
X38060476Y-41902438D02*
X38108095Y-41950057D01*
X38108095Y-41950057D02*
X38155714Y-42045295D01*
X38155714Y-42045295D02*
X38155714Y-42140533D01*
X38155714Y-42140533D02*
X38108095Y-42283390D01*
X38108095Y-42283390D02*
X37536667Y-42854819D01*
X37536667Y-42854819D02*
X38155714Y-42854819D01*
X39012857Y-41854819D02*
X38822381Y-41854819D01*
X38822381Y-41854819D02*
X38727143Y-41902438D01*
X38727143Y-41902438D02*
X38679524Y-41950057D01*
X38679524Y-41950057D02*
X38584286Y-42092914D01*
X38584286Y-42092914D02*
X38536667Y-42283390D01*
X38536667Y-42283390D02*
X38536667Y-42664342D01*
X38536667Y-42664342D02*
X38584286Y-42759580D01*
X38584286Y-42759580D02*
X38631905Y-42807200D01*
X38631905Y-42807200D02*
X38727143Y-42854819D01*
X38727143Y-42854819D02*
X38917619Y-42854819D01*
X38917619Y-42854819D02*
X39012857Y-42807200D01*
X39012857Y-42807200D02*
X39060476Y-42759580D01*
X39060476Y-42759580D02*
X39108095Y-42664342D01*
X39108095Y-42664342D02*
X39108095Y-42426247D01*
X39108095Y-42426247D02*
X39060476Y-42331009D01*
X39060476Y-42331009D02*
X39012857Y-42283390D01*
X39012857Y-42283390D02*
X38917619Y-42235771D01*
X38917619Y-42235771D02*
X38727143Y-42235771D01*
X38727143Y-42235771D02*
X38631905Y-42283390D01*
X38631905Y-42283390D02*
X38584286Y-42331009D01*
X38584286Y-42331009D02*
X38536667Y-42426247D01*
%TO.C,J1*%
D12*
X15870000Y-71036800D02*
X45070000Y-71036800D01*
%TD*%
%LPC*%
D13*
%TO.C,R12*%
X7375000Y-135370000D03*
X9025000Y-135370000D03*
%TD*%
D14*
%TO.C,R7*%
X54840000Y-129092500D03*
X54840000Y-126167500D03*
%TD*%
D15*
%TO.C,J3*%
X27480000Y-175230000D03*
X33260000Y-175230000D03*
D16*
X27120000Y-173785000D03*
X27920000Y-173785000D03*
D17*
X29120000Y-173785000D03*
X30120000Y-173785000D03*
X30620000Y-173785000D03*
X31620000Y-173785000D03*
D16*
X32820000Y-173785000D03*
X33620000Y-173785000D03*
X33620000Y-173785000D03*
X32820000Y-173785000D03*
D17*
X32120000Y-173785000D03*
X31120000Y-173785000D03*
X29620000Y-173785000D03*
X28620000Y-173785000D03*
D16*
X27920000Y-173785000D03*
X27120000Y-173785000D03*
D18*
X26050000Y-174700000D03*
D19*
X26050000Y-178880000D03*
D18*
X34690000Y-174700000D03*
D19*
X34690000Y-178880000D03*
%TD*%
D20*
%TO.C,C15*%
X52465000Y-141630000D03*
X54015000Y-141630000D03*
%TD*%
D21*
%TO.C,SW4*%
X16370000Y-116055000D03*
X22370000Y-116055000D03*
X16370000Y-119805000D03*
X22370000Y-119805000D03*
%TD*%
%TO.C,SW8*%
X13370000Y-139555000D03*
X19370000Y-139555000D03*
X13370000Y-143305000D03*
X19370000Y-143305000D03*
%TD*%
D20*
%TO.C,C4*%
X45815000Y-100480000D03*
X47365000Y-100480000D03*
%TD*%
D22*
%TO.C,R17*%
X23770000Y-174055000D03*
X23770000Y-172405000D03*
%TD*%
%TO.C,R8*%
X51640000Y-136655000D03*
X51640000Y-135005000D03*
%TD*%
D23*
%TO.C,Q1*%
X29432500Y-11770000D03*
X29432500Y-13670000D03*
X31307500Y-12720000D03*
%TD*%
D24*
%TO.C,U2*%
X45452500Y-102230000D03*
X45452500Y-103180000D03*
X45452500Y-104130000D03*
X47727500Y-104130000D03*
X47727500Y-102230000D03*
%TD*%
D20*
%TO.C,C18*%
X8425000Y-143030000D03*
X9975000Y-143030000D03*
%TD*%
D25*
%TO.C,U5*%
X50835000Y-158845000D03*
X52105000Y-158845000D03*
X53375000Y-158845000D03*
X54645000Y-158845000D03*
X54645000Y-153895000D03*
X53375000Y-153895000D03*
X52105000Y-153895000D03*
X50835000Y-153895000D03*
D26*
X52740000Y-156370000D03*
%TD*%
D27*
%TO.C,H6*%
X49240000Y-173730000D03*
%TD*%
D28*
%TO.C,C7*%
X7000000Y-111345000D03*
X7000000Y-109795000D03*
%TD*%
D29*
%TO.C,C5*%
X45640000Y-105980000D03*
X47540000Y-105980000D03*
%TD*%
D22*
%TO.C,R3*%
X33270000Y-9545000D03*
X33270000Y-7895000D03*
%TD*%
D30*
%TO.C,C14*%
X11400000Y-120120000D03*
X11400000Y-118220000D03*
%TD*%
D31*
%TO.C,D2*%
X34920000Y-5020000D03*
X31620000Y-5020000D03*
%TD*%
D23*
%TO.C,Q3*%
X51602500Y-167420000D03*
X51602500Y-169320000D03*
X53477500Y-168370000D03*
%TD*%
D21*
%TO.C,SW3*%
X27370000Y-116055000D03*
X33370000Y-116055000D03*
X27370000Y-119805000D03*
X33370000Y-119805000D03*
%TD*%
D32*
%TO.C,D3*%
X50890000Y-164970000D03*
X54190000Y-164970000D03*
%TD*%
D27*
%TO.C,H2*%
X54440000Y-121630000D03*
%TD*%
%TO.C,H5*%
X11500000Y-173730000D03*
%TD*%
D29*
%TO.C,C16*%
X20020000Y-101040000D03*
X21920000Y-101040000D03*
%TD*%
D28*
%TO.C,C6*%
X30370000Y-9495000D03*
X30370000Y-7945000D03*
%TD*%
D31*
%TO.C,D1*%
X29120000Y-5020000D03*
X25820000Y-5020000D03*
%TD*%
D27*
%TO.C,H4*%
X54440000Y-145930000D03*
%TD*%
D21*
%TO.C,SW7*%
X27370000Y-139555000D03*
X33370000Y-139555000D03*
X27370000Y-143305000D03*
X33370000Y-143305000D03*
%TD*%
D28*
%TO.C,C13*%
X5300000Y-122445000D03*
X5300000Y-120895000D03*
%TD*%
D20*
%TO.C,C8*%
X13425000Y-110600000D03*
X14975000Y-110600000D03*
%TD*%
D33*
%TO.C,LOGO_FRONT2*%
X42607034Y-34787399D03*
%TD*%
D20*
%TO.C,C2*%
X45815000Y-109980000D03*
X47365000Y-109980000D03*
%TD*%
D22*
%TO.C,R2*%
X27470000Y-9545000D03*
X27470000Y-7895000D03*
%TD*%
D21*
%TO.C,SW6*%
X41370000Y-139555000D03*
X47370000Y-139555000D03*
X41370000Y-143305000D03*
X47370000Y-143305000D03*
%TD*%
D13*
%TO.C,R20*%
X16545000Y-101040000D03*
X18195000Y-101040000D03*
%TD*%
D21*
%TO.C,SW2*%
X38370000Y-116055000D03*
X44370000Y-116055000D03*
X38370000Y-119805000D03*
X44370000Y-119805000D03*
%TD*%
%TO.C,SW5*%
X27370000Y-127055000D03*
X33370000Y-127055000D03*
X27370000Y-130805000D03*
X33370000Y-130805000D03*
%TD*%
D22*
%TO.C,R9*%
X54840000Y-136655000D03*
X54840000Y-135005000D03*
%TD*%
D21*
%TO.C,SW1*%
X27370000Y-105055000D03*
X33370000Y-105055000D03*
X27370000Y-108805000D03*
X33370000Y-108805000D03*
%TD*%
D29*
%TO.C,C1*%
X45640000Y-108080000D03*
X47540000Y-108080000D03*
%TD*%
D22*
%TO.C,R16*%
X49940000Y-151595000D03*
X49940000Y-149945000D03*
%TD*%
D21*
%TO.C,SW11*%
X13370000Y-151555000D03*
X19370000Y-151555000D03*
X13370000Y-155305000D03*
X19370000Y-155305000D03*
%TD*%
D34*
%TO.C,J1*%
X18120000Y-66286800D03*
X18620000Y-66286800D03*
X19120000Y-66286800D03*
X19620000Y-66286800D03*
X20120000Y-66286800D03*
X20620000Y-66286800D03*
X21120000Y-66286800D03*
X21620000Y-66286800D03*
X22120000Y-66286800D03*
X22620000Y-66286800D03*
X23120000Y-66286800D03*
X23620000Y-66286800D03*
X24120000Y-66286800D03*
X24620000Y-66286800D03*
X25120000Y-66286800D03*
X25620000Y-66286800D03*
X26120000Y-66286800D03*
X26620000Y-66286800D03*
X27120000Y-66286800D03*
X27620000Y-66286800D03*
X28120000Y-66286800D03*
X28620000Y-66286800D03*
X29120000Y-66286800D03*
X29620000Y-66286800D03*
X30120000Y-66286800D03*
X30620000Y-66286800D03*
X31120000Y-66286800D03*
X31620000Y-66286800D03*
X32120000Y-66286800D03*
X32620000Y-66286800D03*
X33120000Y-66286800D03*
X33620000Y-66286800D03*
X34120000Y-66286800D03*
X34620000Y-66286800D03*
X35120000Y-66286800D03*
X35620000Y-66286800D03*
X36120000Y-66286800D03*
X36620000Y-66286800D03*
X37120000Y-66286800D03*
X37620000Y-66286800D03*
X38120000Y-66286800D03*
X38620000Y-66286800D03*
X39120000Y-66286800D03*
X39620000Y-66286800D03*
X40120000Y-66286800D03*
X40620000Y-66286800D03*
X41120000Y-66286800D03*
X41620000Y-66286800D03*
X42120000Y-66286800D03*
X42620000Y-66286800D03*
D35*
X44770000Y-68986800D03*
X15970000Y-68986800D03*
%TD*%
D22*
%TO.C,R19*%
X48140000Y-168195000D03*
X48140000Y-166545000D03*
%TD*%
D13*
%TO.C,R13*%
X7375000Y-137370000D03*
X9025000Y-137370000D03*
%TD*%
D27*
%TO.C,H1*%
X6300000Y-103430000D03*
%TD*%
D36*
%TO.C,U4*%
X6850000Y-120370000D03*
X6850000Y-120870000D03*
X6850000Y-121370000D03*
X6850000Y-121870000D03*
X6850000Y-122370000D03*
D37*
X7700000Y-122720000D03*
X8200000Y-122720000D03*
X8700000Y-122720000D03*
D36*
X9550000Y-122370000D03*
X9550000Y-121870000D03*
X9550000Y-121370000D03*
X9550000Y-120870000D03*
X9550000Y-120370000D03*
D37*
X8700000Y-120020000D03*
X8200000Y-120020000D03*
X7700000Y-120020000D03*
%TD*%
D29*
%TO.C,C12*%
X52990000Y-149770000D03*
X54890000Y-149770000D03*
%TD*%
%TO.C,C11*%
X51790000Y-161970000D03*
X53690000Y-161970000D03*
%TD*%
D22*
%TO.C,R18*%
X36970000Y-174055000D03*
X36970000Y-172405000D03*
%TD*%
D38*
%TO.C,U3*%
X9300000Y-112170000D03*
X9300000Y-112670000D03*
X9300000Y-113170000D03*
X9300000Y-113670000D03*
X9300000Y-114170000D03*
X13500000Y-114170000D03*
X13500000Y-113670000D03*
X13500000Y-113170000D03*
X13500000Y-112670000D03*
X13500000Y-112170000D03*
%TD*%
D21*
%TO.C,SW10*%
X27370000Y-151555000D03*
X33370000Y-151555000D03*
X27370000Y-155305000D03*
X33370000Y-155305000D03*
%TD*%
D13*
%TO.C,R5*%
X28845000Y-15220000D03*
X30495000Y-15220000D03*
%TD*%
D39*
%TO.C,U8*%
X8450000Y-141368000D03*
X8950000Y-141368000D03*
X9450000Y-141368000D03*
X9950000Y-141368000D03*
X9950000Y-139492000D03*
X9450000Y-139492000D03*
X8950000Y-139492000D03*
X8450000Y-139492000D03*
D40*
X9200000Y-140430000D03*
%TD*%
D20*
%TO.C,C9*%
X7625000Y-118570000D03*
X9175000Y-118570000D03*
%TD*%
D41*
%TO.C,U6*%
X16020000Y-95670000D03*
X16020000Y-98210000D03*
X21920000Y-98210000D03*
X21920000Y-95670000D03*
%TD*%
D22*
%TO.C,R11*%
X7000000Y-116795000D03*
X7000000Y-115145000D03*
%TD*%
D14*
%TO.C,R6*%
X51640000Y-129092500D03*
X51640000Y-126167500D03*
%TD*%
D13*
%TO.C,R1*%
X42765000Y-111580000D03*
X44415000Y-111580000D03*
%TD*%
%TO.C,R4*%
X25045000Y-13720000D03*
X26695000Y-13720000D03*
%TD*%
D23*
%TO.C,Q2*%
X52302500Y-131080000D03*
X52302500Y-132980000D03*
X54177500Y-132030000D03*
%TD*%
D42*
%TO.C,LOGO_FRONT1*%
X18341843Y-37863860D03*
%TD*%
D21*
%TO.C,SW14*%
X41370000Y-94305000D03*
X47370000Y-94305000D03*
X41370000Y-98055000D03*
X47370000Y-98055000D03*
%TD*%
D27*
%TO.C,H3*%
X6300000Y-145930000D03*
%TD*%
D21*
%TO.C,SW9*%
X41370000Y-151555000D03*
X47370000Y-151555000D03*
X41370000Y-155305000D03*
X47370000Y-155305000D03*
%TD*%
D20*
%TO.C,C17*%
X12395000Y-98780000D03*
X13945000Y-98780000D03*
%TD*%
D21*
%TO.C,SW12*%
X37370000Y-161555000D03*
X43370000Y-161555000D03*
X37370000Y-165305000D03*
X43370000Y-165305000D03*
%TD*%
D20*
%TO.C,C3*%
X42815000Y-109880000D03*
X44365000Y-109880000D03*
%TD*%
D43*
%TO.C,U7*%
X12520000Y-97178000D03*
X13170000Y-97178000D03*
X13820000Y-97178000D03*
X13820000Y-95182000D03*
X13170000Y-95182000D03*
X12520000Y-95182000D03*
%TD*%
D21*
%TO.C,SW13*%
X17370000Y-161555000D03*
X23370000Y-161555000D03*
X17370000Y-165305000D03*
X23370000Y-165305000D03*
%TD*%
D13*
%TO.C,R10*%
X52415000Y-139830000D03*
X54065000Y-139830000D03*
%TD*%
D44*
%TO.C,U1*%
X40879999Y-106530000D03*
X42780000Y-106530000D03*
X40879999Y-104630000D03*
X42780000Y-104630000D03*
%TD*%
%LPD*%
M02*
