<svg xmlns="http://www.w3.org/2000/svg" width="44.0mm" height="14.907mm" viewBox="0 0 44.0 14.9065"><rect width="100%" height="100%" fill="#141516"/><path d="M 4.6106,2.0013 L 4.6292,2.0019 L 4.6477,2.0039 L 4.6661,2.0072 L 4.6841,2.0119 L 4.7018,2.0177 L 4.7190,2.0249 L 4.7357,2.0332 L 4.7517,2.0427 L 4.7670,2.0534 L 4.7815,2.0650 L 4.7952,2.0777 L 4.8079,2.0914 L 4.8196,2.1059 L 4.8302,2.1212 L 4.8397,2.1372 L 4.8480,2.1539 L 4.8552,2.1711 L 4.8611,2.1888 L 4.8657,2.2068 L 4.8690,2.2252 L 4.8710,2.2437 L 4.8716,2.2623 L 4.8716,9.4533 L 4.8691,9.5244 L 4.8615,9.5951 L 4.8488,9.6651 L 4.8312,9.7341 L 4.8088,9.8016 L 4.7815,9.8673 L 4.7497,9.9310 L 4.7134,9.9922 L 4.6728,10.0506 L 4.6282,10.1060 L 4.5797,10.1581 L 4.5276,10.2066 L 4.4722,10.2512 L 4.4138,10.2918 L 4.3526,10.3281 L 4.2889,10.3600 L 4.2232,10.3872 L 4.1557,10.4097 L 4.0867,10.4273 L 4.0167,10.4399 L 3.9460,10.4475 L 3.8749,10.4500 L 3.1154,10.4500 L 3.0443,10.4475 L 2.9736,10.4399 L 2.9035,10.4273 L 2.8346,10.4097 L 2.7671,10.3872 L 2.7014,10.3600 L 2.6377,10.3281 L 2.5765,10.2918 L 2.5181,10.2512 L 2.4627,10.2066 L 2.4106,10.1581 L 2.3621,10.1060 L 2.3175,10.0506 L 2.2769,9.9922 L 2.2406,9.9310 L 2.2087,9.8673 L 2.1815,9.8016 L 2.1590,9.7341 L 2.1414,9.6651 L 2.1288,9.5951 L 2.1212,9.5244 L 2.1187,9.4533 L 2.1187,2.2623 L 2.1193,2.2437 L 2.1213,2.2252 L 2.1246,2.2068 L 2.1292,2.1888 L 2.1351,2.1711 L 2.1423,2.1539 L 2.1506,2.1372 L 2.1601,2.1212 L 2.1707,2.1059 L 2.1824,2.0914 L 2.1951,2.0777 L 2.2088,2.0650 L 2.2233,2.0534 L 2.2386,2.0427 L 2.2546,2.0332 L 2.2713,2.0249 L 2.2885,2.0177 L 2.3062,2.0119 L 2.3242,2.0072 L 2.3426,2.0039 L 2.3611,2.0019 L 2.3797,2.0013 Z M 2.4746,2.3335 L 2.4696,2.3337 L 2.4645,2.3343 L 2.4595,2.3352 L 2.4546,2.3364 L 2.4498,2.3380 L 2.4451,2.3400 L 2.4405,2.3422 L 2.4362,2.3448 L 2.4320,2.3477 L 2.4280,2.3509 L 2.4243,2.3544 L 2.4208,2.3581 L 2.4177,2.3621 L 2.4148,2.3662 L 2.4122,2.3706 L 2.4099,2.3752 L 2.4079,2.3799 L 2.4063,2.3847 L 2.4051,2.3896 L 2.4042,2.3946 L 2.4036,2.3997 L 2.4035,2.4047 L 2.4035,5.9646 L 2.4036,5.9697 L 2.4042,5.9747 L 2.4051,5.9797 L 2.4063,5.9847 L 2.4079,5.9895 L 2.4099,5.9942 L 2.4122,5.9987 L 2.4148,6.0031 L 2.4177,6.0073 L 2.4208,6.0112 L 2.4243,6.0149 L 2.4280,6.0184 L 2.4320,6.0216 L 2.4362,6.0245 L 2.4405,6.0271 L 2.4451,6.0294 L 2.4498,6.0313 L 2.4546,6.0329 L 2.4595,6.0342 L 2.4645,6.0351 L 2.4696,6.0356 L 2.4746,6.0358 L 4.5156,6.0358 L 4.5207,6.0356 L 4.5258,6.0351 L 4.5308,6.0342 L 4.5357,6.0329 L 4.5405,6.0313 L 4.5452,6.0294 L 4.5498,6.0271 L 4.5541,6.0245 L 4.5583,6.0216 L 4.5623,6.0184 L 4.5660,6.0149 L 4.5694,6.0112 L 4.5726,6.0073 L 4.5755,6.0031 L 4.5781,5.9987 L 4.5804,5.9942 L 4.5823,5.9895 L 4.5840,5.9847 L 4.5852,5.9797 L 4.5861,5.9747 L 4.5867,5.9697 L 4.5868,5.9646 L 4.5868,2.4047 L 4.5867,2.3997 L 4.5861,2.3946 L 4.5852,2.3896 L 4.5840,2.3847 L 4.5823,2.3799 L 4.5804,2.3752 L 4.5781,2.3706 L 4.5755,2.3662 L 4.5726,2.3621 L 4.5694,2.3581 L 4.5660,2.3544 L 4.5623,2.3509 L 4.5583,2.3477 L 4.5541,2.3448 L 4.5498,2.3422 L 4.5452,2.3400 L 4.5405,2.3380 L 4.5357,2.3364 L 4.5308,2.3352 L 4.5258,2.3343 L 4.5207,2.3337 L 4.5156,2.3335 Z M 4.1359,7.5547 L 4.1344,7.5100 L 4.1297,7.4655 L 4.1219,7.4214 L 4.1111,7.3781 L 4.0973,7.3355 L 4.0805,7.2940 L 4.0609,7.2538 L 4.0386,7.2151 L 4.0135,7.1780 L 3.9860,7.1428 L 3.9561,7.1096 L 3.9239,7.0785 L 3.8896,7.0497 L 3.8535,7.0234 L 3.8155,6.9997 L 3.7760,6.9787 L 3.7352,6.9606 L 3.6932,6.9453 L 3.6502,6.9329 L 3.6064,6.9236 L 3.5621,6.9174 L 3.5175,6.9143 L 3.4728,6.9143 L 3.4282,6.9174 L 3.3839,6.9236 L 3.3401,6.9329 L 3.2971,6.9453 L 3.2551,6.9606 L 3.2142,6.9787 L 3.1748,6.9997 L 3.1368,7.0234 L 3.1006,7.0497 L 3.0664,7.0785 L 3.0342,7.1096 L 3.0043,7.1428 L 2.9767,7.1780 L 2.9517,7.2151 L 2.9294,7.2538 L 2.9098,7.2940 L 2.8930,7.3355 L 2.8792,7.3781 L 2.8684,7.4214 L 2.8606,7.4655 L 2.8559,7.5100 L 2.8544,7.5547 L 2.8559,7.5994 L 2.8606,7.6439 L 2.8684,7.6879 L 2.8792,7.7313 L 2.8930,7.7738 L 2.9098,7.8153 L 2.9294,7.8555 L 2.9517,7.8942 L 2.9767,7.9313 L 3.0043,7.9666 L 3.0342,7.9998 L 3.0664,8.0309 L 3.1006,8.0596 L 3.1368,8.0859 L 3.1748,8.1096 L 3.2142,8.1306 L 3.2551,8.1488 L 3.2971,8.1641 L 3.3401,8.1764 L 3.3839,8.1857 L 3.4282,8.1919 L 3.4728,8.1951 L 3.5175,8.1951 L 3.5621,8.1919 L 3.6064,8.1857 L 3.6502,8.1764 L 3.6932,8.1641 L 3.7352,8.1488 L 3.7760,8.1306 L 3.8155,8.1096 L 3.8535,8.0859 L 3.8896,8.0596 L 3.9239,8.0309 L 3.9561,7.9998 L 3.9860,7.9666 L 4.0135,7.9313 L 4.0386,7.8942 L 4.0609,7.8555 L 4.0805,7.8153 L 4.0973,7.7738 L 4.1111,7.7313 L 4.1219,7.6879 L 4.1297,7.6439 L 4.1344,7.5994 L 4.1359,7.5547 Z M 7.7914,10.5590 L 9.0827,10.5590 L 9.0888,9.1904 L 9.2120,9.4633 L 9.3986,9.7666 L 9.6072,10.0182 L 9.8615,10.2502 L 10.1060,10.4155 L 10.3310,10.5334 L 10.6148,10.6417 L 10.9669,10.7287 L 11.2994,10.7688 L 11.7689,10.7678 L 12.1602,10.7180 L 12.4732,10.6405 L 12.7863,10.5226 L 13.0504,10.3865 L 13.3046,10.2197 L 13.4416,10.1113 L 13.6036,9.9622 L 13.7865,9.7666 L 13.9327,9.5807 L 14.0913,9.3362 L 14.2468,9.0330 L 14.3528,8.7689 L 14.4420,8.4755 L 14.5105,8.1527 L 14.5507,7.8200 L 14.5610,7.6245 L 14.5599,7.0376 L 14.5310,6.6952 L 14.4805,6.3920 L 14.4034,6.0887 L 14.2953,5.7855 L 14.1199,5.4236 L 13.9521,5.1595 L 13.7574,4.9149 L 13.5296,4.6869 L 13.2264,4.4521 L 12.9623,4.2976 L 12.6982,4.1777 L 12.3949,4.0809 L 12.0233,4.0121 L 11.6320,3.9905 L 11.2701,4.0111 L 10.9473,4.0706 L 10.6049,4.1799 L 10.3213,4.3140 L 10.0376,4.5014 L 9.7832,4.7335 L 9.5851,4.9736 L 9.4311,5.2169 L 9.4230,5.1986 L 9.4230,2.0000 L 7.7914,2.0000 Z M 11.1723,5.3650 L 11.3385,5.3718 L 11.5048,5.3913 L 11.6809,5.4297 L 11.8766,5.4984 L 12.0037,5.5589 L 12.1308,5.6347 L 12.2775,5.7437 L 12.5150,5.9909 L 12.6225,6.1474 L 12.7094,6.3039 L 12.7893,6.4898 L 12.8464,6.6658 L 12.8967,6.9006 L 12.9175,7.0571 L 12.9281,7.2038 L 12.9276,7.5266 L 12.8779,7.9179 L 12.8093,8.1722 L 12.7577,8.3091 L 12.6532,8.5243 L 12.5817,8.6417 L 12.4664,8.7983 L 12.2874,8.9871 L 12.1407,9.1045 L 12.0037,9.1936 L 11.8472,9.2712 L 11.6613,9.3383 L 11.4168,9.3883 L 11.3345,9.3949 L 11.1723,9.4014 L 10.9473,9.3886 L 10.6245,9.3211 L 10.4093,9.2415 L 10.2528,9.1637 L 10.1060,9.0752 L 9.9887,8.9865 L 9.8518,8.8618 L 9.7504,8.7493 L 9.6330,8.5928 L 9.5636,8.4755 L 9.4761,8.2798 L 9.4386,8.1624 L 9.3982,7.9667 L 9.3797,7.8005 L 9.3784,7.0473 L 9.4082,6.7832 L 9.4380,6.6462 L 9.5054,6.4408 L 9.6331,6.1866 L 9.7504,6.0202 L 9.9090,5.8442 L 10.0376,5.7338 L 10.1941,5.6254 L 10.3800,5.5295 L 10.5854,5.4514 L 10.7810,5.4018 L 10.9669,5.3743 Z M 14.8126,3.2129 L 15.6082,3.2227 L 15.6082,10.5590 L 17.2406,10.5590 L 17.2406,2.0000 L 14.8093,2.0000 Z M 20.8854,4.0010 L 20.6408,4.0412 L 20.3474,4.1199 L 20.0246,4.2461 L 19.7605,4.3832 L 19.6040,4.4801 L 19.4769,4.5691 L 19.2616,4.7456 L 19.0042,5.0128 L 18.8571,5.1986 L 18.7494,5.3551 L 18.6025,5.6094 L 18.5363,5.7464 L 18.4657,5.9126 L 18.3682,6.1963 L 18.3003,6.4604 L 18.2611,6.6658 L 18.2313,6.9006 L 18.2176,7.1157 L 18.2207,7.7026 L 18.2706,8.1233 L 18.3694,8.5342 L 18.5052,8.9058 L 18.6819,9.2579 L 18.9252,9.6199 L 19.0730,9.7960 L 19.2812,10.0052 L 19.4573,10.1511 L 19.6236,10.2696 L 19.7997,10.3758 L 20.0442,10.5026 L 20.4061,10.6395 L 20.6800,10.7087 L 20.9049,10.7484 L 21.1984,10.7767 L 21.4918,10.7871 L 21.6778,10.7841 L 21.9907,10.7576 L 22.2451,10.7178 L 22.5581,10.6398 L 22.7342,10.5816 L 23.0276,10.4540 L 23.2232,10.3460 L 23.4579,10.1885 L 23.6439,10.0332 L 23.8130,9.8644 L 23.9206,9.7373 L 24.0872,9.5025 L 24.2324,9.2384 L 24.3592,8.9254 L 24.4437,8.6123 L 24.4362,8.6026 L 23.9471,8.6026 L 22.9493,8.6026 L 22.8654,8.7884 L 22.7653,8.9351 L 22.6265,9.0749 L 22.4211,9.2220 L 22.2647,9.3012 L 22.0299,9.3786 L 21.7266,9.4268 L 21.4918,9.4373 L 21.1886,9.4185 L 20.9735,9.3782 L 20.7876,9.3202 L 20.6017,9.2334 L 20.4061,9.1026 L 20.2466,8.9547 L 20.1482,8.8373 L 20.0310,8.6613 L 19.9233,8.4363 L 19.8470,8.2114 L 19.7877,7.9570 L 19.7666,7.8200 L 19.7703,7.7712 L 24.5437,7.7712 L 24.5519,7.7613 L 24.5517,7.1843 L 24.5364,6.8322 L 24.4986,6.5387 L 24.4199,6.1866 L 24.2818,5.7855 L 24.1070,5.4236 L 23.9499,5.1790 L 23.7649,4.9442 L 23.4971,4.6788 L 23.3112,4.5298 L 23.1547,4.4215 L 22.9591,4.3059 L 22.5972,4.1477 L 22.3722,4.0798 L 22.1570,4.0311 L 21.8832,3.9916 L 21.6778,3.9731 L 21.4234,3.9663 L 21.1498,3.9758 Z M 21.4137,5.3163 L 21.5897,5.3230 L 21.7559,5.3426 L 21.9419,5.3808 L 22.1081,5.4402 L 22.2157,5.4913 L 22.3820,5.5966 L 22.5609,5.7561 L 22.6585,5.8735 L 22.7485,6.0105 L 22.8641,6.2550 L 22.9619,6.5875 L 22.9884,6.7729 L 21.5604,6.7733 L 19.7997,6.7733 L 19.7931,6.7636 L 19.8660,6.4604 L 19.9721,6.1866 L 20.0998,5.9616 L 20.2488,5.7757 L 20.4550,5.5962 L 20.6898,5.4587 L 20.9049,5.3808 L 21.0810,5.3423 L 21.2277,5.3250 Z M 27.6935,4.0010 L 27.4488,4.0412 L 27.1554,4.1199 L 26.8326,4.2461 L 26.5685,4.3832 L 26.4120,4.4801 L 26.2849,4.5691 L 26.0696,4.7456 L 25.8122,5.0128 L 25.6651,5.1986 L 25.5574,5.3551 L 25.4105,5.6094 L 25.3443,5.7464 L 25.2737,5.9126 L 25.1763,6.1963 L 25.1083,6.4604 L 25.0691,6.6658 L 25.0393,6.9006 L 25.0257,7.1157 L 25.0287,7.7026 L 25.0786,8.1233 L 25.1774,8.5342 L 25.3132,8.9058 L 25.4899,9.2579 L 25.7332,9.6199 L 25.8810,9.7960 L 26.0892,10.0052 L 26.2653,10.1511 L 26.4316,10.2696 L 26.6077,10.3758 L 26.8522,10.5026 L 27.2141,10.6395 L 27.4880,10.7087 L 27.7129,10.7484 L 28.0064,10.7767 L 28.2998,10.7871 L 28.4858,10.7841 L 28.7987,10.7576 L 29.0531,10.7178 L 29.3661,10.6398 L 29.5422,10.5816 L 29.8356,10.4540 L 30.0312,10.3460 L 30.2659,10.1885 L 30.4519,10.0332 L 30.6210,9.8644 L 30.7286,9.7373 L 30.8952,9.5025 L 31.0404,9.2384 L 31.1672,8.9254 L 31.2517,8.6123 L 31.2442,8.6026 L 30.7551,8.6026 L 29.7573,8.6026 L 29.6734,8.7884 L 29.5733,8.9351 L 29.4345,9.0749 L 29.2291,9.2220 L 29.0727,9.3012 L 28.8379,9.3786 L 28.5346,9.4268 L 28.2998,9.4373 L 27.9966,9.4185 L 27.7815,9.3782 L 27.5956,9.3202 L 27.4097,9.2334 L 27.2141,9.1026 L 27.0546,8.9547 L 26.9562,8.8373 L 26.8390,8.6613 L 26.7313,8.4363 L 26.6550,8.2114 L 26.5957,7.9570 L 26.5746,7.8200 L 26.5783,7.7712 L 31.3517,7.7712 L 31.3599,7.7613 L 31.3597,7.1843 L 31.3444,6.8322 L 31.3066,6.5387 L 31.2279,6.1866 L 31.0898,5.7855 L 30.9150,5.4236 L 30.7579,5.1790 L 30.5729,4.9442 L 30.3051,4.6788 L 30.1192,4.5298 L 29.9627,4.4215 L 29.7671,4.3059 L 29.4052,4.1477 L 29.1802,4.0798 L 28.9650,4.0311 L 28.6912,3.9916 L 28.4858,3.9731 L 28.2314,3.9663 L 27.9578,3.9758 Z M 28.2217,5.3163 L 28.3977,5.3230 L 28.5639,5.3426 L 28.7499,5.3808 L 28.9161,5.4402 L 29.0237,5.4913 L 29.1900,5.5966 L 29.3689,5.7561 L 29.4665,5.8735 L 29.5565,6.0105 L 29.6721,6.2550 L 29.7699,6.5875 L 29.7964,6.7729 L 28.3684,6.7733 L 26.6077,6.7733 L 26.6011,6.7636 L 26.6740,6.4604 L 26.7801,6.1866 L 26.9078,5.9616 L 27.0568,5.7757 L 27.2630,5.5962 L 27.4978,5.4587 L 27.7129,5.3808 L 27.8890,5.3423 L 28.0357,5.3250 Z M 35.4698,4.0418 L 35.1959,4.1098 L 35.0198,4.1691 L 34.7166,4.3076 L 34.5503,4.4049 L 34.4134,4.5008 L 34.1670,4.7193 L 33.9304,5.0029 L 33.7379,5.3160 L 33.6472,5.5018 L 33.5526,5.7493 L 33.5445,5.7268 L 33.5428,4.1976 L 32.2614,4.1910 L 32.2532,4.2009 L 32.2532,12.9065 L 33.8836,12.9065 L 33.8836,11.8892 L 33.8852,9.7256 L 34.0488,9.9328 L 34.1749,10.0698 L 34.3155,10.2000 L 34.4525,10.3061 L 34.5895,10.3964 L 34.8340,10.5228 L 35.1959,10.6584 L 35.4013,10.7094 L 35.6947,10.7572 L 36.0469,10.7741 L 36.3990,10.7569 L 36.6044,10.7277 L 36.8294,10.6795 L 37.1620,10.5714 L 37.5240,10.3949 L 37.8272,10.1905 L 38.0032,10.0428 L 38.1343,9.9134 L 38.3875,9.6101 L 38.4940,9.4536 L 38.6134,9.2482 L 38.7677,8.9156 L 38.9066,8.4852 L 38.9750,8.1527 L 39.0226,7.6636 L 39.0229,7.0767 L 38.9937,6.7245 L 38.9056,6.2647 L 38.8085,5.9518 L 38.6627,5.6094 L 38.4742,5.2769 L 38.2309,4.9541 L 38.0130,4.7274 L 37.8761,4.6091 L 37.6902,4.4717 L 37.3967,4.2982 L 37.1033,4.1683 L 36.8588,4.0902 L 36.6827,4.0504 L 36.3502,4.0028 L 36.0469,3.9905 L 35.8627,3.9954 Z M 35.6360,5.3650 L 35.8024,5.3721 L 35.9588,5.3909 L 36.1349,5.4292 L 36.2621,5.4702 L 36.4382,5.5498 L 36.5556,5.6167 L 36.7511,5.7646 L 36.9013,5.9126 L 36.9892,6.0202 L 37.1067,6.1963 L 37.1759,6.3234 L 37.2623,6.5288 L 37.3108,6.6854 L 37.3603,6.9202 L 37.3805,7.0767 L 37.3907,7.5168 L 37.3798,7.6636 L 37.3403,7.9179 L 37.3020,8.0744 L 37.2249,8.2994 L 37.1074,8.5439 L 37.0280,8.6710 L 36.9111,8.8276 L 36.8197,8.9273 L 36.6534,9.0740 L 36.4577,9.2023 L 36.2425,9.3003 L 36.1252,9.3381 L 35.7949,9.3949 L 35.6360,9.4014 L 35.4111,9.3887 L 35.2351,9.3592 L 35.0785,9.3187 L 34.8927,9.2505 L 34.7656,9.1903 L 34.6286,9.1142 L 34.4622,8.9963 L 34.2453,8.7884 L 34.1362,8.6515 L 34.0301,8.4852 L 33.9497,8.3091 L 33.9007,8.1624 L 33.8633,7.9863 L 33.8434,7.8200 L 33.8378,7.1843 L 33.8424,7.0180 L 33.8628,6.8322 L 33.9002,6.6462 L 33.9418,6.5094 L 34.0285,6.3039 L 34.0890,6.1963 L 34.2047,6.0300 L 34.3036,5.9126 L 34.4622,5.7627 L 34.6383,5.6358 L 34.8437,5.5284 L 35.0491,5.4506 L 35.2448,5.4013 L 35.4306,5.3741 Z " fill="#EEEEE8" fill-rule="evenodd"/><circle cx="3.4951" cy="7.5547" r="0.4746" fill="#D3B172"/><circle cx="40.8262" cy="2.8217" r="1.1738" fill="#D3B172"/></svg>
