solid OpenSCAD_Model
  facet normal -0.996905 0.0786136 0
    outer loop
      vertex 20.4515 95.9454 1.90735e-07
      vertex 20.47 96.18 0.600001
      vertex 20.47 96.18 1.90735e-07
    endloop
  endfacet
  facet normal -0.996905 0.0786136 0
    outer loop
      vertex 20.47 96.18 0.600001
      vertex 20.4515 95.9454 1.90735e-07
      vertex 20.4515 95.9454 0.600001
    endloop
  endfacet
  facet normal 0.996905 0.0786136 0
    outer loop
      vertex 17.4885 95.9454 0.600001
      vertex 17.47 96.18 1.90735e-07
      vertex 17.47 96.18 0.600001
    endloop
  endfacet
  facet normal 0.996905 0.0786136 0
    outer loop
      vertex 17.47 96.18 1.90735e-07
      vertex 17.4885 95.9454 0.600001
      vertex 17.4885 95.9454 1.90735e-07
    endloop
  endfacet
  facet normal -0.0785803 0.996908 0
    outer loop
      vertex 19.2047 94.6985 1.90735e-07
      vertex 18.97 94.68 0.600001
      vertex 19.2047 94.6985 0.600001
    endloop
  endfacet
  facet normal -0.0785803 0.996908 0
    outer loop
      vertex 18.97 94.68 0.600001
      vertex 19.2047 94.6985 1.90735e-07
      vertex 18.97 94.68 1.90735e-07
    endloop
  endfacet
  facet normal -0.0785803 -0.996908 0
    outer loop
      vertex 18.97 97.68 1.90735e-07
      vertex 19.2047 97.6615 0.600001
      vertex 18.97 97.68 0.600001
    endloop
  endfacet
  facet normal -0.0785803 -0.996908 -0
    outer loop
      vertex 19.2047 97.6615 0.600001
      vertex 18.97 97.68 1.90735e-07
      vertex 19.2047 97.6615 1.90735e-07
    endloop
  endfacet
  facet normal -0.760575 0.64925 0
    outer loop
      vertex 20.0307 95.1193 1.90735e-07
      vertex 20.1835 95.2983 0.600001
      vertex 20.1835 95.2983 1.90735e-07
    endloop
  endfacet
  facet normal -0.760575 0.64925 0
    outer loop
      vertex 20.1835 95.2983 0.600001
      vertex 20.0307 95.1193 1.90735e-07
      vertex 20.0307 95.1193 0.600001
    endloop
  endfacet
  facet normal 0.64925 0.760575 -0
    outer loop
      vertex 18.0883 94.9665 1.90735e-07
      vertex 17.9093 95.1193 0.600001
      vertex 18.0883 94.9665 0.600001
    endloop
  endfacet
  facet normal 0.64925 0.760575 0
    outer loop
      vertex 17.9093 95.1193 0.600001
      vertex 18.0883 94.9665 1.90735e-07
      vertex 17.9093 95.1193 1.90735e-07
    endloop
  endfacet
  facet normal 0.382714 0.923867 -0
    outer loop
      vertex 18.5065 94.7534 1.90735e-07
      vertex 18.289 94.8435 0.600001
      vertex 18.5065 94.7534 0.600001
    endloop
  endfacet
  facet normal 0.382714 0.923867 0
    outer loop
      vertex 18.289 94.8435 0.600001
      vertex 18.5065 94.7534 1.90735e-07
      vertex 18.289 94.8435 1.90735e-07
    endloop
  endfacet
  facet normal -0.85262 -0.522532 0
    outer loop
      vertex 20.3065 96.861 1.90735e-07
      vertex 20.1835 97.0617 0.600001
      vertex 20.1835 97.0617 1.90735e-07
    endloop
  endfacet
  facet normal -0.85262 -0.522532 0
    outer loop
      vertex 20.1835 97.0617 0.600001
      vertex 20.3065 96.861 1.90735e-07
      vertex 20.3065 96.861 0.600001
    endloop
  endfacet
  facet normal -0.923867 0.382714 0
    outer loop
      vertex 20.3065 95.499 1.90735e-07
      vertex 20.3966 95.7165 0.600001
      vertex 20.3966 95.7165 1.90735e-07
    endloop
  endfacet
  facet normal -0.923867 0.382714 0
    outer loop
      vertex 20.3966 95.7165 0.600001
      vertex 20.3065 95.499 1.90735e-07
      vertex 20.3065 95.499 0.600001
    endloop
  endfacet
  facet normal -0.972422 0.233228 0
    outer loop
      vertex 20.3966 95.7165 1.90735e-07
      vertex 20.4515 95.9454 0.600001
      vertex 20.4515 95.9454 1.90735e-07
    endloop
  endfacet
  facet normal -0.972422 0.233228 0
    outer loop
      vertex 20.4515 95.9454 0.600001
      vertex 20.3966 95.7165 1.90735e-07
      vertex 20.3966 95.7165 0.600001
    endloop
  endfacet
  facet normal -0.85262 0.522532 0
    outer loop
      vertex 20.1835 95.2983 1.90735e-07
      vertex 20.3065 95.499 0.600001
      vertex 20.3065 95.499 1.90735e-07
    endloop
  endfacet
  facet normal -0.85262 0.522532 0
    outer loop
      vertex 20.3065 95.499 0.600001
      vertex 20.1835 95.2983 1.90735e-07
      vertex 20.1835 95.2983 0.600001
    endloop
  endfacet
  facet normal -0.522532 0.85262 0
    outer loop
      vertex 19.8517 94.9665 1.90735e-07
      vertex 19.651 94.8435 0.600001
      vertex 19.8517 94.9665 0.600001
    endloop
  endfacet
  facet normal -0.522532 0.85262 0
    outer loop
      vertex 19.651 94.8435 0.600001
      vertex 19.8517 94.9665 1.90735e-07
      vertex 19.651 94.8435 1.90735e-07
    endloop
  endfacet
  facet normal -0.64925 0.760575 0
    outer loop
      vertex 20.0307 95.1193 1.90735e-07
      vertex 19.8517 94.9665 0.600001
      vertex 20.0307 95.1193 0.600001
    endloop
  endfacet
  facet normal -0.64925 0.760575 0
    outer loop
      vertex 19.8517 94.9665 0.600001
      vertex 20.0307 95.1193 1.90735e-07
      vertex 19.8517 94.9665 1.90735e-07
    endloop
  endfacet
  facet normal 0.85262 0.522532 0
    outer loop
      vertex 17.7565 95.2983 0.600001
      vertex 17.6335 95.499 1.90735e-07
      vertex 17.6335 95.499 0.600001
    endloop
  endfacet
  facet normal 0.85262 0.522532 0
    outer loop
      vertex 17.6335 95.499 1.90735e-07
      vertex 17.7565 95.2983 0.600001
      vertex 17.7565 95.2983 1.90735e-07
    endloop
  endfacet
  facet normal 0.760575 0.64925 0
    outer loop
      vertex 17.9093 95.1193 0.600001
      vertex 17.7565 95.2983 1.90735e-07
      vertex 17.7565 95.2983 0.600001
    endloop
  endfacet
  facet normal 0.760575 0.64925 0
    outer loop
      vertex 17.7565 95.2983 1.90735e-07
      vertex 17.9093 95.1193 0.600001
      vertex 17.9093 95.1193 1.90735e-07
    endloop
  endfacet
  facet normal 0.923867 0.382714 0
    outer loop
      vertex 17.6335 95.499 0.600001
      vertex 17.5434 95.7165 1.90735e-07
      vertex 17.5434 95.7165 0.600001
    endloop
  endfacet
  facet normal 0.923867 0.382714 0
    outer loop
      vertex 17.5434 95.7165 1.90735e-07
      vertex 17.6335 95.499 0.600001
      vertex 17.6335 95.499 1.90735e-07
    endloop
  endfacet
  facet normal 0.522532 0.85262 -0
    outer loop
      vertex 18.289 94.8435 1.90735e-07
      vertex 18.0883 94.9665 0.600001
      vertex 18.289 94.8435 0.600001
    endloop
  endfacet
  facet normal 0.522532 0.85262 0
    outer loop
      vertex 18.0883 94.9665 0.600001
      vertex 18.289 94.8435 1.90735e-07
      vertex 18.0883 94.9665 1.90735e-07
    endloop
  endfacet
  facet normal 0.0785803 0.996908 -0
    outer loop
      vertex 18.97 94.68 1.90735e-07
      vertex 18.7353 94.6985 0.600001
      vertex 18.97 94.68 0.600001
    endloop
  endfacet
  facet normal 0.0785803 0.996908 0
    outer loop
      vertex 18.7353 94.6985 0.600001
      vertex 18.97 94.68 1.90735e-07
      vertex 18.7353 94.6985 1.90735e-07
    endloop
  endfacet
  facet normal -0.972422 -0.233228 0
    outer loop
      vertex 20.4515 96.4146 1.90735e-07
      vertex 20.3966 96.6435 0.600001
      vertex 20.3966 96.6435 1.90735e-07
    endloop
  endfacet
  facet normal -0.972422 -0.233228 0
    outer loop
      vertex 20.3966 96.6435 0.600001
      vertex 20.4515 96.4146 1.90735e-07
      vertex 20.4515 96.4146 0.600001
    endloop
  endfacet
  facet normal -0.382714 0.923867 0
    outer loop
      vertex 19.651 94.8435 1.90735e-07
      vertex 19.4335 94.7534 0.600001
      vertex 19.651 94.8435 0.600001
    endloop
  endfacet
  facet normal -0.382714 0.923867 0
    outer loop
      vertex 19.4335 94.7534 0.600001
      vertex 19.651 94.8435 1.90735e-07
      vertex 19.4335 94.7534 1.90735e-07
    endloop
  endfacet
  facet normal -0.233325 0.972399 0
    outer loop
      vertex 19.4335 94.7534 1.90735e-07
      vertex 19.2047 94.6985 0.600001
      vertex 19.4335 94.7534 0.600001
    endloop
  endfacet
  facet normal -0.233325 0.972399 0
    outer loop
      vertex 19.2047 94.6985 0.600001
      vertex 19.4335 94.7534 1.90735e-07
      vertex 19.2047 94.6985 1.90735e-07
    endloop
  endfacet
  facet normal 0.972422 0.233228 0
    outer loop
      vertex 17.5434 95.7165 0.600001
      vertex 17.4885 95.9454 1.90735e-07
      vertex 17.4885 95.9454 0.600001
    endloop
  endfacet
  facet normal 0.972422 0.233228 0
    outer loop
      vertex 17.4885 95.9454 1.90735e-07
      vertex 17.5434 95.7165 0.600001
      vertex 17.5434 95.7165 1.90735e-07
    endloop
  endfacet
  facet normal 0.233325 0.972399 -0
    outer loop
      vertex 18.7353 94.6985 1.90735e-07
      vertex 18.5065 94.7534 0.600001
      vertex 18.7353 94.6985 0.600001
    endloop
  endfacet
  facet normal 0.233325 0.972399 0
    outer loop
      vertex 18.5065 94.7534 0.600001
      vertex 18.7353 94.6985 1.90735e-07
      vertex 18.5065 94.7534 1.90735e-07
    endloop
  endfacet
  facet normal -0.996905 -0.0786136 0
    outer loop
      vertex 20.47 96.18 1.90735e-07
      vertex 20.4515 96.4146 0.600001
      vertex 20.4515 96.4146 1.90735e-07
    endloop
  endfacet
  facet normal -0.996905 -0.0786136 0
    outer loop
      vertex 20.4515 96.4146 0.600001
      vertex 20.47 96.18 1.90735e-07
      vertex 20.47 96.18 0.600001
    endloop
  endfacet
  facet normal -0.522532 -0.85262 0
    outer loop
      vertex 19.651 97.5165 1.90735e-07
      vertex 19.8517 97.3935 0.600001
      vertex 19.651 97.5165 0.600001
    endloop
  endfacet
  facet normal -0.522532 -0.85262 -0
    outer loop
      vertex 19.8517 97.3935 0.600001
      vertex 19.651 97.5165 1.90735e-07
      vertex 19.8517 97.3935 1.90735e-07
    endloop
  endfacet
  facet normal -0.760575 -0.64925 0
    outer loop
      vertex 20.1835 97.0617 1.90735e-07
      vertex 20.0307 97.2407 0.600001
      vertex 20.0307 97.2407 1.90735e-07
    endloop
  endfacet
  facet normal -0.760575 -0.64925 0
    outer loop
      vertex 20.0307 97.2407 0.600001
      vertex 20.1835 97.0617 1.90735e-07
      vertex 20.1835 97.0617 0.600001
    endloop
  endfacet
  facet normal -0.923867 -0.382714 0
    outer loop
      vertex 20.3966 96.6435 1.90735e-07
      vertex 20.3065 96.861 0.600001
      vertex 20.3065 96.861 1.90735e-07
    endloop
  endfacet
  facet normal -0.923867 -0.382714 0
    outer loop
      vertex 20.3065 96.861 0.600001
      vertex 20.3966 96.6435 1.90735e-07
      vertex 20.3966 96.6435 0.600001
    endloop
  endfacet
  facet normal 0.64925 -0.760575 0
    outer loop
      vertex 17.9093 97.2407 1.90735e-07
      vertex 18.0883 97.3935 0.600001
      vertex 17.9093 97.2407 0.600001
    endloop
  endfacet
  facet normal 0.64925 -0.760575 0
    outer loop
      vertex 18.0883 97.3935 0.600001
      vertex 17.9093 97.2407 1.90735e-07
      vertex 18.0883 97.3935 1.90735e-07
    endloop
  endfacet
  facet normal 0.85262 -0.522532 0
    outer loop
      vertex 17.6335 96.861 0.600001
      vertex 17.7565 97.0617 1.90735e-07
      vertex 17.7565 97.0617 0.600001
    endloop
  endfacet
  facet normal 0.85262 -0.522532 0
    outer loop
      vertex 17.7565 97.0617 1.90735e-07
      vertex 17.6335 96.861 0.600001
      vertex 17.6335 96.861 1.90735e-07
    endloop
  endfacet
  facet normal 0.760575 -0.64925 0
    outer loop
      vertex 17.7565 97.0617 0.600001
      vertex 17.9093 97.2407 1.90735e-07
      vertex 17.9093 97.2407 0.600001
    endloop
  endfacet
  facet normal 0.760575 -0.64925 0
    outer loop
      vertex 17.9093 97.2407 1.90735e-07
      vertex 17.7565 97.0617 0.600001
      vertex 17.7565 97.0617 1.90735e-07
    endloop
  endfacet
  facet normal -0.233325 -0.972399 0
    outer loop
      vertex 19.2047 97.6615 1.90735e-07
      vertex 19.4335 97.6066 0.600001
      vertex 19.2047 97.6615 0.600001
    endloop
  endfacet
  facet normal -0.233325 -0.972399 -0
    outer loop
      vertex 19.4335 97.6066 0.600001
      vertex 19.2047 97.6615 1.90735e-07
      vertex 19.4335 97.6066 1.90735e-07
    endloop
  endfacet
  facet normal 0.233325 -0.972399 0
    outer loop
      vertex 18.5065 97.6066 1.90735e-07
      vertex 18.7353 97.6615 0.600001
      vertex 18.5065 97.6066 0.600001
    endloop
  endfacet
  facet normal 0.233325 -0.972399 0
    outer loop
      vertex 18.7353 97.6615 0.600001
      vertex 18.5065 97.6066 1.90735e-07
      vertex 18.7353 97.6615 1.90735e-07
    endloop
  endfacet
  facet normal 0.382714 -0.923867 0
    outer loop
      vertex 18.289 97.5165 1.90735e-07
      vertex 18.5065 97.6066 0.600001
      vertex 18.289 97.5165 0.600001
    endloop
  endfacet
  facet normal 0.382714 -0.923867 0
    outer loop
      vertex 18.5065 97.6066 0.600001
      vertex 18.289 97.5165 1.90735e-07
      vertex 18.5065 97.6066 1.90735e-07
    endloop
  endfacet
  facet normal 0.923867 -0.382714 0
    outer loop
      vertex 17.5434 96.6435 0.600001
      vertex 17.6335 96.861 1.90735e-07
      vertex 17.6335 96.861 0.600001
    endloop
  endfacet
  facet normal 0.923867 -0.382714 0
    outer loop
      vertex 17.6335 96.861 1.90735e-07
      vertex 17.5434 96.6435 0.600001
      vertex 17.5434 96.6435 1.90735e-07
    endloop
  endfacet
  facet normal -0.382714 -0.923867 0
    outer loop
      vertex 19.4335 97.6066 1.90735e-07
      vertex 19.651 97.5165 0.600001
      vertex 19.4335 97.6066 0.600001
    endloop
  endfacet
  facet normal -0.382714 -0.923867 -0
    outer loop
      vertex 19.651 97.5165 0.600001
      vertex 19.4335 97.6066 1.90735e-07
      vertex 19.651 97.5165 1.90735e-07
    endloop
  endfacet
  facet normal -0.64925 -0.760575 0
    outer loop
      vertex 19.8517 97.3935 1.90735e-07
      vertex 20.0307 97.2407 0.600001
      vertex 19.8517 97.3935 0.600001
    endloop
  endfacet
  facet normal -0.64925 -0.760575 -0
    outer loop
      vertex 20.0307 97.2407 0.600001
      vertex 19.8517 97.3935 1.90735e-07
      vertex 20.0307 97.2407 1.90735e-07
    endloop
  endfacet
  facet normal 0.0785803 -0.996908 0
    outer loop
      vertex 18.7353 97.6615 1.90735e-07
      vertex 18.97 97.68 0.600001
      vertex 18.7353 97.6615 0.600001
    endloop
  endfacet
  facet normal 0.0785803 -0.996908 0
    outer loop
      vertex 18.97 97.68 0.600001
      vertex 18.7353 97.6615 1.90735e-07
      vertex 18.97 97.68 1.90735e-07
    endloop
  endfacet
  facet normal 0.522532 -0.85262 0
    outer loop
      vertex 18.0883 97.3935 1.90735e-07
      vertex 18.289 97.5165 0.600001
      vertex 18.0883 97.3935 0.600001
    endloop
  endfacet
  facet normal 0.522532 -0.85262 0
    outer loop
      vertex 18.289 97.5165 0.600001
      vertex 18.0883 97.3935 1.90735e-07
      vertex 18.289 97.5165 1.90735e-07
    endloop
  endfacet
  facet normal 0.972422 -0.233228 0
    outer loop
      vertex 17.4885 96.4146 0.600001
      vertex 17.5434 96.6435 1.90735e-07
      vertex 17.5434 96.6435 0.600001
    endloop
  endfacet
  facet normal 0.972422 -0.233228 0
    outer loop
      vertex 17.5434 96.6435 1.90735e-07
      vertex 17.4885 96.4146 0.600001
      vertex 17.4885 96.4146 1.90735e-07
    endloop
  endfacet
  facet normal 0.996905 -0.0786136 0
    outer loop
      vertex 17.47 96.18 0.600001
      vertex 17.4885 96.4146 1.90735e-07
      vertex 17.4885 96.4146 0.600001
    endloop
  endfacet
  facet normal 0.996905 -0.0786136 0
    outer loop
      vertex 17.4885 96.4146 1.90735e-07
      vertex 17.47 96.18 0.600001
      vertex 17.47 96.18 1.90735e-07
    endloop
  endfacet
  facet normal -0.996883 0.07889 0
    outer loop
      vertex 13.9601 96.0549 1.90735e-07
      vertex 13.97 96.18 0.600001
      vertex 13.97 96.18 1.90735e-07
    endloop
  endfacet
  facet normal -0.996883 0.07889 0
    outer loop
      vertex 13.97 96.18 0.600001
      vertex 13.9601 96.0549 1.90735e-07
      vertex 13.9601 96.0549 0.600001
    endloop
  endfacet
  facet normal 0.0780981 0.996946 -0
    outer loop
      vertex 13.17 95.38 1.90735e-07
      vertex 13.0449 95.3898 0.600001
      vertex 13.17 95.38 0.600001
    endloop
  endfacet
  facet normal 0.0780981 0.996946 0
    outer loop
      vertex 13.0449 95.3898 0.600001
      vertex 13.17 95.38 1.90735e-07
      vertex 13.0449 95.3898 1.90735e-07
    endloop
  endfacet
  facet normal -0.0780981 -0.996946 0
    outer loop
      vertex 13.17 96.98 1.90735e-07
      vertex 13.2951 96.9702 0.600001
      vertex 13.17 96.98 0.600001
    endloop
  endfacet
  facet normal -0.0780981 -0.996946 -0
    outer loop
      vertex 13.2951 96.9702 0.600001
      vertex 13.17 96.98 1.90735e-07
      vertex 13.2951 96.9702 1.90735e-07
    endloop
  endfacet
  facet normal -0.64915 0.76066 0
    outer loop
      vertex 13.7357 95.6143 1.90735e-07
      vertex 13.6402 95.5328 0.600001
      vertex 13.7357 95.6143 0.600001
    endloop
  endfacet
  facet normal -0.64915 0.76066 0
    outer loop
      vertex 13.6402 95.5328 0.600001
      vertex 13.7357 95.6143 1.90735e-07
      vertex 13.6402 95.5328 1.90735e-07
    endloop
  endfacet
  facet normal 0.76066 0.64915 0
    outer loop
      vertex 12.6043 95.6143 0.600001
      vertex 12.5228 95.7098 1.90735e-07
      vertex 12.5228 95.7098 0.600001
    endloop
  endfacet
  facet normal 0.76066 0.64915 0
    outer loop
      vertex 12.5228 95.7098 1.90735e-07
      vertex 12.6043 95.6143 0.600001
      vertex 12.6043 95.6143 1.90735e-07
    endloop
  endfacet
  facet normal 0.522674 0.852533 -0
    outer loop
      vertex 12.8068 95.4672 1.90735e-07
      vertex 12.6998 95.5328 0.600001
      vertex 12.8068 95.4672 0.600001
    endloop
  endfacet
  facet normal 0.522674 0.852533 0
    outer loop
      vertex 12.6998 95.5328 0.600001
      vertex 12.8068 95.4672 1.90735e-07
      vertex 12.6998 95.5328 1.90735e-07
    endloop
  endfacet
  facet normal -0.852533 -0.522674 0
    outer loop
      vertex 13.8828 96.5432 1.90735e-07
      vertex 13.8172 96.6502 0.600001
      vertex 13.8172 96.6502 1.90735e-07
    endloop
  endfacet
  facet normal -0.852533 -0.522674 0
    outer loop
      vertex 13.8172 96.6502 0.600001
      vertex 13.8828 96.5432 1.90735e-07
      vertex 13.8828 96.5432 0.600001
    endloop
  endfacet
  facet normal -0.924017 0.382352 0
    outer loop
      vertex 13.8828 95.8168 1.90735e-07
      vertex 13.9308 95.9328 0.600001
      vertex 13.9308 95.9328 1.90735e-07
    endloop
  endfacet
  facet normal -0.924017 0.382352 0
    outer loop
      vertex 13.9308 95.9328 0.600001
      vertex 13.8828 95.8168 1.90735e-07
      vertex 13.8828 95.8168 0.600001
    endloop
  endfacet
  facet normal -0.972395 0.233343 0
    outer loop
      vertex 13.9308 95.9328 1.90735e-07
      vertex 13.9601 96.0549 0.600001
      vertex 13.9601 96.0549 1.90735e-07
    endloop
  endfacet
  facet normal -0.972395 0.233343 0
    outer loop
      vertex 13.9601 96.0549 0.600001
      vertex 13.9308 95.9328 1.90735e-07
      vertex 13.9308 95.9328 0.600001
    endloop
  endfacet
  facet normal -0.382352 0.924017 0
    outer loop
      vertex 13.5332 95.4672 1.90735e-07
      vertex 13.4172 95.4192 0.600001
      vertex 13.5332 95.4672 0.600001
    endloop
  endfacet
  facet normal -0.382352 0.924017 0
    outer loop
      vertex 13.4172 95.4192 0.600001
      vertex 13.5332 95.4672 1.90735e-07
      vertex 13.4172 95.4192 1.90735e-07
    endloop
  endfacet
  facet normal -0.522674 0.852533 0
    outer loop
      vertex 13.6402 95.5328 1.90735e-07
      vertex 13.5332 95.4672 0.600001
      vertex 13.6402 95.5328 0.600001
    endloop
  endfacet
  facet normal -0.522674 0.852533 0
    outer loop
      vertex 13.5332 95.4672 0.600001
      vertex 13.6402 95.5328 1.90735e-07
      vertex 13.5332 95.4672 1.90735e-07
    endloop
  endfacet
  facet normal 0.972214 0.234096 0
    outer loop
      vertex 12.4092 95.9328 0.600001
      vertex 12.3798 96.0549 1.90735e-07
      vertex 12.3798 96.0549 0.600001
    endloop
  endfacet
  facet normal 0.972214 0.234096 0
    outer loop
      vertex 12.3798 96.0549 1.90735e-07
      vertex 12.4092 95.9328 0.600001
      vertex 12.4092 95.9328 1.90735e-07
    endloop
  endfacet
  facet normal 0.924017 0.382352 0
    outer loop
      vertex 12.4572 95.8168 0.600001
      vertex 12.4092 95.9328 1.90735e-07
      vertex 12.4092 95.9328 0.600001
    endloop
  endfacet
  facet normal 0.924017 0.382352 0
    outer loop
      vertex 12.4092 95.9328 1.90735e-07
      vertex 12.4572 95.8168 0.600001
      vertex 12.4572 95.8168 1.90735e-07
    endloop
  endfacet
  facet normal 0.996946 0.0780981 0
    outer loop
      vertex 12.3798 96.0549 0.600001
      vertex 12.37 96.18 1.90735e-07
      vertex 12.37 96.18 0.600001
    endloop
  endfacet
  facet normal 0.996946 0.0780981 0
    outer loop
      vertex 12.37 96.18 1.90735e-07
      vertex 12.3798 96.0549 0.600001
      vertex 12.3798 96.0549 1.90735e-07
    endloop
  endfacet
  facet normal 0.64915 0.76066 -0
    outer loop
      vertex 12.6998 95.5328 1.90735e-07
      vertex 12.6043 95.6143 0.600001
      vertex 12.6998 95.5328 0.600001
    endloop
  endfacet
  facet normal 0.64915 0.76066 0
    outer loop
      vertex 12.6043 95.6143 0.600001
      vertex 12.6998 95.5328 1.90735e-07
      vertex 12.6043 95.6143 1.90735e-07
    endloop
  endfacet
  facet normal 0.234096 0.972214 -0
    outer loop
      vertex 13.0449 95.3898 1.90735e-07
      vertex 12.9228 95.4192 0.600001
      vertex 13.0449 95.3898 0.600001
    endloop
  endfacet
  facet normal 0.234096 0.972214 0
    outer loop
      vertex 12.9228 95.4192 0.600001
      vertex 13.0449 95.3898 1.90735e-07
      vertex 12.9228 95.4192 1.90735e-07
    endloop
  endfacet
  facet normal -0.76066 0.64915 0
    outer loop
      vertex 13.7357 95.6143 1.90735e-07
      vertex 13.8172 95.7098 0.600001
      vertex 13.8172 95.7098 1.90735e-07
    endloop
  endfacet
  facet normal -0.76066 0.64915 0
    outer loop
      vertex 13.8172 95.7098 0.600001
      vertex 13.7357 95.6143 1.90735e-07
      vertex 13.7357 95.6143 0.600001
    endloop
  endfacet
  facet normal -0.852533 0.522674 0
    outer loop
      vertex 13.8172 95.7098 1.90735e-07
      vertex 13.8828 95.8168 0.600001
      vertex 13.8828 95.8168 1.90735e-07
    endloop
  endfacet
  facet normal -0.852533 0.522674 0
    outer loop
      vertex 13.8828 95.8168 0.600001
      vertex 13.8172 95.7098 1.90735e-07
      vertex 13.8172 95.7098 0.600001
    endloop
  endfacet
  facet normal -0.234096 0.972214 0
    outer loop
      vertex 13.4172 95.4192 1.90735e-07
      vertex 13.2951 95.3898 0.600001
      vertex 13.4172 95.4192 0.600001
    endloop
  endfacet
  facet normal -0.234096 0.972214 0
    outer loop
      vertex 13.2951 95.3898 0.600001
      vertex 13.4172 95.4192 1.90735e-07
      vertex 13.2951 95.3898 1.90735e-07
    endloop
  endfacet
  facet normal -0.0780981 0.996946 0
    outer loop
      vertex 13.2951 95.3898 1.90735e-07
      vertex 13.17 95.38 0.600001
      vertex 13.2951 95.3898 0.600001
    endloop
  endfacet
  facet normal -0.0780981 0.996946 0
    outer loop
      vertex 13.17 95.38 0.600001
      vertex 13.2951 95.3898 1.90735e-07
      vertex 13.17 95.38 1.90735e-07
    endloop
  endfacet
  facet normal 0.852533 0.522674 0
    outer loop
      vertex 12.5228 95.7098 0.600001
      vertex 12.4572 95.8168 1.90735e-07
      vertex 12.4572 95.8168 0.600001
    endloop
  endfacet
  facet normal 0.852533 0.522674 0
    outer loop
      vertex 12.4572 95.8168 1.90735e-07
      vertex 12.5228 95.7098 0.600001
      vertex 12.5228 95.7098 1.90735e-07
    endloop
  endfacet
  facet normal 0.996946 -0.0780981 0
    outer loop
      vertex 12.37 96.18 0.600001
      vertex 12.3798 96.3051 1.90735e-07
      vertex 12.3798 96.3051 0.600001
    endloop
  endfacet
  facet normal 0.996946 -0.0780981 0
    outer loop
      vertex 12.3798 96.3051 1.90735e-07
      vertex 12.37 96.18 0.600001
      vertex 12.37 96.18 1.90735e-07
    endloop
  endfacet
  facet normal 0.382352 0.924017 -0
    outer loop
      vertex 12.9228 95.4192 1.90735e-07
      vertex 12.8068 95.4672 0.600001
      vertex 12.9228 95.4192 0.600001
    endloop
  endfacet
  facet normal 0.382352 0.924017 0
    outer loop
      vertex 12.8068 95.4672 0.600001
      vertex 12.9228 95.4192 1.90735e-07
      vertex 12.8068 95.4672 1.90735e-07
    endloop
  endfacet
  facet normal -0.76066 -0.64915 0
    outer loop
      vertex 13.8172 96.6502 1.90735e-07
      vertex 13.7357 96.7457 0.600001
      vertex 13.7357 96.7457 1.90735e-07
    endloop
  endfacet
  facet normal -0.76066 -0.64915 0
    outer loop
      vertex 13.7357 96.7457 0.600001
      vertex 13.8172 96.6502 1.90735e-07
      vertex 13.8172 96.6502 0.600001
    endloop
  endfacet
  facet normal -0.996883 -0.07889 0
    outer loop
      vertex 13.97 96.18 1.90735e-07
      vertex 13.9601 96.3051 0.600001
      vertex 13.9601 96.3051 1.90735e-07
    endloop
  endfacet
  facet normal -0.996883 -0.07889 0
    outer loop
      vertex 13.9601 96.3051 0.600001
      vertex 13.97 96.18 1.90735e-07
      vertex 13.97 96.18 0.600001
    endloop
  endfacet
  facet normal 0.972214 -0.234096 0
    outer loop
      vertex 12.3798 96.3051 0.600001
      vertex 12.4092 96.4272 1.90735e-07
      vertex 12.4092 96.4272 0.600001
    endloop
  endfacet
  facet normal 0.972214 -0.234096 0
    outer loop
      vertex 12.4092 96.4272 1.90735e-07
      vertex 12.3798 96.3051 0.600001
      vertex 12.3798 96.3051 1.90735e-07
    endloop
  endfacet
  facet normal -0.234096 -0.972214 0
    outer loop
      vertex 13.2951 96.9702 1.90735e-07
      vertex 13.4172 96.9408 0.600001
      vertex 13.2951 96.9702 0.600001
    endloop
  endfacet
  facet normal -0.234096 -0.972214 -0
    outer loop
      vertex 13.4172 96.9408 0.600001
      vertex 13.2951 96.9702 1.90735e-07
      vertex 13.4172 96.9408 1.90735e-07
    endloop
  endfacet
  facet normal -0.522674 -0.852533 0
    outer loop
      vertex 13.5332 96.8928 1.90735e-07
      vertex 13.6402 96.8272 0.600001
      vertex 13.5332 96.8928 0.600001
    endloop
  endfacet
  facet normal -0.522674 -0.852533 -0
    outer loop
      vertex 13.6402 96.8272 0.600001
      vertex 13.5332 96.8928 1.90735e-07
      vertex 13.6402 96.8272 1.90735e-07
    endloop
  endfacet
  facet normal -0.924017 -0.382352 0
    outer loop
      vertex 13.9308 96.4272 1.90735e-07
      vertex 13.8828 96.5432 0.600001
      vertex 13.8828 96.5432 1.90735e-07
    endloop
  endfacet
  facet normal -0.924017 -0.382352 0
    outer loop
      vertex 13.8828 96.5432 0.600001
      vertex 13.9308 96.4272 1.90735e-07
      vertex 13.9308 96.4272 0.600001
    endloop
  endfacet
  facet normal 0.234096 -0.972214 0
    outer loop
      vertex 12.9228 96.9408 1.90735e-07
      vertex 13.0449 96.9702 0.600001
      vertex 12.9228 96.9408 0.600001
    endloop
  endfacet
  facet normal 0.234096 -0.972214 0
    outer loop
      vertex 13.0449 96.9702 0.600001
      vertex 12.9228 96.9408 1.90735e-07
      vertex 13.0449 96.9702 1.90735e-07
    endloop
  endfacet
  facet normal 0.522674 -0.852533 0
    outer loop
      vertex 12.6998 96.8272 1.90735e-07
      vertex 12.8068 96.8928 0.600001
      vertex 12.6998 96.8272 0.600001
    endloop
  endfacet
  facet normal 0.522674 -0.852533 0
    outer loop
      vertex 12.8068 96.8928 0.600001
      vertex 12.6998 96.8272 1.90735e-07
      vertex 12.8068 96.8928 1.90735e-07
    endloop
  endfacet
  facet normal 0.64915 -0.76066 0
    outer loop
      vertex 12.6043 96.7457 1.90735e-07
      vertex 12.6998 96.8272 0.600001
      vertex 12.6043 96.7457 0.600001
    endloop
  endfacet
  facet normal 0.64915 -0.76066 0
    outer loop
      vertex 12.6998 96.8272 0.600001
      vertex 12.6043 96.7457 1.90735e-07
      vertex 12.6998 96.8272 1.90735e-07
    endloop
  endfacet
  facet normal 0.852533 -0.522674 0
    outer loop
      vertex 12.4572 96.5432 0.600001
      vertex 12.5228 96.6502 1.90735e-07
      vertex 12.5228 96.6502 0.600001
    endloop
  endfacet
  facet normal 0.852533 -0.522674 0
    outer loop
      vertex 12.5228 96.6502 1.90735e-07
      vertex 12.4572 96.5432 0.600001
      vertex 12.4572 96.5432 1.90735e-07
    endloop
  endfacet
  facet normal 0.924017 -0.382352 0
    outer loop
      vertex 12.4092 96.4272 0.600001
      vertex 12.4572 96.5432 1.90735e-07
      vertex 12.4572 96.5432 0.600001
    endloop
  endfacet
  facet normal 0.924017 -0.382352 0
    outer loop
      vertex 12.4572 96.5432 1.90735e-07
      vertex 12.4092 96.4272 0.600001
      vertex 12.4092 96.4272 1.90735e-07
    endloop
  endfacet
  facet normal -0.382352 -0.924017 0
    outer loop
      vertex 13.4172 96.9408 1.90735e-07
      vertex 13.5332 96.8928 0.600001
      vertex 13.4172 96.9408 0.600001
    endloop
  endfacet
  facet normal -0.382352 -0.924017 -0
    outer loop
      vertex 13.5332 96.8928 0.600001
      vertex 13.4172 96.9408 1.90735e-07
      vertex 13.5332 96.8928 1.90735e-07
    endloop
  endfacet
  facet normal -0.64915 -0.76066 0
    outer loop
      vertex 13.6402 96.8272 1.90735e-07
      vertex 13.7357 96.7457 0.600001
      vertex 13.6402 96.8272 0.600001
    endloop
  endfacet
  facet normal -0.64915 -0.76066 -0
    outer loop
      vertex 13.7357 96.7457 0.600001
      vertex 13.6402 96.8272 1.90735e-07
      vertex 13.7357 96.7457 1.90735e-07
    endloop
  endfacet
  facet normal -0.972395 -0.233343 0
    outer loop
      vertex 13.9601 96.3051 1.90735e-07
      vertex 13.9308 96.4272 0.600001
      vertex 13.9308 96.4272 1.90735e-07
    endloop
  endfacet
  facet normal -0.972395 -0.233343 0
    outer loop
      vertex 13.9308 96.4272 0.600001
      vertex 13.9601 96.3051 1.90735e-07
      vertex 13.9601 96.3051 0.600001
    endloop
  endfacet
  facet normal 0.382352 -0.924017 0
    outer loop
      vertex 12.8068 96.8928 1.90735e-07
      vertex 12.9228 96.9408 0.600001
      vertex 12.8068 96.8928 0.600001
    endloop
  endfacet
  facet normal 0.382352 -0.924017 0
    outer loop
      vertex 12.9228 96.9408 0.600001
      vertex 12.8068 96.8928 1.90735e-07
      vertex 12.9228 96.9408 1.90735e-07
    endloop
  endfacet
  facet normal 0.76066 -0.64915 0
    outer loop
      vertex 12.5228 96.6502 0.600001
      vertex 12.6043 96.7457 1.90735e-07
      vertex 12.6043 96.7457 0.600001
    endloop
  endfacet
  facet normal 0.76066 -0.64915 0
    outer loop
      vertex 12.6043 96.7457 1.90735e-07
      vertex 12.5228 96.6502 0.600001
      vertex 12.5228 96.6502 1.90735e-07
    endloop
  endfacet
  facet normal 0.0780981 -0.996946 0
    outer loop
      vertex 13.0449 96.9702 1.90735e-07
      vertex 13.17 96.98 0.600001
      vertex 13.0449 96.9702 0.600001
    endloop
  endfacet
  facet normal 0.0780981 -0.996946 0
    outer loop
      vertex 13.17 96.98 0.600001
      vertex 13.0449 96.9702 1.90735e-07
      vertex 13.17 96.98 1.90735e-07
    endloop
  endfacet
  facet normal 0.321516 0.946904 -0
    outer loop
      vertex 20.6162 97.9814 1.90735e-07
      vertex 20.3747 98.0634 0.600001
      vertex 20.6162 97.9814 0.600001
    endloop
  endfacet
  facet normal 0.321516 0.946904 0
    outer loop
      vertex 20.3747 98.0634 0.600001
      vertex 20.6162 97.9814 1.90735e-07
      vertex 20.3747 98.0634 1.90735e-07
    endloop
  endfacet
  facet normal 0.0654587 0.997855 -0
    outer loop
      vertex 20.1245 98.1132 1.90735e-07
      vertex 19.8684 98.13 0.600001
      vertex 20.1245 98.1132 0.600001
    endloop
  endfacet
  facet normal 0.0654587 0.997855 0
    outer loop
      vertex 19.8684 98.13 0.600001
      vertex 20.1245 98.1132 1.90735e-07
      vertex 19.8684 98.13 1.90735e-07
    endloop
  endfacet
  facet normal -0.195211 -0.980761 0
    outer loop
      vertex 12.3653 94.2966 1.90735e-07
      vertex 12.6155 94.2468 0.600001
      vertex 12.3653 94.2966 0.600001
    endloop
  endfacet
  facet normal -0.195211 -0.980761 -0
    outer loop
      vertex 12.6155 94.2468 0.600001
      vertex 12.3653 94.2966 1.90735e-07
      vertex 12.6155 94.2468 1.90735e-07
    endloop
  endfacet
  facet normal 0.195211 0.980761 -0
    outer loop
      vertex 20.3747 98.0634 1.90735e-07
      vertex 20.1245 98.1132 0.600001
      vertex 20.3747 98.0634 0.600001
    endloop
  endfacet
  facet normal 0.195211 0.980761 0
    outer loop
      vertex 20.1245 98.1132 0.600001
      vertex 20.3747 98.0634 1.90735e-07
      vertex 20.1245 98.1132 1.90735e-07
    endloop
  endfacet
  facet normal 0.442344 -0.896845 0
    outer loop
      vertex 20.6162 94.3785 1.90735e-07
      vertex 20.8449 94.4913 0.600001
      vertex 20.6162 94.3785 0.600001
    endloop
  endfacet
  facet normal 0.442344 -0.896845 0
    outer loop
      vertex 20.8449 94.4913 0.600001
      vertex 20.6162 94.3785 1.90735e-07
      vertex 20.8449 94.4913 1.90735e-07
    endloop
  endfacet
  facet normal -0.442029 0.897001 0
    outer loop
      vertex 12.1238 97.9814 1.90735e-07
      vertex 11.8951 97.8687 0.600001
      vertex 12.1238 97.9814 0.600001
    endloop
  endfacet
  facet normal -0.442029 0.897001 0
    outer loop
      vertex 11.8951 97.8687 0.600001
      vertex 12.1238 97.9814 1.90735e-07
      vertex 11.8951 97.8687 1.90735e-07
    endloop
  endfacet
  facet normal -0.997854 -0.065478 0
    outer loop
      vertex 10.9368 95.9255 1.90735e-07
      vertex 10.9201 96.18 0.600001
      vertex 10.9201 96.18 1.90735e-07
    endloop
  endfacet
  facet normal -0.997854 -0.065478 0
    outer loop
      vertex 10.9201 96.18 0.600001
      vertex 10.9368 95.9255 1.90735e-07
      vertex 10.9368 95.9255 0.600001
    endloop
  endfacet
  facet normal 0 1 -0
    outer loop
      vertex 19.8684 98.13 1.90735e-07
      vertex 12.8716 98.13 0.600001
      vertex 19.8684 98.13 0.600001
    endloop
  endfacet
  facet normal 0 1 0
    outer loop
      vertex 12.8716 98.13 0.600001
      vertex 19.8684 98.13 1.90735e-07
      vertex 12.8716 98.13 1.90735e-07
    endloop
  endfacet
  facet normal 0.0654587 -0.997855 0
    outer loop
      vertex 19.8684 94.23 1.90735e-07
      vertex 20.1245 94.2468 0.600001
      vertex 19.8684 94.23 0.600001
    endloop
  endfacet
  facet normal 0.0654587 -0.997855 0
    outer loop
      vertex 20.1245 94.2468 0.600001
      vertex 19.8684 94.23 1.90735e-07
      vertex 20.1245 94.2468 1.90735e-07
    endloop
  endfacet
  facet normal 0 -1 0
    outer loop
      vertex 12.8716 94.23 1.90735e-07
      vertex 19.8684 94.23 0.600001
      vertex 12.8716 94.23 0.600001
    endloop
  endfacet
  facet normal 0 -1 -0
    outer loop
      vertex 19.8684 94.23 0.600001
      vertex 12.8716 94.23 1.90735e-07
      vertex 19.8684 94.23 1.90735e-07
    endloop
  endfacet
  facet normal 0.659115 0.752042 -0
    outer loop
      vertex 21.2488 97.5588 1.90735e-07
      vertex 21.057 97.7269 0.600001
      vertex 21.2488 97.5588 0.600001
    endloop
  endfacet
  facet normal 0.659115 0.752042 0
    outer loop
      vertex 21.057 97.7269 0.600001
      vertex 21.2488 97.5588 1.90735e-07
      vertex 21.057 97.7269 1.90735e-07
    endloop
  endfacet
  facet normal -0.659115 -0.752042 0
    outer loop
      vertex 11.4912 94.8012 1.90735e-07
      vertex 11.683 94.6331 0.600001
      vertex 11.4912 94.8012 0.600001
    endloop
  endfacet
  facet normal -0.659115 -0.752042 -0
    outer loop
      vertex 11.683 94.6331 0.600001
      vertex 11.4912 94.8012 1.90735e-07
      vertex 11.683 94.6331 1.90735e-07
    endloop
  endfacet
  facet normal -0.980761 -0.195211 0
    outer loop
      vertex 10.9866 95.6753 1.90735e-07
      vertex 10.9368 95.9255 0.600001
      vertex 10.9368 95.9255 1.90735e-07
    endloop
  endfacet
  facet normal -0.980761 -0.195211 0
    outer loop
      vertex 10.9368 95.9255 0.600001
      vertex 10.9866 95.6753 1.90735e-07
      vertex 10.9866 95.6753 0.600001
    endloop
  endfacet
  facet normal -0.831326 0.555785 0
    outer loop
      vertex 11.1813 97.1549 1.90735e-07
      vertex 11.3231 97.367 0.600001
      vertex 11.3231 97.367 1.90735e-07
    endloop
  endfacet
  facet normal -0.831326 0.555785 0
    outer loop
      vertex 11.3231 97.367 0.600001
      vertex 11.1813 97.1549 1.90735e-07
      vertex 11.1813 97.1549 0.600001
    endloop
  endfacet
  facet normal -0.321516 0.946904 0
    outer loop
      vertex 12.3653 98.0634 1.90735e-07
      vertex 12.1238 97.9814 0.600001
      vertex 12.3653 98.0634 0.600001
    endloop
  endfacet
  facet normal -0.321516 0.946904 0
    outer loop
      vertex 12.1238 97.9814 0.600001
      vertex 12.3653 98.0634 1.90735e-07
      vertex 12.1238 97.9814 1.90735e-07
    endloop
  endfacet
  facet normal -0.0654587 0.997855 0
    outer loop
      vertex 12.8716 98.13 1.90735e-07
      vertex 12.6155 98.1132 0.600001
      vertex 12.8716 98.13 0.600001
    endloop
  endfacet
  facet normal -0.0654587 0.997855 0
    outer loop
      vertex 12.6155 98.1132 0.600001
      vertex 12.8716 98.13 1.90735e-07
      vertex 12.6155 98.1132 1.90735e-07
    endloop
  endfacet
  facet normal 0.195211 -0.980761 0
    outer loop
      vertex 20.1245 94.2468 1.90735e-07
      vertex 20.3747 94.2966 0.600001
      vertex 20.1245 94.2468 0.600001
    endloop
  endfacet
  facet normal 0.195211 -0.980761 0
    outer loop
      vertex 20.3747 94.2966 0.600001
      vertex 20.1245 94.2468 1.90735e-07
      vertex 20.3747 94.2966 1.90735e-07
    endloop
  endfacet
  facet normal 0.321164 -0.947023 0
    outer loop
      vertex 20.3747 94.2966 1.90735e-07
      vertex 20.6162 94.3785 0.600001
      vertex 20.3747 94.2966 0.600001
    endloop
  endfacet
  facet normal 0.321164 -0.947023 0
    outer loop
      vertex 20.6162 94.3785 0.600001
      vertex 20.3747 94.2966 1.90735e-07
      vertex 20.6162 94.3785 1.90735e-07
    endloop
  endfacet
  facet normal -0.0654587 -0.997855 0
    outer loop
      vertex 12.6155 94.2468 1.90735e-07
      vertex 12.8716 94.23 0.600001
      vertex 12.6155 94.2468 0.600001
    endloop
  endfacet
  facet normal -0.0654587 -0.997855 -0
    outer loop
      vertex 12.8716 94.23 0.600001
      vertex 12.6155 94.2468 1.90735e-07
      vertex 12.8716 94.23 1.90735e-07
    endloop
  endfacet
  facet normal 0.897001 -0.442029 0
    outer loop
      vertex 21.5587 95.2051 0.600001
      vertex 21.6714 95.4338 1.90735e-07
      vertex 21.6714 95.4338 0.600001
    endloop
  endfacet
  facet normal 0.897001 -0.442029 0
    outer loop
      vertex 21.6714 95.4338 1.90735e-07
      vertex 21.5587 95.2051 0.600001
      vertex 21.5587 95.2051 1.90735e-07
    endloop
  endfacet
  facet normal 0.946904 -0.321516 0
    outer loop
      vertex 21.6714 95.4338 0.600001
      vertex 21.7534 95.6753 1.90735e-07
      vertex 21.7534 95.6753 0.600001
    endloop
  endfacet
  facet normal 0.946904 -0.321516 0
    outer loop
      vertex 21.7534 95.6753 1.90735e-07
      vertex 21.6714 95.4338 0.600001
      vertex 21.6714 95.4338 1.90735e-07
    endloop
  endfacet
  facet normal 0.980761 0.195211 0
    outer loop
      vertex 21.8032 96.4345 0.600001
      vertex 21.7534 96.6847 1.90735e-07
      vertex 21.7534 96.6847 0.600001
    endloop
  endfacet
  facet normal 0.980761 0.195211 0
    outer loop
      vertex 21.7534 96.6847 1.90735e-07
      vertex 21.8032 96.4345 0.600001
      vertex 21.8032 96.4345 1.90735e-07
    endloop
  endfacet
  facet normal 0.946904 0.321516 0
    outer loop
      vertex 21.7534 96.6847 0.600001
      vertex 21.6714 96.9262 1.90735e-07
      vertex 21.6714 96.9262 0.600001
    endloop
  endfacet
  facet normal 0.946904 0.321516 0
    outer loop
      vertex 21.6714 96.9262 1.90735e-07
      vertex 21.7534 96.6847 0.600001
      vertex 21.7534 96.6847 1.90735e-07
    endloop
  endfacet
  facet normal -0.555785 -0.831326 0
    outer loop
      vertex 11.683 94.6331 1.90735e-07
      vertex 11.8951 94.4913 0.600001
      vertex 11.683 94.6331 0.600001
    endloop
  endfacet
  facet normal -0.555785 -0.831326 -0
    outer loop
      vertex 11.8951 94.4913 0.600001
      vertex 11.683 94.6331 1.90735e-07
      vertex 11.8951 94.4913 1.90735e-07
    endloop
  endfacet
  facet normal -0.752042 -0.659115 0
    outer loop
      vertex 11.4912 94.8012 1.90735e-07
      vertex 11.3231 94.993 0.600001
      vertex 11.3231 94.993 1.90735e-07
    endloop
  endfacet
  facet normal -0.752042 -0.659115 0
    outer loop
      vertex 11.3231 94.993 0.600001
      vertex 11.4912 94.8012 1.90735e-07
      vertex 11.4912 94.8012 0.600001
    endloop
  endfacet
  facet normal -0.831326 -0.555785 0
    outer loop
      vertex 11.3231 94.993 1.90735e-07
      vertex 11.1813 95.2051 0.600001
      vertex 11.1813 95.2051 1.90735e-07
    endloop
  endfacet
  facet normal -0.831326 -0.555785 0
    outer loop
      vertex 11.1813 95.2051 0.600001
      vertex 11.3231 94.993 1.90735e-07
      vertex 11.3231 94.993 0.600001
    endloop
  endfacet
  facet normal -0.896845 -0.442344 0
    outer loop
      vertex 11.1813 95.2051 1.90735e-07
      vertex 11.0685 95.4338 0.600001
      vertex 11.0685 95.4338 1.90735e-07
    endloop
  endfacet
  facet normal -0.896845 -0.442344 0
    outer loop
      vertex 11.0685 95.4338 0.600001
      vertex 11.1813 95.2051 1.90735e-07
      vertex 11.1813 95.2051 0.600001
    endloop
  endfacet
  facet normal -0.659115 0.752042 0
    outer loop
      vertex 11.683 97.7269 1.90735e-07
      vertex 11.4912 97.5588 0.600001
      vertex 11.683 97.7269 0.600001
    endloop
  endfacet
  facet normal -0.659115 0.752042 0
    outer loop
      vertex 11.4912 97.5588 0.600001
      vertex 11.683 97.7269 1.90735e-07
      vertex 11.4912 97.5588 1.90735e-07
    endloop
  endfacet
  facet normal -0.752042 0.659115 0
    outer loop
      vertex 11.3231 97.367 1.90735e-07
      vertex 11.4912 97.5588 0.600001
      vertex 11.4912 97.5588 1.90735e-07
    endloop
  endfacet
  facet normal -0.752042 0.659115 0
    outer loop
      vertex 11.4912 97.5588 0.600001
      vertex 11.3231 97.367 1.90735e-07
      vertex 11.3231 97.367 0.600001
    endloop
  endfacet
  facet normal -0.555785 0.831326 0
    outer loop
      vertex 11.8951 97.8687 1.90735e-07
      vertex 11.683 97.7269 0.600001
      vertex 11.8951 97.8687 0.600001
    endloop
  endfacet
  facet normal -0.555785 0.831326 0
    outer loop
      vertex 11.683 97.7269 0.600001
      vertex 11.8951 97.8687 1.90735e-07
      vertex 11.683 97.7269 1.90735e-07
    endloop
  endfacet
  facet normal -0.947023 0.321164 0
    outer loop
      vertex 10.9866 96.6847 1.90735e-07
      vertex 11.0685 96.9262 0.600001
      vertex 11.0685 96.9262 1.90735e-07
    endloop
  endfacet
  facet normal -0.947023 0.321164 0
    outer loop
      vertex 11.0685 96.9262 0.600001
      vertex 10.9866 96.6847 1.90735e-07
      vertex 10.9866 96.6847 0.600001
    endloop
  endfacet
  facet normal -0.896845 0.442344 0
    outer loop
      vertex 11.0685 96.9262 1.90735e-07
      vertex 11.1813 97.1549 0.600001
      vertex 11.1813 97.1549 1.90735e-07
    endloop
  endfacet
  facet normal -0.896845 0.442344 0
    outer loop
      vertex 11.1813 97.1549 0.600001
      vertex 11.0685 96.9262 1.90735e-07
      vertex 11.0685 96.9262 0.600001
    endloop
  endfacet
  facet normal 0 0 1
    outer loop
      vertex 20.47 96.18 0.600001
      vertex 21.8199 96.18 0.600001
      vertex 21.8032 96.4345 0.600001
    endloop
  endfacet
  facet normal 0 0 1
    outer loop
      vertex 20.4515 96.4146 0.600001
      vertex 21.8032 96.4345 0.600001
      vertex 21.7534 96.6847 0.600001
    endloop
  endfacet
  facet normal 0 0 1
    outer loop
      vertex 21.8199 96.18 0.600001
      vertex 20.47 96.18 0.600001
      vertex 21.8032 95.9255 0.600001
    endloop
  endfacet
  facet normal 0 0 1
    outer loop
      vertex 20.4515 96.4146 0.600001
      vertex 21.7534 96.6847 0.600001
      vertex 21.6714 96.9262 0.600001
    endloop
  endfacet
  facet normal -0 0 1
    outer loop
      vertex 20.4515 95.9454 0.600001
      vertex 21.8032 95.9255 0.600001
      vertex 20.47 96.18 0.600001
    endloop
  endfacet
  facet normal 0 0 1
    outer loop
      vertex 20.3966 96.6435 0.600001
      vertex 21.6714 96.9262 0.600001
      vertex 21.5587 97.1549 0.600001
    endloop
  endfacet
  facet normal 0 0 1
    outer loop
      vertex 21.8032 95.9255 0.600001
      vertex 20.4515 95.9454 0.600001
      vertex 21.7534 95.6753 0.600001
    endloop
  endfacet
  facet normal 0 0 1
    outer loop
      vertex 20.3966 96.6435 0.600001
      vertex 21.5587 97.1549 0.600001
      vertex 21.4169 97.367 0.600001
    endloop
  endfacet
  facet normal 0 0 1
    outer loop
      vertex 21.7534 95.6753 0.600001
      vertex 20.4515 95.9454 0.600001
      vertex 21.6714 95.4338 0.600001
    endloop
  endfacet
  facet normal 0 0 1
    outer loop
      vertex 20.3065 96.861 0.600001
      vertex 21.4169 97.367 0.600001
      vertex 21.2488 97.5588 0.600001
    endloop
  endfacet
  facet normal -0 0 1
    outer loop
      vertex 20.3966 95.7165 0.600001
      vertex 21.6714 95.4338 0.600001
      vertex 20.4515 95.9454 0.600001
    endloop
  endfacet
  facet normal 0 0 1
    outer loop
      vertex 20.3065 96.861 0.600001
      vertex 21.2488 97.5588 0.600001
      vertex 21.057 97.7269 0.600001
    endloop
  endfacet
  facet normal 0 0 1
    outer loop
      vertex 21.6714 95.4338 0.600001
      vertex 20.3966 95.7165 0.600001
      vertex 21.5587 95.2051 0.600001
    endloop
  endfacet
  facet normal 0 0 1
    outer loop
      vertex 20.1835 97.0617 0.600001
      vertex 21.057 97.7269 0.600001
      vertex 20.8449 97.8687 0.600001
    endloop
  endfacet
  facet normal 0 0 1
    outer loop
      vertex 21.5587 95.2051 0.600001
      vertex 20.3966 95.7165 0.600001
      vertex 21.4169 94.993 0.600001
    endloop
  endfacet
  facet normal 0 0 1
    outer loop
      vertex 20.1835 97.0617 0.600001
      vertex 20.8449 97.8687 0.600001
      vertex 20.6162 97.9814 0.600001
    endloop
  endfacet
  facet normal -0 0 1
    outer loop
      vertex 20.3065 95.499 0.600001
      vertex 21.4169 94.993 0.600001
      vertex 20.3966 95.7165 0.600001
    endloop
  endfacet
  facet normal 0 0 1
    outer loop
      vertex 21.4169 94.993 0.600001
      vertex 20.3065 95.499 0.600001
      vertex 21.2488 94.8012 0.600001
    endloop
  endfacet
  facet normal 0 0 1
    outer loop
      vertex 21.8032 96.4345 0.600001
      vertex 20.4515 96.4146 0.600001
      vertex 20.47 96.18 0.600001
    endloop
  endfacet
  facet normal 0 0 1
    outer loop
      vertex 21.6714 96.9262 0.600001
      vertex 20.3966 96.6435 0.600001
      vertex 20.4515 96.4146 0.600001
    endloop
  endfacet
  facet normal 0 0 1
    outer loop
      vertex 20.0307 97.2407 0.600001
      vertex 20.6162 97.9814 0.600001
      vertex 20.3747 98.0634 0.600001
    endloop
  endfacet
  facet normal 0 0 1
    outer loop
      vertex 21.4169 97.367 0.600001
      vertex 20.3065 96.861 0.600001
      vertex 20.3966 96.6435 0.600001
    endloop
  endfacet
  facet normal 0 0 1
    outer loop
      vertex 21.057 97.7269 0.600001
      vertex 20.1835 97.0617 0.600001
      vertex 20.3065 96.861 0.600001
    endloop
  endfacet
  facet normal 0 0 1
    outer loop
      vertex 19.8517 97.3935 0.600001
      vertex 20.3747 98.0634 0.600001
      vertex 20.1245 98.1132 0.600001
    endloop
  endfacet
  facet normal 0 0 1
    outer loop
      vertex 20.6162 97.9814 0.600001
      vertex 20.0307 97.2407 0.600001
      vertex 20.1835 97.0617 0.600001
    endloop
  endfacet
  facet normal 0 0 1
    outer loop
      vertex 19.8517 97.3935 0.600001
      vertex 20.1245 98.1132 0.600001
      vertex 19.8684 98.13 0.600001
    endloop
  endfacet
  facet normal 0 0 1
    outer loop
      vertex 20.3747 98.0634 0.600001
      vertex 19.8517 97.3935 0.600001
      vertex 20.0307 97.2407 0.600001
    endloop
  endfacet
  facet normal 0 0 1
    outer loop
      vertex 19.8684 98.13 0.600001
      vertex 19.651 97.5165 0.600001
      vertex 19.8517 97.3935 0.600001
    endloop
  endfacet
  facet normal 0 0 1
    outer loop
      vertex 19.8684 98.13 0.600001
      vertex 19.4335 97.6066 0.600001
      vertex 19.651 97.5165 0.600001
    endloop
  endfacet
  facet normal 0 0 1
    outer loop
      vertex 19.8684 98.13 0.600001
      vertex 19.2047 97.6615 0.600001
      vertex 19.4335 97.6066 0.600001
    endloop
  endfacet
  facet normal 0 0 1
    outer loop
      vertex 19.8684 98.13 0.600001
      vertex 18.97 97.68 0.600001
      vertex 19.2047 97.6615 0.600001
    endloop
  endfacet
  facet normal 0 0 1
    outer loop
      vertex 19.8684 98.13 0.600001
      vertex 18.7353 97.6615 0.600001
      vertex 18.97 97.68 0.600001
    endloop
  endfacet
  facet normal 0 0 1
    outer loop
      vertex 19.8684 98.13 0.600001
      vertex 18.5065 97.6066 0.600001
      vertex 18.7353 97.6615 0.600001
    endloop
  endfacet
  facet normal -0 0 1
    outer loop
      vertex 13.9601 96.3051 0.600001
      vertex 17.47 96.18 0.600001
      vertex 17.4885 96.4146 0.600001
    endloop
  endfacet
  facet normal -0 0 1
    outer loop
      vertex 13.9308 96.4272 0.600001
      vertex 17.4885 96.4146 0.600001
      vertex 17.5434 96.6435 0.600001
    endloop
  endfacet
  facet normal 0 0 1
    outer loop
      vertex 13.8828 96.5432 0.600001
      vertex 17.5434 96.6435 0.600001
      vertex 17.6335 96.861 0.600001
    endloop
  endfacet
  facet normal 0 0 1
    outer loop
      vertex 13.8172 96.6502 0.600001
      vertex 17.6335 96.861 0.600001
      vertex 17.7565 97.0617 0.600001
    endloop
  endfacet
  facet normal 0 0 1
    outer loop
      vertex 12.8716 98.13 0.600001
      vertex 17.7565 97.0617 0.600001
      vertex 17.9093 97.2407 0.600001
    endloop
  endfacet
  facet normal 0 0 1
    outer loop
      vertex 12.8716 98.13 0.600001
      vertex 17.9093 97.2407 0.600001
      vertex 18.0883 97.3935 0.600001
    endloop
  endfacet
  facet normal 0 0 1
    outer loop
      vertex 12.8716 98.13 0.600001
      vertex 18.0883 97.3935 0.600001
      vertex 18.289 97.5165 0.600001
    endloop
  endfacet
  facet normal 0 0 1
    outer loop
      vertex 12.8716 98.13 0.600001
      vertex 18.289 97.5165 0.600001
      vertex 18.5065 97.6066 0.600001
    endloop
  endfacet
  facet normal -0 0 1
    outer loop
      vertex 12.8716 98.13 0.600001
      vertex 18.5065 97.6066 0.600001
      vertex 19.8684 98.13 0.600001
    endloop
  endfacet
  facet normal 0 0 1
    outer loop
      vertex 17.47 96.18 0.600001
      vertex 13.9601 96.3051 0.600001
      vertex 13.97 96.18 0.600001
    endloop
  endfacet
  facet normal 0 0 1
    outer loop
      vertex 17.4885 96.4146 0.600001
      vertex 13.9308 96.4272 0.600001
      vertex 13.9601 96.3051 0.600001
    endloop
  endfacet
  facet normal 0 0 1
    outer loop
      vertex 17.5434 96.6435 0.600001
      vertex 13.8828 96.5432 0.600001
      vertex 13.9308 96.4272 0.600001
    endloop
  endfacet
  facet normal 0 0 1
    outer loop
      vertex 17.6335 96.861 0.600001
      vertex 13.8172 96.6502 0.600001
      vertex 13.8828 96.5432 0.600001
    endloop
  endfacet
  facet normal 0 0 1
    outer loop
      vertex 17.7565 97.0617 0.600001
      vertex 13.7357 96.7457 0.600001
      vertex 13.8172 96.6502 0.600001
    endloop
  endfacet
  facet normal 0 0 1
    outer loop
      vertex 17.7565 97.0617 0.600001
      vertex 12.8716 98.13 0.600001
      vertex 13.7357 96.7457 0.600001
    endloop
  endfacet
  facet normal 0 0 1
    outer loop
      vertex 13.7357 96.7457 0.600001
      vertex 12.8716 98.13 0.600001
      vertex 13.6402 96.8272 0.600001
    endloop
  endfacet
  facet normal 0 0 1
    outer loop
      vertex 13.6402 96.8272 0.600001
      vertex 12.8716 98.13 0.600001
      vertex 13.5332 96.8928 0.600001
    endloop
  endfacet
  facet normal 0 0 1
    outer loop
      vertex 13.5332 96.8928 0.600001
      vertex 12.8716 98.13 0.600001
      vertex 13.4172 96.9408 0.600001
    endloop
  endfacet
  facet normal 0 0 1
    outer loop
      vertex 13.4172 96.9408 0.600001
      vertex 12.8716 98.13 0.600001
      vertex 13.2951 96.9702 0.600001
    endloop
  endfacet
  facet normal 0 0 1
    outer loop
      vertex 13.2951 96.9702 0.600001
      vertex 12.8716 98.13 0.600001
      vertex 13.17 96.98 0.600001
    endloop
  endfacet
  facet normal 0 0 1
    outer loop
      vertex 13.17 96.98 0.600001
      vertex 12.8716 98.13 0.600001
      vertex 13.0449 96.9702 0.600001
    endloop
  endfacet
  facet normal 0 0 1
    outer loop
      vertex 12.8716 98.13 0.600001
      vertex 12.9228 96.9408 0.600001
      vertex 13.0449 96.9702 0.600001
    endloop
  endfacet
  facet normal -0 0 1
    outer loop
      vertex 12.6155 98.1132 0.600001
      vertex 12.9228 96.9408 0.600001
      vertex 12.8716 98.13 0.600001
    endloop
  endfacet
  facet normal 0 0 1
    outer loop
      vertex 12.9228 96.9408 0.600001
      vertex 12.6155 98.1132 0.600001
      vertex 12.8068 96.8928 0.600001
    endloop
  endfacet
  facet normal -0 0 1
    outer loop
      vertex 12.3653 98.0634 0.600001
      vertex 12.8068 96.8928 0.600001
      vertex 12.6155 98.1132 0.600001
    endloop
  endfacet
  facet normal -0 0 1
    outer loop
      vertex 12.1238 97.9814 0.600001
      vertex 12.8068 96.8928 0.600001
      vertex 12.3653 98.0634 0.600001
    endloop
  endfacet
  facet normal 0 0 1
    outer loop
      vertex 12.8068 96.8928 0.600001
      vertex 12.1238 97.9814 0.600001
      vertex 12.6998 96.8272 0.600001
    endloop
  endfacet
  facet normal -0 0 1
    outer loop
      vertex 11.8951 97.8687 0.600001
      vertex 12.6998 96.8272 0.600001
      vertex 12.1238 97.9814 0.600001
    endloop
  endfacet
  facet normal 0 0 1
    outer loop
      vertex 12.6998 96.8272 0.600001
      vertex 11.8951 97.8687 0.600001
      vertex 12.6043 96.7457 0.600001
    endloop
  endfacet
  facet normal -0 0 1
    outer loop
      vertex 11.683 97.7269 0.600001
      vertex 12.6043 96.7457 0.600001
      vertex 11.8951 97.8687 0.600001
    endloop
  endfacet
  facet normal -0 0 1
    outer loop
      vertex 11.4912 97.5588 0.600001
      vertex 12.5228 96.6502 0.600001
      vertex 11.683 97.7269 0.600001
    endloop
  endfacet
  facet normal 0 0 1
    outer loop
      vertex 12.6043 96.7457 0.600001
      vertex 11.683 97.7269 0.600001
      vertex 12.5228 96.6502 0.600001
    endloop
  endfacet
  facet normal 0 0 1
    outer loop
      vertex 21.2488 94.8012 0.600001
      vertex 20.3065 95.499 0.600001
      vertex 21.057 94.6331 0.600001
    endloop
  endfacet
  facet normal -0 0 1
    outer loop
      vertex 20.1835 95.2983 0.600001
      vertex 21.057 94.6331 0.600001
      vertex 20.3065 95.499 0.600001
    endloop
  endfacet
  facet normal 0 0 1
    outer loop
      vertex 21.057 94.6331 0.600001
      vertex 20.1835 95.2983 0.600001
      vertex 20.8449 94.4913 0.600001
    endloop
  endfacet
  facet normal 0 0 1
    outer loop
      vertex 20.8449 94.4913 0.600001
      vertex 20.1835 95.2983 0.600001
      vertex 20.6162 94.3785 0.600001
    endloop
  endfacet
  facet normal -0 0 1
    outer loop
      vertex 20.0307 95.1193 0.600001
      vertex 20.6162 94.3785 0.600001
      vertex 20.1835 95.2983 0.600001
    endloop
  endfacet
  facet normal 0 0 1
    outer loop
      vertex 20.6162 94.3785 0.600001
      vertex 20.0307 95.1193 0.600001
      vertex 20.3747 94.2966 0.600001
    endloop
  endfacet
  facet normal -0 0 1
    outer loop
      vertex 19.8517 94.9665 0.600001
      vertex 20.3747 94.2966 0.600001
      vertex 20.0307 95.1193 0.600001
    endloop
  endfacet
  facet normal 0 0 1
    outer loop
      vertex 20.3747 94.2966 0.600001
      vertex 19.8517 94.9665 0.600001
      vertex 20.1245 94.2468 0.600001
    endloop
  endfacet
  facet normal 0 0 1
    outer loop
      vertex 20.1245 94.2468 0.600001
      vertex 19.8517 94.9665 0.600001
      vertex 19.8684 94.23 0.600001
    endloop
  endfacet
  facet normal -0 0 1
    outer loop
      vertex 19.651 94.8435 0.600001
      vertex 19.8684 94.23 0.600001
      vertex 19.8517 94.9665 0.600001
    endloop
  endfacet
  facet normal -0 0 1
    outer loop
      vertex 19.4335 94.7534 0.600001
      vertex 19.8684 94.23 0.600001
      vertex 19.651 94.8435 0.600001
    endloop
  endfacet
  facet normal -0 0 1
    outer loop
      vertex 19.2047 94.6985 0.600001
      vertex 19.8684 94.23 0.600001
      vertex 19.4335 94.7534 0.600001
    endloop
  endfacet
  facet normal -0 0 1
    outer loop
      vertex 18.97 94.68 0.600001
      vertex 19.8684 94.23 0.600001
      vertex 19.2047 94.6985 0.600001
    endloop
  endfacet
  facet normal 0 0 1
    outer loop
      vertex 18.7353 94.6985 0.600001
      vertex 19.8684 94.23 0.600001
      vertex 18.97 94.68 0.600001
    endloop
  endfacet
  facet normal 0 0 1
    outer loop
      vertex 18.5065 94.7534 0.600001
      vertex 19.8684 94.23 0.600001
      vertex 18.7353 94.6985 0.600001
    endloop
  endfacet
  facet normal 0 0 1
    outer loop
      vertex 13.9601 96.0549 0.600001
      vertex 17.47 96.18 0.600001
      vertex 13.97 96.18 0.600001
    endloop
  endfacet
  facet normal 0 0 1
    outer loop
      vertex 17.47 96.18 0.600001
      vertex 13.9601 96.0549 0.600001
      vertex 17.4885 95.9454 0.600001
    endloop
  endfacet
  facet normal 0 0 1
    outer loop
      vertex 13.9308 95.9328 0.600001
      vertex 17.4885 95.9454 0.600001
      vertex 13.9601 96.0549 0.600001
    endloop
  endfacet
  facet normal 0 0 1
    outer loop
      vertex 17.4885 95.9454 0.600001
      vertex 13.9308 95.9328 0.600001
      vertex 17.5434 95.7165 0.600001
    endloop
  endfacet
  facet normal -0 0 1
    outer loop
      vertex 13.8828 95.8168 0.600001
      vertex 17.5434 95.7165 0.600001
      vertex 13.9308 95.9328 0.600001
    endloop
  endfacet
  facet normal 0 0 1
    outer loop
      vertex 17.5434 95.7165 0.600001
      vertex 13.8828 95.8168 0.600001
      vertex 17.6335 95.499 0.600001
    endloop
  endfacet
  facet normal -0 0 1
    outer loop
      vertex 13.8172 95.7098 0.600001
      vertex 17.6335 95.499 0.600001
      vertex 13.8828 95.8168 0.600001
    endloop
  endfacet
  facet normal 0 0 1
    outer loop
      vertex 17.6335 95.499 0.600001
      vertex 13.8172 95.7098 0.600001
      vertex 17.7565 95.2983 0.600001
    endloop
  endfacet
  facet normal -0 0 1
    outer loop
      vertex 13.7357 95.6143 0.600001
      vertex 17.7565 95.2983 0.600001
      vertex 13.8172 95.7098 0.600001
    endloop
  endfacet
  facet normal 0 0 1
    outer loop
      vertex 12.8716 94.23 0.600001
      vertex 17.7565 95.2983 0.600001
      vertex 13.7357 95.6143 0.600001
    endloop
  endfacet
  facet normal 0 0 1
    outer loop
      vertex 17.7565 95.2983 0.600001
      vertex 12.8716 94.23 0.600001
      vertex 17.9093 95.1193 0.600001
    endloop
  endfacet
  facet normal 0 0 1
    outer loop
      vertex 17.9093 95.1193 0.600001
      vertex 12.8716 94.23 0.600001
      vertex 18.0883 94.9665 0.600001
    endloop
  endfacet
  facet normal 0 0 1
    outer loop
      vertex 18.0883 94.9665 0.600001
      vertex 12.8716 94.23 0.600001
      vertex 18.289 94.8435 0.600001
    endloop
  endfacet
  facet normal 0 0 1
    outer loop
      vertex 18.289 94.8435 0.600001
      vertex 12.8716 94.23 0.600001
      vertex 18.5065 94.7534 0.600001
    endloop
  endfacet
  facet normal 0 0 1
    outer loop
      vertex 12.8716 94.23 0.600001
      vertex 13.7357 95.6143 0.600001
      vertex 13.6402 95.5328 0.600001
    endloop
  endfacet
  facet normal 0 0 1
    outer loop
      vertex 12.8716 94.23 0.600001
      vertex 13.6402 95.5328 0.600001
      vertex 13.5332 95.4672 0.600001
    endloop
  endfacet
  facet normal 0 0 1
    outer loop
      vertex 12.8716 94.23 0.600001
      vertex 13.5332 95.4672 0.600001
      vertex 13.4172 95.4192 0.600001
    endloop
  endfacet
  facet normal 0 0 1
    outer loop
      vertex 12.8716 94.23 0.600001
      vertex 13.4172 95.4192 0.600001
      vertex 13.2951 95.3898 0.600001
    endloop
  endfacet
  facet normal 0 0 1
    outer loop
      vertex 12.8716 94.23 0.600001
      vertex 13.2951 95.3898 0.600001
      vertex 13.17 95.38 0.600001
    endloop
  endfacet
  facet normal 0 0 1
    outer loop
      vertex 12.8716 94.23 0.600001
      vertex 13.17 95.38 0.600001
      vertex 13.0449 95.3898 0.600001
    endloop
  endfacet
  facet normal 0 0 1
    outer loop
      vertex 18.5065 94.7534 0.600001
      vertex 12.8716 94.23 0.600001
      vertex 19.8684 94.23 0.600001
    endloop
  endfacet
  facet normal 0 0 1
    outer loop
      vertex 12.9228 95.4192 0.600001
      vertex 12.8716 94.23 0.600001
      vertex 13.0449 95.3898 0.600001
    endloop
  endfacet
  facet normal 0 0 1
    outer loop
      vertex 12.6155 94.2468 0.600001
      vertex 12.9228 95.4192 0.600001
      vertex 12.8068 95.4672 0.600001
    endloop
  endfacet
  facet normal 0 0 1
    outer loop
      vertex 12.1238 94.3785 0.600001
      vertex 12.8068 95.4672 0.600001
      vertex 12.6998 95.5328 0.600001
    endloop
  endfacet
  facet normal 0 0 1
    outer loop
      vertex 12.9228 95.4192 0.600001
      vertex 12.6155 94.2468 0.600001
      vertex 12.8716 94.23 0.600001
    endloop
  endfacet
  facet normal 0 0 1
    outer loop
      vertex 11.8951 94.4913 0.600001
      vertex 12.6998 95.5328 0.600001
      vertex 12.6043 95.6143 0.600001
    endloop
  endfacet
  facet normal 0 0 1
    outer loop
      vertex 11.683 94.6331 0.600001
      vertex 12.6043 95.6143 0.600001
      vertex 12.5228 95.7098 0.600001
    endloop
  endfacet
  facet normal 0 0 1
    outer loop
      vertex 11.3231 94.993 0.600001
      vertex 12.5228 95.7098 0.600001
      vertex 12.4572 95.8168 0.600001
    endloop
  endfacet
  facet normal 0 0 1
    outer loop
      vertex 11.1813 95.2051 0.600001
      vertex 12.4572 95.8168 0.600001
      vertex 12.4092 95.9328 0.600001
    endloop
  endfacet
  facet normal 0 0 1
    outer loop
      vertex 10.9866 95.6753 0.600001
      vertex 12.4092 95.9328 0.600001
      vertex 12.3798 96.0549 0.600001
    endloop
  endfacet
  facet normal 0 0 1
    outer loop
      vertex 12.8068 95.4672 0.600001
      vertex 12.3653 94.2966 0.600001
      vertex 12.6155 94.2468 0.600001
    endloop
  endfacet
  facet normal 0 0 1
    outer loop
      vertex 10.9368 95.9255 0.600001
      vertex 12.3798 96.0549 0.600001
      vertex 12.37 96.18 0.600001
    endloop
  endfacet
  facet normal -0 0 1
    outer loop
      vertex 11.3231 97.367 0.600001
      vertex 12.5228 96.6502 0.600001
      vertex 11.4912 97.5588 0.600001
    endloop
  endfacet
  facet normal 0 0 1
    outer loop
      vertex 12.5228 96.6502 0.600001
      vertex 11.3231 97.367 0.600001
      vertex 12.4572 96.5432 0.600001
    endloop
  endfacet
  facet normal 0 0 1
    outer loop
      vertex 12.8068 95.4672 0.600001
      vertex 12.1238 94.3785 0.600001
      vertex 12.3653 94.2966 0.600001
    endloop
  endfacet
  facet normal -0 0 1
    outer loop
      vertex 11.1813 97.1549 0.600001
      vertex 12.4572 96.5432 0.600001
      vertex 11.3231 97.367 0.600001
    endloop
  endfacet
  facet normal 0 0 1
    outer loop
      vertex 12.6998 95.5328 0.600001
      vertex 11.8951 94.4913 0.600001
      vertex 12.1238 94.3785 0.600001
    endloop
  endfacet
  facet normal 0 0 1
    outer loop
      vertex 12.4572 96.5432 0.600001
      vertex 11.1813 97.1549 0.600001
      vertex 12.4092 96.4272 0.600001
    endloop
  endfacet
  facet normal 0 0 1
    outer loop
      vertex 12.6043 95.6143 0.600001
      vertex 11.683 94.6331 0.600001
      vertex 11.8951 94.4913 0.600001
    endloop
  endfacet
  facet normal -0 0 1
    outer loop
      vertex 11.0685 96.9262 0.600001
      vertex 12.4092 96.4272 0.600001
      vertex 11.1813 97.1549 0.600001
    endloop
  endfacet
  facet normal 0 0 1
    outer loop
      vertex 12.5228 95.7098 0.600001
      vertex 11.4912 94.8012 0.600001
      vertex 11.683 94.6331 0.600001
    endloop
  endfacet
  facet normal -0 0 1
    outer loop
      vertex 10.9866 96.6847 0.600001
      vertex 12.4092 96.4272 0.600001
      vertex 11.0685 96.9262 0.600001
    endloop
  endfacet
  facet normal 0 0 1
    outer loop
      vertex 12.5228 95.7098 0.600001
      vertex 11.3231 94.993 0.600001
      vertex 11.4912 94.8012 0.600001
    endloop
  endfacet
  facet normal 0 0 1
    outer loop
      vertex 12.4092 96.4272 0.600001
      vertex 10.9866 96.6847 0.600001
      vertex 12.3798 96.3051 0.600001
    endloop
  endfacet
  facet normal 0 0 1
    outer loop
      vertex 12.4572 95.8168 0.600001
      vertex 11.1813 95.2051 0.600001
      vertex 11.3231 94.993 0.600001
    endloop
  endfacet
  facet normal -0 0 1
    outer loop
      vertex 10.9368 96.4345 0.600001
      vertex 12.3798 96.3051 0.600001
      vertex 10.9866 96.6847 0.600001
    endloop
  endfacet
  facet normal 0 0 1
    outer loop
      vertex 12.4092 95.9328 0.600001
      vertex 11.0685 95.4338 0.600001
      vertex 11.1813 95.2051 0.600001
    endloop
  endfacet
  facet normal 0 0 1
    outer loop
      vertex 12.3798 96.3051 0.600001
      vertex 10.9368 96.4345 0.600001
      vertex 12.37 96.18 0.600001
    endloop
  endfacet
  facet normal 0 0 1
    outer loop
      vertex 12.4092 95.9328 0.600001
      vertex 10.9866 95.6753 0.600001
      vertex 11.0685 95.4338 0.600001
    endloop
  endfacet
  facet normal 0 0 1
    outer loop
      vertex 10.9201 96.18 0.600001
      vertex 12.37 96.18 0.600001
      vertex 10.9368 96.4345 0.600001
    endloop
  endfacet
  facet normal 0 0 1
    outer loop
      vertex 12.3798 96.0549 0.600001
      vertex 10.9368 95.9255 0.600001
      vertex 10.9866 95.6753 0.600001
    endloop
  endfacet
  facet normal 0 0 1
    outer loop
      vertex 12.37 96.18 0.600001
      vertex 10.9201 96.18 0.600001
      vertex 10.9368 95.9255 0.600001
    endloop
  endfacet
  facet normal -0.195211 0.980761 0
    outer loop
      vertex 12.6155 98.1132 1.90735e-07
      vertex 12.3653 98.0634 0.600001
      vertex 12.6155 98.1132 0.600001
    endloop
  endfacet
  facet normal -0.195211 0.980761 0
    outer loop
      vertex 12.3653 98.0634 0.600001
      vertex 12.6155 98.1132 1.90735e-07
      vertex 12.3653 98.0634 1.90735e-07
    endloop
  endfacet
  facet normal 0.831326 -0.555785 0
    outer loop
      vertex 21.4169 94.993 0.600001
      vertex 21.5587 95.2051 1.90735e-07
      vertex 21.5587 95.2051 0.600001
    endloop
  endfacet
  facet normal 0.831326 -0.555785 0
    outer loop
      vertex 21.5587 95.2051 1.90735e-07
      vertex 21.4169 94.993 0.600001
      vertex 21.4169 94.993 1.90735e-07
    endloop
  endfacet
  facet normal 0.659115 -0.752042 0
    outer loop
      vertex 21.057 94.6331 1.90735e-07
      vertex 21.2488 94.8012 0.600001
      vertex 21.057 94.6331 0.600001
    endloop
  endfacet
  facet normal 0.659115 -0.752042 0
    outer loop
      vertex 21.2488 94.8012 0.600001
      vertex 21.057 94.6331 1.90735e-07
      vertex 21.2488 94.8012 1.90735e-07
    endloop
  endfacet
  facet normal 0.555785 -0.831326 0
    outer loop
      vertex 20.8449 94.4913 1.90735e-07
      vertex 21.057 94.6331 0.600001
      vertex 20.8449 94.4913 0.600001
    endloop
  endfacet
  facet normal 0.555785 -0.831326 0
    outer loop
      vertex 21.057 94.6331 0.600001
      vertex 20.8449 94.4913 1.90735e-07
      vertex 21.057 94.6331 1.90735e-07
    endloop
  endfacet
  facet normal 0.831326 0.555785 0
    outer loop
      vertex 21.5587 97.1549 0.600001
      vertex 21.4169 97.367 1.90735e-07
      vertex 21.4169 97.367 0.600001
    endloop
  endfacet
  facet normal 0.831326 0.555785 0
    outer loop
      vertex 21.4169 97.367 1.90735e-07
      vertex 21.5587 97.1549 0.600001
      vertex 21.5587 97.1549 1.90735e-07
    endloop
  endfacet
  facet normal 0.442029 0.897001 -0
    outer loop
      vertex 20.8449 97.8687 1.90735e-07
      vertex 20.6162 97.9814 0.600001
      vertex 20.8449 97.8687 0.600001
    endloop
  endfacet
  facet normal 0.442029 0.897001 0
    outer loop
      vertex 20.6162 97.9814 0.600001
      vertex 20.8449 97.8687 1.90735e-07
      vertex 20.6162 97.9814 1.90735e-07
    endloop
  endfacet
  facet normal -0.442344 -0.896845 0
    outer loop
      vertex 11.8951 94.4913 1.90735e-07
      vertex 12.1238 94.3785 0.600001
      vertex 11.8951 94.4913 0.600001
    endloop
  endfacet
  facet normal -0.442344 -0.896845 -0
    outer loop
      vertex 12.1238 94.3785 0.600001
      vertex 11.8951 94.4913 1.90735e-07
      vertex 12.1238 94.3785 1.90735e-07
    endloop
  endfacet
  facet normal -0.321164 -0.947023 0
    outer loop
      vertex 12.1238 94.3785 1.90735e-07
      vertex 12.3653 94.2966 0.600001
      vertex 12.1238 94.3785 0.600001
    endloop
  endfacet
  facet normal -0.321164 -0.947023 -0
    outer loop
      vertex 12.3653 94.2966 0.600001
      vertex 12.1238 94.3785 1.90735e-07
      vertex 12.3653 94.2966 1.90735e-07
    endloop
  endfacet
  facet normal -0.947023 -0.321164 0
    outer loop
      vertex 11.0685 95.4338 1.90735e-07
      vertex 10.9866 95.6753 0.600001
      vertex 10.9866 95.6753 1.90735e-07
    endloop
  endfacet
  facet normal -0.947023 -0.321164 0
    outer loop
      vertex 10.9866 95.6753 0.600001
      vertex 11.0685 95.4338 1.90735e-07
      vertex 11.0685 95.4338 0.600001
    endloop
  endfacet
  facet normal -0.980761 0.195211 0
    outer loop
      vertex 10.9368 96.4345 1.90735e-07
      vertex 10.9866 96.6847 0.600001
      vertex 10.9866 96.6847 1.90735e-07
    endloop
  endfacet
  facet normal -0.980761 0.195211 0
    outer loop
      vertex 10.9866 96.6847 0.600001
      vertex 10.9368 96.4345 1.90735e-07
      vertex 10.9368 96.4345 0.600001
    endloop
  endfacet
  facet normal -0.997854 0.065478 0
    outer loop
      vertex 10.9201 96.18 1.90735e-07
      vertex 10.9368 96.4345 0.600001
      vertex 10.9368 96.4345 1.90735e-07
    endloop
  endfacet
  facet normal -0.997854 0.065478 0
    outer loop
      vertex 10.9368 96.4345 0.600001
      vertex 10.9201 96.18 1.90735e-07
      vertex 10.9201 96.18 0.600001
    endloop
  endfacet
  facet normal 0.980761 -0.195211 0
    outer loop
      vertex 21.7534 95.6753 0.600001
      vertex 21.8032 95.9255 1.90735e-07
      vertex 21.8032 95.9255 0.600001
    endloop
  endfacet
  facet normal 0.980761 -0.195211 0
    outer loop
      vertex 21.8032 95.9255 1.90735e-07
      vertex 21.7534 95.6753 0.600001
      vertex 21.7534 95.6753 1.90735e-07
    endloop
  endfacet
  facet normal 0.752042 -0.659115 0
    outer loop
      vertex 21.2488 94.8012 0.600001
      vertex 21.4169 94.993 1.90735e-07
      vertex 21.4169 94.993 0.600001
    endloop
  endfacet
  facet normal 0.752042 -0.659115 0
    outer loop
      vertex 21.4169 94.993 1.90735e-07
      vertex 21.2488 94.8012 0.600001
      vertex 21.2488 94.8012 1.90735e-07
    endloop
  endfacet
  facet normal 0.897001 0.442029 0
    outer loop
      vertex 21.6714 96.9262 0.600001
      vertex 21.5587 97.1549 1.90735e-07
      vertex 21.5587 97.1549 0.600001
    endloop
  endfacet
  facet normal 0.897001 0.442029 0
    outer loop
      vertex 21.5587 97.1549 1.90735e-07
      vertex 21.6714 96.9262 0.600001
      vertex 21.6714 96.9262 1.90735e-07
    endloop
  endfacet
  facet normal 0.752042 0.659115 0
    outer loop
      vertex 21.4169 97.367 0.600001
      vertex 21.2488 97.5588 1.90735e-07
      vertex 21.2488 97.5588 0.600001
    endloop
  endfacet
  facet normal 0.752042 0.659115 0
    outer loop
      vertex 21.2488 97.5588 1.90735e-07
      vertex 21.4169 97.367 0.600001
      vertex 21.4169 97.367 1.90735e-07
    endloop
  endfacet
  facet normal 0.555785 0.831326 -0
    outer loop
      vertex 21.057 97.7269 1.90735e-07
      vertex 20.8449 97.8687 0.600001
      vertex 21.057 97.7269 0.600001
    endloop
  endfacet
  facet normal 0.555785 0.831326 0
    outer loop
      vertex 20.8449 97.8687 0.600001
      vertex 21.057 97.7269 1.90735e-07
      vertex 20.8449 97.8687 1.90735e-07
    endloop
  endfacet
  facet normal 0 0 -1
    outer loop
      vertex 20.47 96.18 1.90735e-07
      vertex 21.8199 96.18 1.90735e-07
      vertex 21.8032 95.9255 1.90735e-07
    endloop
  endfacet
  facet normal 0 0 -1
    outer loop
      vertex 20.4515 95.9454 1.90735e-07
      vertex 21.8032 95.9255 1.90735e-07
      vertex 21.7534 95.6753 1.90735e-07
    endloop
  endfacet
  facet normal 0 0 -1
    outer loop
      vertex 21.8199 96.18 1.90735e-07
      vertex 20.47 96.18 1.90735e-07
      vertex 21.8032 96.4345 1.90735e-07
    endloop
  endfacet
  facet normal 0 0 -1
    outer loop
      vertex 20.4515 95.9454 1.90735e-07
      vertex 21.7534 95.6753 1.90735e-07
      vertex 21.6714 95.4338 1.90735e-07
    endloop
  endfacet
  facet normal 0 0 -1
    outer loop
      vertex 20.4515 96.4146 1.90735e-07
      vertex 21.8032 96.4345 1.90735e-07
      vertex 20.47 96.18 1.90735e-07
    endloop
  endfacet
  facet normal 0 0 -1
    outer loop
      vertex 20.3966 95.7165 1.90735e-07
      vertex 21.6714 95.4338 1.90735e-07
      vertex 21.5587 95.2051 1.90735e-07
    endloop
  endfacet
  facet normal -0 0 -1
    outer loop
      vertex 21.8032 96.4345 1.90735e-07
      vertex 20.4515 96.4146 1.90735e-07
      vertex 21.7534 96.6847 1.90735e-07
    endloop
  endfacet
  facet normal 0 0 -1
    outer loop
      vertex 20.3966 95.7165 1.90735e-07
      vertex 21.5587 95.2051 1.90735e-07
      vertex 21.4169 94.993 1.90735e-07
    endloop
  endfacet
  facet normal -0 0 -1
    outer loop
      vertex 21.7534 96.6847 1.90735e-07
      vertex 20.4515 96.4146 1.90735e-07
      vertex 21.6714 96.9262 1.90735e-07
    endloop
  endfacet
  facet normal 0 0 -1
    outer loop
      vertex 20.3065 95.499 1.90735e-07
      vertex 21.4169 94.993 1.90735e-07
      vertex 21.2488 94.8012 1.90735e-07
    endloop
  endfacet
  facet normal 0 0 -1
    outer loop
      vertex 20.3966 96.6435 1.90735e-07
      vertex 21.6714 96.9262 1.90735e-07
      vertex 20.4515 96.4146 1.90735e-07
    endloop
  endfacet
  facet normal 0 0 -1
    outer loop
      vertex 20.3065 95.499 1.90735e-07
      vertex 21.2488 94.8012 1.90735e-07
      vertex 21.057 94.6331 1.90735e-07
    endloop
  endfacet
  facet normal -0 0 -1
    outer loop
      vertex 21.6714 96.9262 1.90735e-07
      vertex 20.3966 96.6435 1.90735e-07
      vertex 21.5587 97.1549 1.90735e-07
    endloop
  endfacet
  facet normal 0 0 -1
    outer loop
      vertex 20.1835 95.2983 1.90735e-07
      vertex 21.057 94.6331 1.90735e-07
      vertex 20.8449 94.4913 1.90735e-07
    endloop
  endfacet
  facet normal -0 0 -1
    outer loop
      vertex 21.5587 97.1549 1.90735e-07
      vertex 20.3966 96.6435 1.90735e-07
      vertex 21.4169 97.367 1.90735e-07
    endloop
  endfacet
  facet normal 0 0 -1
    outer loop
      vertex 20.1835 95.2983 1.90735e-07
      vertex 20.8449 94.4913 1.90735e-07
      vertex 20.6162 94.3785 1.90735e-07
    endloop
  endfacet
  facet normal 0 0 -1
    outer loop
      vertex 20.3065 96.861 1.90735e-07
      vertex 21.4169 97.367 1.90735e-07
      vertex 20.3966 96.6435 1.90735e-07
    endloop
  endfacet
  facet normal -0 0 -1
    outer loop
      vertex 21.4169 97.367 1.90735e-07
      vertex 20.3065 96.861 1.90735e-07
      vertex 21.2488 97.5588 1.90735e-07
    endloop
  endfacet
  facet normal 0 0 -1
    outer loop
      vertex 21.8032 95.9255 1.90735e-07
      vertex 20.4515 95.9454 1.90735e-07
      vertex 20.47 96.18 1.90735e-07
    endloop
  endfacet
  facet normal 0 0 -1
    outer loop
      vertex 21.6714 95.4338 1.90735e-07
      vertex 20.3966 95.7165 1.90735e-07
      vertex 20.4515 95.9454 1.90735e-07
    endloop
  endfacet
  facet normal 0 0 -1
    outer loop
      vertex 20.0307 95.1193 1.90735e-07
      vertex 20.6162 94.3785 1.90735e-07
      vertex 20.3747 94.2966 1.90735e-07
    endloop
  endfacet
  facet normal 0 0 -1
    outer loop
      vertex 21.4169 94.993 1.90735e-07
      vertex 20.3065 95.499 1.90735e-07
      vertex 20.3966 95.7165 1.90735e-07
    endloop
  endfacet
  facet normal 0 0 -1
    outer loop
      vertex 21.057 94.6331 1.90735e-07
      vertex 20.1835 95.2983 1.90735e-07
      vertex 20.3065 95.499 1.90735e-07
    endloop
  endfacet
  facet normal 0 0 -1
    outer loop
      vertex 19.8517 94.9665 1.90735e-07
      vertex 20.3747 94.2966 1.90735e-07
      vertex 20.1245 94.2468 1.90735e-07
    endloop
  endfacet
  facet normal 0 0 -1
    outer loop
      vertex 20.6162 94.3785 1.90735e-07
      vertex 20.0307 95.1193 1.90735e-07
      vertex 20.1835 95.2983 1.90735e-07
    endloop
  endfacet
  facet normal 0 0 -1
    outer loop
      vertex 19.8517 94.9665 1.90735e-07
      vertex 20.1245 94.2468 1.90735e-07
      vertex 19.8684 94.23 1.90735e-07
    endloop
  endfacet
  facet normal 0 0 -1
    outer loop
      vertex 20.3747 94.2966 1.90735e-07
      vertex 19.8517 94.9665 1.90735e-07
      vertex 20.0307 95.1193 1.90735e-07
    endloop
  endfacet
  facet normal 0 0 -1
    outer loop
      vertex 19.8684 94.23 1.90735e-07
      vertex 19.651 94.8435 1.90735e-07
      vertex 19.8517 94.9665 1.90735e-07
    endloop
  endfacet
  facet normal 0 0 -1
    outer loop
      vertex 19.8684 94.23 1.90735e-07
      vertex 19.4335 94.7534 1.90735e-07
      vertex 19.651 94.8435 1.90735e-07
    endloop
  endfacet
  facet normal 0 0 -1
    outer loop
      vertex 19.8684 94.23 1.90735e-07
      vertex 19.2047 94.6985 1.90735e-07
      vertex 19.4335 94.7534 1.90735e-07
    endloop
  endfacet
  facet normal 0 0 -1
    outer loop
      vertex 19.8684 94.23 1.90735e-07
      vertex 18.97 94.68 1.90735e-07
      vertex 19.2047 94.6985 1.90735e-07
    endloop
  endfacet
  facet normal 0 0 -1
    outer loop
      vertex 19.8684 94.23 1.90735e-07
      vertex 18.7353 94.6985 1.90735e-07
      vertex 18.97 94.68 1.90735e-07
    endloop
  endfacet
  facet normal 0 0 -1
    outer loop
      vertex 19.8684 94.23 1.90735e-07
      vertex 18.5065 94.7534 1.90735e-07
      vertex 18.7353 94.6985 1.90735e-07
    endloop
  endfacet
  facet normal 0 0 -1
    outer loop
      vertex 13.9601 96.0549 1.90735e-07
      vertex 17.47 96.18 1.90735e-07
      vertex 17.4885 95.9454 1.90735e-07
    endloop
  endfacet
  facet normal 0 0 -1
    outer loop
      vertex 13.9308 95.9328 1.90735e-07
      vertex 17.4885 95.9454 1.90735e-07
      vertex 17.5434 95.7165 1.90735e-07
    endloop
  endfacet
  facet normal 0 0 -1
    outer loop
      vertex 13.8828 95.8168 1.90735e-07
      vertex 17.5434 95.7165 1.90735e-07
      vertex 17.6335 95.499 1.90735e-07
    endloop
  endfacet
  facet normal 0 0 -1
    outer loop
      vertex 13.8172 95.7098 1.90735e-07
      vertex 17.6335 95.499 1.90735e-07
      vertex 17.7565 95.2983 1.90735e-07
    endloop
  endfacet
  facet normal 0 0 -1
    outer loop
      vertex 12.8716 94.23 1.90735e-07
      vertex 17.7565 95.2983 1.90735e-07
      vertex 17.9093 95.1193 1.90735e-07
    endloop
  endfacet
  facet normal 0 0 -1
    outer loop
      vertex 12.8716 94.23 1.90735e-07
      vertex 17.9093 95.1193 1.90735e-07
      vertex 18.0883 94.9665 1.90735e-07
    endloop
  endfacet
  facet normal 0 0 -1
    outer loop
      vertex 12.8716 94.23 1.90735e-07
      vertex 18.0883 94.9665 1.90735e-07
      vertex 18.289 94.8435 1.90735e-07
    endloop
  endfacet
  facet normal 0 0 -1
    outer loop
      vertex 12.8716 94.23 1.90735e-07
      vertex 18.289 94.8435 1.90735e-07
      vertex 18.5065 94.7534 1.90735e-07
    endloop
  endfacet
  facet normal 0 0 -1
    outer loop
      vertex 12.8716 94.23 1.90735e-07
      vertex 18.5065 94.7534 1.90735e-07
      vertex 19.8684 94.23 1.90735e-07
    endloop
  endfacet
  facet normal -0 0 -1
    outer loop
      vertex 17.47 96.18 1.90735e-07
      vertex 13.9601 96.0549 1.90735e-07
      vertex 13.97 96.18 1.90735e-07
    endloop
  endfacet
  facet normal -0 0 -1
    outer loop
      vertex 17.4885 95.9454 1.90735e-07
      vertex 13.9308 95.9328 1.90735e-07
      vertex 13.9601 96.0549 1.90735e-07
    endloop
  endfacet
  facet normal 0 0 -1
    outer loop
      vertex 17.5434 95.7165 1.90735e-07
      vertex 13.8828 95.8168 1.90735e-07
      vertex 13.9308 95.9328 1.90735e-07
    endloop
  endfacet
  facet normal 0 0 -1
    outer loop
      vertex 17.6335 95.499 1.90735e-07
      vertex 13.8172 95.7098 1.90735e-07
      vertex 13.8828 95.8168 1.90735e-07
    endloop
  endfacet
  facet normal 0 0 -1
    outer loop
      vertex 17.7565 95.2983 1.90735e-07
      vertex 13.7357 95.6143 1.90735e-07
      vertex 13.8172 95.7098 1.90735e-07
    endloop
  endfacet
  facet normal -0 0 -1
    outer loop
      vertex 17.7565 95.2983 1.90735e-07
      vertex 12.8716 94.23 1.90735e-07
      vertex 13.7357 95.6143 1.90735e-07
    endloop
  endfacet
  facet normal 0 0 -1
    outer loop
      vertex 13.7357 95.6143 1.90735e-07
      vertex 12.8716 94.23 1.90735e-07
      vertex 13.6402 95.5328 1.90735e-07
    endloop
  endfacet
  facet normal 0 0 -1
    outer loop
      vertex 13.6402 95.5328 1.90735e-07
      vertex 12.8716 94.23 1.90735e-07
      vertex 13.5332 95.4672 1.90735e-07
    endloop
  endfacet
  facet normal 0 0 -1
    outer loop
      vertex 13.5332 95.4672 1.90735e-07
      vertex 12.8716 94.23 1.90735e-07
      vertex 13.4172 95.4192 1.90735e-07
    endloop
  endfacet
  facet normal 0 0 -1
    outer loop
      vertex 13.4172 95.4192 1.90735e-07
      vertex 12.8716 94.23 1.90735e-07
      vertex 13.2951 95.3898 1.90735e-07
    endloop
  endfacet
  facet normal 0 0 -1
    outer loop
      vertex 13.2951 95.3898 1.90735e-07
      vertex 12.8716 94.23 1.90735e-07
      vertex 13.17 95.38 1.90735e-07
    endloop
  endfacet
  facet normal -0 0 -1
    outer loop
      vertex 13.17 95.38 1.90735e-07
      vertex 12.8716 94.23 1.90735e-07
      vertex 13.0449 95.3898 1.90735e-07
    endloop
  endfacet
  facet normal 0 0 -1
    outer loop
      vertex 12.8716 94.23 1.90735e-07
      vertex 12.9228 95.4192 1.90735e-07
      vertex 13.0449 95.3898 1.90735e-07
    endloop
  endfacet
  facet normal 0 0 -1
    outer loop
      vertex 12.6155 94.2468 1.90735e-07
      vertex 12.9228 95.4192 1.90735e-07
      vertex 12.8716 94.23 1.90735e-07
    endloop
  endfacet
  facet normal -0 0 -1
    outer loop
      vertex 12.9228 95.4192 1.90735e-07
      vertex 12.6155 94.2468 1.90735e-07
      vertex 12.8068 95.4672 1.90735e-07
    endloop
  endfacet
  facet normal 0 0 -1
    outer loop
      vertex 12.3653 94.2966 1.90735e-07
      vertex 12.8068 95.4672 1.90735e-07
      vertex 12.6155 94.2468 1.90735e-07
    endloop
  endfacet
  facet normal 0 0 -1
    outer loop
      vertex 12.1238 94.3785 1.90735e-07
      vertex 12.8068 95.4672 1.90735e-07
      vertex 12.3653 94.2966 1.90735e-07
    endloop
  endfacet
  facet normal -0 0 -1
    outer loop
      vertex 12.8068 95.4672 1.90735e-07
      vertex 12.1238 94.3785 1.90735e-07
      vertex 12.6998 95.5328 1.90735e-07
    endloop
  endfacet
  facet normal 0 0 -1
    outer loop
      vertex 11.8951 94.4913 1.90735e-07
      vertex 12.6998 95.5328 1.90735e-07
      vertex 12.1238 94.3785 1.90735e-07
    endloop
  endfacet
  facet normal -0 0 -1
    outer loop
      vertex 12.6998 95.5328 1.90735e-07
      vertex 11.8951 94.4913 1.90735e-07
      vertex 12.6043 95.6143 1.90735e-07
    endloop
  endfacet
  facet normal 0 0 -1
    outer loop
      vertex 11.683 94.6331 1.90735e-07
      vertex 12.6043 95.6143 1.90735e-07
      vertex 11.8951 94.4913 1.90735e-07
    endloop
  endfacet
  facet normal 0 0 -1
    outer loop
      vertex 11.4912 94.8012 1.90735e-07
      vertex 12.5228 95.7098 1.90735e-07
      vertex 11.683 94.6331 1.90735e-07
    endloop
  endfacet
  facet normal -0 0 -1
    outer loop
      vertex 12.6043 95.6143 1.90735e-07
      vertex 11.683 94.6331 1.90735e-07
      vertex 12.5228 95.7098 1.90735e-07
    endloop
  endfacet
  facet normal -0 0 -1
    outer loop
      vertex 21.2488 97.5588 1.90735e-07
      vertex 20.3065 96.861 1.90735e-07
      vertex 21.057 97.7269 1.90735e-07
    endloop
  endfacet
  facet normal 0 0 -1
    outer loop
      vertex 20.1835 97.0617 1.90735e-07
      vertex 21.057 97.7269 1.90735e-07
      vertex 20.3065 96.861 1.90735e-07
    endloop
  endfacet
  facet normal -0 0 -1
    outer loop
      vertex 21.057 97.7269 1.90735e-07
      vertex 20.1835 97.0617 1.90735e-07
      vertex 20.8449 97.8687 1.90735e-07
    endloop
  endfacet
  facet normal -0 0 -1
    outer loop
      vertex 20.8449 97.8687 1.90735e-07
      vertex 20.1835 97.0617 1.90735e-07
      vertex 20.6162 97.9814 1.90735e-07
    endloop
  endfacet
  facet normal 0 0 -1
    outer loop
      vertex 20.0307 97.2407 1.90735e-07
      vertex 20.6162 97.9814 1.90735e-07
      vertex 20.1835 97.0617 1.90735e-07
    endloop
  endfacet
  facet normal -0 0 -1
    outer loop
      vertex 20.6162 97.9814 1.90735e-07
      vertex 20.0307 97.2407 1.90735e-07
      vertex 20.3747 98.0634 1.90735e-07
    endloop
  endfacet
  facet normal 0 0 -1
    outer loop
      vertex 19.8517 97.3935 1.90735e-07
      vertex 20.3747 98.0634 1.90735e-07
      vertex 20.0307 97.2407 1.90735e-07
    endloop
  endfacet
  facet normal -0 0 -1
    outer loop
      vertex 20.3747 98.0634 1.90735e-07
      vertex 19.8517 97.3935 1.90735e-07
      vertex 20.1245 98.1132 1.90735e-07
    endloop
  endfacet
  facet normal -0 0 -1
    outer loop
      vertex 20.1245 98.1132 1.90735e-07
      vertex 19.8517 97.3935 1.90735e-07
      vertex 19.8684 98.13 1.90735e-07
    endloop
  endfacet
  facet normal 0 0 -1
    outer loop
      vertex 19.651 97.5165 1.90735e-07
      vertex 19.8684 98.13 1.90735e-07
      vertex 19.8517 97.3935 1.90735e-07
    endloop
  endfacet
  facet normal 0 0 -1
    outer loop
      vertex 19.4335 97.6066 1.90735e-07
      vertex 19.8684 98.13 1.90735e-07
      vertex 19.651 97.5165 1.90735e-07
    endloop
  endfacet
  facet normal 0 0 -1
    outer loop
      vertex 19.2047 97.6615 1.90735e-07
      vertex 19.8684 98.13 1.90735e-07
      vertex 19.4335 97.6066 1.90735e-07
    endloop
  endfacet
  facet normal 0 0 -1
    outer loop
      vertex 18.97 97.68 1.90735e-07
      vertex 19.8684 98.13 1.90735e-07
      vertex 19.2047 97.6615 1.90735e-07
    endloop
  endfacet
  facet normal 0 0 -1
    outer loop
      vertex 18.7353 97.6615 1.90735e-07
      vertex 19.8684 98.13 1.90735e-07
      vertex 18.97 97.68 1.90735e-07
    endloop
  endfacet
  facet normal 0 0 -1
    outer loop
      vertex 18.5065 97.6066 1.90735e-07
      vertex 19.8684 98.13 1.90735e-07
      vertex 18.7353 97.6615 1.90735e-07
    endloop
  endfacet
  facet normal 0 0 -1
    outer loop
      vertex 13.9601 96.3051 1.90735e-07
      vertex 17.47 96.18 1.90735e-07
      vertex 13.97 96.18 1.90735e-07
    endloop
  endfacet
  facet normal 0 0 -1
    outer loop
      vertex 17.47 96.18 1.90735e-07
      vertex 13.9601 96.3051 1.90735e-07
      vertex 17.4885 96.4146 1.90735e-07
    endloop
  endfacet
  facet normal 0 0 -1
    outer loop
      vertex 13.9308 96.4272 1.90735e-07
      vertex 17.4885 96.4146 1.90735e-07
      vertex 13.9601 96.3051 1.90735e-07
    endloop
  endfacet
  facet normal 0 0 -1
    outer loop
      vertex 17.4885 96.4146 1.90735e-07
      vertex 13.9308 96.4272 1.90735e-07
      vertex 17.5434 96.6435 1.90735e-07
    endloop
  endfacet
  facet normal 0 0 -1
    outer loop
      vertex 13.8828 96.5432 1.90735e-07
      vertex 17.5434 96.6435 1.90735e-07
      vertex 13.9308 96.4272 1.90735e-07
    endloop
  endfacet
  facet normal -0 0 -1
    outer loop
      vertex 17.5434 96.6435 1.90735e-07
      vertex 13.8828 96.5432 1.90735e-07
      vertex 17.6335 96.861 1.90735e-07
    endloop
  endfacet
  facet normal 0 0 -1
    outer loop
      vertex 13.8172 96.6502 1.90735e-07
      vertex 17.6335 96.861 1.90735e-07
      vertex 13.8828 96.5432 1.90735e-07
    endloop
  endfacet
  facet normal -0 0 -1
    outer loop
      vertex 17.6335 96.861 1.90735e-07
      vertex 13.8172 96.6502 1.90735e-07
      vertex 17.7565 97.0617 1.90735e-07
    endloop
  endfacet
  facet normal 0 0 -1
    outer loop
      vertex 13.7357 96.7457 1.90735e-07
      vertex 17.7565 97.0617 1.90735e-07
      vertex 13.8172 96.6502 1.90735e-07
    endloop
  endfacet
  facet normal 0 0 -1
    outer loop
      vertex 12.8716 98.13 1.90735e-07
      vertex 17.7565 97.0617 1.90735e-07
      vertex 13.7357 96.7457 1.90735e-07
    endloop
  endfacet
  facet normal 0 0 -1
    outer loop
      vertex 17.7565 97.0617 1.90735e-07
      vertex 12.8716 98.13 1.90735e-07
      vertex 17.9093 97.2407 1.90735e-07
    endloop
  endfacet
  facet normal 0 0 -1
    outer loop
      vertex 17.9093 97.2407 1.90735e-07
      vertex 12.8716 98.13 1.90735e-07
      vertex 18.0883 97.3935 1.90735e-07
    endloop
  endfacet
  facet normal 0 0 -1
    outer loop
      vertex 18.0883 97.3935 1.90735e-07
      vertex 12.8716 98.13 1.90735e-07
      vertex 18.289 97.5165 1.90735e-07
    endloop
  endfacet
  facet normal 0 0 -1
    outer loop
      vertex 18.289 97.5165 1.90735e-07
      vertex 12.8716 98.13 1.90735e-07
      vertex 18.5065 97.6066 1.90735e-07
    endloop
  endfacet
  facet normal 0 0 -1
    outer loop
      vertex 12.8716 98.13 1.90735e-07
      vertex 13.7357 96.7457 1.90735e-07
      vertex 13.6402 96.8272 1.90735e-07
    endloop
  endfacet
  facet normal 0 0 -1
    outer loop
      vertex 12.8716 98.13 1.90735e-07
      vertex 13.6402 96.8272 1.90735e-07
      vertex 13.5332 96.8928 1.90735e-07
    endloop
  endfacet
  facet normal 0 0 -1
    outer loop
      vertex 12.8716 98.13 1.90735e-07
      vertex 13.5332 96.8928 1.90735e-07
      vertex 13.4172 96.9408 1.90735e-07
    endloop
  endfacet
  facet normal 0 0 -1
    outer loop
      vertex 12.8716 98.13 1.90735e-07
      vertex 13.4172 96.9408 1.90735e-07
      vertex 13.2951 96.9702 1.90735e-07
    endloop
  endfacet
  facet normal 0 0 -1
    outer loop
      vertex 12.8716 98.13 1.90735e-07
      vertex 13.2951 96.9702 1.90735e-07
      vertex 13.17 96.98 1.90735e-07
    endloop
  endfacet
  facet normal 0 0 -1
    outer loop
      vertex 12.8716 98.13 1.90735e-07
      vertex 13.17 96.98 1.90735e-07
      vertex 13.0449 96.9702 1.90735e-07
    endloop
  endfacet
  facet normal 0 0 -1
    outer loop
      vertex 18.5065 97.6066 1.90735e-07
      vertex 12.8716 98.13 1.90735e-07
      vertex 19.8684 98.13 1.90735e-07
    endloop
  endfacet
  facet normal 0 0 -1
    outer loop
      vertex 12.9228 96.9408 1.90735e-07
      vertex 12.8716 98.13 1.90735e-07
      vertex 13.0449 96.9702 1.90735e-07
    endloop
  endfacet
  facet normal 0 0 -1
    outer loop
      vertex 12.6155 98.1132 1.90735e-07
      vertex 12.9228 96.9408 1.90735e-07
      vertex 12.8068 96.8928 1.90735e-07
    endloop
  endfacet
  facet normal 0 0 -1
    outer loop
      vertex 12.1238 97.9814 1.90735e-07
      vertex 12.8068 96.8928 1.90735e-07
      vertex 12.6998 96.8272 1.90735e-07
    endloop
  endfacet
  facet normal 0 0 -1
    outer loop
      vertex 12.9228 96.9408 1.90735e-07
      vertex 12.6155 98.1132 1.90735e-07
      vertex 12.8716 98.13 1.90735e-07
    endloop
  endfacet
  facet normal 0 0 -1
    outer loop
      vertex 11.8951 97.8687 1.90735e-07
      vertex 12.6998 96.8272 1.90735e-07
      vertex 12.6043 96.7457 1.90735e-07
    endloop
  endfacet
  facet normal 0 0 -1
    outer loop
      vertex 11.683 97.7269 1.90735e-07
      vertex 12.6043 96.7457 1.90735e-07
      vertex 12.5228 96.6502 1.90735e-07
    endloop
  endfacet
  facet normal 0 0 -1
    outer loop
      vertex 11.3231 97.367 1.90735e-07
      vertex 12.5228 96.6502 1.90735e-07
      vertex 12.4572 96.5432 1.90735e-07
    endloop
  endfacet
  facet normal 0 0 -1
    outer loop
      vertex 11.1813 97.1549 1.90735e-07
      vertex 12.4572 96.5432 1.90735e-07
      vertex 12.4092 96.4272 1.90735e-07
    endloop
  endfacet
  facet normal 0 0 -1
    outer loop
      vertex 10.9866 96.6847 1.90735e-07
      vertex 12.4092 96.4272 1.90735e-07
      vertex 12.3798 96.3051 1.90735e-07
    endloop
  endfacet
  facet normal 0 0 -1
    outer loop
      vertex 12.8068 96.8928 1.90735e-07
      vertex 12.3653 98.0634 1.90735e-07
      vertex 12.6155 98.1132 1.90735e-07
    endloop
  endfacet
  facet normal 0 0 -1
    outer loop
      vertex 10.9368 96.4345 1.90735e-07
      vertex 12.3798 96.3051 1.90735e-07
      vertex 12.37 96.18 1.90735e-07
    endloop
  endfacet
  facet normal 0 0 -1
    outer loop
      vertex 11.3231 94.993 1.90735e-07
      vertex 12.5228 95.7098 1.90735e-07
      vertex 11.4912 94.8012 1.90735e-07
    endloop
  endfacet
  facet normal -0 0 -1
    outer loop
      vertex 12.5228 95.7098 1.90735e-07
      vertex 11.3231 94.993 1.90735e-07
      vertex 12.4572 95.8168 1.90735e-07
    endloop
  endfacet
  facet normal 0 0 -1
    outer loop
      vertex 12.8068 96.8928 1.90735e-07
      vertex 12.1238 97.9814 1.90735e-07
      vertex 12.3653 98.0634 1.90735e-07
    endloop
  endfacet
  facet normal 0 0 -1
    outer loop
      vertex 11.1813 95.2051 1.90735e-07
      vertex 12.4572 95.8168 1.90735e-07
      vertex 11.3231 94.993 1.90735e-07
    endloop
  endfacet
  facet normal 0 0 -1
    outer loop
      vertex 12.6998 96.8272 1.90735e-07
      vertex 11.8951 97.8687 1.90735e-07
      vertex 12.1238 97.9814 1.90735e-07
    endloop
  endfacet
  facet normal -0 0 -1
    outer loop
      vertex 12.4572 95.8168 1.90735e-07
      vertex 11.1813 95.2051 1.90735e-07
      vertex 12.4092 95.9328 1.90735e-07
    endloop
  endfacet
  facet normal 0 0 -1
    outer loop
      vertex 12.6043 96.7457 1.90735e-07
      vertex 11.683 97.7269 1.90735e-07
      vertex 11.8951 97.8687 1.90735e-07
    endloop
  endfacet
  facet normal 0 0 -1
    outer loop
      vertex 11.0685 95.4338 1.90735e-07
      vertex 12.4092 95.9328 1.90735e-07
      vertex 11.1813 95.2051 1.90735e-07
    endloop
  endfacet
  facet normal 0 0 -1
    outer loop
      vertex 12.5228 96.6502 1.90735e-07
      vertex 11.4912 97.5588 1.90735e-07
      vertex 11.683 97.7269 1.90735e-07
    endloop
  endfacet
  facet normal 0 0 -1
    outer loop
      vertex 10.9866 95.6753 1.90735e-07
      vertex 12.4092 95.9328 1.90735e-07
      vertex 11.0685 95.4338 1.90735e-07
    endloop
  endfacet
  facet normal 0 0 -1
    outer loop
      vertex 12.5228 96.6502 1.90735e-07
      vertex 11.3231 97.367 1.90735e-07
      vertex 11.4912 97.5588 1.90735e-07
    endloop
  endfacet
  facet normal -0 0 -1
    outer loop
      vertex 12.4092 95.9328 1.90735e-07
      vertex 10.9866 95.6753 1.90735e-07
      vertex 12.3798 96.0549 1.90735e-07
    endloop
  endfacet
  facet normal 0 0 -1
    outer loop
      vertex 12.4572 96.5432 1.90735e-07
      vertex 11.1813 97.1549 1.90735e-07
      vertex 11.3231 97.367 1.90735e-07
    endloop
  endfacet
  facet normal 0 0 -1
    outer loop
      vertex 10.9368 95.9255 1.90735e-07
      vertex 12.3798 96.0549 1.90735e-07
      vertex 10.9866 95.6753 1.90735e-07
    endloop
  endfacet
  facet normal 0 0 -1
    outer loop
      vertex 12.4092 96.4272 1.90735e-07
      vertex 11.0685 96.9262 1.90735e-07
      vertex 11.1813 97.1549 1.90735e-07
    endloop
  endfacet
  facet normal -0 0 -1
    outer loop
      vertex 12.3798 96.0549 1.90735e-07
      vertex 10.9368 95.9255 1.90735e-07
      vertex 12.37 96.18 1.90735e-07
    endloop
  endfacet
  facet normal 0 0 -1
    outer loop
      vertex 12.4092 96.4272 1.90735e-07
      vertex 10.9866 96.6847 1.90735e-07
      vertex 11.0685 96.9262 1.90735e-07
    endloop
  endfacet
  facet normal 0 0 -1
    outer loop
      vertex 10.9201 96.18 1.90735e-07
      vertex 12.37 96.18 1.90735e-07
      vertex 10.9368 95.9255 1.90735e-07
    endloop
  endfacet
  facet normal 0 0 -1
    outer loop
      vertex 12.3798 96.3051 1.90735e-07
      vertex 10.9368 96.4345 1.90735e-07
      vertex 10.9866 96.6847 1.90735e-07
    endloop
  endfacet
  facet normal 0 0 -1
    outer loop
      vertex 12.37 96.18 1.90735e-07
      vertex 10.9201 96.18 1.90735e-07
      vertex 10.9368 96.4345 1.90735e-07
    endloop
  endfacet
  facet normal 0.997854 -0.065478 0
    outer loop
      vertex 21.8032 95.9255 0.600001
      vertex 21.8199 96.18 1.90735e-07
      vertex 21.8199 96.18 0.600001
    endloop
  endfacet
  facet normal 0.997854 -0.065478 0
    outer loop
      vertex 21.8199 96.18 1.90735e-07
      vertex 21.8032 95.9255 0.600001
      vertex 21.8032 95.9255 1.90735e-07
    endloop
  endfacet
  facet normal 0.997854 0.065478 0
    outer loop
      vertex 21.8199 96.18 0.600001
      vertex 21.8032 96.4345 1.90735e-07
      vertex 21.8032 96.4345 0.600001
    endloop
  endfacet
  facet normal 0.997854 0.065478 0
    outer loop
      vertex 21.8032 96.4345 1.90735e-07
      vertex 21.8199 96.18 0.600001
      vertex 21.8199 96.18 1.90735e-07
    endloop
  endfacet
endsolid OpenSCAD_Model
