solid OpenSCAD_Model
  facet normal -1 0 0
    outer loop
      vertex -6.4 -1.9 0.8
      vertex -6.4 1.9 1.8
      vertex -6.4 1.9 0.8
    endloop
  endfacet
  facet normal -1 -0 0
    outer loop
      vertex -6.4 1.9 1.8
      vertex -6.4 -1.9 0.8
      vertex -6.4 -1.9 1.8
    endloop
  endfacet
  facet normal 0 -1 0
    outer loop
      vertex -6.4 -1.9 0.8
      vertex 6.4 -1.9 1.8
      vertex -6.4 -1.9 1.8
    endloop
  endfacet
  facet normal 0 -1 -0
    outer loop
      vertex 6.4 -1.9 1.8
      vertex -6.4 -1.9 0.8
      vertex 6.4 -1.9 0.8
    endloop
  endfacet
  facet normal 1 -0 0
    outer loop
      vertex 6.4 -1.9 1.8
      vertex 6.4 1.9 0.8
      vertex 6.4 1.9 1.8
    endloop
  endfacet
  facet normal 1 0 0
    outer loop
      vertex 6.4 1.9 0.8
      vertex 6.4 -1.9 1.8
      vertex 6.4 -1.9 0.8
    endloop
  endfacet
  facet normal -0 0 1
    outer loop
      vertex -6.4 1.9 1.8
      vertex 6.4 -1.9 1.8
      vertex 6.4 1.9 1.8
    endloop
  endfacet
  facet normal 0 0 1
    outer loop
      vertex 6.4 -1.9 1.8
      vertex -6.4 1.9 1.8
      vertex -6.4 -1.9 1.8
    endloop
  endfacet
  facet normal 0 1 -0
    outer loop
      vertex 6.4 1.9 0.8
      vertex -6.4 1.9 1.8
      vertex 6.4 1.9 1.8
    endloop
  endfacet
  facet normal 0 1 0
    outer loop
      vertex -6.4 1.9 1.8
      vertex 6.4 1.9 0.8
      vertex -6.4 1.9 0.8
    endloop
  endfacet
  facet normal 0 0 -1
    outer loop
      vertex -7.9 -3.1 7.62939e-07
      vertex 7.9 3.1 7.62939e-07
      vertex 7.9 -3.1 7.62939e-07
    endloop
  endfacet
  facet normal -0 0 -1
    outer loop
      vertex 7.9 3.1 7.62939e-07
      vertex -7.9 -3.1 7.62939e-07
      vertex -7.9 3.1 7.62939e-07
    endloop
  endfacet
  facet normal -1 0 0
    outer loop
      vertex -7.9 -3.1 7.62939e-07
      vertex -7.9 3.1 0.8
      vertex -7.9 3.1 7.62939e-07
    endloop
  endfacet
  facet normal -1 -0 0
    outer loop
      vertex -7.9 3.1 0.8
      vertex -7.9 -3.1 7.62939e-07
      vertex -7.9 -3.1 0.8
    endloop
  endfacet
  facet normal 0 -1 0
    outer loop
      vertex -7.9 -3.1 7.62939e-07
      vertex 7.9 -3.1 0.8
      vertex -7.9 -3.1 0.8
    endloop
  endfacet
  facet normal 0 -1 -0
    outer loop
      vertex 7.9 -3.1 0.8
      vertex -7.9 -3.1 7.62939e-07
      vertex 7.9 -3.1 7.62939e-07
    endloop
  endfacet
  facet normal 1 -0 0
    outer loop
      vertex 7.9 -3.1 0.8
      vertex 7.9 3.1 7.62939e-07
      vertex 7.9 3.1 0.8
    endloop
  endfacet
  facet normal 1 0 0
    outer loop
      vertex 7.9 3.1 7.62939e-07
      vertex 7.9 -3.1 0.8
      vertex 7.9 -3.1 7.62939e-07
    endloop
  endfacet
  facet normal 0 0 1
    outer loop
      vertex 7.9 3.1 0.8
      vertex 6.4 1.9 0.8
      vertex 7.9 -3.1 0.8
    endloop
  endfacet
  facet normal 0 0 1
    outer loop
      vertex 7.9 3.1 0.8
      vertex -6.4 1.9 0.8
      vertex 6.4 1.9 0.8
    endloop
  endfacet
  facet normal 0 0 1
    outer loop
      vertex -6.4 1.9 0.8
      vertex -7.9 3.1 0.8
      vertex -6.4 -1.9 0.8
    endloop
  endfacet
  facet normal -0 0 1
    outer loop
      vertex -7.9 3.1 0.8
      vertex -6.4 1.9 0.8
      vertex 7.9 3.1 0.8
    endloop
  endfacet
  facet normal -0 0 1
    outer loop
      vertex 6.4 -1.9 0.8
      vertex 7.9 -3.1 0.8
      vertex 6.4 1.9 0.8
    endloop
  endfacet
  facet normal -0 0 1
    outer loop
      vertex -6.4 -1.9 0.8
      vertex 7.9 -3.1 0.8
      vertex 6.4 -1.9 0.8
    endloop
  endfacet
  facet normal 0 0 1
    outer loop
      vertex -6.4 -1.9 0.8
      vertex -7.9 -3.1 0.8
      vertex 7.9 -3.1 0.8
    endloop
  endfacet
  facet normal 0 0 1
    outer loop
      vertex -7.9 -3.1 0.8
      vertex -6.4 -1.9 0.8
      vertex -7.9 3.1 0.8
    endloop
  endfacet
  facet normal 0 1 -0
    outer loop
      vertex 7.9 3.1 7.62939e-07
      vertex -7.9 3.1 0.8
      vertex 7.9 3.1 0.8
    endloop
  endfacet
  facet normal 0 1 0
    outer loop
      vertex -7.9 3.1 0.8
      vertex 7.9 3.1 7.62939e-07
      vertex -7.9 3.1 7.62939e-07
    endloop
  endfacet
endsolid OpenSCAD_Model
